<?xml version="1.0" standalone="no"?>
<!DOCTYPE svg PUBLIC "-//W3C//DTD SVG 1.1//EN" "http://www.w3.org/Graphics/SVG/1.1/DTD/svg11.dtd" >
<svg xmlns="http://www.w3.org/2000/svg" xmlns:xlink="http://www.w3.org/1999/xlink" version="1.1">
<metadata></metadata>
<defs>
<font id="laborantineregular" horiz-adv-x="1073" >
<font-face units-per-em="2048" ascent="1536" descent="-512" />
<missing-glyph horiz-adv-x="641" />
<glyph horiz-adv-x="0" />
<glyph horiz-adv-x="682" />
<glyph unicode=" "  horiz-adv-x="641" />
<glyph unicode="&#x09;" horiz-adv-x="641" />
<glyph unicode="&#xa0;" horiz-adv-x="641" />
<glyph unicode="!" horiz-adv-x="452" d="M309 414h-309v1032h309v-1032zM309 0h-309v309h309v-309z" />
<glyph unicode="&#x22;" horiz-adv-x="786" d="M0 971v475h270v-475h-270zM393 971v475h250v-475h-250z" />
<glyph unicode="&#x26;" horiz-adv-x="1341" d="M815 813l383 -813h-342l-63 133q-136 -133 -328 -133t-328.5 136t-136.5 329q0 53 16 119q9 39 31 82q36 74 84 122q-80 111 -80 244q0 100 43.5 185.5t118.5 144.5q110 84 252 84q37 0 53 -2q153 -20 257 -137.5t104 -274.5q0 -121 -64 -219zM362 1047v-15q0 -55 48 -86 q29 -16 55 -16q43 0 73.5 29.5t30.5 72.5t-30.5 74t-73.5 31q-41 0 -69.5 -25.5t-33.5 -64.5zM465 309q66 0 111 45t45 111q0 22 -15 65l-2 2q-16 32 -39 52q-43 37 -100 37q-55 0 -98 -37q-58 -51 -58 -119q0 -66 45 -111t111 -45z" />
<glyph unicode="'" horiz-adv-x="434" d="M0 971v475h291v-475h-291z" />
<glyph unicode="(" horiz-adv-x="761" d="M0 0v1446h618v-309h-309v-828h309v-309h-618z" />
<glyph unicode=")" horiz-adv-x="763" d="M621 1446v-1446h-621v309h311v828h-311v309h621z" />
<glyph unicode="+" horiz-adv-x="1589" d="M879 877h567v-310h-567v-567h-312v567h-567v310h567v569h312v-569z" />
<glyph unicode="," horiz-adv-x="505" d="M0 311h362l-362 -465v465z" />
<glyph unicode="-" horiz-adv-x="786" d="M0 621v309h643v-309h-643z" />
<glyph unicode="." horiz-adv-x="452" d="M309 311v-311h-309v311h309z" />
<glyph unicode="/" horiz-adv-x="1167" d="M0 0l682 1446h342l-682 -1446h-342z" />
<glyph unicode="0" horiz-adv-x="1589" d="M723 1448q197 0 363.5 -96.5t263 -263t96.5 -363.5q0 -198 -96.5 -365t-263 -263.5t-363.5 -96.5t-363.5 96.5t-263 263.5t-96.5 365q0 197 96.5 363.5t263 263t363.5 96.5zM723 311q171 0 292.5 121.5t121.5 292.5q0 170 -122 291t-292 121q-172 0 -293 -121t-121 -291 q0 -172 121 -293t293 -121z" />
<glyph unicode="1" horiz-adv-x="686" d="M0 713v379l543 366v-1458h-312v870z" />
<glyph unicode="2" horiz-adv-x="983" d="M840 309v-309h-840l481 895q43 78 43 135q0 48 -26 77.5t-76 29.5q-111 0 -111 -136v-51h-309v51q0 198 117.5 321.5t314.5 123.5q187 0 295.5 -115.5t108.5 -283.5q0 -81 -25 -150.5t-74 -159.5l-239 -428h340z" />
<glyph unicode="3" horiz-adv-x="1138" d="M61 1446h934l-297 -498q295 -123 295 -432q0 -143 -58.5 -259.5t-172.5 -186.5t-262 -70q-255 0 -377.5 138t-122.5 378h303q0 -94 46.5 -150.5t146.5 -56.5q92 0 139 57.5t47 149.5q0 91 -58 149t-163 58h-213l256 414h-443v309z" />
<glyph unicode="4" horiz-adv-x="1277" d="M981 465h154v-309h-154v-156h-311v156h-670l608 1290h373v-981zM487 465h183v389z" />
<glyph unicode="5" horiz-adv-x="1167" d="M1024 514q0 -227 -142 -370.5t-374 -143.5q-233 0 -356 133.5t-123 349.5h307q0 -73 50 -123.5t128 -50.5q96 0 147.5 47t51.5 136q0 88 -62.5 141t-175.5 53h-432v760h877v-309h-568v-142h105q101 0 186 -17t156 -54.5t120.5 -93t77 -136t27.5 -180.5z" />
<glyph unicode="6" horiz-adv-x="1175" d="M733 1446l-194 -414q158 -12 270.5 -82.5t167.5 -181.5t55 -252q0 -140 -69 -259t-188 -188t-259 -69q-144 0 -262.5 69t-186 187t-67.5 260q0 50 7.5 93t29.5 99.5t39 93.5t61.5 125.5t71.5 143.5l182 375h342zM516 309q86 0 146.5 60.5t60.5 146.5t-60.5 146.5 t-146.5 60.5q-87 0 -147 -60t-60 -147q0 -86 60.5 -146.5t146.5 -60.5z" />
<glyph unicode="7" horiz-adv-x="1177" d="M0 1446h1034l-684 -1446h-340l535 1137h-545v309z" />
<glyph unicode="8" d="M799 788q131 -134 131 -323q0 -192 -136.5 -328.5t-328.5 -136.5t-328.5 136.5t-136.5 328.5q0 189 131 323q-80 118 -80 244q0 172 121 293t293 121q171 0 292.5 -121.5t121.5 -292.5q0 -126 -80 -244zM465 1137q-43 0 -74 -31t-31 -74q0 -41 31 -71.5t74 -30.5 q42 0 72 30t30 72q0 43 -30 74t-72 31zM465 309q66 0 111 45t45 111t-45 111t-111 45t-111 -45t-45 -111t45 -111t111 -45z" />
<glyph unicode="9" horiz-adv-x="1175" d="M299 0l195 414q-223 9 -358.5 155.5t-135.5 360.5q0 140 69 259t188 188t259 69q220 0 368 -145t148 -363q0 -49 -9.5 -101t-21 -91t-37.5 -99.5t-41 -91t-52.5 -103t-51.5 -100.5l-178 -352h-342zM516 1137q-86 0 -146.5 -60.5t-60.5 -146.5q0 -87 58.5 -147t148.5 -60 q88 0 147.5 57.5t59.5 149.5q0 86 -60.5 146.5t-146.5 60.5z" />
<glyph unicode=":" horiz-adv-x="452" d="M309 311v-311h-309v311h309zM309 930v-309h-309v309h309z" />
<glyph unicode=";" horiz-adv-x="452" d="M309 930v-309h-309v309h309zM0 311h362l-362 -465v465z" />
<glyph unicode="=" horiz-adv-x="970" d="M0 930h827v-309h-827v309zM0 309h827v-309h-827v309z" />
<glyph unicode="?" horiz-adv-x="1163" d="M1010 1034q10 -58 10 -104q0 -114 -43 -207q-41 -92 -113 -162t-164 -108q-98 -39 -196 -39h-156v309h156q86 0 146.5 61t60.5 146q0 23 -11 65q-13 30 -18 39q-26 48 -73.5 75.5t-104.5 27.5q-116 0 -180 -103h-326q37 179 178 296.5t328 117.5t328 -117.5t178 -296.5z M348 0v311h309v-311h-309z" />
<glyph unicode="@" horiz-adv-x="1507" d="M0 -266v1712h1364v-1270h-846v825h537v177h-746v-1178h1055v-266h-1364zM827 465h228v248h-228v-248z" />
<glyph unicode="A" horiz-adv-x="1554" d="M0 0l707 1497l704 -1497h-1411zM707 770l-220 -461h437z" />
<glyph unicode="B" horiz-adv-x="1021" d="M745 788q134 -137 134 -323q0 -193 -136.5 -329t-328.5 -136h-414v1446h414q170 0 290.5 -121t120.5 -293q0 -138 -80 -244zM309 309h105q63 0 108 45t45 111q0 63 -45 108t-108 45h-105v-309zM309 1137v-207h105q42 0 72 30t30 72q0 43 -30.5 74t-71.5 31h-105z" />
<glyph unicode="C" horiz-adv-x="970" d="M827 1137h-104q-170 0 -291 -122t-121 -292q0 -172 121 -293t291 -121h104v-309h-104q-197 0 -363.5 96.5t-263 263t-96.5 363.5t96.5 363.5t263 263t363.5 96.5h104v-309z" />
<glyph unicode="D" horiz-adv-x="1175" d="M0 1446h309q197 0 363.5 -96.5t263 -263t96.5 -363.5t-96.5 -363.5t-263 -263t-363.5 -96.5h-309v1446zM309 1137v-828q171 0 292.5 121.5t121.5 292.5q0 170 -122 292t-292 122z" />
<glyph unicode="E" d="M930 1137h-621v-207h465v-312h-465v-309h621v-309h-930v1446h930v-309z" />
<glyph unicode="F" d="M930 1137h-621v-207h465v-312h-465v-618h-309v1446h930v-309z" />
<glyph unicode="G" horiz-adv-x="1177" d="M725 930h309v-930h-309q-196 0 -363 96.5t-264.5 263t-97.5 363.5t97.5 363.5t264.5 263t363 96.5v-309q-171 0 -292.5 -121.5t-121.5 -292.5q0 -172 121 -293t293 -121v621z" />
<glyph unicode="H" horiz-adv-x="1280" d="M827 930v516h310v-1446h-310v621h-516v-621h-311v1446h311v-516h516z" />
<glyph unicode="I" horiz-adv-x="454" d="M311 1446v-1446h-311v1446h311z" />
<glyph unicode="J" horiz-adv-x="1175" d="M721 1446h311v-930q0 -158 -85.5 -284t-225.5 -189q-93 -43 -207 -43t-207 43q-125 54 -207.5 167t-99.5 255h315q17 -68 72.5 -112t126.5 -44q86 0 146.5 60.5t60.5 146.5v930z" />
<glyph unicode="K" horiz-adv-x="1175" d="M463 940l569 557v-432l-348 -342l348 -344v-432l-569 559l-154 -152v-354h-309v1446h309v-658z" />
<glyph unicode="L" horiz-adv-x="1019" d="M309 309h568v-309h-877v1446h309v-1137z" />
<glyph unicode="M" horiz-adv-x="1384" d="M827 1092l310 305l104 100v-1497h-311v760l-309 -305l-312 305v-760h-309v1497l104 -100l310 -305l207 -203z" />
<glyph unicode="N" horiz-adv-x="1280" d="M1137 1448v-1499l-828 811v-760h-309v1499l827 -813v762h310z" />
<glyph unicode="O" horiz-adv-x="1589" d="M723 1448q197 0 363.5 -96.5t263 -263t96.5 -363.5q0 -198 -96.5 -365t-263 -263.5t-363.5 -96.5t-363.5 96.5t-263 263.5t-96.5 365q0 197 96.5 363.5t263 263t363.5 96.5zM723 311q171 0 292.5 121.5t121.5 292.5q0 170 -122 291t-292 121q-172 0 -293 -121t-121 -291 q0 -172 121 -293t293 -121z" />
<glyph unicode="P" horiz-adv-x="1026" d="M571 1405q140 -63 226 -190.5t86 -284.5q0 -158 -86 -284t-226 -189q-100 -43 -206 -43h-56v-414h-309v1448h365q106 0 206 -43zM365 725q86 0 146 60t60 145q0 86 -60 146.5t-146 60.5h-56v-412h56z" />
<glyph unicode="Q" horiz-adv-x="1589" d="M1446 672l-6 -51q-14 -94 -51 -183l57 -57v-432l-240 235q-210 -184 -483 -184q-58 0 -102 8q-166 23 -312 123q-144 100 -226.5 255.5t-82.5 338.5t82.5 337.5t226.5 254.5q58 40 119 67q137 64 295 64q197 0 363.5 -96.5t263 -263t96.5 -363.5v-53zM1135 688q2 14 2 37 q0 170 -121 291t-293 121q-29 0 -43 -2q-157 -17 -264 -134.5t-107 -275.5v-2q0 -142 89 -254.5t223 -144.5q54 -13 102 -13q144 0 260 92l-221 218l-51 51h422q2 4 2 16z" />
<glyph unicode="R" horiz-adv-x="1126" d="M813 549l170 -168v-432l-475 467l-197 192v-608h-311v1448h467q105 0 205 -43q139 -63 225 -190.5t86 -284.5q0 -224 -170 -381zM311 1042l281 -276q80 64 80 164q0 86 -60.5 146.5t-146.5 60.5h-154v-95z" />
<glyph unicode="S" d="M930 465q0 -127 -59 -233.5t-162.5 -169t-229.5 -62.5q-134 0 -244.5 62.5t-172.5 169t-62 233.5h311q0 -63 45.5 -108.5t108.5 -45.5q67 0 111.5 43.5t44.5 110.5t-40 108.5t-116 47.5q-188 15 -300 128t-112 285q0 173 116 293.5t296 120.5q182 0 298 -120t116 -294 h-310q0 43 -30.5 73t-73.5 30t-73 -28.5t-30 -74.5q0 -44 25 -72t78 -32q218 -15 341.5 -140.5t123.5 -324.5z" />
<glyph unicode="T" horiz-adv-x="1124" d="M0 1448h981v-311h-336v-1137h-309v1137h-336v311z" />
<glyph unicode="U" horiz-adv-x="1177" d="M723 1446h311v-930q0 -157 -86 -284.5t-225 -190.5q-100 -43 -207 -43q-105 0 -205 43q-141 62 -226 189.5t-85 285.5v930h311v-930q0 -86 60 -146.5t145 -60.5q86 0 146.5 60.5t60.5 146.5v930z" />
<glyph unicode="V" horiz-adv-x="1556" d="M707 674l364 772h342l-706 -1499l-707 1499h344z" />
<glyph unicode="W" horiz-adv-x="1384" d="M414 352l-310 -303l-104 -102v1499h309v-760l312 303l309 -303v760h311v-1499l-104 102l-310 303l-206 205z" />
<glyph unicode="X" horiz-adv-x="1187" d="M700 1446h344l-352 -746l332 -702h-342l-160 340l-160 -340h-342l330 702l-350 746h342l180 -381z" />
<glyph unicode="Y" horiz-adv-x="1187" d="M678 1393l24 53h342l-350 -746l-16 -34v-666h-311v666l-17 34l-350 746h342l25 -53l155 -328z" />
<glyph unicode="Z" horiz-adv-x="1179" d="M1036 1446l-2 -2l-534 -1133h534v-311h-1024l537 1135h-547v311h1036z" />
<glyph unicode="[" horiz-adv-x="761" d="M0 0v1446h618v-309h-309v-828h309v-309h-618z" />
<glyph unicode="\" horiz-adv-x="1165" d="M680 0l-682 1446h342l682 -1446h-342z" />
<glyph unicode="]" horiz-adv-x="763" d="M621 1446v-1446h-621v309h311v828h-311v309h621z" />
<glyph unicode="^" horiz-adv-x="1705" d="M322 1190l362 362v-2l363 -360h-725z" />
<glyph unicode="_" horiz-adv-x="1705" />
<glyph unicode="`" horiz-adv-x="1087" d="M723 1577v-360l-363 360h363z" />
<glyph unicode="a" horiz-adv-x="1554" d="M0 0l707 1497l704 -1497h-1411zM707 770l-220 -461h437z" />
<glyph unicode="b" horiz-adv-x="1021" d="M745 788q134 -137 134 -323q0 -193 -136.5 -329t-328.5 -136h-414v1446h414q170 0 290.5 -121t120.5 -293q0 -138 -80 -244zM309 309h105q63 0 108 45t45 111q0 63 -45 108t-108 45h-105v-309zM309 1137v-207h105q42 0 72 30t30 72q0 43 -30.5 74t-71.5 31h-105z" />
<glyph unicode="c" horiz-adv-x="970" d="M827 1137h-104q-170 0 -291 -122t-121 -292q0 -172 121 -293t291 -121h104v-309h-104q-197 0 -363.5 96.5t-263 263t-96.5 363.5t96.5 363.5t263 263t363.5 96.5h104v-309z" />
<glyph unicode="d" horiz-adv-x="1175" d="M0 1446h309q197 0 363.5 -96.5t263 -263t96.5 -363.5t-96.5 -363.5t-263 -263t-363.5 -96.5h-309v1446zM309 1137v-828q171 0 292.5 121.5t121.5 292.5q0 170 -122 292t-292 122z" />
<glyph unicode="e" d="M930 1137h-621v-207h465v-312h-465v-309h621v-309h-930v1446h930v-309z" />
<glyph unicode="f" d="M930 1137h-621v-207h465v-312h-465v-618h-309v1446h930v-309z" />
<glyph unicode="g" horiz-adv-x="1177" d="M725 930h309v-930h-309q-196 0 -363 96.5t-264.5 263t-97.5 363.5t97.5 363.5t264.5 263t363 96.5v-309q-171 0 -292.5 -121.5t-121.5 -292.5q0 -172 121 -293t293 -121v621z" />
<glyph unicode="h" horiz-adv-x="1280" d="M825 930v516h310v-1446h-310v621h-516v-621h-311v1446h311v-516h516z" />
<glyph unicode="i" horiz-adv-x="454" d="M311 1446v-1446h-311v1446h311z" />
<glyph unicode="j" horiz-adv-x="1175" d="M721 1446h311v-930q0 -158 -85.5 -284t-225.5 -189q-93 -43 -207 -43t-207 43q-125 54 -207.5 167t-99.5 255h315q17 -68 72.5 -112t126.5 -44q86 0 146.5 60.5t60.5 146.5v930z" />
<glyph unicode="k" horiz-adv-x="1175" d="M463 940l569 557v-432l-348 -342l348 -344v-432l-569 559l-154 -152v-354h-309v1446h309v-658z" />
<glyph unicode="l" horiz-adv-x="1019" d="M309 309h568v-309h-877v1446h309v-1137z" />
<glyph unicode="m" horiz-adv-x="1384" d="M827 1092l310 305l104 100v-1497h-311v760l-309 -305l-312 305v-760h-309v1497l104 -100l310 -305l207 -203z" />
<glyph unicode="n" horiz-adv-x="1280" d="M1137 1448v-1499l-828 811v-760h-309v1499l827 -813v762h310z" />
<glyph unicode="o" horiz-adv-x="1589" d="M723 1448q197 0 363.5 -96.5t263 -263t96.5 -363.5q0 -198 -96.5 -365t-263 -263.5t-363.5 -96.5t-363.5 96.5t-263 263.5t-96.5 365q0 197 96.5 363.5t263 263t363.5 96.5zM723 311q171 0 292.5 121.5t121.5 292.5q0 170 -122 291t-292 121q-172 0 -293 -121t-121 -291 q0 -172 121 -293t293 -121z" />
<glyph unicode="p" horiz-adv-x="1026" d="M571 1405q140 -63 226 -190.5t86 -284.5q0 -158 -86 -284t-226 -189q-100 -43 -206 -43h-56v-414h-309v1448h365q106 0 206 -43zM365 725q86 0 146 60t60 145q0 86 -60 146.5t-146 60.5h-56v-412h56z" />
<glyph unicode="q" horiz-adv-x="1589" d="M1446 672l-6 -51q-14 -94 -51 -183l57 -57v-432l-240 235q-210 -184 -483 -184q-58 0 -102 8q-166 23 -312 123q-144 100 -226.5 255.5t-82.5 338.5t82.5 337.5t226.5 254.5q58 40 119 67q137 64 295 64q197 0 363.5 -96.5t263 -263t96.5 -363.5v-53zM1135 688q2 14 2 37 q0 170 -121 291t-293 121q-29 0 -43 -2q-157 -17 -264 -134.5t-107 -275.5v-2q0 -142 89 -254.5t223 -144.5q54 -13 102 -13q144 0 260 92l-221 218l-51 51h422q2 4 2 16z" />
<glyph unicode="r" horiz-adv-x="1126" d="M813 549l170 -168v-432l-475 467l-197 192v-608h-311v1448h467q105 0 205 -43q139 -63 225 -190.5t86 -284.5q0 -224 -170 -381zM311 1042l281 -276q80 64 80 164q0 86 -60.5 146.5t-146.5 60.5h-154v-95z" />
<glyph unicode="s" d="M930 465q0 -127 -59 -233.5t-162.5 -169t-229.5 -62.5q-134 0 -244.5 62.5t-172.5 169t-62 233.5h311q0 -63 45.5 -108.5t108.5 -45.5q67 0 111.5 43.5t44.5 110.5t-40 108.5t-116 47.5q-188 15 -300 128t-112 285q0 173 116 293.5t296 120.5q182 0 298 -120t116 -294 h-310q0 43 -30.5 73t-73.5 30t-73 -28.5t-30 -74.5q0 -44 25 -72t78 -32q218 -15 341.5 -140.5t123.5 -324.5z" />
<glyph unicode="t" horiz-adv-x="1124" d="M0 1448h981v-311h-336v-1137h-309v1137h-336v311z" />
<glyph unicode="u" horiz-adv-x="1177" d="M723 1446h311v-930q0 -157 -86 -284.5t-225 -190.5q-100 -43 -207 -43q-105 0 -205 43q-141 62 -226 189.5t-85 285.5v930h311v-930q0 -86 60 -146.5t145 -60.5q86 0 146.5 60.5t60.5 146.5v930z" />
<glyph unicode="v" horiz-adv-x="1556" d="M707 674l364 772h342l-706 -1499l-707 1499h344z" />
<glyph unicode="w" horiz-adv-x="1384" d="M414 352l-310 -303l-104 -102v1499h309v-760l312 303l309 -303v760h311v-1499l-104 102l-310 303l-206 205z" />
<glyph unicode="x" horiz-adv-x="1187" d="M700 1446h344l-352 -746l332 -702h-342l-160 340l-160 -340h-342l330 702l-350 746h342l180 -381z" />
<glyph unicode="y" horiz-adv-x="1187" d="M678 1393l24 53h342l-350 -746l-16 -34v-666h-311v666l-17 34l-350 746h342l25 -53l155 -328z" />
<glyph unicode="z" horiz-adv-x="1179" d="M1036 1446l-2 -2l-534 -1133h534v-311h-1024l537 1135h-547v311h1036z" />
<glyph unicode="&#xa8;" horiz-adv-x="1476" d="M723 1577v-360l-363 360h363zM811 1217v360h363z" />
<glyph unicode="&#xab;" horiz-adv-x="1013" d="M436 768l434 414v-312l-98 -102l98 -102v-312zM336 768l98 -102v-312l-434 414l434 414v-312z" />
<glyph unicode="&#xad;" horiz-adv-x="786" d="M0 621v309h643v-309h-643z" />
<glyph unicode="&#xb0;" horiz-adv-x="712" d="M569 1163q0 -119 -82.5 -201.5t-201.5 -82.5q-117 0 -201 83t-84 201q0 117 84 200t201 83q118 0 201 -83t83 -200z" />
<glyph unicode="&#xb4;" horiz-adv-x="1087" d="M688 1217v360h363z" />
<glyph unicode="&#xb7;" horiz-adv-x="710" d="M569 760q0 -119 -83 -202t-201 -83q-117 0 -201 83.5t-84 201.5q0 117 84 199.5t201 82.5q118 0 201 -82.5t83 -199.5z" />
<glyph unicode="&#xb8;" horiz-adv-x="491" d="M0 -188l403 464v-464h-403z" />
<glyph unicode="&#xbb;" horiz-adv-x="1013" d="M434 768l-434 -414v312l98 102l-98 102v312zM535 768l-99 102v312l434 -414l-434 -414v312z" />
<glyph unicode="&#xc0;" horiz-adv-x="1554" d="M723 1577v-115l688 -1462h-1411l621 1317l-261 260h363zM707 770l-220 -461h437z" />
<glyph unicode="&#xc1;" horiz-adv-x="1554" d="M0 0l688 1458v119h363l-260 -258l620 -1319h-1411zM707 770l-220 -461h437z" />
<glyph unicode="&#xc2;" horiz-adv-x="1554" d="M1065 1245h-240l586 -1245h-1411l588 1245h-246l363 363zM707 770l-220 -461h437z" />
<glyph unicode="&#xc4;" horiz-adv-x="1554" d="M664 1577v-172l43 92l45 -96v176h362l-303 -301l600 -1276h-1411l602 1276l-301 301h363zM707 770l-220 -461h437z" />
<glyph unicode="&#xc6;" horiz-adv-x="1755" d="M1612 1446v-309h-621v-207h465v-312h-465v-309h621v-309h-1612l684 1446h928zM682 309v408l-193 -408h193z" />
<glyph unicode="&#xc7;" horiz-adv-x="970" d="M424 -188l172 198q-168 29 -304 130t-214 254t-78 329q0 197 96.5 363.5t263 263t363.5 96.5h104v-309h-104q-170 0 -291 -122t-121 -292q0 -172 121 -293t291 -121h104v-497h-403z" />
<glyph unicode="&#xc8;" d="M672 1577v-131h258v-309h-621v-207h465v-312h-465v-309h621v-309h-930v1446h440l-131 131h363z" />
<glyph unicode="&#xc9;" d="M930 1137h-621v-207h465v-312h-465v-309h621v-309h-930v1446h309v131h363l-133 -131h391v-309z" />
<glyph unicode="&#xca;" d="M930 1137h-621v-207h465v-312h-465v-309h621v-309h-930v1446h319l162 162l160 -162h289v-309z" />
<glyph unicode="&#xcb;" d="M451 1577v-131h88v131h362l-133 -131h162v-309h-621v-207h465v-312h-465v-309h621v-309h-930v1446h219l-131 131h363z" />
<glyph unicode="&#xce;" horiz-adv-x="712" d="M651 1245h-207v-1245h-311v1245h-205l363 363z" />
<glyph unicode="&#xcf;" horiz-adv-x="710" d="M240 1577v-131h88v131h362l-252 -252v-1325h-311v1327l-250 250h363z" />
<glyph unicode="&#xd2;" horiz-adv-x="1589" d="M817 1577v-135q176 -23 320 -123t226.5 -256.5t82.5 -337.5q0 -198 -96.5 -365t-263 -263.5t-363.5 -96.5t-363.5 96.5t-263 263.5t-96.5 365q0 175 77.5 328t213 253.5t303.5 129.5l-139 141h362zM723 311q171 0 292.5 121.5t121.5 292.5q0 170 -122 291t-292 121 q-172 0 -293 -121t-121 -291q0 -172 121 -293t293 -121z" />
<glyph unicode="&#xd3;" horiz-adv-x="1589" d="M0 725q0 270 174 472.5t436 242.5v137h363l-139 -137q262 -40 437 -242.5t175 -472.5q0 -198 -96.5 -365t-263 -263.5t-363.5 -96.5t-363.5 96.5t-263 263.5t-96.5 365zM723 311q171 0 292.5 121.5t121.5 292.5q0 170 -122 291t-292 121q-172 0 -293 -121t-121 -291 q0 -172 121 -293t293 -121z" />
<glyph unicode="&#xd4;" horiz-adv-x="1589" d="M0 725q0 249 151.5 443t385.5 255l184 185l180 -183q238 -59 391.5 -253.5t153.5 -446.5q0 -198 -96.5 -365t-263 -263.5t-363.5 -96.5t-363.5 96.5t-263 263.5t-96.5 365zM723 311q171 0 292.5 121.5t121.5 292.5q0 170 -122 291t-292 121q-172 0 -293 -121t-121 -291 q0 -172 121 -293t293 -121z" />
<glyph unicode="&#xd6;" horiz-adv-x="1589" d="M680 1577v-131q14 2 43 2q7 0 22 -1t23 -1v131h362l-169 -170q215 -73 350 -260t135 -422q0 -198 -96.5 -365t-263 -263.5t-363.5 -96.5t-363.5 96.5t-263 263.5t-96.5 365q0 235 135 422.5t350 261.5l-168 168h363zM723 311q171 0 292.5 121.5t121.5 292.5 q0 170 -122 291t-292 121q-172 0 -293 -121t-121 -291q0 -172 121 -293t293 -121z" />
<glyph unicode="&#xd9;" horiz-adv-x="1177" d="M723 1446h311v-930q0 -157 -86 -284.5t-225 -190.5q-100 -43 -207 -43q-105 0 -205 43q-141 62 -226 189.5t-85 285.5v930h311v-930q0 -86 60 -146.5t145 -60.5q86 0 146.5 60.5t60.5 146.5v930zM631 1577v-360l-363 360h363z" />
<glyph unicode="&#xda;" horiz-adv-x="1177" d="M723 1446h311v-930q0 -157 -86 -284.5t-225 -190.5q-100 -43 -207 -43q-105 0 -205 43q-141 62 -226 189.5t-85 285.5v930h311v-930q0 -86 60 -146.5t145 -60.5q86 0 146.5 60.5t60.5 146.5v930zM408 1217v360h362z" />
<glyph unicode="&#xdb;" horiz-adv-x="1177" d="M723 1446h311v-930q0 -157 -86 -284.5t-225 -190.5q-100 -43 -207 -43q-105 0 -205 43q-141 62 -226 189.5t-85 285.5v930h311v-86l205 248l207 -252v90zM516 309q86 0 146.5 60.5t60.5 146.5v729h-412v-729q0 -86 60 -146.5t145 -60.5z" />
<glyph unicode="&#xdc;" horiz-adv-x="1177" d="M469 1577v-360l-158 155v-856q0 -86 60 -146.5t145 -60.5q86 0 146.5 60.5t60.5 146.5v864l-166 -163v360h363l-134 -131h248v-930q0 -157 -86 -284.5t-225 -190.5q-100 -43 -207 -43q-105 0 -205 43q-141 62 -226 189.5t-85 285.5v930h238l-132 131h363z" />
<glyph unicode="&#xe0;" horiz-adv-x="1554" d="M723 1577v-115l688 -1462h-1411l621 1317l-261 260h363zM707 770l-220 -461h437z" />
<glyph unicode="&#xe1;" horiz-adv-x="1554" d="M0 0l688 1458v119h363l-260 -258l620 -1319h-1411zM707 770l-220 -461h437z" />
<glyph unicode="&#xe2;" horiz-adv-x="1554" d="M1065 1245h-240l586 -1245h-1411l588 1245h-246l363 363zM707 770l-220 -461h437z" />
<glyph unicode="&#xe4;" horiz-adv-x="1554" d="M664 1577v-172l43 92l45 -96v176h362l-303 -301l600 -1276h-1411l602 1276l-301 301h363zM707 770l-220 -461h437z" />
<glyph unicode="&#xe6;" horiz-adv-x="1755" d="M1612 1446v-309h-621v-207h465v-312h-465v-309h621v-309h-1612l684 1446h928zM682 309v408l-193 -408h193z" />
<glyph unicode="&#xe7;" horiz-adv-x="970" d="M424 -188l172 198q-168 29 -304 130t-214 254t-78 329q0 197 96.5 363.5t263 263t363.5 96.5h104v-309h-104q-170 0 -291 -122t-121 -292q0 -172 121 -293t291 -121h104v-497h-403z" />
<glyph unicode="&#xe8;" d="M672 1577v-131h258v-309h-621v-207h465v-312h-465v-309h621v-309h-930v1446h440l-131 131h363z" />
<glyph unicode="&#xe9;" d="M930 1137h-621v-207h465v-312h-465v-309h621v-309h-930v1446h309v131h363l-133 -131h391v-309z" />
<glyph unicode="&#xea;" d="M930 1137h-621v-207h465v-312h-465v-309h621v-309h-930v1446h319l162 162l160 -162h289v-309z" />
<glyph unicode="&#xeb;" d="M451 1577v-131h88v131h362l-133 -131h162v-309h-621v-207h465v-312h-465v-309h621v-309h-930v1446h219l-131 131h363z" />
<glyph unicode="&#xee;" horiz-adv-x="712" d="M651 1245h-207v-1245h-311v1245h-205l363 363z" />
<glyph unicode="&#xef;" horiz-adv-x="710" d="M240 1577v-131h88v131h362l-252 -252v-1325h-311v1327l-250 250h363z" />
<glyph unicode="&#xf2;" horiz-adv-x="1589" d="M817 1577v-135q176 -23 320 -123t226.5 -256.5t82.5 -337.5q0 -198 -96.5 -365t-263 -263.5t-363.5 -96.5t-363.5 96.5t-263 263.5t-96.5 365q0 175 77.5 328t213 253.5t303.5 129.5l-139 141h362zM723 311q171 0 292.5 121.5t121.5 292.5q0 170 -122 291t-292 121 q-172 0 -293 -121t-121 -291q0 -172 121 -293t293 -121z" />
<glyph unicode="&#xf3;" horiz-adv-x="1589" d="M0 725q0 270 174 472.5t436 242.5v137h363l-139 -137q262 -40 437 -242.5t175 -472.5q0 -198 -96.5 -365t-263 -263.5t-363.5 -96.5t-363.5 96.5t-263 263.5t-96.5 365zM723 311q171 0 292.5 121.5t121.5 292.5q0 170 -122 291t-292 121q-172 0 -293 -121t-121 -291 q0 -172 121 -293t293 -121z" />
<glyph unicode="&#xf4;" horiz-adv-x="1589" d="M0 725q0 249 151.5 443t385.5 255l184 185l180 -183q238 -59 391.5 -253.5t153.5 -446.5q0 -198 -96.5 -365t-263 -263.5t-363.5 -96.5t-363.5 96.5t-263 263.5t-96.5 365zM723 311q171 0 292.5 121.5t121.5 292.5q0 170 -122 291t-292 121q-172 0 -293 -121t-121 -291 q0 -172 121 -293t293 -121z" />
<glyph unicode="&#xf6;" horiz-adv-x="1589" d="M680 1577v-131q14 2 43 2q7 0 22 -1t23 -1v131h362l-169 -170q215 -73 350 -260t135 -422q0 -198 -96.5 -365t-263 -263.5t-363.5 -96.5t-363.5 96.5t-263 263.5t-96.5 365q0 235 135 422.5t350 261.5l-168 168h363zM723 311q171 0 292.5 121.5t121.5 292.5 q0 170 -122 291t-292 121q-172 0 -293 -121t-121 -291q0 -172 121 -293t293 -121z" />
<glyph unicode="&#xf9;" horiz-adv-x="1177" d="M723 1446h311v-930q0 -157 -86 -284.5t-225 -190.5q-100 -43 -207 -43q-105 0 -205 43q-141 62 -226 189.5t-85 285.5v930h311v-930q0 -86 60 -146.5t145 -60.5q86 0 146.5 60.5t60.5 146.5v930zM631 1577v-360l-363 360h363z" />
<glyph unicode="&#xfa;" horiz-adv-x="1177" d="M723 1446h311v-930q0 -157 -86 -284.5t-225 -190.5q-100 -43 -207 -43q-105 0 -205 43q-141 62 -226 189.5t-85 285.5v930h311v-930q0 -86 60 -146.5t145 -60.5q86 0 146.5 60.5t60.5 146.5v930zM408 1217v360h362z" />
<glyph unicode="&#xfb;" horiz-adv-x="1177" d="M723 1446h311v-930q0 -157 -86 -284.5t-225 -190.5q-100 -43 -207 -43q-105 0 -205 43q-141 62 -226 189.5t-85 285.5v930h311v-86l205 248l207 -252v90zM516 309q86 0 146.5 60.5t60.5 146.5v729h-412v-729q0 -86 60 -146.5t145 -60.5z" />
<glyph unicode="&#xfc;" horiz-adv-x="1177" d="M469 1577v-360l-158 155v-856q0 -86 60 -146.5t145 -60.5q86 0 146.5 60.5t60.5 146.5v864l-166 -163v360h363l-134 -131h248v-930q0 -157 -86 -284.5t-225 -190.5q-100 -43 -207 -43q-105 0 -205 43q-141 62 -226 189.5t-85 285.5v930h238l-132 131h363z" />
<glyph unicode="&#x152;" horiz-adv-x="1798" d="M1034 1137v-205h465v-311h-465v-310h621v-311h-932q-197 0 -363.5 97.5t-263 264.5t-96.5 363q0 197 96.5 363.5t263 263t363.5 96.5h932v-311h-621zM725 311v826h-2q-170 0 -292 -121t-122 -291q0 -171 121.5 -292.5t292.5 -121.5h2z" />
<glyph unicode="&#x153;" horiz-adv-x="1798" d="M1034 1137v-205h465v-311h-465v-310h621v-311h-932q-197 0 -363.5 97.5t-263 264.5t-96.5 363q0 197 96.5 363.5t263 263t363.5 96.5h932v-311h-621zM725 311v826h-2q-170 0 -292 -121t-122 -291q0 -171 121.5 -292.5t292.5 -121.5h2z" />
<glyph unicode="&#x2c6;" horiz-adv-x="1255" d="M1006 1245h-723l362 363z" />
<glyph unicode="&#x2000;" horiz-adv-x="804" />
<glyph unicode="&#x2001;" horiz-adv-x="1608" />
<glyph unicode="&#x2002;" horiz-adv-x="804" />
<glyph unicode="&#x2003;" horiz-adv-x="1608" />
<glyph unicode="&#x2004;" horiz-adv-x="536" />
<glyph unicode="&#x2005;" horiz-adv-x="402" />
<glyph unicode="&#x2006;" horiz-adv-x="268" />
<glyph unicode="&#x2007;" horiz-adv-x="268" />
<glyph unicode="&#x2008;" horiz-adv-x="201" />
<glyph unicode="&#x2009;" horiz-adv-x="321" />
<glyph unicode="&#x200a;" horiz-adv-x="89" />
<glyph unicode="&#x2010;" horiz-adv-x="786" d="M0 621v309h643v-309h-643z" />
<glyph unicode="&#x2011;" horiz-adv-x="786" d="M0 621v309h643v-309h-643z" />
<glyph unicode="&#x2012;" horiz-adv-x="786" d="M0 621v309h643v-309h-643z" />
<glyph unicode="&#x2013;" horiz-adv-x="1228" d="M0 621v309h1085v-309h-1085z" />
<glyph unicode="&#x2014;" horiz-adv-x="1740" d="M0 621v309h1597v-309h-1597z" />
<glyph unicode="&#x2018;" horiz-adv-x="546" d="M403 983l-403 465h403v-465z" />
<glyph unicode="&#x2019;" horiz-adv-x="546" d="M403 1448l-403 -465v465h403z" />
<glyph unicode="&#x201c;" horiz-adv-x="1198" d="M580 1161v285h475v-285h-135l135 -127v-311zM0 1157v289h475v-285h-135l135 -127v-311z" />
<glyph unicode="&#x201d;" horiz-adv-x="1198" d="M475 1446v-285l-475 -438v311l135 127h-135v285h475zM1055 1446v-289l-475 -434v311l135 127h-135v285h475z" />
<glyph unicode="&#x2022;" horiz-adv-x="1333" d="M1190 717q0 -161 -80 -298.5t-217.5 -217.5t-298.5 -80t-298 80t-216.5 217.5t-79.5 298.5t79.5 298t216.5 216.5t298 79.5t298.5 -79.5t217.5 -216.5t80 -298z" />
<glyph unicode="&#x2026;" horiz-adv-x="1357" d="M309 311v-311h-309v311h309zM762 311v-311h-309v311h309zM1214 311v-311h-309v311h309z" />
<glyph unicode="&#x202f;" horiz-adv-x="321" />
<glyph unicode="&#x205f;" horiz-adv-x="402" />
<glyph unicode="&#x25fc;" horiz-adv-x="1443" d="M0 1444h1444v-1444h-1444v1444z" />
</font>
</defs>
</svg>
