<?xml version="1.0" encoding="utf-8"?>
<!-- Generator: Adobe Illustrator 20.0.0, SVG Export Plug-In . SVG Version: 6.00 Build 0)  -->
<svg version="1.1" id="Calque_1" xmlns="http://www.w3.org/2000/svg" xmlns:xlink="http://www.w3.org/1999/xlink" x="0px" y="0px"
	 width="348px" height="90px" viewBox="0 0 348 90" style="enable-background:new 0 0 348 90;" xml:space="preserve">
<style type="text/css">
	.st0{fill:#FFFFFF;}
</style>
<g>
	<g>
		<path class="st0" d="M132.1,43.1c-3.6,0-6.8-1.4-9.2-4.2c-2-2.3-3.2-5.3-3.2-8.7c0-3.4,1.3-6.5,3.8-9c2.4-2.3,5.3-3.5,8.8-3.5
			c2.7,0,4.9,0.8,7.2,2.5v-2.1h3.5v7.1h-4.8c-1.4-1.8-3.4-2.7-5.8-2.7c-4.4,0-7.7,3.4-7.7,8.1c0,4.4,3.4,7.5,7.3,7.5
			c2.3,0,4.3-0.9,5.6-2.6h5.8C141.1,40.7,137.4,43.1,132.1,43.1z"/>
	</g>
	<g>
		<path class="st0" d="M159.9,38.5v-3.6h4.3v7.7h-18.1v-4.1h2.6V22.3h-2.6v-4.1h10.3v4.1h-2.9v16.2H159.9z"/>
	</g>
	<g>
		<path class="st0" d="M185.2,34.9v7.7h-18.1v-4.1h2.6V22.3h-2.6v-4.1h18.1V26h-4.3v-3.6h-6.5v5.8h6.5v4.1h-6.5v6.2h6.5v-3.6H185.2z
			"/>
	</g>
	<g>
		<path class="st0" d="M198.3,38.5v4.1h-9.8v-4.1h2.6V22.3h-2.6v-4.1h9.7c6.2,0,9.4,2.7,9.4,7.7c0,3.8-2.2,6.6-5.8,7.3l3.5,5.4h2.4
			v4.1h-5.2l-6.6-11.3v7.2H198.3z M196.9,30.1c3.9,0,5.9-1.4,5.9-4.1c0-2.6-1.7-3.8-5.2-3.8h-1.8v7.9H196.9z"/>
	</g>
	<g>
		<path class="st0" d="M217.5,38.5h2.9v4.1h-9.9v-4.1h2.6V22.3h-2.6v-4.1h9.2l5.9,17.8l5.9-17.8h9.2v4.1h-2.6v16.2h2.6v4.1h-9.9
			v-4.1h2.9V23.8l-6.2,18.9h-3.6l-6.3-18.7V38.5z"/>
	</g>
	<g>
		<path class="st0" d="M246.8,21.4c2.4-2.4,5.4-3.6,8.9-3.6c3.3,0,6.4,1.3,8.7,3.6c2.4,2.4,3.7,5.6,3.7,8.9c0,3.5-1.2,6.6-3.5,9
			c-2.4,2.5-5.6,3.8-9,3.8c-3.6,0-6.7-1.3-9.1-3.8c-2.3-2.4-3.5-5.5-3.5-9.1C243.1,26.8,244.4,23.7,246.8,21.4z M248.1,30.3
			c0,2,0.7,3.8,2.1,5.3c1.5,1.6,3.5,2.6,5.5,2.6c4.1,0,7.5-3.3,7.5-8c0-4.2-3.4-7.5-7.4-7.5C251.4,22.7,248.1,26,248.1,30.3z"/>
	</g>
	<g>
		<path class="st0" d="M280.8,38.5v4.1h-10.3v-4.1h2.6V22.3h-2.6v-4.1h7.2l10.1,15.6V22.3h-2.7v-4.1h10.3v4.1h-2.9v20.3h-4.5
			l-10.2-16.1v11.9H280.8z"/>
	</g>
	<g>
		<path class="st0" d="M312.3,38.5v4.1H302v-4.1h2.6V22.3h-3.5V26h-3.6v-7.7h19.1V26h-3.6v-3.6h-3.6v16.2H312.3z"/>
	</g>
	<g>
		<path class="st0" d="M130.1,68.3v4.1h-10.3v-4.1h2.6V52.1h-2.6V48h18.1v7.7h-4.3v-3.6h-6.5v5.8h6.5V62h-6.5v6.2H130.1z"/>
	</g>
	<g>
		<path class="st0" d="M158.3,64.7v7.7h-18.1v-4.1h2.6V52.1h-2.6V48h18.1v7.7h-4.3v-3.6h-6.5v5.8h6.5V62h-6.5v6.2h6.5v-3.6H158.3z"
			/>
	</g>
	<g>
		<path class="st0" d="M171.4,68.3v4.1h-9.8v-4.1h2.6V52.1h-2.6V48h9.7c6.2,0,9.4,2.7,9.4,7.7c0,3.8-2.2,6.6-5.8,7.3l3.5,5.4h2.4
			v4.1h-5.2L169,61.1v7.2H171.4z M170.1,59.9c3.9,0,5.9-1.4,5.9-4.1c0-2.6-1.7-3.8-5.2-3.8H169v7.9H170.1z"/>
	</g>
	<g>
		<path class="st0" d="M193.4,68.3v4.1h-9.8v-4.1h2.6V52.1h-2.6V48h9.7c6.2,0,9.4,2.7,9.4,7.7c0,3.8-2.2,6.6-5.8,7.3l3.5,5.4h2.4
			v4.1h-5.2L191,61.1v7.2H193.4z M192.1,59.9c3.9,0,5.9-1.4,5.9-4.1c0-2.6-1.7-3.8-5.2-3.8H191v7.9H192.1z"/>
	</g>
	<g>
		<path class="st0" d="M211.5,68.4h2.4v4.1h-10.2v-4.1h2.8l6.4-16.3h-2.8V48h8.5l7.7,20.4h2.9v4.1H219v-4.1h2.5l-0.9-2.4h-8.1
			L211.5,68.4z M216.5,54.9l-2.6,7.1h5.3L216.5,54.9z"/>
	</g>
	<g>
		<path class="st0" d="M240.1,68.3v4.1h-10.3v-4.1h2.6V52.1h-2.6V48h7.2l10.1,15.6V52.1h-2.7V48h10.3v4.1h-2.9v20.3h-4.5l-10.2-16.1
			v11.9H240.1z"/>
	</g>
	<g>
		<path class="st0" d="M259.7,52.1h-2.6V48h10.7c3.8,0,6.5,0.5,9,2.9c2.3,2.2,3.5,5.4,3.5,9.4c0,4.4-1.7,8-4.9,10.3
			c-2.1,1.5-4.4,1.8-7.5,1.8h-10.9v-4.1h2.6V52.1z M264.5,52.1v16.2h3.2c5.2,0,7.7-2.6,7.7-8c0-5.4-2.7-8.2-7.8-8.2H264.5z"/>
	</g>
</g>
<g>
	<g>
		<polygon class="st0" points="102.7,25.6 101,25.6 101,17.2 45.9,17.2 45.9,21.1 44.3,21.1 44.3,15.6 102.7,15.6 		"/>
	</g>
	<g>
		<polygon class="st0" points="102.7,74.1 44.3,74.1 44.3,68.1 45.9,68.1 45.9,72.5 101,72.5 101,58.2 102.7,58.2 		"/>
	</g>
	<g>
		<path class="st0" d="M112.4,33.7c-0.2,0-0.4-0.3-0.5-0.5C112.1,33.4,112.4,33.5,112.4,33.7z M117.8,32.2c-0.4,0.2-0.9,0.3-1.4,0.5
			C117.8,32,116.8,32.2,117.8,32.2z M117.2,31.3c0,0.1-0.2,0.2-0.3,0.2h-0.1v-0.2H117.2z M120.6,31.3c-0.2,0-0.5,0.2-0.7,0.2
			C120.1,30.9,120.4,31.3,120.6,31.3z M121,30c-0.5,0.2-0.9,0.7-1.6,0.6c-0.3,0.2-0.9,0.3-1.2,0.4v-0.1C119.1,30.4,120,30,121,30z
			 M123.1,30l-0.1-0.3l0.2,0.2L123.1,30z M123.7,29.8l0.5-0.1l-0.1-0.1L123.7,29.8z M124.8,29.4c0,0-0.4,0-0.4,0.1v-0.2l0.6-0.2
			L124.8,29.4z M121.4,29.2c0,0.2-0.2,0.2-0.2,0.2c-0.1-0.1-0.3,0-0.3-0.2C121,29.2,121.3,29,121.4,29.2z M125,29.2l0.6-0.1l-0.4,0
			h-0.1L125,29.2z M126.7,28.1c-0.2,0.3-0.6,0.3-0.9,0.4c-1,0.6-2.2,0.5-3.3,1h-0.2c0.1-0.4,0.5-0.3,0.7-0.4c0.6-0.4,1.4-0.3,2-0.7
			C125.6,28.4,126.1,28.1,126.7,28.1z M131.7,26.4c0,0.1-0.2,0.2-0.2,0.1h-0.2C131.4,26.5,131.6,26.4,131.7,26.4z M91.9,32.4
			l-0.3-0.1v-0.1C91.7,32.2,91.9,32.3,91.9,32.4z M50.3,58c-0.1,0.2-0.5,0.5-0.9,0.6C49.7,58.5,49.9,58,50.3,58z M51.9,57l0.3-0.1
			L52,57.2L51.9,57z M50.4,55.5c-0.1,0.1-0.1,0.2-0.3,0.2c-0.1-0.1,0-0.3,0.1-0.3C50.2,55.4,50.3,55.4,50.4,55.5z M59.8,55
			c-0.2,0.3-0.6,0.4-0.9,0.4C59.1,55.1,59.5,54.9,59.8,55z M52,54.7c-0.1,0.3-0.5,0.2-0.8,0.3C51.3,54.8,51.7,54.7,52,54.7z
			 M65.8,52.8c-0.1,0.3-0.4,0.1-0.6,0.2c-0.1-0.2,0.2-0.3,0.3-0.3C65.6,52.7,65.7,52.7,65.8,52.8z M66.9,52.2c0,0,0,0.1,0,0.1
			c-0.1,0-0.1,0.2-0.2,0.1v-0.2H66.9z M64.8,51.8c0,0.1,0.2-0.2,0.2-0.2l0.2,0.2H64.8z M56.1,51.6c-0.2,0.2-0.4,0.3-0.7,0.4
			c0-0.3,0.4-0.3,0.5-0.4L56.1,51.6z M66.3,51.1c0.1,0.2-0.2,0.2-0.4,0.4c-0.1,0-0.2,0-0.2-0.1C65.7,51.1,66.1,51.1,66.3,51.1z
			 M51.6,58.1c-1.7,1.2-3.4,2.3-5,3.6c-0.2,0-0.5-0.1-0.7-0.3c1.7-1.3,3.5-2.6,5.4-3.5C51.5,57.9,51.8,57.9,51.6,58.1z M93.2,29.8
			c-0.1,0.1-0.4,0.1-0.4-0.2C92.9,29.7,93.1,29.7,93.2,29.8z M81.2,26.1l0-0.1l0.3,0l0.1,0.2L81.2,26.1z M76.1,26.1
			c-0.1,0.2-0.5,0.1-0.7,0.1c0,0,0-0.1-0.1-0.1C75.5,25.7,75.8,26.1,76.1,26.1z M69.5,25.9l-0.3,0c0-0.1,0.2-0.1,0.3-0.1V25.9z
			 M80.5,25.9c-0.2-0.1-0.7,0-0.7-0.3C80.1,25.7,80.4,25.7,80.5,25.9z M72,25.6v0.1c-0.2,0.1-0.3,0-0.5-0.1c0-0.1,0,0,0.1-0.1
			C71.8,25.6,71.9,25.4,72,25.6z M28.1,25.2c-0.1,0.2-0.4,0.2-0.5,0.3c-0.1,0-0.2-0.1-0.2-0.1C27.5,25.2,27.9,25.2,28.1,25.2z
			 M70.8,25.4c0,0.1,0,0.2-0.1,0.2c-0.4,0.1-0.4-0.5-0.8-0.2h-0.1l0-0.2C70.2,25.2,70.5,25.3,70.8,25.4z M70.5,24.8
			c1,0.2,1.9-0.3,2.7,0.2c0,0.1,0,0.1-0.1,0.2c-1.4-0.1-2.8-0.2-4.1-0.5C69.4,24.8,70.1,24.3,70.5,24.8z M44.1,24.4v0.1
			c-0.2,0-0.4,0.1-0.6-0.1C43.6,24.3,44,24.3,44.1,24.4z M36,24.3c-0.2,0-0.3,0.2-0.5,0.1C35.5,24.2,35.8,24.3,36,24.3z M34.9,24.4
			c0,0.2-0.2,0.2-0.3,0.2c-0.1,0-0.3,0-0.4,0c0-0.2,0.2-0.3,0.3-0.4C34.6,24.3,34.8,24.2,34.9,24.4z M58.4,24.3c0,0.2-0.3,0-0.5,0.1
			l0-0.1C57.9,24.2,58.2,24.3,58.4,24.3z M61,24.2c0,0,0,0.1,0,0.1c0,0-0.1,0-0.2,0C60.8,24.3,60.9,24.2,61,24.2z M60.2,24.3
			c0,0.1-0.1,0.1-0.1,0.2c-0.1,0-0.2,0-0.3,0c0-0.1,0-0.2,0.1-0.2C60.1,24.1,60.2,24.2,60.2,24.3z M40.9,23.9c-0.1,0,0,0.2-0.3,0.1
			v-0.1H40.9z M66.4,24.3c0.7,0,1.3,0.1,1.9,0.3c-1.1,0.1-2-0.1-3.1-0.1c-0.4,0.5-0.9-0.3-1.5,0c0.4-0.5,1.3,0,1.7-0.4
			C65.8,24.1,66.1,24.1,66.4,24.3z M54.4,24c-0.1,0.2-0.3,0.1-0.4,0C54,23.9,54.3,23.9,54.4,24z M42.5,23.7c0,0.3-0.2,0.1-0.3,0.1
			C42.1,23.7,42.3,23.8,42.5,23.7z M75.8,24.1c-0.4,0.2-1.3,0.1-1.6-0.2C74.8,24,75.3,24,75.8,24.1z M95.6,24L95.6,24
			c-0.2,0-0.7,0.1-0.5-0.2C95.2,23.8,95.4,23.8,95.6,24z M59.3,23.6c0,0,0,0.2,0,0.2c-0.1,0-0.1,0-0.2-0.1
			C59.1,23.6,59.2,23.4,59.3,23.6z M58.9,23.5c0.1,0.3-0.1,0.5-0.4,0.5c-0.6,0.3-0.6-0.5-1-0.3c-0.5,0.4-1.3,0.3-1.9,0.3v-0.4
			C56.7,23.4,58,23.5,58.9,23.5z M45.3,23.5c-0.4,0.2-1,0.1-1.4,0.3c-0.1-0.1-0.2,0-0.3-0.1c0-0.2,0.4-0.2,0.6-0.2
			c0.3,0,0.8-0.1,1.1-0.1V23.5z M72.5,23.7l0,0.2c-1.5,0.2-2.9-0.2-4.4-0.4c1.3-0.1,2.7,0.1,4,0.1L72.5,23.7z M93.8,23.7l-0.1-0.2
			l0.4,0.1L93.8,23.7z M48.5,23c-0.4,0.6-1.3,0.1-1.9,0.4l-0.1-0.1c-0.1,0.1-0.2,0.2-0.3,0.2l-0.1-0.1C46.9,23,47.8,23,48.5,23
			L48.5,23z M93.1,23.2h-0.5v-0.2C92.8,23,93,23.1,93.1,23.2z M91.7,22.8c0,0.2-0.4,0.1-0.4,0L91.7,22.8z M97.8,24.3
			c0.1,0.2-0.1,0.3-0.2,0.3c-0.4,0.1-0.2-0.4-0.5-0.4c-1-0.1-1.7-0.9-2.7-0.8c-0.7-0.2-1.3-0.6-2-0.6l-0.2-0.1
			C94.2,22.9,96,23.5,97.8,24.3z M68.4,22.3c0,0.2-0.2,0.1-0.3,0.2l-0.4,0l0-0.2L68.4,22.3z M49.2,22.2c0,0.2-0.2,0.1-0.4,0.2
			c-1.3,0-2.3,0.2-3.6,0.2c-0.7,0.2-1.5,0.2-2.3,0.2c1.5-0.5,3.2-0.5,4.7-0.6C48.1,22.1,48.7,21.9,49.2,22.2z M50.6,22.1
			c0,0.1-0.1,0.2-0.2,0.2l-0.5,0c0,0,0-0.1,0-0.1C50.1,22.1,50.4,22,50.6,22.1z M69.6,22.2c-0.1,0.2-0.4,0.1-0.5,0
			c0-0.1,0-0.1,0.1-0.2C69.3,22.1,69.5,22.2,69.6,22.2z M67.1,22.1c0,0.1,0.1,0.2,0,0.3c-0.1,0.2-0.4,0.1-0.6,0.2
			c0-0.1-0.1-0.2-0.2-0.2c-0.4-0.1-1.1,0.7-1.1-0.1c-0.4,0-1.1-0.2-1.4,0.3c-0.2,0.2-0.5,0-0.4-0.3c-0.4-0.1-0.8,0-1.1-0.1
			C64,22,65.5,22,67.1,22.1z M65.4,21.3c0,0.2-0.2,0.2-0.3,0.2c-1,0.2-2-0.1-2.9,0.2c-0.4-0.2-1.1,0.1-1.2-0.5
			c1.4-0.4,2.8,0.1,4.1,0C65.2,21.3,65.3,21.3,65.4,21.3z M59.1,69c-0.1,0.2-0.5,0.2-0.7,0.1c0-0.1,0.2,0,0.3-0.1
			C58.9,68.9,59,69,59.1,69z M59.8,69l0.2-0.2l0.2,0.2H59.8z M66.3,68.1c0.1,0.2-0.2,0.2-0.4,0.3c-1.7,0.2-3.4,0.5-5.1,0.6
			c-0.1-0.1-0.4,0-0.3-0.2c0.7-0.4,1.7-0.2,2.5-0.4c0.2,0,0.3,0.1,0.5,0.1c0.6-0.4,1.5-0.3,2.2-0.5C65.9,67.8,66.2,67.8,66.3,68.1z
			 M68.4,67.7c-0.2,0.4-0.7,0.3-1.1,0.4c-0.1,0-0.2-0.2-0.2-0.2c-0.1-0.3,0.2-0.1,0.3-0.2C67.7,67.7,68,67.6,68.4,67.7z M70,67.6
			c-0.2,0.2-0.5,0.2-0.8,0.1C69.3,67.6,69.6,67.5,70,67.6z M68.5,65.4c-0.1,0.3-0.6,0.2-0.9,0.3c-0.1-0.3,0.2-0.3,0.4-0.4
			C68.2,65.3,68.4,65.2,68.5,65.4z M69.3,65.2c-0.1,0-0.2,0.2-0.3,0v-0.1C69.1,65.1,69.3,65.2,69.3,65.2z M69.8,65.1h0.3L70,64.9
			h-0.1L69.8,65.1z M87.4,64.2c-0.2,0.2-0.5,0.3-0.9,0.3C86.8,64.4,87.2,64,87.4,64.2z M88.4,63.9C88.3,64,88,64,87.8,63.9
			c-0.1-0.2,0.2-0.2,0.2-0.2C88.2,63.7,88.4,63.7,88.4,63.9z M73.9,63c0,0.2-0.2,0.1-0.3,0.2c-0.1,0-0.3,0-0.2-0.1
			C73.4,62.8,73.8,62.9,73.9,63z M82.7,62.9c0,0.2-0.2,0.2-0.4,0.4c-0.6-0.4-0.9,0.7-1.5,0.2c-0.5,0.2-1,0.8-1.7,0.6
			c-0.4,0.2-0.8,0.1-1.2,0.3c-1.1,0-2,0.7-3.2,0.7c-0.4,0.2-0.9,0.3-1.5,0.3c0.6-0.5,1.5-0.1,2.2-0.7c1.2,0.2,1.9-0.7,3-0.7
			c1.3-0.5,2.7-1.1,4.1-1.3L82.7,62.9z M74.5,62.8c-0.1,0-0.3,0-0.3-0.1c0-0.2,0.2-0.1,0.3-0.2V62.8z M90.4,62.2
			c0.1,0.3-0.4,0.2-0.7,0.4C89.9,62.4,90.1,62.2,90.4,62.2z M78.2,62.1c0,0.3-0.4,0.2-0.7,0.4c-0.2,0-0.4,0.1-0.6,0
			c0.1-0.3,0.5-0.3,0.8-0.4C77.9,62.1,78.1,62,78.2,62.1z M76.1,62L76,62.1l-0.2-0.2C75.8,61.9,75.9,61.8,76.1,62z M92,61.5
			c-0.3,0.2-0.7,0.4-1.1,0.4c0.2-0.2,0.5-0.4,0.9-0.6C91.9,61.4,92.1,61.3,92,61.5z M86.4,60.2c0,0.4-0.5,0.4-0.7,0.7
			c-0.4,0-0.5,0.6-1,0.5c-0.6-0.2-0.9,0.4-1.4,0.4c-0.3-0.6-0.9,0.3-1.1-0.2c0.4-0.3,1.1-0.2,1.4-0.6C84.6,60.9,85.4,60.4,86.4,60.2
			L86.4,60.2z M90.6,59.2c-0.3,0.2-0.6,0.6-0.6,1.1c-0.4,0.2-0.9,0.3-1.3,0.5h-0.1c0.1-0.5,1-0.2,0.7-0.8c-0.7-0.1-1.3,0.6-2.1,0.6
			h-0.1c0.7-0.4,1.5-0.9,2.3-1.1C89.8,59.5,90.2,59.1,90.6,59.2z M93.4,54.4c0.2,0,0.4-0.1,0.4,0.2c0.2,0.4-0.3,0.4-0.5,0.6
			c-0.3-0.1-0.7,0-0.9,0.2c0,0.2,0.2,0.3,0.1,0.4c-0.2,0.2-0.5,0.1-0.7,0.4c0.2,0.6-0.7,0.6-0.9,1.1c-0.7,0.4-1.5,0.5-2.2,1.1
			c-0.4,0-0.7,0.6-1.1,0.6c-0.2,0.5-0.9,0.2-1.1,0.7c-0.8,0.3-1.7,0.5-2.5,0.9c-0.1,0-0.3,0-0.4-0.1c0.4-0.2,1.1-0.1,1.2-0.7
			c0.5-0.1,0.8-0.7,1.4-0.6c0-0.6,0.8,0,0.9-0.6c0.6,0.1,0.9-0.4,1.4-0.4c0.2-0.1,0.3-0.3,0.3-0.5c-0.2-0.3-0.6,0.1-0.9,0.2
			c-0.3,0.2-0.7,0.4-1.1,0.4c0.4-0.2,0.4-1,1-1c0.4-0.2,0.8-0.4,1.2-0.6c0.1,0.1,0,0.2,0,0.4c-0.1,0.2-0.4,0.3-0.2,0.6
			c0.1,0.2,0.2,0.2,0.4,0.1l0.4-0.4c0.6,0.1,1.1-0.6,1.7-0.6c0.1-0.2,0.3-0.4,0.1-0.6c-0.2-0.4-0.6,0.2-0.8-0.2
			c0.4-0.3,0.9-0.6,1.3-1c0.1-0.2-0.5-0.4,0-0.6c0,0.2,0.2,0.4,0.4,0.2c0.4-0.1,0.4-0.4,0.5-0.7c0.2,0.2,0.4,0.1,0.7,0
			C93.7,54.1,93.1,54.1,93.4,54.4z M114.2,36.8l0.2,0.4l-0.1,0.2l-0.1-0.4L114.2,36.8z M108.5,52.6l0.4-0.1l0-0.2h-0.1L108.5,52.6z
			 M110.1,50.9l0.4-0.1l-0.1-0.2L110.1,50.9z M103.7,42.2l0.2-0.1l-0.1-0.2h-0.1L103.7,42.2z M107.3,41.2h-0.2v-0.4l0.4-0.1
			L107.3,41.2z M93.7,60.5c0,0.2-0.2,0.2-0.3,0.3H93C93,60.5,93.5,60.4,93.7,60.5z M94.4,60.5c0-0.2,0.2-0.2,0.3-0.2
			C94.7,60.4,94.5,60.5,94.4,60.5z M99.1,54c-0.7,0.4-1.1,1.3-2,1.3c-0.2,0.1-0.3,0.2-0.4,0.4c-1.2,0.6-2.4,1.4-3.6,2
			c-0.1,0-0.2,0-0.2,0c0.1-0.4,0.4-0.3,0.7-0.5c0.6-0.4,1.2-0.7,1.9-0.8c0.3-0.3,0.4-0.9,0.9-0.9c0.2-0.4,0.7-0.3,0.9-0.7
			C98.1,55,98.4,54,99.1,54z M91.9,53.8c0,0.2-0.3,0.2-0.4,0.4h-0.2c0-0.2,0.1-0.4,0.3-0.5C91.7,53.6,91.8,53.7,91.9,53.8z
			 M91.2,53.3c0.2,0.5-0.4,0.5-0.7,0.8h-0.1C90.7,53.8,90.7,53.3,91.2,53.3z M95.6,53.3c0.2-0.2,0.7-0.7,1.1-0.9
			C96.3,52.8,96.1,53.1,95.6,53.3z M110.6,50.3l0.4-0.1l-0.1-0.2h-0.1L110.6,50.3z M108.9,52.1h0.2l0.1-0.2L108.9,52.1L108.9,52.1z
			 M101.7,52c-0.2,0.6-0.9,0.9-1.4,1.3c-0.1,0-0.2,0.1-0.3,0.1c0.2-0.6,0.8-1.1,1.4-1.3C101.5,52.1,101.6,52.1,101.7,52z M97.4,51.8
			c0,0.1-0.2,0.2-0.3,0.2C97.1,52.1,97.3,51.7,97.4,51.8z M96.8,51.9c-0.5,0.6-1.3,0.7-1.7,1.3c0,0.1,0.1,0.1,0.2,0.1
			c0,0.4-0.3,0.2-0.5,0.4c-0.2-0.1-0.1-0.4-0.4-0.3l-0.6,0.4c0.1-0.2,0.1-0.4,0.2-0.7c0.5,0.2,0.9-0.2,1.2-0.5
			c0-0.6,0.8-0.2,0.9-0.8c0-0.2-0.1-0.4,0.2-0.4C96.8,51.4,96.6,51.8,96.8,51.9z M108,51.2c-0.7,0.4-1.1,1-1.7,1.6
			c-0.1,0.1-0.4,0-0.4,0.2c0.2,0.6-0.4,0.7-0.7,1c-0.5-0.2-1,0.5-1.4,0.8c-0.8,0.6-1.7,1.5-2.6,1.9l-0.5,0.3c-0.4-0.7,0.7-0.6,0.9-1
			c0.5,0,0.3-0.8,0.8-0.7l1.4-1.1V54c0.5-0.5,1.4-0.7,1.4-1.5c0.2-0.1,0.5,0,0.6-0.2c0.2-0.6,0.9-1.1,1.3-1.6
			c0.5,0.1,0.7-0.6,1.1-0.7C107.9,50.4,108.5,50.9,108,51.2z M109.2,51.4c-0.7,1.1-2,1.8-2.7,2.9c-1.1,0.5-1.7,1.6-2.8,2.1
			c-0.4,0.4-1,0.6-1.5,0.9v0.2l0.5,0c0,0.1-0.2,0.2-0.3,0.2c-0.3-0.2-0.7-0.2-1,0c-0.2,0.2-0.3,0.5-0.2,0.7l-0.2,0.2
			c-0.3-0.1,0-0.5-0.2-0.6c-0.4,0-0.9,0.7-1.2,0.2c0-0.2,0.1-0.4,0.3-0.5c1-0.6,2.1-1.1,3-1.9c0.4-0.3,1.1-0.1,1.5-0.5
			c1-0.9,2-1.5,3-2.5c-0.2-0.4,0.2-0.5,0.4-0.7c0.7-0.8,1.5-1.3,2.1-2.1l0.4-0.3C110.3,50.5,109.5,50.9,109.2,51.4z M97.2,49.6
			c-0.1,0.3-0.5,0.2-0.4,0.5c0.2,0.2,0.4,0,0.7,0.2c0.1,0.1,0,0.3-0.2,0.3c-0.2,0.1-0.4,0-0.5,0.2c-0.2-0.1-0.2-0.4-0.5-0.3
			c-0.3,0.5-1,0.7-1.2,1.2c-1.1,0.1-1.2,1.5-2.3,1.6l-0.3,0v-0.2c0.8-0.2,1.1-1.1,1.9-1.2c0.4-0.4,0.7-0.6,1.2-0.8l1.5-1.5
			C97.1,49.6,97.2,49.6,97.2,49.6z M95.8,50C95.7,50,95.7,49.9,95.8,50c-0.1-0.3,0.2-0.3,0.4-0.4C96.1,49.8,95.9,49.8,95.8,50z
			 M99,49.5l-0.3-0.1l0.4-0.3C99.1,49.2,99.2,49.4,99,49.5z M111.4,48.9c0-0.1,0.1-0.2,0.1-0.3C111.6,48.7,111.5,48.8,111.4,48.9z
			 M98.1,48.8c-0.1,0-0.1,0-0.1,0c0-0.2,0.1-0.3,0.2-0.3C98.4,48.5,98.2,48.7,98.1,48.8z M97.4,48.6c-0.4,0.5-0.6,0.2-1,0.5
			c0-0.1-0.1-0.1,0-0.2c0.4,0.1,0.7-0.3,0.9-0.5c0-0.2-0.3-0.4-0.1-0.6C97.3,47.9,97.3,48.3,97.4,48.6z M98.1,48
			c-0.1,0.1-0.2,0.3-0.4,0.3c-0.1-0.1-0.2-0.2-0.2-0.4C97.6,47.6,98.3,47.5,98.1,48z M100.6,47.5c-0.2,0.2,0,0.6-0.3,0.6
			c-0.2,0.6-0.9,0-0.9,0.7L99.2,49c0-0.2,0-0.3-0.1-0.4c0.4-0.4,0.9-0.9,1.3-1.4C100.5,47.2,100.6,47.4,100.6,47.5z M98.4,47.4
			c0-0.2,0.2-0.3,0.2-0.4C98.7,47.1,98.7,47.4,98.4,47.4z M98,47.1c-0.2,0-0.4,0.1-0.6,0.2c-0.1-0.2,0.1-0.3,0.2-0.3l0.4-0.1V47.1z
			 M111,47c0,0.4-0.4,0.7-0.6,1c-0.1,1.1-1.3,0.5-1.7,1.5l-0.1,0.1c0-0.2-0.2-0.3,0-0.5c0.4-0.6,1.1-0.1,1.4-0.9
			c-0.1-0.4,0.6-0.4,0.2-0.8C110.3,47.1,110.6,46.8,111,47z M98.6,46.2c0,0.2-0.2,0.3-0.3,0.4C98.4,46.4,98.5,46.2,98.6,46.2z
			 M98.5,45.6c0,0.1,0,0.2-0.2,0.2c0-0.1-0.2,0-0.2-0.2c0-0.2,0-0.4,0.2-0.4C98.5,45.2,98.5,45.4,98.5,45.6z M97.6,44.8l0.2-0.1
			l-0.1-0.1L97.6,44.8z M111.7,45.3c-0.1-0.2,0.1-0.5,0.3-0.6C111.9,45,111.9,45.2,111.7,45.3z M102.2,44.6
			c-0.1,0.2-0.1,0.4-0.3,0.6c-0.2,0-0.4,0.1-0.4-0.1c0.2-0.2,0.2-0.5,0.2-0.7l-0.2-0.2c0.3,0,0.5-0.1,0.7-0.2
			C102.6,44.1,101.5,44.3,102.2,44.6z M103.4,42.6l0.2,0l-0.1-0.2L103.4,42.6z M98.9,42.2c0,0.4-0.4,0.6,0,1c-0.3,0.4-0.4,1-0.3,1.6
			c0,0-0.1,0-0.1,0c-0.2-0.1-0.2-0.4-0.1-0.6c-0.2-0.2-0.3,0.2-0.5,0.2c-0.1-0.4,0.3-0.8,0.2-1.2c0-0.6,0.9-0.4,0.7-1.1H98.9z
			 M99.4,42.6c-0.2,0-0.1-0.5,0.1-0.6C99.6,42.3,99.3,42.4,99.4,42.6z M115.2,40.6l0.1,0.2v0.2h-0.1V40.6z M98.2,40.4l0.2-0.1
			l-0.1-0.2h-0.1L98.2,40.4z M106.9,40.6h-0.2v-0.4l0.4-0.1L106.9,40.6z M99.2,40.5c0.3,0.2,0.3-0.2,0.5-0.3c0.1,0.3-0.4,0.6,0,0.9
			c0,0.1,0,0.2-0.2,0.2c-0.3,0-0.5,0-0.7-0.2c0.3-0.4-0.2-0.7,0-1.2C99,40,98.9,40.4,99.2,40.5z M115.1,39.9l0.1,0.3v0.2l-0.2-0.3
			L115.1,39.9z M97.6,39.5c0,0,0,0.1,0,0.1c-0.1,0-0.2-0.1-0.2-0.2C97.4,39.5,97.5,39.4,97.6,39.5z M99.7,40
			c-0.2-0.1-0.1-0.4-0.1-0.6C99.8,39.5,99.7,39.8,99.7,40z M100.5,40.3c0-0.4-0.2-0.9,0-1.2C100.7,39.5,100.6,39.9,100.5,40.3z
			 M115.1,39.2c0,0.1-0.1,0-0.2,0V39C115,39,115.1,39.1,115.1,39.2z M114.8,38l0,0.5c-0.1,0-0.1,0-0.1,0c-0.2-0.1-0.1-0.4-0.2-0.6
			C114.5,37.8,114.8,37.9,114.8,38z M94.7,37.5c-0.3,0.4-0.9,0.2-1.3,0.5c-0.4,0-0.7,0.3-1.1,0.3l-0.1,0c0.7-0.3,1.6-0.4,2.3-0.7
			H94.7z M96.7,36.9c0,0.1-0.3,0.1-0.4,0.2c-0.2,0.1-0.5,0.3-0.8,0.2C95.8,37.2,96.2,36.9,96.7,36.9z M99.6,36.1
			c-0.1,0.1-0.3-0.2-0.2-0.3L99.6,36.1z M99.1,35.6c0.4-0.2,0.1-0.3-0.1-0.4L99.1,35.6z M113.8,36.3c-0.5-0.3-0.2-1-0.6-1.3
			C113.5,35.3,113.9,35.7,113.8,36.3z M98.5,36.2c0.2,0.2,0.2-0.3,0.4-0.1c0.4,0.3-0.2,0.4-0.2,0.6c-0.6,0.2-0.7-1.1-1.1-0.1
			c-0.3-0.4-0.8-0.7-1-1.1c0-0.1,0.2-0.1,0.3,0c0.2,0.2,0.3,0.7,0.7,0.5c0.1-0.1,0.1-0.3,0-0.5c-0.2-0.2-0.3-0.5-0.4-0.7
			C97.9,35,98.1,35.7,98.5,36.2z M94.2,33.9c-0.3,0.2-0.6-0.2-0.9-0.3C93.6,33.4,93.9,33.8,94.2,33.9z M96.5,33.2
			c0,0.1-0.1,0.2-0.2,0.3c-0.2-0.1-0.3-0.3-0.3-0.4C96.2,33,96.4,33.1,96.5,33.2z M94.9,33.7c-0.1,0.2-0.3,0-0.4,0l-0.2-0.3
			c0.1,0,0.3-0.1,0.3-0.2v-0.2C95,32.9,94.6,33.5,94.9,33.7z M93,31.4c0,0.2-0.1,0.5,0.2,0.6c0.1,0,0.3-0.1,0.4,0.1
			c0,0.1,0,0.2,0.1,0.3h0.2c0,0.1-0.1,0.2-0.1,0.3c-0.3,0-0.4-0.4-0.7-0.1l-0.3-0.4c-0.2,0.1-0.2,0.4-0.4,0.7l0.6,0.4
			c-0.2,0.2-0.9-0.2-0.9,0.3c-0.1,0-0.1-0.1-0.2-0.1c0.1-0.2,0.4-0.4,0.2-0.7l-0.1-0.1c0.2-0.1,0.6-0.4,0.4-0.8
			c-0.2-0.2-0.2-0.4-0.4-0.7C92.5,30.9,92.8,31.3,93,31.4z M97.7,40.4c0,0.8,0,1.4-0.1,2.1c0,0.2,0.2,0.1,0.3,0.1
			c0,0.2,0,0.5-0.2,0.6c-0.1-0.1-0.2-0.2-0.4-0.1c-0.3,0.2,0.2,0.6-0.1,0.8c0.2,0.6-0.6,0.7-0.4,1.3c-0.1,0.1-0.2,0.2-0.2,0.4
			c0.2,0.2,0.4,0.4,0.6,0.1l0.4-0.7c0.2,0.5-0.6,1-0.4,1.6c-0.2,0.3-0.6,0.5-0.6,1c-0.1,0.5-0.8,0.2-0.7,0.8
			c-0.2,0.1-0.4,0.2-0.4,0.4c0.1,0.2-0.2,0.3-0.3,0.5c-0.1,0-0.3,0.1-0.3-0.1c-0.1-0.2,0.1-0.2,0.1-0.3c-0.2,0-0.4,0.4-0.6,0.6
			c0.2,0.2,0.3,0.4,0.1,0.7c0,0.1-0.1,0.1-0.1,0.2c-0.2-0.1,0.2-0.4-0.2-0.4c-0.2-0.1-0.3,0.1-0.4,0.2c0,0.2-0.1,0.2-0.2,0.3
			c-0.2,0.4-0.7,0.5-0.9,1c0.1,0.4,0.4,0.1,0.7,0c0.3,0,0.1-1.1,0.5-0.4c-0.3,0.2-0.4,0.4-0.4,0.7c-0.4,0.1-0.7,0.7-1.1,0.5
			c0-0.2,0.4-0.2,0.3-0.5c-0.2-0.4-0.4,0.2-0.7,0.1c-0.3,0.2,0.2,0.6-0.3,0.6c-0.5,0-1,0.5-1.5,0.9c-0.2,0.2-0.1,0.6-0.6,0.5
			c-0.2,0.2-0.8,0.4-0.6,0.8c0.4-0.1,0.9-0.6,1.3-0.3c-0.1,0.5-0.9,0.3-0.8,0.9c-0.1,0.2-0.8,0.1-0.4,0.5c0,0.4-0.5,0.4-0.7,0.5
			c-0.2,0.3-0.5,0.4-0.5,0.7c-0.4,0.3-0.8,0.5-1.2,0.7c0-0.1,0-0.2,0.1-0.2c-0.2-0.2-0.6,0.2-0.9,0.2c-0.5,0.5-1.3,0.7-1.8,1.1
			c0.4,0.2,0.9-0.1,1.3-0.2C85,59.4,84,59,83.6,59.8c-1,0.1-1.7,0.9-2.8,1c-0.9,0.3-1.7,0.7-2.6,0.9c-0.1-0.1,0-0.3,0.1-0.3
			c0.1,0,0.3-0.1,0.4-0.1c-0.1-0.2-0.3-0.1-0.4,0h-0.1c0-0.2,0.1-0.4,0.3-0.4c0.2,0,0.4,0,0.5-0.2c0-0.1-0.1-0.1-0.1-0.1
			c-0.5,0-0.9,0.6-1.3,0.6c-0.7,0.1-1.2,0.6-1.8,0.6c-1.6,0.5-3.1,1.4-4.8,1.9c-1.1,0.3-2.2,0.8-3.2,1.2c-1.4,0.4-2.8,0.8-4.2,1.2
			c-0.1,0.1-0.2,0.1-0.2,0.2c1.1,0,2.3-0.6,3.5-0.5c0.1,0.1-0.1,0.3-0.3,0.3c-3,0.7-5.9,1.5-8.9,2c-0.7,0.2-1.5-0.3-1.9,0.3
			c0,0.1,0.2,0.2,0.2,0.3c-0.4,0.2-1.3-0.2-1.3,0.4c0.4,0,0.9,0,1.3,0.2c0,0.2-0.2,0.2-0.4,0.2c-2.2,0.2-4.5,0-6.7-0.3
			c-0.3-0.1-0.7-0.1-0.9-0.4c-0.9-0.5-2.4-0.5-2.5-1.9c-0.2-0.7,0-1.4,0.2-2.1c0.4-1,1.4-2,2.3-2.7c0-0.2,0.4-0.1,0.5-0.3
			c0.7-0.6,1.5-0.9,2.2-1.5c0.8-0.4,1.5-1,2.3-1.4c1.1-0.5,2.2-1.1,3.3-1.8c0.6-0.3,1-0.7,1.6-0.9c1.4-0.8,2.9-1.5,4.3-2.3
			c0.4,0,0.7-0.4,1.2-0.4c0.2,0,0.5-0.1,0.8-0.1v0.1c-0.6,0.4-1.2,0.8-1.8,1.2c0,0.1,0.1,0.2,0.1,0.3c0.4-0.2,0.9-0.4,1.3-0.4
			c0.6-0.4,1.2-0.7,1.7-1c0.9-0.4,1.9-0.7,2.8-1.3c0.1-0.4,0.3-0.3,0.7-0.4c1.2-0.5,2.2-1.3,3.5-1.6c0.3-0.7,1.2-0.2,1.5-0.8
			c1-0.3,1.8-1,2.8-1.1c0.1-0.2,0.2-0.4,0.3-0.4c0.3,0.1,0.6-0.2,0.9-0.3c0.9-0.4,1.7-0.7,2.5-1.1c0-0.2-0.2-0.6,0.2-0.6
			c0.4,0,1-0.6,1.3,0c0.5-0.1,1.1,0,1.5-0.4c-0.3-0.2,0-0.4,0.1-0.6c0.7-0.2,1.3-0.4,2-0.7c0.7-0.2,1.4-0.7,2.2-0.7
			c-0.1,0.4-0.6,0.2-0.9,0.4c0,0.2-0.2,0.1-0.3,0.2l0.1,0.1c1.7-0.6,3.5-1.2,5.2-1.9c0.1-0.1,0.2-0.2,0.2-0.3
			c-0.3-0.2-0.7,0.1-1.1,0.1v-0.1c0.7-0.4,1.3-0.6,2-0.8l0.2-0.2c1.3-0.3,2.6-0.7,3.8-1.2C97.6,39.9,97.6,40.2,97.7,40.4z
			 M54.9,68.2v0.1c-0.8-0.1-1.5,0.1-2.2,0.2c-0.1,0-0.2,0.1-0.1,0.2l0.2,0.1c-0.8,0-1.7,0-2.5-0.2c-0.2-0.1-0.1-0.3-0.1-0.5
			c0.1-0.1,0.1-0.2,0.2-0.2C51.9,68.2,53.3,68.2,54.9,68.2z M58.1,67.3c-0.1,0.1-0.5,0.1-0.6,0.1l0-0.1
			C57.6,67.2,58.1,67.2,58.1,67.3z M62.4,66.5c-1.4-0.1-2.4,0.7-3.7,0.6c1.1-0.4,2.3-0.3,3.3-0.7h0.4V66.5z M40.9,63.5
			c-0.1,0-0.2-0.1-0.2-0.2C40.8,63.3,41,63.4,40.9,63.5z M50.6,62.4c-0.1,0.1-0.1,0.3-0.3,0.3h-0.2C50.1,62.5,50.4,62.4,50.6,62.4z
			 M42,62.2c-0.4,0.3-0.4,0.8-0.9,0.9C41.2,62.6,41.7,62.4,42,62.2z M40.8,62.3c0.2,0.2-0.2,0.4,0,0.7c-0.2,0.2-0.3,0.1-0.5,0
			c0-0.4-0.5-0.2-0.5-0.6c0.1-0.5,0.7-0.9,1-1.2C40.8,61.5,40.8,61.9,40.8,62.3z M54.1,60.1L54,60.3c-0.9,0.5-1.7,1.3-2.8,1.6
			c0-0.6,0.7-0.8,1.1-1.2c0.5-0.3,0.9-0.7,1.5-0.9C53.9,59.9,54,60,54.1,60.1z M80.3,60c0,0.2,0.1,0.4,0.1,0.5
			c-0.4,0.2-0.7,0.4-1.2,0.5c0.2,0,0.5-0.4,0.3-0.7c-0.1-0.1-0.2-0.1-0.2-0.3C79.6,59.8,80.1,59.7,80.3,60z M83.6,58.9v0.2
			c-0.8,0.3-1.4,1-2.4,0.8c-0.2,0.4-0.5-0.3-0.9-0.1c0.2-0.3,0.6-0.4,0.9-0.5c0.1,0.1,0.3,0.3,0.5,0.3c0.2-0.4,0.8-0.1,1-0.5
			c0.2,0,0.2,0.2,0.4,0.1C83.2,59,83.4,58.7,83.6,58.9z M43.4,58.6c-0.1,0.5-0.7,0.6-1,0.8c0,0-0.1-0.1-0.1-0.2
			C42.6,58.9,43,58.6,43.4,58.6z M82.6,58.6c-0.2,0.3-0.5,0.4-0.9,0.5C81.9,58.8,82.3,58.6,82.6,58.6z M57.6,58
			c-0.5,0.4-1.1,0.6-1.7,1.1c-0.4-0.2-0.8,0.8-1,0.2c0.2-0.6,0.9-0.3,1.1-0.9c0.6,0,1-0.4,1.5-0.6V58z M91.5,58.1
			c-0.1,0.1-0.3,0.2-0.2,0.4l0.1,0.1c-0.6-0.4-1,0.3-1.6,0.3c-0.4,0.2-0.8,0.5-1.3,0.4c0.9-0.4,1.7-0.9,2.6-1.4L91.5,58.1z
			 M83.9,58.2c-0.2,0-0.3,0-0.4,0.2v0.1c-0.2,0-0.2-0.1-0.2-0.2v-0.2l1.1-0.7C84.7,57.9,84.1,58,83.9,58.2z M86.2,56.7
			c0,0.2-0.6,0.2-0.5,0.6c-0.3,0.2-0.7,0.2-1,0l0-0.1l1.1-0.7C85.9,56.6,86,56.7,86.2,56.7z M62.3,55.2c0,0.3-0.3,0.4-0.5,0.6
			c-0.9,0.5-1.8,0.9-2.6,1.5c-0.3,0-0.6,0.3-0.9,0.3c0.2-0.4,0.7-0.5,1.1-0.8l0-0.1c0.9-0.2,1.8-1.1,2.7-1.5H62.3z M88.7,55.1
			c0.1,0.2-0.4,0.2-0.2,0.5c-0.4,0.3-0.8,0.5-1.3,0.6c0,0.4-0.4,0.4-0.6,0.5h-0.2c-0.2-0.7,0.6-0.5,0.7-1.1c0.4-0.4,1-0.5,1.4-0.9
			C88.7,54.8,88.7,55,88.7,55.1z M100.2,47.8c0,0.1,0,0.1-0.1,0.1H100v-0.2C100,47.8,100.2,47.7,100.2,47.8z M96.8,46.4
			c0,0.4-0.7,0.5-0.7,1c-0.5,0.2-0.6,0.7-0.9,1.1h-0.1c0.1-0.9,1.3-1.1,1.1-2c0.1-0.1,0.2-0.2,0.3-0.2
			C96.7,46.2,96.7,46.3,96.8,46.4z M68.6,45.9c0.1,0.2-0.2,0.2-0.2,0.2c-0.1,0-0.2,0-0.4-0.1c0-0.2,0.2-0.2,0.4-0.3
			C68.4,45.9,68.6,45.8,68.6,45.9z M86,44.8c-0.6,0.2-1.2,0.6-1.9,0.6v-0.1c0.5-0.3,1.1-0.5,1.6-0.8C85.9,44.6,86.1,44.6,86,44.8z
			 M73.5,43.9l-0.1,0.3c-1.3,0.4-2.6,0.9-3.9,1.3h-0.4l0.2-0.2c1.3-0.5,2.6-0.9,3.8-1.5C73.3,43.9,73.4,43.8,73.5,43.9z M97.4,40.4
			c0,0.4-0.7,0.4-1,0.6c-0.9,0.2-1.7,0.6-2.6,0.7c0.2-0.2,0.6-0.4,0.9-0.5C95.7,41.2,96.5,40.6,97.4,40.4z M88.7,28.9L88.7,28.9
			c-0.7,0-1.3-0.3-1.8-0.6l0-0.1C87.6,28.2,88,28.7,88.7,28.9z M29,26.8c-2.6,0.4-5.3,0.9-7.8,1.6C21,28.5,21,28.3,21,28.2
			c1.6-0.6,3.4-0.7,5.2-1C27.1,27.1,28,26.8,29,26.8L29,26.8z M80.7,27.3c0.4-0.2,0.9,0,1.3,0.2c0.1,0.2-0.2,0.2-0.2,0.2
			c-0.6-0.2-1.3-0.3-2-0.2c0.1,0.3,0.5,0.2,0.7,0.5c-0.8,0.1-1.5-0.4-2.4-0.4c0-0.1-0.2-0.2,0-0.3c0.2-0.2,0.6,0,0.7-0.2
			c0.4-0.1,0.4,0.5,0.8,0.3c0-0.1-0.1-0.1-0.1-0.2c0-0.5,0.5-0.2,0.8-0.1C80.5,27.2,80.5,27.4,80.7,27.3z M78,27l-0.4,0.1
			c0.1,0.1,0.1,0.3,0.1,0.4c-0.1,0.1-0.4,0-0.5-0.1c-0.1,0-0.1-0.1,0-0.2c0.1-0.2,0.4-0.1,0.3-0.4C77.7,26.8,77.9,26.9,78,27z
			 M76.7,26.7H77l-0.2-0.2h-0.1V26.7z M44.9,25.4c-0.8,0.4-2.1,0.1-2.9,0.1C43,25.4,43.9,25.6,44.9,25.4z M63.4,25.4v0.2
			c-0.3,0-0.5-0.1-0.8-0.1c0.1-0.2,0.5-0.2,0.7-0.1C63.4,25.4,63.4,25.5,63.4,25.4z M53,25.2c-0.7,0.3-1.9-0.1-2.8,0.1
			c-1.4,0.3-3.1-0.1-4.6,0.2c2.1-0.3,4.5-0.3,6.7-0.4L53,25.2z M62.3,25.2c0,0.1-0.1,0.2-0.2,0.2c-1.6-0.1-3.4-0.1-5-0.2
			c1.5-0.2,3.2,0.1,4.6-0.1C61.9,25.2,62.1,25.1,62.3,25.2z M142.2,23.3c0,0.4-0.6,0.3-0.7,0.7c-0.4-0.1-0.9-0.5-1.2-0.2l0.2,0.3
			c-0.2,0.2-0.5,0.4-0.9,0.2c0.1-0.1,0.3-0.1,0.2-0.3c0-0.1-0.3-0.1-0.2-0.3c0.6-0.5,1.3-0.2,1.9-0.5C141.7,23,142,23.1,142.2,23.3z
			 M142.7,23v0.2c-0.1,0-0.2-0.1-0.3-0.2c0-0.1,0,0,0.1-0.1C142.6,22.8,142.7,22.8,142.7,23z M144.3,22.4c-0.2,0.1-0.4,0.2-0.7,0.3
			c-0.2,0-0.4,0.2-0.7,0.2l0-0.2C143.5,22.6,143.9,22.5,144.3,22.4z M53.3,21.2c0,0.2-0.3,0.1-0.4,0.2c-0.1-0.1-0.3,0-0.4-0.2
			C52.8,21.1,53.1,21.2,53.3,21.2z M86.6,20.9c-0.4,0.2-0.9,0.1-1.3-0.2C85.6,20.4,86.2,20.9,86.6,20.9z M95.1,35.3
			c0.2,0,0.9,0.6,1,0.5c0.2,0.2,0.5,0.4,0.4,0.7c-0.9,0.4-1.7,0.7-2.6,0.8c0.2-0.1,0.5-0.2,0.4-0.5c-0.4-0.2-0.9,0.3-1.4,0.3
			c-1,0.3-1.9,0.8-2.9,1c-2.1,0.8-4.4,1.2-6.5,2c-0.2,0.1-0.5,0.1-0.6,0.4c0.4,0.4,0.8-0.1,1.2-0.1c0.5-0.1,1.1-0.3,1.6-0.4
			c-0.9,0.4-1.9,0.9-3,1c-1.3,0-2.1,1.1-3.4,1c0.3-0.3,0.7-0.2,1-0.5c0,0,0-0.1,0-0.1c-2,0.6-4,1.5-6,2.2c-0.6,0.1,0,0.6-0.4,0.8
			c-1.6,0.8-3.3,1.1-4.8,2.1l-4.6,2.1c-0.3,0.6-1.1,0.2-1.5,0.8c-0.9,0.2-1.6,0.8-2.6,0.9c-0.2,0-0.4-0.2-0.2-0.4
			c0.8,0,1.4-0.7,2.2-1c0.3-0.7,1.2-0.3,1.5-0.9c0.8-0.2,1.5-0.8,2.3-1v-0.1c-0.6,0-1,0.4-1.5,0.6c-1.3,0.3-2.4,1.2-3.7,1.5
			c-2.9,1.4-6,2.5-8.8,4.1c-0.1,0.2,0.1,0.7-0.3,0.7c-0.1-0.1-0.2-0.2-0.2-0.3c-0.9,0.3-1.8,0.9-2.6,1.3l0.1,0.2
			c0.2,0,0.3-0.1,0.5-0.1c-0.1,0.2-0.3,0.2-0.4,0.4c-0.2,0.1-0.3,0-0.5-0.2c-0.5,0-0.8,0.4-1.2,0.7c-0.3,0.2,0.2,0.4-0.1,0.6
			c-0.2,0.2-0.4-0.1-0.6-0.1c-0.9,0.5-1.8,1-2.7,1.7c-0.1,0.1-0.1,0.2,0,0.2c0.6-0.2,1.2-0.6,1.7-0.8c-1.2,0.7-2.3,1.6-3.5,2.4
			c0,0.6-0.7,0.6-0.9,1c0.3,0.2,0.2,0.8,0.7,0.8c0.5-0.2,0.8-0.8,1.3-1.1c0-0.3-0.3-0.1-0.4-0.3c0.2-0.3,0.5-0.6,0.9-0.7
			c0.5-0.3,0.3,0.5,0.7,0.4c0.6-0.5,1.2-0.9,1.8-1.3l0.1,0.1c-2.2,1.8-4.3,3.9-5.9,6.1V65c0.3,0.2,0.2,0.6,0.3,0.9
			c0.2,0.2,0.2,0.5,0.5,0.7c0.8,0.6,0.8-0.7,1.5-0.9c0.1-0.2-0.1-0.4-0.2-0.5l0.3-0.3c-0.1-0.6,0.6-1,0.9-1.4c0-0.2,0.1-0.3,0.2-0.4
			c0.2-0.1,0.5-0.4,0.7-0.2c-0.5,0.8-1.4,1.5-1.4,2.4c-0.3,0.3,0,0.6,0,0.9c0,0.4-0.4,0.1-0.6,0.2v0.3c0.6,0.4,1.2,0.9,1.7,1.4
			c1.6,0.8,3,1.3,3.9,1.4c4.6,0.9,9.7,0.7,14.4,0.2c2.4-0.3,4.7-0.7,7.1-0.9c2.3-0.3,4.6-1,7-1.2c0.4-0.6,1.2,0,1.8-0.3
			c3.7-0.9,7.4-1.8,10.9-3.1c0.1,0,0.1-0.1,0.1-0.2c-0.2-0.3-1,0.2-1-0.4c1.7-1,3.4-1.6,5.1-2.5c0.9,0,1.5-0.9,2.4-1l0.9-0.5
			c0-0.1,0-0.3-0.2-0.3c-0.8,0.2-1.4,1-2.2,0.8c-0.1,0,0-0.1,0-0.1c0.5-0.5,1.2-0.6,1.7-1.1c0.4-0.2,0.8-0.8,1.3-0.6
			c0.4-0.1,0.5-0.8,1-0.5c0.3-0.8,1.1,0.1,1.3-0.6c0,0,0,0,0.1,0c-0.6,0.6-1.3,1.2-2.2,1.3c-0.1,0.2-0.4,0.2-0.3,0.4
			c0.4,0.5,0.8-0.3,1.2-0.1L99,59c-1,0.6-2,1.3-3.1,1.7c0,0.4-0.5,0.3-0.7,0.5c-0.7-0.1-0.8,0.7-1.4,0.6c-1.1,0.9-2.4,1-3.6,1.7
			c0,0.1,0,0.2,0.2,0.2c1.4-0.4,2.8-0.9,4.1-1.6c1.3-0.4,2.6-1.1,3.9-1.6c0.8-0.4,2.4-0.9,3.6-1.7l0.2-0.3c0.2-0.2,0.3-0.2,0.5-0.4
			c3.2-1.7,6.4-4.2,8.8-7c0-0.3,0.4-0.4,0.4-0.7c0.8-0.8,1.1-1.9,1.8-2.8c-0.2-0.4,0.4-0.4,0.2-0.9c0.6-0.9,0.9-1.8,1.1-2.7
			c0.2-0.6,0.4-1.3,0.4-2h-0.1c-0.1,0.5,0,1.1-0.5,1.4l-0.2-0.2c-0.1-0.3,0-0.6,0.2-0.7c0.2-0.3,0-0.6-0.2-0.9
			c0-0.4,0.5-0.3,0.7-0.4c0-0.7,0.3-1.4,0-2c-0.1-0.2,0-0.6-0.2-0.8c-0.1-0.5-0.2-1.1-0.4-1.6c-0.1-0.2-0.1-0.5-0.4-0.5
			c0.1-0.9-0.7-1.5-0.9-2.2c1.7-1.1,3.8-1,5.5-2.1c0.3-0.2,0.4,0.2,0.7,0.2c0.2-0.1,0.8-0.2,0.7-0.5c0.1-0.2,0.4-0.1,0.5-0.3
			l-0.6-0.1c0.3-0.1,0.5-0.4,0.9-0.3c0.9-0.6,2.1-0.7,3.1-1.1c3.1-1.4,6.4-2.1,9.5-3.3c-0.7-0.2-1.1,0.3-1.7,0.3
			c0-0.1-0.1-0.1-0.1-0.2c1.3-0.6,2.8-0.4,4.1-1c0.4-0.6,0.8-0.3,1.3-0.4c0.2-0.1,0.4-0.4,0.7-0.4c0.4-0.1,0.7-0.3,1-0.2v-0.7
			c-0.4-0.2-0.9,0-1.4,0c-0.3,0-0.1,0.4-0.4,0.6l-0.2-0.2c0-0.1,0.2-0.2,0-0.3c-0.7,0-1.1,0.4-1.7,0.5c-1.3,0-2.2,0.8-3.4,0.8
			c-1,0.4-2,0.5-3,0.9c-1.9,0.4-3.7,0.9-5.6,1.4c-0.2,0-0.4,0.1-0.5-0.1c-0.4-0.1-0.3,0.4-0.5,0.4c-0.2,0.1-0.6,0.2-0.7-0.1
			c-0.2-0.1-0.4,0.3-0.6,0.5c-0.8,0.3-2.1,0-2.2,1.1c-0.4,0.2-0.2-0.3-0.4-0.4c-0.5,0-1.1,0-1.3,0.6c-0.5-0.4-1.1,0-1.5,0.2
			c-0.8-0.1-1.1,0.7-1.9,0.6c-0.9,0.3-1.8,0.6-2.8,0.9c-0.2-0.2-0.6-0.3-0.6-0.6c0.2,0-4-2.8-4.5-3.2c-1.3-0.6-2.5-1.9-3.9-2
			c-0.2-0.2-2.2-0.7-2.3-1c-2.6-0.9-5.2-2-8-2.5c-0.3-0.2-0.8-0.3-1.1-0.3c-1.2-0.4-2.5-0.7-3.7-0.7l0.2,0.2
			c1.3,0.3,2.5,0.7,3.8,0.9c0,0.1,0.1,0.1,0.1,0.2l-4.8-0.7c-2.8-0.5-5.7-0.7-8.6-1c-5.1-0.4-9.7-0.3-14.8-0.2
			c-1.5,0.1-2.8,0.4-4.4,0.3c-0.1,0.1,0,0.2,0,0.3c0.2,0.3,0.6,0,0.9,0c0.3,0.1,0.9,0,0.8,0.4c0,0.1,0,0.2-0.1,0.2
			c-0.7,0.3-1-0.5-1.7-0.2c-0.1,0-0.1,0.2-0.2,0.1c-0.1-0.3-0.9-0.1-0.6-0.6c0.1-0.1,0.3,0,0.4-0.2c-1.4-0.1-2.8,0.2-4.1,0.2
			c-0.2,0.2,0.1,0.4,0.1,0.6c0.2,0.2,0.6,0,0.8-0.2c0.7-0.1,1.5,0.2,1.9-0.5c0.3,0,0.5-0.1,0.8,0.1c-0.2,0.6-1,0-1.2,0.5
			c-0.3,0.1-0.7,0-0.8,0.4c-0.3,0-0.7-0.1-0.8,0.2l0.1,0.1c2.2,0,4.5-0.4,6.7-0.2c0,0.3-0.6,0-0.5,0.4c-0.1-0.1-0.2,0.1-0.2,0.1
			c0,0.2,0,0.4,0.2,0.5c0.3,0,0.7,0,1,0.1c0.1,0.1,0,0.4-0.2,0.5c-0.2,0-0.5,0-0.5-0.2c-0.7-0.3-1.1,0.6-1.7,0.1
			c-0.1-0.1,0-0.3,0.1-0.4c0.2,0,0.4,0,0.5-0.2c0-0.2-0.1-0.4-0.3-0.3c-0.4,0.1-0.3-0.4-0.6-0.4c-0.3,0-0.6,0-0.9,0.2
			c-0.1,0.6-0.9,0.2-1.3,0.3c-0.2,0.1-0.3-0.1-0.4-0.2c-0.7,0.2-1.6-0.2-2.1,0.5c-1.7-0.2-3.5,0.4-5.2,0.2c0,0.1-0.2,0-0.2,0
			c-0.1-0.3,0.4-0.3,0.7-0.5c0.3,0,0.7-0.1,1-0.2c1,0.3,1.8-0.3,2.8-0.2c0.1-0.2-0.1-0.2-0.2-0.2c-0.7,0-1.4-0.2-2.2,0
			c-0.2,0-0.2-0.2-0.4-0.2c0.2-0.3,0.7,0.1,1-0.2c0-0.1-0.4-0.1-0.2-0.3l-0.1-0.1c-1,0-2,0.1-2.9,0.4c-1.4,0-2.8,0.6-4,0.4
			c0.6-0.1,1.1-0.1,1.7-0.3c0,0,0.1,0,0.1,0c-0.2-0.3-0.5,0-0.8,0l-0.1-0.1l-1.3,0.2c-1.2,0.1-2.6,0.1-3.9,0.3
			c-2.9,0.5-5.9,0.7-8.9,1.2c-0.6,0.1-1.3,0-1.7,0.2c1.7,0.1,3.3-0.3,4.8,0c0.5-0.2,1-0.4,1.6-0.4c0.9-0.6,2.3-0.2,3.3-0.5l0.4-0.2
			c1.3,0,2.8-0.4,4.3-0.2c-0.4,0.3-1,0.2-1.5,0.3c-0.9,0.4-2.2,0.1-3.1,0.7c-0.9,0-1.7,0.4-2.7,0.3c-0.2,0-0.3,0.3-0.5,0.2
			c-1-0.2-2,0.4-3,0.3c-0.2,0.2-0.5-0.2-0.7,0.2c0,0.6,0.5,0.1,0.7,0.3c0.2,0.3,0,0.6-0.2,0.7c-0.4-0.1-0.8,0.3-1.2,0
			c-0.4-0.2-0.9,0.5-1.2-0.1c0-0.4,0.4-0.3,0.6-0.5c0.1-0.1,0.5,0,0.4-0.3c-0.5-0.3-0.7,0.3-1.2,0.2c-1,0.1-2,0.3-2.9,0.6
			c-1-0.2-1.5,1-2.4,0.4c-0.2,0-0.4,0.2-0.5,0.4c-0.2,0.3-0.6,0.2-1,0.2c-0.4-0.4-1.1,0-1.6,0.1c-0.5,0.2-1.2-0.2-1.6,0.3
			c0,0.1,0.2,0.1,0.2,0.2c0.8-0.4,1.6-0.3,2.5-0.2c0.9-0.7,2.1,0,3-0.7c0.3-0.2,0.5,0.2,0.7,0.2c0.3-0.3,0.8,0.1,1.3,0.1V26
			c-0.1,0-0.2,0-0.2-0.1c0-0.1,0-0.2,0.1-0.2c0.5,0,1.1-0.1,1.5-0.3c0.2-0.1,0.4-0.2,0.6,0c0,0.2-0.3,0.2-0.2,0.4
			c1.3,0.2,2.7-0.3,4.2-0.2l0.4-0.3l0.2,0.2c0.3,0.2,0.4-0.3,0.7-0.2c0.4,0.4,1,0,1.5,0c0.2,0,0.4-0.1,0.4-0.4
			c0.3-0.2,0.7-0.3,1.1-0.1L38.3,25h1.3c0.4-0.1,0.7-0.4,1-0.3c0.4,0.4,1,0,1.5,0.2c0.6-0.3,1.2,0.2,1.9,0.1
			c0.2-0.1,0.4-0.2,0.6-0.1c0.4-0.5,1.1-0.2,1.7-0.2c0.1,0.1,0,0.3,0.2,0.4l1.7-0.1l0.2-0.2c0.2-0.1,0.3-0.2,0.5-0.2
			c0.1,0.1,0.2,0.2,0.2,0.3c0.1,0.2,0.3,0.1,0.4,0.1c0.2,0,0.1-0.3,0.3-0.4l1.7-0.1c0.2,0.1,0.3,0.3,0.6,0.4c0.3,0.1,0.8,0.1,1-0.2
			c0.2-0.1,0.2,0,0.4,0.1l2.1,0.1l0.2-0.2c0.3,0.2,0.6,0.1,0.9,0.2c2.9-0.1,5.9,0,8.7,0.4c0.8,0.1,1.7,0,2.4,0.4
			c-0.3,0.1-0.8,0-1.2,0c-0.9,0.1-1.9-0.4-2.7,0c0.8,0.3,1.7,0.1,2.5,0.4c0.6,0.1,1.3,0,1.8,0.1c2.8,0.2,5.7,0.9,8.6,1.2V27
			c-0.2,0.1-0.7-0.1-0.8-0.4c0.2-0.2,0.5-0.3,0.7-0.6c0.4,0.3,0.6-0.4,1.1-0.1c0.1,0,0.2,0.2,0.2,0.4c0.8,0,1.4,0.4,2.2,0.4
			c0.1-0.2-0.2-0.2-0.2-0.4c0.3-0.1,0.5,0.1,0.9,0c0.4,0.3,0.9,0.2,1.3,0.6c0.2,0,0.6,0.2,0.8,0.1c0.2-0.1,0.5-0.1,0.6,0.2
			c0,0.3,0.3,0.2,0.5,0.2c0.7,0.5,1.5,0.4,2.2,0.9c0.1,0.1,0.3,0.1,0.4-0.1c0-0.1-0.1-0.1-0.2-0.2c-0.5,0-0.8-0.4-1.2-0.4
			c-0.7-0.4-1.5-0.5-2.4-0.7c-0.2-0.2-0.4-0.3-0.6-0.2l-0.3-0.3l0.1-0.1c1.8,0.5,3.6,0.9,5.3,1.6c0.4-0.2,0.4,0.4,0.9,0.4
			c0.4,0.1,0.7,0.5,1.1,0.2c0.1-0.1,0.3-0.5,0.5-0.2c0,0.1-0.2,0.1-0.2,0.2c-0.1,0.1,0,0.2,0,0.3l1.9,0.8c0.4,0.1,0.7,0,0.8,0.5
			c1,0.7,2,1.3,3,2c0.1,0.2,0.4-0.1,0.4,0.2c-0.1,0.2-0.2,0.4-0.4,0.4c-1-0.7-1.8-1.5-2.9-1.9c-0.2-0.1-0.4,0-0.6,0.1
			c-0.2-0.4-0.7-0.8-1.1-1c-0.5-0.2,0.1,0.4-0.4,0.2c-0.2-0.1-0.4-0.2-0.4-0.5c-0.5-0.5-0.6,0.4-1.1,0.2c-0.4-0.2-0.9-0.5-1.4-0.4
			c-0.1-0.1-0.2-0.1-0.2-0.2c-0.3,0.1-0.6-0.2-0.9-0.1c-0.5-0.4-1.1-0.6-1.5-0.9c-0.5,0-1-0.1-1.4,0c-0.2,0-0.3-0.3-0.5-0.2
			c0.1,0.2,0.4,0.2,0.7,0.4c0,0.4-0.5,0.1-0.7,0.3v0.1c0.2,0.2,0.6,0.2,0.9,0.3c0.5,0.1,1.1,0.4,1.5,0.4c-0.2-0.1-0.3-0.4-0.3-0.6
			l-0.5,0v-0.2c0.1-0.2,0.3,0,0.5-0.1c0.1,0.1,0.2,0.2,0.2,0.3c0.7,0.2,1.5,0.4,2,0.9c-0.2,0.2-0.5,0.1-0.8,0.1
			c-0.1-0.4-0.4-0.1-0.7-0.1c0.6,0.2,1.1,0.4,1.7,0.5c0.1-0.1,0-0.3,0.2-0.4c0.4,0,0,0.4,0.1,0.5c0.4,0.4,1.1,0.6,1.6,0.8
			c0.1-0.2-0.2-0.4-0.2-0.5c0.3-0.1,0.7,0,0.9,0.3c0,0.1-0.1,0.2-0.2,0.3c0,0,0-0.1-0.1,0.2l2.1,0.9l3.4,2.6c0,0.2,0.1,0.4,0.3,0.4
			L95.1,35.3z"/>
	</g>
	<g>
		<path class="st0" d="M46.8,49.9l0.6,0.1l-0.1-0.2h-0.1L46.8,49.9z M52.5,49.9c-0.1,0.2-0.3,0.2-0.5,0.1c-0.1-0.1-0.1-0.3,0.1-0.4
			C52.3,49.5,52.7,49.6,52.5,49.9z M41,51.3c-0.1,0.3-0.5,0.6-0.8,0.7c0-0.1-0.3-0.2-0.1-0.4C40.4,51.6,40.6,51.3,41,51.3z
			 M43.7,55.8c0,0-0.4,0.4-0.4,0.4l0.6-0.2L43.7,55.8z M46.2,51.9c0.1-0.2,0.5-0.6,0.6-0.3C46.5,51.6,46.4,51.9,46.2,51.9z
			 M49.3,51.6c-0.6,0.5-1.3,0.9-2,1.2c0,0.1,0,0.2,0.1,0.3c0.2-0.1,0.4,0,0.6-0.1c-0.4,0.3-0.8,0.5-1.3,0.6c-0.1-0.2,0.2-0.3,0-0.4
			c-0.4,0.1-0.8,0.4-1.3,0.4c-0.2,0.1-0.6,0.2-0.9,0.1c1-0.9,2.2-1.3,3.4-2c0.4,0.2,0.7,0,0.9-0.2L49.3,51.6z M48.4,49.3
			c0,0.2-0.2,0.2-0.3,0.2l-0.2,0C48,49.3,48.2,49.3,48.4,49.3z M56.2,48.2c-0.1,0.6-0.9,0.7-1.3,0.8c-0.1-0.5,0.7-0.2,0.9-0.7V48
			C56,48,56.2,48,56.2,48.2z M57.3,47.9c-0.2-0.1-0.3,0.2-0.5,0.1v-0.3c0.2,0.1,0.5,0,0.7-0.1C57.5,47.8,57.4,47.9,57.3,47.9z
			 M38.7,56.2c-0.2,0.1,0,0.6-0.3,0.6c-0.1-0.1-0.3-0.3-0.2-0.5C38.3,56.1,38.5,56.1,38.7,56.2z M46,48.6l-3.6,1.9
			c-0.4,0.2-0.3,0.7-0.8,0.8c-0.2,0-0.2-0.2-0.3-0.2c0-0.4,0.3-0.6,0.2-1c0.5-0.5,1.2-0.4,1.7-1c0.9-0.4,1.7-0.9,2.6-1.2
			C46.2,47.8,46,48.4,46,48.6z M60.3,46.5c-0.1,0.2-0.4,0.4-0.6,0.3c0-0.1-0.1-0.1-0.1-0.2C59.7,46.5,60,46.4,60.3,46.5z M61.3,46.1
			c0,0.1-0.1,0.1-0.2,0.1v-0.2C61.1,46.1,61.2,46,61.3,46.1z M58,42.5c0,0.3-0.3,0.3-0.4,0.4c-0.1-0.1-0.3,0.2-0.3,0
			c0-0.4,0.4-0.3,0.5-0.4C57.8,42.5,58,42.4,58,42.5z M60.8,41.7c0,0.3-0.3,0.2-0.5,0.3c-0.1-0.1-0.1-0.2-0.1-0.3
			C60.4,41.5,60.6,41.5,60.8,41.7z M61.4,41.6c0,0-0.1,0.1-0.2,0.1c-0.1-0.1-0.1-0.2,0-0.2C61.2,41.5,61.4,41.5,61.4,41.6z
			 M48.8,45.4c0,0.2-0.1,0.2-0.2,0.3c-0.7,0.2-1.3,0.5-2,0.7c-0.2-0.1,0.1-0.2,0-0.2c0.7-0.3,1.3-0.8,2-1L48.8,45.4z M55.6,41
			c-0.2,0.2-0.6,0.3-0.9,0.3C54.9,41.1,55.3,41,55.6,41z M87.1,37.9l0.1-0.2l0.2,0.1L87.1,37.9z M62.3,41.3
			c-0.1,0.2-0.4,0.3-0.7,0.2c-0.2-0.1,0-0.2-0.1-0.4c0.2,0.1,0.4,0.1,0.6,0L62.3,41.3z M63,40.9V41c-0.2,0-0.2-0.1-0.2-0.2
			C62.9,40.7,63.1,40.7,63,40.9z M65.5,40.2c0.1,0.3-0.4,0.4-0.2,0.8l-0.1,0.1c-0.2-0.1-0.4-0.3-0.4-0.6c0.2-0.2,0.1-0.3,0.2-0.4
			C65.2,40,65.4,40,65.5,40.2z M66.4,39.7c-0.2,0.2,0.3,0.5-0.1,0.7L66,40.2C66,40.1,66.3,39.8,66.4,39.7z M67.6,39.5
			c-0.2,0.1-0.5,0.3-0.8,0.2c0-0.2,0.1-0.3,0.2-0.4C67.3,39.3,67.9,39,67.6,39.5z M68.5,39.1c0.1,0.2-0.2,0.2-0.3,0.2l-0.2-0.1
			C68.1,39,68.4,38.9,68.5,39.1z M71.5,38.2c0,0.2-0.1,0.5-0.3,0.6c-0.1,0-0.2,0-0.2-0.1C70.9,38.4,71,38,71.5,38.2z M59.2,39.7
			c-0.1,0.3-0.5,0.2-0.7,0.3c-0.6,0.3-1.4,0.2-2,0.6c0.8-0.3,1.6-0.7,2.5-0.9C59.1,39.6,59.1,39.8,59.2,39.7z M67.5,37v0.1
			c-0.9,0.1-1.6,0.7-2.6,0.7c-0.7,0.4-1.6,0.6-2.4,0.8c-0.8,0.2-1.5,0.5-2.2,0.6c1.7-0.9,3.7-1.3,5.6-1.9
			C66.4,37.4,66.9,36.9,67.5,37z M111.5,27.6c-0.1,0.2-0.4,0.2-0.5,0.2c0-0.1,0.1-0.3,0.2-0.4C111.3,27.5,111.4,27.6,111.5,27.6z
			 M108.8,27.5l-0.1,0.2l-0.3-0.1l0.1-0.1C108.5,27.5,108.8,27.5,108.8,27.5z M118.2,26.7c0,0.1,0,0.2-0.1,0.2c-0.1,0-0.2,0-0.2-0.2
			c0-0.1,0-0.2,0.1-0.2C118,26.5,118.1,26.6,118.2,26.7z M122.8,26.5c-0.2,0.1-0.5,0.2-0.7,0.1C122.4,26.5,122.7,26.2,122.8,26.5z
			 M121.1,25.8c0.1,0.2-0.1,0.2-0.2,0.2l-0.1-0.1C120.8,25.8,121,25.6,121.1,25.8z M125.3,25.5h-0.2c-0.1-0.2,0-0.4,0.1-0.5
			C125.2,25.1,125.5,25.3,125.3,25.5z M121.1,24.9c-0.2,0.2-0.2,0.4-0.4,0.7c-1.2,0.1-2.2,0.7-3.5,0.6c-0.4,0.3-1,0-1.2,0.5
			c-0.9,0-1.6,0.4-2.5,0.4c-0.4,0-0.7,0.2-1.1,0c0.6,0,0.4-0.6,1.1-0.6c0.4-0.3,1.1-0.2,1.5-0.5c0,0.2,0.1,0.3,0.3,0.3
			c1-0.2,2.3,0.2,3-0.7l0.8,0c0-0.1,0-0.2,0-0.2C119.7,25.2,120.3,24.9,121.1,24.9z M126.6,24.4c-0.2,0.2-0.5,0.3-0.8,0.3
			c-0.1-0.2-0.3-0.4-0.4-0.2c-0.2,0.1-0.2,0.3-0.6,0.2c-0.3,0.3-0.9-0.1-1.1,0.3c-0.1,0.2,0,0.5-0.2,0.7c-0.1-0.2,0.1-0.5-0.2-0.7
			h-0.5c0-0.1,0.4-0.1,0.2-0.4c0.1-0.1,0.2,0.1,0.4,0.1c0.6-0.2,1.2-0.1,1.7-0.4C125.6,24.3,126.1,24.4,126.6,24.4z M128.6,24.4
			c0,0.1,0,0.2-0.1,0.2c-0.2,0-0.4,0-0.7-0.1c-0.1-0.2,0.2-0.4,0.3-0.4C128.4,24.1,128.7,24.2,128.6,24.4z M89.1,31.4
			c-1,0.2-0.8,0.1-1.1,0.3c-2.6,0.6-5.2,1.4-7.9,2c-0.5,0.2-1.1,0.4-1.7,0.4c-3.3,1-6.7,1.7-10,2.7l-0.1,0.1c0.4-0.2,1,0,1.5-0.1
			c0.8-0.6,2-0.4,3-0.6c0.5-0.2,0.9-0.5,1.4-0.4c0.4-0.3,1-0.2,1.5-0.4c0.4,0,0.3-0.4,0.7-0.5c0.8,0.6,1.7-0.2,2.7,0v0.1
			c-1.2,0.5-2.6,0.7-3.8,1.1c-0.9,0.4-2,0.4-2.9,0.8c-3.5,1.1-7.1,2-10.5,3.3c-0.7,0.5-1.6,0.2-2.4,0.6c-0.3,0.2-0.4,0.4-0.9,0.3
			c-0.8,0.4-1.7,0.4-2.4,1c-2.3,1-4.6,1.7-6.8,2.9c0,0.1,0,0.2,0.1,0.3c1.9-0.4,3.5-1.4,5.3-1.9c0.6-0.1,1.3-0.8,1.7-0.2
			c0,0.7-0.6,0-0.9,0.2c-0.2,0.3-0.9,0.1-0.8,0.6c-0.5,0.4-1.3,0.4-1.9,0.8c-0.9,0.2-1.8,0.4-2.4,1.1c-1,0.1-1.7,0.9-2.6,1.1
			c-0.5,0.4-1.7,0.2-1.7,1.2c0.5,0.5,1.1-0.4,1.8-0.3c0.2,0.1,0.3,0.3,0.2,0.4c-1.3,0.6-2.7,1.3-4,1.9c-0.4,0.3-1.1,0.6-0.9,1.3
			c-1.3,0.9-2.7,1.7-4,2.5c-0.2,0.2,0,0.7-0.2,0.8c-0.7,0.4,0.4,0.9,0.1,1.5c0.3,0,0.4-0.2,0.7-0.3c0.9-0.2,1.7-1.1,2.6-1.5
			c0.4,0,0.8-0.4,1.3-0.4c0.2,0,0.4,0.3,0.4,0.5c-0.6,0.4-1.2,0.9-1.8,1.1c-0.3,0.2-0.6-0.3-0.9,0c-0.2,0.1-0.2,0.4-0.2,0.6
			c-0.6,0.5-1.3,0.7-1.7,1.3c0,0.5-0.1,1.1,0.1,1.6c0.9-0.9,2-1.5,3-2.1c1-0.9,2.2-1.3,3.3-2c-0.2-0.6-0.8,0.3-1.2,0.1
			c0.4-0.7,1.4-0.6,2-1.1c1.1,0.3,1.9-0.8,2.8-1.1c0.2-0.2,0-0.3-0.2-0.4c0-0.3,0.4-0.2,0.7-0.3c0.2,0,0.1,0.2,0.1,0.3h0.2
			c0.4-0.9,1.5-0.4,2-1.1c0.5-0.5,1.9-0.2,1.5-1.2c-0.5,0-0.9,0.3-1.3,0.5c-0.2,0.1-0.7,0.2-0.7-0.2c-0.3-0.1-0.3,0.2-0.5,0.3
			c-0.4-0.2-0.5,0.3-0.9,0.1c-0.1-0.1-0.2-0.2-0.2-0.3c0.3-0.2,0.7-0.6,1.1-0.4c0.3,0.2,0.5-0.1,0.7-0.2c0.7,0.7,1.3-0.5,2.1-0.3
			c0.3,0.1,0.3,0.5,0.2,0.8c0.6,0,0.9-0.5,1.3-0.9c0.1-0.2-0.1-0.2-0.2-0.3l0.1-0.1c0.2,0,0.5-0.2,0.6,0.1c0,0.1-0.1,0.2-0.2,0.4
			c0.5-0.1,1-0.3,1.5-0.6v-0.1C57,49,56.9,49,56.8,49c0-0.2,0.2-0.1,0.2-0.2c0.3,0,0.7-0.4,0.9,0c0.2,0.1,0.4,0,0.6,0
			c0.9-0.7,2-0.8,2.8-1.3c0.3-0.2,0.4-0.4,0.5-0.7c0.2-0.1,0.4,0,0.6,0.2c0.7-0.1,1.2-0.5,1.8-0.7c1.7-0.8,3.5-1.3,5.3-2
			c0.2-0.3-0.2-0.3-0.3-0.5c0.3-0.2,0.7,0,1.1,0.2c1.7-0.5,3.3-1.7,5.2-1.9c0.4-0.1,0.8-0.1,1.1-0.2c0.2-0.1,0-0.3-0.1-0.4
			c0.5-0.4,1.2-0.5,1.8-0.7c0.9,0.2,1.5-0.4,2.2-0.5c1.6-0.5,3.1-1.1,4.8-1.4c0.9-0.4,2-0.5,2.9-0.8c0.3-0.2,0.8,0,0.9-0.4
			c-0.1-0.2-0.4-0.1-0.5-0.1v-0.1c1-0.5,2.2-0.7,3.2-1.1c1-0.2,1.9-0.7,2.8-0.6c-0.6,0.4-1.3,0.4-2,0.7c-0.9,0.2-1.9,0.4-2.6,0.9
			c1.3-0.1,2.6-0.7,3.9-1c0.4-0.2,1-0.4,1.5-0.6l-2-1.7c-0.3,0-0.5-0.3-0.7-0.5c-0.3-0.1-0.5-0.2-0.6-0.5c-0.2,0-0.5-0.2-0.6-0.4
			c-0.2,0-0.4,0-0.4-0.2c-0.2,0-0.4,0-0.4-0.2c-0.2,0-0.4,0-0.4-0.2c-0.2,0-0.4,0-0.4-0.2c-0.2,0-0.4,0-0.4-0.2
			C89.4,31.5,89.3,31.4,89.1,31.4L89.1,31.4z M110.8,30.5c0-0.1,0.1-0.3,0.2-0.4c0.1,0,0.2,0.1,0.3,0.2c0.4,0.2,0.9,0,1.3-0.2
			c0-0.2,0-0.2,0-0.4c0.3-0.3,0.4,0.2,0.7,0.1c0.1,0,0.2-0.2,0.2-0.3c0-0.2-0.2-0.2-0.3-0.3c0-0.1,0.1,0,0.2,0
			c0.1,0.2,0.4,0.1,0.5,0.4c0.2,0.1,0.5,0,0.5-0.2c0.5,0,0.9-0.2,1.3-0.3c0.3-0.1,0.6,0,0.8-0.2c0.5,0.1,0.7-0.2,1.1-0.4
			c0.4-0.3,0.9-0.2,1.3-0.3c0.4-0.6,1-0.3,1.5-0.3c0.1-0.7,0.8,0,1-0.5c0.5,0,0.9-0.4,1.3-0.5c0.3-0.1,0.7,0.1,0.8-0.3
			c0.1-0.1,0.2-0.2,0.3-0.2c0.4,0.3,0.9-0.1,1.4-0.1c0.3-0.2,0.8,0,1-0.4c0.6,0.2,0.9-0.4,1.5-0.3c0.7-0.2,1.6-0.2,2.1-0.7
			c0.7,0,1.5-0.2,2.2-0.3c0.3-0.2,0.7-0.4,1-0.4c0.8,0,1.4-0.2,2-0.5c1.1,0.1,1.8-1.1,2.8-0.9c0.9,0.2,1.5-0.7,2.4-0.4
			c1.1-0.6,2.4-0.4,3.5-0.9c-0.3,0-0.9-0.1-1.3-0.1c-0.6,0.6-1.5,0.1-2.2,0.4c-0.7-0.2-1.1,0.5-1.8,0.4c-0.9,0.3-1.9-0.2-2.6,0.4
			c-0.7-0.2-1.4,0.1-2.1,0.1c-0.4-0.3-0.7,0.5-1.1,0.2c-0.8,0-1.4,0.4-2.1,0.5c-0.4,0-0.9,0.2-1.3,0c0.3-0.2,0.7-0.2,0.9-0.4
			c-2.5,0.4-5,0.9-7.6,1.2c-0.2,0.1-0.4,0.3-0.7,0.2c-2.3,0.5-4.7,0.9-7,1.3c-0.4,0.3-1,0.2-1.4,0.4c-2,0.1-3.7,1-5.8,1.1
			c-0.4,0.2-0.8,0-1.1,0.4C106.5,27.7,110.8,30.5,110.8,30.5z"/>
	</g>
</g>
</svg>
