<?xml version="1.0" encoding="utf-8"?>
<!-- Generator: Adobe Illustrator 17.0.0, SVG Export Plug-In . SVG Version: 6.00 Build 0)  -->
<!DOCTYPE svg PUBLIC "-//W3C//DTD SVG 1.1//EN" "http://www.w3.org/Graphics/SVG/1.1/DTD/svg11.dtd">
<svg version="1.1" id="Calque_1" xmlns="http://www.w3.org/2000/svg" xmlns:xlink="http://www.w3.org/1999/xlink" x="0px" y="0px"
	 width="369.597px" height="85.461px" viewBox="0 0 369.597 85.461" enable-background="new 0 0 369.597 85.461"
	 xml:space="preserve">
<g>
	<g>
		<path fill="#FFFFFF" d="M137.937,39.566c-4.37,0-8.122-1.691-11.09-5.03c-2.433-2.763-3.794-6.391-3.794-10.39
			c0-4.123,1.567-7.792,4.618-10.802c2.845-2.804,6.35-4.247,10.514-4.247c3.216,0,5.937,0.989,8.658,3.051V9.674h4.164v8.493
			h-5.772c-1.691-2.102-4.041-3.216-6.927-3.216c-5.318,0-9.194,4.123-9.194,9.73c0,5.236,4.04,9.029,8.782,9.029
			c2.804,0,5.112-1.072,6.679-3.092h6.968C148.698,36.597,144.245,39.566,137.937,39.566z"/>
	</g>
	<g>
		<path fill="#FFFFFF" d="M171.291,34.041v-4.329h5.112v9.276h-21.687v-4.947h3.133v-19.46h-3.133V9.674h12.328v4.906h-3.463v19.46
			H171.291z"/>
	</g>
	<g>
		<path fill="#FFFFFF" d="M201.637,29.712v9.276H179.95v-4.947h3.133v-19.46h-3.133V9.674h21.687v9.276h-5.112v-4.37h-7.751v7.009
			h7.751v4.948h-7.751v7.504h7.751v-4.329H201.637z"/>
	</g>
	<g>
		<path fill="#FFFFFF" d="M217.386,34.041v4.947h-11.792v-4.947h3.134v-19.46h-3.134V9.674h11.627
			c7.462,0,11.297,3.298,11.297,9.194c0,4.536-2.639,7.875-6.968,8.741l4.164,6.432h2.886v4.947h-6.226l-7.875-13.605v8.658H217.386
			z M215.736,23.94c4.659,0,7.092-1.731,7.092-4.947c0-3.175-2.061-4.535-6.226-4.535h-2.104v9.482H215.736z"/>
	</g>
	<g>
		<path fill="#FFFFFF" d="M240.516,34.041h3.422v4.947h-11.915v-4.947h3.134v-19.46h-3.134V9.674h11.05l7.133,21.315l7.091-21.315
			h11.05v4.906h-3.134v19.46h3.134v4.947h-11.915v-4.947h3.422V16.312l-7.463,22.676h-4.329l-7.545-22.511V34.041z"/>
	</g>
	<g>
		<path fill="#FFFFFF" d="M275.684,13.426c2.886-2.845,6.473-4.288,10.637-4.288c3.917,0,7.628,1.525,10.473,4.329
			c2.927,2.886,4.494,6.679,4.494,10.678c0,4.205-1.443,7.957-4.206,10.802c-2.845,2.969-6.72,4.577-10.802,4.577
			c-4.329,0-8.04-1.567-10.926-4.618c-2.763-2.927-4.164-6.556-4.164-10.885C271.19,19.941,272.756,16.271,275.684,13.426z
			 M277.168,24.187c0,2.35,0.865,4.577,2.474,6.349c1.814,1.979,4.246,3.092,6.638,3.092c4.947,0,9.029-3.958,9.029-9.565
			c0-4.989-4.04-9.029-8.905-9.029C281.208,15.034,277.168,18.992,277.168,24.187z"/>
	</g>
	<g>
		<path fill="#FFFFFF" d="M316.501,34.041v4.947h-12.327v-4.947h3.134v-19.46h-3.134V9.674h8.658l12.121,18.718V14.581h-3.216V9.674
			h12.328v4.906h-3.464v24.408h-5.359l-12.204-19.295v14.348H316.501z"/>
	</g>
	<g>
		<path fill="#FFFFFF" d="M354.309,34.041v4.947h-12.328v-4.947h3.175v-19.46h-4.246v4.37h-4.288V9.674h22.923v9.276h-4.328v-4.37
			h-4.329v19.46H354.309z"/>
	</g>
	<g>
		<path fill="#FFFFFF" d="M135.546,69.765v4.947h-12.328v-4.947h3.133V50.304h-3.133v-4.906h21.687v9.277h-5.112v-4.371h-7.751v7.01
			h7.751v4.947h-7.751v7.504H135.546z"/>
	</g>
	<g>
		<path fill="#FFFFFF" d="M169.395,65.436v9.276h-21.687v-4.947h3.133V50.304h-3.133v-4.906h21.687v9.277h-5.112v-4.371h-7.751v7.01
			h7.751v4.947h-7.751v7.504h7.751v-4.329H169.395z"/>
	</g>
	<g>
		<path fill="#FFFFFF" d="M185.144,69.765v4.947h-11.792v-4.947h3.133V50.304h-3.133v-4.906h11.627
			c7.462,0,11.297,3.299,11.297,9.194c0,4.535-2.639,7.875-6.968,8.741l4.164,6.432h2.886v4.947h-6.226l-7.874-13.605v8.658H185.144
			z M183.495,59.663c4.659,0,7.091-1.731,7.091-4.947c0-3.175-2.061-4.535-6.226-4.535h-2.102v9.482H183.495z"/>
	</g>
	<g>
		<path fill="#FFFFFF" d="M211.572,69.765v4.947H199.78v-4.947h3.134V50.304h-3.134v-4.906h11.627
			c7.462,0,11.297,3.299,11.297,9.194c0,4.535-2.639,7.875-6.968,8.741l4.164,6.432h2.886v4.947h-6.226l-7.875-13.605v8.658H211.572
			z M209.923,59.663c4.659,0,7.092-1.731,7.092-4.947c0-3.175-2.062-4.535-6.227-4.535h-2.103v9.482H209.923z"/>
	</g>
	<g>
		<path fill="#FFFFFF" d="M233.3,69.847h2.927v4.865h-12.286v-4.865h3.422l7.669-19.543h-3.422v-4.906h10.266l9.235,24.449h3.464
			v4.865h-12.328v-4.865h2.969l-1.113-2.886h-9.771L233.3,69.847z M239.277,53.685l-3.174,8.576h6.308L239.277,53.685z"/>
	</g>
	<g>
		<path fill="#FFFFFF" d="M267.603,69.765v4.947h-12.328v-4.947h3.134V50.304h-3.134v-4.906h8.658l12.121,18.719V50.304h-3.216
			v-4.906h12.328v4.906h-3.464v24.408h-5.359l-12.204-19.295v14.348H267.603z"/>
	</g>
	<g>
		<path fill="#FFFFFF" d="M291.104,50.263h-3.134v-4.865h12.905c4.617,0,7.833,0.66,10.761,3.505
			c2.762,2.68,4.205,6.515,4.205,11.297c0,5.318-2.061,9.606-5.854,12.327c-2.557,1.855-5.318,2.186-8.946,2.186h-13.07v-4.947
			h3.134V50.263z M296.875,50.263v19.502h3.835c6.267,0,9.235-3.093,9.235-9.607c0-6.474-3.216-9.896-9.318-9.896H296.875z"/>
	</g>
</g>
<g>
	<g>
		<polygon fill="#FFFFFF" points="102.561,18.463 100.625,18.463 100.625,8.443 34.378,8.443 34.378,13.036 32.442,13.036 
			32.442,6.507 102.561,6.507 		"/>
	</g>
	<g>
		<polygon fill="#FFFFFF" points="102.561,76.759 32.442,76.759 32.442,69.569 34.378,69.569 34.378,74.823 100.625,74.823 
			100.625,57.651 102.561,57.651 		"/>
	</g>
	<g>
		<path fill="#FFFFFF" d="M114.254,28.268c-0.293-0.048-0.538-0.341-0.586-0.585C113.863,27.879,114.205,27.976,114.254,28.268z
			 M120.796,26.413c-0.488,0.296-1.123,0.391-1.709,0.586C120.698,26.217,119.526,26.413,120.796,26.413z M120.015,25.389
			c-0.05,0.097-0.245,0.292-0.391,0.292h-0.098v-0.292H120.015z M124.164,25.292c-0.195,0-0.635,0.244-0.83,0.194
			C123.529,24.9,123.871,25.292,124.164,25.292z M124.603,23.728c-0.585,0.293-1.123,0.781-1.904,0.684
			c-0.391,0.293-1.025,0.341-1.416,0.488v-0.099C122.358,24.315,123.431,23.826,124.603,23.728z M127.142,23.728l-0.098-0.342
			l0.293,0.196L127.142,23.728z M127.776,23.484l0.635-0.147l-0.146-0.096L127.776,23.484z M129.143,23.093
			c-0.049,0-0.439,0.048-0.489,0.098v-0.195l0.685-0.196L129.143,23.093z M125.091,22.848c0.049,0.196-0.195,0.245-0.293,0.293
			c-0.147-0.097-0.342-0.048-0.391-0.243C124.603,22.8,124.896,22.605,125.091,22.848z M129.437,22.8l0.683-0.145l-0.439-0.05
			h-0.097L129.437,22.8z M131.389,21.484c-0.196,0.389-0.732,0.341-1.123,0.537c-1.172,0.732-2.685,0.584-3.905,1.17h-0.293
			c0.098-0.439,0.585-0.343,0.83-0.536c0.684-0.539,1.709-0.341,2.441-0.782C130.071,21.873,130.657,21.484,131.389,21.484z
			 M137.491,19.482c0.049,0.145-0.194,0.195-0.293,0.145h-0.194C137.101,19.53,137.297,19.432,137.491,19.482z M89.65,26.708
			l-0.391-0.101v-0.145C89.454,26.413,89.601,26.56,89.65,26.708z M39.659,57.414c-0.146,0.244-0.633,0.634-1.122,0.682
			C38.927,57.951,39.22,57.462,39.659,57.414z M41.564,56.241l0.342-0.147l-0.195,0.394L41.564,56.241z M39.757,54.386
			c-0.147,0.148-0.147,0.244-0.342,0.244c-0.146-0.096-0.049-0.342,0.098-0.342C39.61,54.239,39.709,54.338,39.757,54.386z
			 M51.132,53.75c-0.244,0.343-0.683,0.489-1.074,0.538C50.254,53.899,50.741,53.702,51.132,53.75z M41.758,53.411
			c-0.147,0.389-0.633,0.291-0.927,0.389C40.929,53.51,41.368,53.411,41.758,53.411z M58.308,51.163
			c-0.098,0.344-0.487,0.148-0.732,0.245c-0.098-0.293,0.195-0.343,0.342-0.391C58.065,51.018,58.21,51.018,58.308,51.163z
			 M59.577,50.384c0,0.05,0.049,0.098,0.049,0.146c-0.098,0.049-0.146,0.195-0.293,0.147v-0.293H59.577z M57.087,49.942
			c0.049,0.101,0.293-0.243,0.245-0.243l0.195,0.243H57.087z M46.689,49.699c-0.243,0.195-0.488,0.392-0.83,0.439
			c0-0.341,0.439-0.341,0.634-0.489L46.689,49.699z M58.894,49.066c0.098,0.293-0.293,0.293-0.44,0.439
			c-0.146,0-0.244,0-0.293-0.099C58.21,49.066,58.65,49.164,58.894,49.066z M41.27,57.51c-2.001,1.466-4.101,2.784-6.004,4.296
			c-0.293-0.048-0.635-0.096-0.781-0.392c2.099-1.512,4.247-3.122,6.541-4.196C41.125,57.266,41.466,57.314,41.27,57.51z
			 M91.162,23.533c-0.097,0.099-0.537,0.099-0.439-0.244C90.87,23.386,91.066,23.386,91.162,23.533z M76.811,19.091l-0.049-0.146
			l0.391,0.048l0.146,0.196L76.811,19.091z M70.708,19.041c-0.146,0.196-0.586,0.148-0.831,0.1c-0.049-0.05-0.049-0.1-0.098-0.1
			C69.926,18.652,70.366,19.141,70.708,19.041z M62.75,18.896l-0.391-0.05c0.049-0.096,0.244-0.146,0.391-0.146V18.896z
			 M75.981,18.896c-0.294-0.098-0.83-0.05-0.83-0.343C75.443,18.652,75.883,18.603,75.981,18.896z M65.777,18.504v0.148
			c-0.194,0.098-0.39,0-0.585-0.1c-0.049-0.146,0.049-0.048,0.098-0.146C65.485,18.457,65.679,18.31,65.777,18.504z M13.053,17.968
			c-0.097,0.246-0.439,0.294-0.635,0.391c-0.146,0.048-0.194-0.097-0.293-0.097C12.272,17.968,12.761,18.066,13.053,17.968z
			 M64.264,18.262c0,0.097-0.049,0.195-0.147,0.291c-0.439,0.147-0.537-0.632-0.927-0.193h-0.098l0.049-0.293
			C63.58,18.066,63.922,18.113,64.264,18.262z M63.922,17.529c1.172,0.292,2.246-0.39,3.271,0.292
			c0.048,0.1-0.049,0.148-0.098,0.245c-1.659-0.146-3.32-0.245-4.881-0.635C62.653,17.577,63.483,16.893,63.922,17.529z
			 M32.238,17.088v0.148c-0.194,0.048-0.537,0.098-0.732-0.097C31.605,16.893,32.092,16.942,32.238,17.088z M22.524,16.942
			c-0.194,0.05-0.39,0.196-0.585,0.146C21.89,16.797,22.329,16.893,22.524,16.942z M21.157,17.088c0,0.195-0.195,0.195-0.342,0.293
			c-0.146-0.048-0.341,0.049-0.487-0.048c-0.049-0.245,0.195-0.391,0.341-0.44C20.815,16.993,21.06,16.845,21.157,17.088z
			 M49.375,16.893c0.048,0.246-0.391,0.049-0.635,0.1l-0.049-0.147C48.837,16.845,49.228,16.942,49.375,16.893z M52.548,16.845
			c0,0.048,0.049,0.147-0.048,0.147c-0.049,0-0.146,0.048-0.196-0.05C52.353,16.893,52.45,16.797,52.548,16.845z M51.621,16.942
			c0.048,0.098-0.098,0.146-0.098,0.196c-0.146-0.05-0.293,0.048-0.391-0.05c0-0.146,0.049-0.243,0.147-0.291
			C51.425,16.748,51.523,16.845,51.621,16.942z M28.431,16.504c-0.146,0,0.049,0.243-0.341,0.097v-0.097H28.431z M58.992,16.993
			c0.83,0.048,1.562,0.146,2.294,0.341c-1.268,0.097-2.343-0.147-3.71-0.147c-0.489,0.586-1.074-0.341-1.757-0.048
			c0.487-0.586,1.513,0,2.05-0.537C58.259,16.748,58.699,16.697,58.992,16.993z M44.59,16.552c-0.098,0.195-0.341,0.145-0.488,0.049
			C44.151,16.454,44.492,16.454,44.59,16.552z M30.287,16.259c0.048,0.342-0.244,0.097-0.391,0.097
			C29.896,16.161,30.139,16.309,30.287,16.259z M70.366,16.65c-0.489,0.293-1.611,0.148-1.953-0.195
			C69.097,16.552,69.732,16.602,70.366,16.65z M94.043,16.602v0.096c-0.244-0.096-0.781,0.05-0.635-0.341
			C93.652,16.357,93.897,16.357,94.043,16.602z M50.449,16.065c0,0.048,0.048,0.194-0.049,0.194
			c-0.098,0.049-0.146-0.048-0.196-0.098C50.254,16.113,50.351,15.87,50.449,16.065z M50.058,15.966
			c0.098,0.391-0.146,0.636-0.489,0.586c-0.683,0.39-0.683-0.634-1.219-0.391c-0.586,0.536-1.514,0.391-2.247,0.343v-0.439
			C47.372,15.87,48.886,16.016,50.058,15.966z M33.655,16.016c-0.488,0.244-1.172,0.097-1.709,0.341
			c-0.098-0.145-0.245-0.048-0.342-0.097c0.048-0.244,0.439-0.194,0.683-0.293c0.391,0,0.927-0.146,1.367-0.096V16.016z
			 M66.315,16.161l0.049,0.195c-1.807,0.196-3.515-0.292-5.321-0.487c1.513-0.1,3.271,0.096,4.833,0.146L66.315,16.161z
			 M91.895,16.212l-0.098-0.293l0.44,0.147L91.895,16.212z M37.561,15.429c-0.538,0.684-1.562,0.148-2.246,0.441l-0.098-0.1
			c-0.098,0.148-0.244,0.196-0.391,0.196L34.73,15.87c0.829-0.441,1.904-0.539,2.831-0.539V15.429z M91.066,15.673h-0.586v-0.196
			C90.723,15.429,90.919,15.477,91.066,15.673z M89.357,15.186c0.048,0.244-0.439,0.146-0.488-0.049L89.357,15.186z M96.728,16.893
			c0.098,0.195-0.098,0.343-0.243,0.391c-0.489,0.146-0.196-0.536-0.635-0.486c-1.172-0.148-2.001-1.027-3.271-0.978
			c-0.781-0.293-1.562-0.683-2.392-0.779l-0.194-0.098C92.383,15.233,94.629,15.918,96.728,16.893z M61.383,14.502
			c0.049,0.243-0.244,0.097-0.341,0.195l-0.439-0.048l0.049-0.245L61.383,14.502z M38.341,14.454
			c0.049,0.291-0.293,0.096-0.44,0.243c-1.61-0.048-2.782,0.195-4.344,0.195c-0.879,0.293-1.807,0.196-2.734,0.196
			c1.758-0.634,3.808-0.634,5.663-0.684C37.072,14.354,37.804,14.063,38.341,14.454z M40.05,14.257
			c0.049,0.147-0.097,0.293-0.195,0.293l-0.635-0.048c0.049-0.048,0-0.098-0.048-0.098C39.416,14.257,39.757,14.161,40.05,14.257z
			 M62.848,14.454c-0.146,0.195-0.439,0.145-0.586,0.048c-0.048-0.148,0.05-0.098,0.098-0.196
			C62.555,14.257,62.702,14.404,62.848,14.454z M59.87,14.306c0.049,0.148,0.147,0.244,0.049,0.391
			c-0.146,0.195-0.44,0.147-0.684,0.195c-0.048-0.097-0.147-0.195-0.195-0.293c-0.488-0.145-1.27,0.782-1.318-0.145
			c-0.538-0.05-1.319-0.197-1.661,0.341c-0.292,0.195-0.634-0.05-0.537-0.391c-0.439-0.147-0.927,0-1.367-0.147
			C56.111,14.209,57.965,14.209,59.87,14.306z M57.82,13.379c0,0.245-0.245,0.245-0.391,0.293c-1.172,0.195-2.343-0.098-3.515,0.246
			c-0.439-0.293-1.367,0.145-1.464-0.589c1.659-0.486,3.32,0.147,4.979-0.048C57.527,13.379,57.723,13.281,57.82,13.379z
			 M50.302,70.594c-0.146,0.243-0.586,0.195-0.83,0.1c0.049-0.147,0.244-0.051,0.341-0.147
			C49.96,70.546,50.107,70.594,50.302,70.594z M51.083,70.594l0.195-0.244l0.195,0.244H51.083z M58.943,69.472
			c0.098,0.292-0.244,0.292-0.44,0.391c-2.05,0.194-4.052,0.586-6.15,0.731c-0.146-0.096-0.44,0-0.391-0.294
			c0.878-0.438,2.001-0.291,2.978-0.536c0.196,0.049,0.391,0.146,0.586,0.099c0.732-0.537,1.806-0.343,2.636-0.585
			C58.454,69.227,58.797,69.227,58.943,69.472z M61.383,69.081c-0.244,0.438-0.878,0.391-1.317,0.488
			c-0.146-0.05-0.196-0.196-0.293-0.244c-0.147-0.344,0.244-0.148,0.391-0.293C60.553,69.032,60.993,68.982,61.383,69.081z
			 M63.288,68.884c-0.244,0.197-0.635,0.293-0.976,0.149C62.555,68.884,62.897,68.836,63.288,68.884z M61.579,66.297
			c-0.146,0.344-0.683,0.244-1.025,0.344c-0.097-0.344,0.293-0.344,0.44-0.489C61.189,66.201,61.481,66.055,61.579,66.297z
			 M62.506,66.103c-0.097,0.049-0.244,0.245-0.341,0v-0.146C62.312,65.956,62.457,66.005,62.506,66.103z M63.092,65.908h0.39
			l-0.146-0.245h-0.098L63.092,65.908z M84.182,64.833c-0.245,0.243-0.634,0.344-1.025,0.392
			C83.499,65.076,84.035,64.591,84.182,64.833z M85.5,64.442c-0.146,0.196-0.489,0.196-0.733,0.098
			c-0.096-0.242,0.196-0.194,0.293-0.293C85.256,64.247,85.402,64.298,85.5,64.442z M68.071,63.465
			c0.049,0.245-0.244,0.1-0.341,0.195c-0.147,0-0.342,0.05-0.293-0.145C67.486,63.223,67.925,63.319,68.071,63.465z M78.616,63.272
			c0,0.244-0.293,0.293-0.439,0.438c-0.733-0.438-1.074,0.782-1.758,0.293c-0.634,0.196-1.221,0.978-2.05,0.684
			c-0.439,0.245-0.977,0.146-1.415,0.39c-1.367,0-2.441,0.832-3.809,0.832c-0.537,0.293-1.123,0.389-1.806,0.341
			c0.683-0.636,1.854-0.146,2.586-0.782c1.416,0.245,2.246-0.828,3.564-0.876c1.611-0.638,3.222-1.319,4.979-1.612L78.616,63.272z
			 M68.755,63.175c-0.146,0-0.341,0.048-0.39-0.099c-0.049-0.294,0.244-0.147,0.39-0.195V63.175z M87.843,62.442
			c0.098,0.389-0.537,0.292-0.782,0.439C87.257,62.686,87.501,62.393,87.843,62.442z M73.197,62.345
			c-0.049,0.341-0.537,0.243-0.781,0.438c-0.294-0.049-0.44,0.146-0.732,0.048c0.098-0.389,0.635-0.341,0.928-0.485
			C72.808,62.345,73.051,62.196,73.197,62.345z M70.659,62.196l-0.146,0.148l-0.244-0.293
			C70.366,62.101,70.464,62.002,70.659,62.196z M89.796,61.61c-0.391,0.245-0.83,0.538-1.27,0.441
			c0.195-0.294,0.634-0.539,1.025-0.686C89.65,61.465,89.845,61.414,89.796,61.61z M83.01,60.099
			c-0.049,0.487-0.634,0.536-0.879,0.879c-0.537-0.049-0.585,0.682-1.171,0.585c-0.732-0.245-1.074,0.439-1.659,0.439
			c-0.391-0.685-1.074,0.343-1.318-0.244c0.488-0.392,1.27-0.293,1.659-0.78c1.221-0.146,2.197-0.732,3.32-0.977L83.01,60.099z
			 M88.136,58.83c-0.39,0.292-0.683,0.731-0.683,1.269c-0.488,0.291-1.074,0.341-1.563,0.634h-0.146
			c0.098-0.586,1.171-0.194,0.781-0.927c-0.878-0.148-1.611,0.685-2.539,0.732H83.84c0.879-0.489,1.807-1.026,2.734-1.319
			C87.16,59.219,87.599,58.73,88.136,58.83z M91.504,53.068c0.196,0.049,0.489-0.098,0.489,0.195
			c0.196,0.439-0.391,0.536-0.635,0.732c-0.39-0.145-0.781,0.05-1.025,0.293c0,0.196,0.244,0.342,0.098,0.489
			c-0.244,0.244-0.634,0.146-0.83,0.537c0.244,0.684-0.781,0.684-1.123,1.269c-0.83,0.488-1.855,0.586-2.588,1.317
			c-0.536-0.048-0.781,0.733-1.366,0.685c-0.293,0.585-1.074,0.196-1.319,0.782c-0.976,0.341-2.001,0.634-2.978,1.072
			c-0.146,0-0.342,0-0.44-0.098c0.489-0.293,1.367-0.147,1.416-0.83c0.634-0.145,0.927-0.782,1.659-0.682
			c0.049-0.734,0.976,0,1.074-0.734c0.733,0.146,1.074-0.537,1.709-0.485c0.243-0.148,0.341-0.393,0.341-0.638
			c-0.243-0.39-0.683,0.099-1.025,0.196c-0.39,0.293-0.83,0.441-1.317,0.537c0.537-0.292,0.439-1.219,1.22-1.219
			c0.489-0.198,0.977-0.441,1.465-0.686c0.098,0.096,0.049,0.292,0.049,0.487c-0.098,0.198-0.439,0.393-0.245,0.684
			c0.098,0.196,0.293,0.245,0.44,0.099l0.536-0.488c0.733,0.099,1.27-0.686,2.05-0.733c0.098-0.242,0.342-0.487,0.146-0.779
			c-0.244-0.488-0.683,0.196-0.976-0.197c0.488-0.389,1.123-0.731,1.611-1.171c0.098-0.291-0.635-0.537,0-0.684
			c0.049,0.194,0.293,0.491,0.537,0.295c0.439-0.101,0.489-0.49,0.635-0.831c0.243,0.195,0.537,0.097,0.781-0.048
			C91.846,52.726,91.114,52.678,91.504,53.068z M116.402,31.929l0.195,0.439l-0.147,0.245l-0.146-0.439L116.402,31.929z
			 M109.616,50.921l0.44-0.146l-0.049-0.196h-0.098L109.616,50.921z M111.52,48.918l0.439-0.146l-0.098-0.195L111.52,48.918z
			 M103.807,38.423l0.293-0.098l-0.098-0.195h-0.097L103.807,38.423z M108.103,37.252h-0.244v-0.489l0.439-0.099L108.103,37.252z
			 M91.846,60.44c0.049,0.293-0.293,0.195-0.391,0.344h-0.438C90.968,60.44,91.553,60.294,91.846,60.44z M92.676,60.39
			c-0.049-0.243,0.195-0.195,0.342-0.243C92.969,60.294,92.822,60.39,92.676,60.39z M98.339,52.579
			c-0.781,0.489-1.318,1.562-2.343,1.612c-0.195,0.097-0.391,0.293-0.488,0.489c-1.465,0.73-2.832,1.658-4.346,2.438
			c-0.097-0.048-0.244,0.05-0.292-0.048c0.098-0.439,0.537-0.341,0.781-0.584c0.683-0.441,1.416-0.782,2.246-0.979
			c0.342-0.343,0.439-1.123,1.123-1.024c0.244-0.538,0.83-0.343,1.074-0.782C97.07,53.75,97.412,52.579,98.339,52.579z
			 M89.65,52.387c0.048,0.291-0.342,0.291-0.537,0.437h-0.245c0.049-0.244,0.147-0.537,0.342-0.633
			C89.405,52.141,89.551,52.238,89.65,52.387z M88.771,51.749c0.244,0.587-0.538,0.638-0.782,0.929h-0.097
			C88.185,52.387,88.185,51.749,88.771,51.749z M94.092,51.701c0.196-0.293,0.879-0.831,1.318-1.073
			C94.971,51.115,94.677,51.555,94.092,51.701z M112.057,48.138l0.44-0.148l-0.098-0.194h-0.098L112.057,48.138z M110.055,50.333
			h0.293l0.146-0.29l-0.439,0.194V50.333z M101.464,50.237c-0.196,0.684-1.123,1.122-1.71,1.61c-0.097,0.05-0.243,0.098-0.341,0.146
			c0.195-0.683,0.976-1.27,1.659-1.561C101.171,50.285,101.317,50.285,101.464,50.237z M96.289,49.942
			c0,0.148-0.195,0.246-0.342,0.295C95.849,50.285,96.142,49.895,96.289,49.942z M95.508,50.091c-0.586,0.731-1.562,0.83-2.002,1.61
			c0.049,0.096,0.147,0.096,0.293,0.096c0.049,0.441-0.391,0.296-0.585,0.489c-0.195-0.096-0.146-0.489-0.439-0.341l-0.732,0.441
			c0.147-0.246,0.147-0.539,0.244-0.784c0.586,0.194,1.025-0.243,1.465-0.633c-0.049-0.685,0.927-0.245,1.074-0.927
			c0.049-0.245-0.098-0.489,0.293-0.441C95.508,49.505,95.313,49.942,95.508,50.091z M108.982,49.212
			c-0.879,0.487-1.27,1.222-2.001,1.951c-0.146,0.101-0.44-0.048-0.538,0.196c0.293,0.683-0.537,0.831-0.83,1.22
			c-0.634-0.293-1.172,0.586-1.708,0.931c-0.977,0.778-2.05,1.757-3.174,2.34l-0.634,0.344c-0.488-0.782,0.781-0.685,1.122-1.172
			c0.587-0.048,0.342-0.929,0.977-0.83l1.71-1.269v-0.294c0.585-0.635,1.659-0.88,1.708-1.759c0.244-0.096,0.586,0.051,0.732-0.292
			c0.244-0.732,1.074-1.317,1.611-1.951c0.586,0.096,0.83-0.733,1.318-0.88C108.884,48.235,109.616,48.821,108.982,49.212z
			 M110.398,49.505c-0.88,1.365-2.441,2.147-3.271,3.466c-1.317,0.587-2.05,1.902-3.319,2.538c-0.537,0.489-1.171,0.732-1.758,1.025
			v0.196l0.586,0.048c-0.049,0.146-0.196,0.242-0.342,0.293c-0.39-0.195-0.879-0.195-1.221,0.048
			c-0.195,0.245-0.39,0.587-0.243,0.88l-0.195,0.243c-0.342-0.097,0-0.584-0.195-0.684c-0.538,0.052-1.074,0.83-1.465,0.246
			c0-0.246,0.146-0.491,0.391-0.587c1.221-0.684,2.49-1.27,3.612-2.295c0.538-0.389,1.318-0.146,1.807-0.635
			c1.172-1.024,2.441-1.806,3.612-3.024c-0.194-0.489,0.244-0.587,0.489-0.782c0.781-0.977,1.854-1.514,2.49-2.54l0.488-0.341
			C111.764,48.431,110.837,48.821,110.398,49.505z M96.045,47.356c-0.146,0.344-0.634,0.196-0.537,0.634
			c0.195,0.246,0.537,0.052,0.781,0.196c0.147,0.146-0.049,0.341-0.195,0.391c-0.195,0.099-0.537,0.051-0.635,0.294
			c-0.194-0.147-0.292-0.439-0.585-0.392c-0.391,0.587-1.221,0.782-1.417,1.464c-1.317,0.101-1.464,1.759-2.782,1.905l-0.391-0.051
			v-0.242c0.927-0.243,1.318-1.269,2.294-1.464c0.44-0.441,0.83-0.78,1.416-0.975l1.806-1.857
			C95.898,47.259,95.996,47.259,96.045,47.356z M94.288,47.747c-0.049,0-0.049-0.048-0.098-0.048c0-0.344,0.39-0.293,0.586-0.44
			C94.726,47.502,94.433,47.552,94.288,47.747z M98.144,47.163l-0.391-0.148l0.537-0.341C98.241,46.818,98.388,47.063,98.144,47.163
			z M113.033,46.478c-0.049-0.146,0.098-0.293,0.146-0.39C113.326,46.185,113.18,46.379,113.033,46.478z M97.118,46.331
			c-0.097,0-0.097-0.048-0.146-0.048c-0.048-0.195,0.146-0.341,0.245-0.392C97.461,45.99,97.265,46.283,97.118,46.331z
			 M96.192,46.088c-0.44,0.634-0.684,0.291-1.221,0.634c0.049-0.098-0.098-0.146-0.049-0.244c0.489,0.098,0.781-0.342,1.025-0.635
			c0.049-0.292-0.342-0.486-0.098-0.732C96.093,45.306,96.142,45.746,96.192,46.088z M97.07,45.452
			c-0.098,0.146-0.245,0.391-0.489,0.391c-0.097-0.146-0.292-0.244-0.243-0.438C96.485,44.867,97.363,44.819,97.07,45.452z
			 M100.096,44.769c-0.196,0.195,0,0.732-0.39,0.683c-0.244,0.684-1.074,0.049-1.074,0.879l-0.244,0.244
			c0.048-0.196-0.049-0.343-0.147-0.439c0.488-0.489,1.074-1.073,1.513-1.709C99.95,44.426,100.048,44.624,100.096,44.769z
			 M97.509,44.624c0.049-0.198,0.194-0.394,0.292-0.489C97.802,44.33,97.753,44.624,97.509,44.624z M97.021,44.33
			c-0.294,0-0.488,0.146-0.732,0.294c-0.097-0.246,0.147-0.343,0.244-0.394l0.488-0.146V44.33z M112.594,44.183
			c-0.049,0.489-0.488,0.831-0.732,1.222c-0.146,1.27-1.513,0.636-2.001,1.759l-0.098,0.096c-0.049-0.196-0.245-0.391-0.049-0.585
			c0.439-0.731,1.318-0.099,1.66-1.027c-0.098-0.438,0.683-0.536,0.194-0.975C111.715,44.281,112.155,43.988,112.594,44.183z
			 M97.704,43.208c0.049,0.243-0.194,0.391-0.341,0.487C97.412,43.499,97.558,43.255,97.704,43.208z M97.607,42.476
			c0.049,0.145-0.048,0.244-0.195,0.292c-0.049-0.096-0.195-0.048-0.244-0.196c-0.049-0.196-0.049-0.489,0.195-0.537
			C97.558,42.035,97.558,42.328,97.607,42.476z M96.485,41.596l0.243-0.098l-0.098-0.147L96.485,41.596z M113.424,42.183
			c-0.098-0.245,0.146-0.587,0.341-0.732C113.716,41.744,113.716,42.083,113.424,42.183z M102.049,41.255
			c-0.098,0.243-0.146,0.488-0.39,0.682c-0.195,0-0.44,0.097-0.488-0.146c0.244-0.243,0.244-0.586,0.293-0.879l-0.196-0.294
			c0.342,0.05,0.587-0.096,0.781-0.291C102.44,40.717,101.219,40.912,102.049,41.255z M103.416,38.96l0.244-0.049l-0.098-0.244
			L103.416,38.96z M97.997,38.375c0.049,0.438-0.488,0.78-0.049,1.171c-0.342,0.536-0.488,1.221-0.342,1.905
			c-0.048,0-0.097,0.048-0.097,0.048c-0.244-0.147-0.244-0.488-0.146-0.684c-0.293-0.244-0.391,0.196-0.586,0.293
			c-0.097-0.489,0.391-0.927,0.244-1.416c0-0.684,1.122-0.488,0.83-1.317H97.997z M98.681,38.96
			c-0.196-0.049-0.099-0.635,0.146-0.733C98.924,38.52,98.535,38.716,98.681,38.96z M117.573,36.518l0.146,0.293v0.244h-0.146
			V36.518z M97.216,36.275l0.244-0.147l-0.098-0.196h-0.098L97.216,36.275z M107.614,36.518h-0.244v-0.486l0.439-0.1L107.614,36.518
			z M98.388,36.421c0.39,0.195,0.39-0.293,0.634-0.389c0.098,0.389-0.44,0.731,0,1.023c-0.048,0.1-0.048,0.293-0.195,0.293
			c-0.341,0-0.634,0.05-0.829-0.293c0.342-0.487-0.195-0.878,0-1.464C98.193,35.836,97.997,36.323,98.388,36.421z M117.476,35.639
			l0.146,0.393v0.243l-0.195-0.391L117.476,35.639z M96.436,35.2c0,0.049,0,0.148-0.049,0.148c-0.146,0.048-0.293-0.098-0.244-0.244
			C96.24,35.152,96.386,35.104,96.436,35.2z M99.071,35.739c-0.195-0.148-0.097-0.44-0.097-0.685
			C99.169,35.152,99.022,35.494,99.071,35.739z M99.999,36.177c0-0.488-0.245-1.123,0-1.465
			C100.243,35.152,100.048,35.689,99.999,36.177z M117.476,34.859c-0.049,0.098-0.146,0.048-0.244,0.048v-0.292
			C117.378,34.616,117.525,34.664,117.476,34.859z M117.183,33.443l-0.049,0.586c-0.098,0-0.098,0.049-0.146,0.049
			c-0.244-0.147-0.097-0.49-0.244-0.683C116.841,33.151,117.085,33.297,117.183,33.443z M92.969,32.809
			c-0.342,0.439-1.025,0.293-1.514,0.587c-0.438,0.048-0.781,0.389-1.269,0.341l-0.097-0.048c0.879-0.392,1.904-0.441,2.733-0.88
			H92.969z M95.361,32.028c-0.049,0.146-0.342,0.096-0.488,0.292c-0.293,0.147-0.585,0.342-0.977,0.293
			C94.336,32.368,94.824,32.124,95.361,32.028z M98.876,31.15c-0.098,0.097-0.341-0.196-0.243-0.391L98.876,31.15z M98.241,30.563
			c0.488-0.196,0.147-0.391-0.098-0.487L98.241,30.563z M115.962,31.295c-0.585-0.342-0.292-1.171-0.683-1.611
			C115.621,30.124,116.011,30.612,115.962,31.295z M97.607,31.199c0.293,0.194,0.195-0.343,0.537-0.148
			c0.538,0.39-0.195,0.439-0.293,0.78c-0.683,0.293-0.83-1.318-1.318-0.145c-0.391-0.439-0.928-0.83-1.171-1.319
			c0.049-0.147,0.243-0.147,0.341-0.048c0.293,0.193,0.342,0.879,0.83,0.634c0.147-0.097,0.097-0.39,0.048-0.586
			c-0.292-0.243-0.341-0.585-0.488-0.879C96.825,29.831,97.07,30.66,97.607,31.199z M92.432,28.513
			c-0.39,0.195-0.732-0.293-1.123-0.391C91.651,27.829,92.09,28.367,92.432,28.513z M95.215,27.683
			c-0.049,0.146-0.147,0.293-0.293,0.341c-0.195-0.145-0.342-0.341-0.391-0.537C94.775,27.34,95.068,27.487,95.215,27.683z
			 M93.214,28.268c-0.146,0.197-0.342,0-0.538-0.048l-0.244-0.391c0.146-0.048,0.342-0.146,0.342-0.292v-0.294
			C93.359,27.244,92.871,27.976,93.214,28.268z M90.968,25.485c0.049,0.195-0.146,0.586,0.194,0.732
			c0.146,0.049,0.391-0.096,0.538,0.148c0,0.147-0.049,0.293,0.098,0.343h0.293c-0.049,0.096-0.146,0.193-0.098,0.341
			c-0.342,0.048-0.538-0.537-0.831-0.148l-0.341-0.438c-0.294,0.145-0.294,0.536-0.44,0.781l0.733,0.537
			c-0.244,0.195-1.074-0.294-1.123,0.391c-0.098,0.048-0.147-0.1-0.196-0.1c0.098-0.291,0.488-0.535,0.293-0.878l-0.097-0.145
			c0.243-0.148,0.683-0.537,0.536-0.927c-0.293-0.197-0.293-0.537-0.439-0.83C90.333,24.9,90.723,25.292,90.968,25.485z
			 M96.63,36.323c0,0.929,0.05,1.709-0.146,2.539c0.048,0.195,0.243,0.098,0.39,0.146c-0.049,0.245,0.049,0.588-0.194,0.733
			c-0.147-0.098-0.294-0.245-0.488-0.098c-0.342,0.244,0.293,0.684-0.147,0.927c0.195,0.685-0.732,0.88-0.488,1.562
			c-0.098,0.146-0.292,0.243-0.244,0.488c0.195,0.246,0.438,0.44,0.683,0.146l0.44-0.877c0.244,0.634-0.733,1.22-0.538,1.952
			c-0.195,0.341-0.732,0.634-0.732,1.172c-0.098,0.585-0.928,0.292-0.878,0.929c-0.196,0.146-0.44,0.193-0.538,0.486
			c0.146,0.293-0.245,0.39-0.342,0.586c-0.098-0.048-0.341,0.099-0.341-0.146c-0.098-0.194,0.146-0.194,0.098-0.391
			c-0.293,0-0.44,0.489-0.684,0.733c0.293,0.195,0.391,0.536,0.146,0.83c0,0.097-0.098,0.145-0.146,0.242
			c-0.243-0.146,0.195-0.438-0.195-0.536c-0.244-0.099-0.39,0.146-0.439,0.294c0.049,0.291-0.098,0.291-0.293,0.341
			c-0.245,0.488-0.879,0.635-1.025,1.172c0.146,0.438,0.538,0.146,0.781,0.048c0.391-0.048,0.146-1.318,0.635-0.536
			c-0.342,0.245-0.537,0.488-0.537,0.877c-0.488,0.148-0.879,0.88-1.367,0.587c0.049-0.244,0.488-0.244,0.39-0.587
			c-0.244-0.488-0.537,0.196-0.879,0.148c-0.391,0.194,0.196,0.684-0.341,0.779c-0.635,0-1.221,0.637-1.757,1.027
			c-0.245,0.195-0.146,0.732-0.684,0.585c-0.244,0.293-0.976,0.44-0.732,0.929c0.488-0.148,1.123-0.733,1.562-0.343
			c-0.146,0.586-1.123,0.391-0.928,1.073c-0.097,0.294-0.927,0.098-0.538,0.588c-0.048,0.437-0.585,0.437-0.878,0.633
			c-0.244,0.343-0.634,0.439-0.634,0.879c-0.44,0.342-0.928,0.635-1.416,0.878c-0.048-0.146,0.049-0.194,0.098-0.291
			c-0.293-0.196-0.732,0.192-1.123,0.291c-0.634,0.587-1.514,0.781-2.197,1.269c0.488,0.196,1.025-0.097,1.562-0.194
			c-0.195,0.88-1.416,0.439-1.856,1.317c-1.22,0.146-2.099,1.026-3.32,1.173c-1.025,0.389-2.001,0.878-3.173,1.073
			c-0.098-0.147-0.049-0.344,0.146-0.392c0.146-0.049,0.342-0.097,0.538-0.145c-0.098-0.244-0.342-0.101-0.538-0.05h-0.146
			c0-0.243,0.146-0.487,0.391-0.487c0.196,0,0.488,0.048,0.585-0.245c0-0.098-0.098-0.098-0.146-0.146
			c-0.635-0.049-1.025,0.684-1.611,0.731c-0.781,0.096-1.416,0.732-2.148,0.78c-1.953,0.587-3.76,1.659-5.761,2.248
			c-1.317,0.389-2.587,0.927-3.856,1.413c-1.66,0.489-3.369,0.979-5.028,1.467c-0.098,0.096-0.294,0.146-0.196,0.29
			c1.367-0.048,2.782-0.683,4.247-0.583c0.098,0.146-0.146,0.341-0.342,0.389c-3.562,0.782-7.029,1.854-10.69,2.393
			c-0.781,0.294-1.856-0.39-2.294,0.391c0.049,0.098,0.292,0.196,0.243,0.392c-0.488,0.244-1.514-0.245-1.61,0.438
			c0.488,0.051,1.025,0.051,1.513,0.194c0,0.194-0.292,0.194-0.439,0.245c-2.587,0.242-5.419,0.05-8.006-0.341
			c-0.342-0.147-0.879-0.147-1.025-0.441c-1.074-0.632-2.88-0.632-2.978-2.294c-0.292-0.878-0.049-1.709,0.293-2.488
			c0.537-1.22,1.708-2.343,2.782-3.223c0.049-0.293,0.489-0.146,0.634-0.343c0.831-0.731,1.855-1.023,2.637-1.806
			c0.977-0.489,1.806-1.221,2.783-1.659c1.367-0.587,2.636-1.368,3.906-2.148c0.683-0.391,1.172-0.782,1.953-1.024
			c1.708-0.977,3.515-1.757,5.174-2.783c0.489-0.049,0.879-0.438,1.465-0.489c0.292-0.048,0.634-0.097,0.977-0.145v0.145
			c-0.684,0.489-1.416,0.977-2.148,1.417c-0.049,0.146,0.098,0.243,0.147,0.341c0.488-0.242,1.025-0.438,1.61-0.486
			c0.683-0.49,1.416-0.782,2.05-1.221c1.074-0.49,2.295-0.829,3.32-1.515c0.146-0.44,0.391-0.39,0.83-0.44
			c1.416-0.585,2.686-1.562,4.247-1.903c0.391-0.781,1.416-0.194,1.758-0.977c1.172-0.391,2.148-1.171,3.418-1.316
			c0.146-0.196,0.194-0.441,0.39-0.49c0.391,0.146,0.733-0.244,1.074-0.341c1.025-0.439,2.001-0.88,3.026-1.269
			c0-0.243-0.292-0.684,0.196-0.732c0.538,0,1.171-0.734,1.562-0.049c0.586-0.146,1.27-0.048,1.757-0.489
			c-0.391-0.196,0-0.489,0.098-0.682c0.83-0.196,1.61-0.539,2.343-0.879c0.879-0.293,1.709-0.781,2.636-0.781
			c-0.146,0.439-0.732,0.293-1.074,0.537c-0.048,0.193-0.293,0.097-0.341,0.293l0.146,0.146c2.099-0.683,4.149-1.416,6.2-2.294
			c0.146-0.098,0.195-0.244,0.245-0.391c-0.391-0.195-0.831,0.147-1.27,0.098V38.52c0.781-0.44,1.611-0.683,2.44-0.976l0.195-0.292
			c1.563-0.342,3.125-0.831,4.589-1.416C96.533,35.689,96.533,36.08,96.63,36.323z M45.176,69.618v0.146
			c-0.977-0.096-1.807,0.146-2.686,0.245c-0.098,0.048-0.195,0.147-0.146,0.243l0.293,0.146c-0.927,0.051-2.05,0-2.979-0.242
			c-0.194-0.147-0.097-0.392-0.097-0.586c0.097-0.098,0.097-0.196,0.292-0.244C41.611,69.618,43.273,69.618,45.176,69.618z
			 M49.082,68.545c-0.098,0.096-0.635,0.146-0.732,0.146l0.049-0.146C48.495,68.495,49.033,68.495,49.082,68.545z M54.207,67.665
			c-1.66-0.099-2.831,0.88-4.491,0.733c1.269-0.441,2.734-0.393,4.004-0.881h0.487V67.665z M28.431,64.054
			c-0.146,0.048-0.292-0.101-0.244-0.245C28.334,63.809,28.48,63.858,28.431,64.054z M40.05,62.733
			c-0.097,0.147-0.147,0.343-0.341,0.394h-0.244C39.416,62.782,39.855,62.686,40.05,62.733z M29.749,62.393
			c-0.438,0.341-0.487,0.977-1.074,1.024C28.822,62.881,29.407,62.733,29.749,62.393z M28.285,62.537
			c0.293,0.245-0.195,0.539,0.049,0.832c-0.195,0.195-0.391,0.096-0.586,0.048c0-0.488-0.635-0.242-0.635-0.731
			c0.098-0.585,0.781-1.026,1.221-1.464C28.235,61.659,28.285,62.101,28.285,62.537z M44.249,59.902l-0.099,0.292
			c-1.123,0.637-2.099,1.611-3.32,1.954c-0.049-0.684,0.879-0.977,1.319-1.416c0.585-0.343,1.123-0.782,1.756-1.075
			C44.005,59.708,44.151,59.758,44.249,59.902z M75.736,59.758c-0.049,0.243,0.098,0.437,0.098,0.632
			c-0.489,0.245-0.879,0.539-1.465,0.588c0.293-0.049,0.586-0.439,0.391-0.783c-0.098-0.146-0.293-0.146-0.244-0.389
			C74.858,59.609,75.443,59.415,75.736,59.758z M79.69,58.487v0.194c-0.927,0.342-1.708,1.221-2.831,0.928
			c-0.293,0.537-0.585-0.391-1.123-0.146c0.195-0.39,0.732-0.44,1.074-0.634c0.146,0.146,0.389,0.389,0.634,0.389
			c0.293-0.438,0.928-0.145,1.221-0.585c0.195-0.049,0.244,0.244,0.439,0.147C79.154,58.585,79.447,58.194,79.69,58.487z
			 M31.36,58.096c-0.146,0.586-0.781,0.686-1.172,0.928c-0.049-0.048-0.146-0.098-0.146-0.193
			C30.432,58.437,30.922,58.096,31.36,58.096z M78.519,58.146c-0.195,0.342-0.635,0.536-1.074,0.584
			C77.64,58.341,78.129,58.096,78.519,58.146z M48.399,57.462c-0.635,0.489-1.367,0.732-2.001,1.267
			c-0.489-0.242-0.976,0.979-1.172,0.196c0.244-0.684,1.123-0.341,1.366-1.025c0.684-0.048,1.172-0.486,1.807-0.683V57.462z
			 M89.161,57.559c-0.146,0.1-0.39,0.246-0.243,0.489l0.146,0.098c-0.683-0.487-1.171,0.39-1.903,0.342
			c-0.488,0.194-0.928,0.635-1.513,0.438c1.025-0.537,2.05-1.025,3.075-1.66L89.161,57.559z M80.032,57.61
			c-0.195,0-0.391,0.048-0.489,0.242v0.146c-0.195,0.049-0.195-0.099-0.292-0.244v-0.196l1.366-0.828
			C80.96,57.314,80.277,57.364,80.032,57.61z M82.766,55.898c-0.048,0.296-0.683,0.245-0.585,0.734
			c-0.391,0.293-0.879,0.244-1.221,0.05l0.049-0.148l1.27-0.781C82.473,55.753,82.619,55.802,82.766,55.898z M54.061,53.995
			c-0.049,0.391-0.391,0.489-0.634,0.734c-1.025,0.633-2.148,1.072-3.173,1.758c-0.391,0.047-0.732,0.341-1.074,0.389
			c0.195-0.537,0.878-0.635,1.318-0.979l0.048-0.096c1.123-0.293,2.148-1.268,3.271-1.807H54.061z M85.793,53.946
			c0.097,0.245-0.538,0.293-0.244,0.636c-0.44,0.341-0.976,0.584-1.514,0.732c0.049,0.487-0.488,0.439-0.732,0.634h-0.196
			c-0.293-0.782,0.732-0.634,0.781-1.268c0.538-0.441,1.172-0.588,1.661-1.075C85.793,53.558,85.842,53.75,85.793,53.946z
			 M99.56,45.159c0.049,0.099-0.049,0.099-0.098,0.147h-0.098v-0.195C99.413,45.111,99.56,45.063,99.56,45.159z M95.556,43.451
			c0.048,0.537-0.781,0.585-0.83,1.173c-0.585,0.291-0.683,0.828-1.123,1.318h-0.098c0.098-1.076,1.514-1.271,1.368-2.444
			c0.146-0.145,0.195-0.243,0.391-0.291C95.361,43.208,95.458,43.354,95.556,43.451z M61.628,42.915
			c0.098,0.243-0.195,0.195-0.293,0.293c-0.146-0.05-0.292,0.048-0.439-0.098c0-0.195,0.293-0.293,0.439-0.343
			C61.432,42.817,61.628,42.719,61.628,42.915z M82.619,41.596c-0.732,0.243-1.415,0.732-2.245,0.779v-0.145
			c0.634-0.391,1.317-0.634,1.952-0.927C82.473,41.351,82.718,41.351,82.619,41.596z M67.584,40.523l-0.098,0.39
			c-1.563,0.439-3.076,1.123-4.687,1.611h-0.44l0.244-0.245c1.514-0.633,3.076-1.123,4.541-1.855
			C67.291,40.423,67.486,40.376,67.584,40.523z M96.24,36.275c-0.048,0.536-0.83,0.439-1.172,0.78
			c-1.074,0.197-2.05,0.732-3.075,0.83c0.196-0.292,0.683-0.437,1.025-0.585C94.19,37.203,95.117,36.568,96.24,36.275z
			 M85.744,22.459v0.098c-0.831-0.098-1.514-0.441-2.197-0.832l0.048-0.146C84.426,21.58,85.011,22.166,85.744,22.459z
			 M14.128,19.921c-3.174,0.536-6.348,1.025-9.374,1.952c-0.244,0.098-0.195-0.147-0.293-0.245c1.953-0.682,4.101-0.878,6.201-1.171
			c1.123-0.195,2.246-0.488,3.466-0.634V19.921z M76.224,20.555c0.538-0.243,1.123,0.05,1.612,0.245
			c0.146,0.293-0.196,0.195-0.293,0.293c-0.731-0.195-1.561-0.343-2.343-0.293c0.146,0.341,0.635,0.243,0.831,0.584
			c-0.976,0.101-1.856-0.486-2.881-0.536c0-0.098-0.194-0.243-0.049-0.341c0.195-0.195,0.684,0.048,0.879-0.245
			c0.488-0.146,0.537,0.586,0.976,0.391c0-0.146-0.146-0.098-0.146-0.196c0.049-0.585,0.634-0.195,0.928-0.096
			C75.932,20.361,75.981,20.701,76.224,20.555z M73.003,20.165l-0.537,0.097c0.146,0.1,0.098,0.391,0.098,0.488
			c-0.146,0.098-0.44,0-0.635-0.145c-0.097-0.05-0.097-0.148,0-0.196c0.098-0.244,0.489-0.097,0.391-0.44
			C72.563,19.921,72.856,20.019,73.003,20.165z M71.441,19.872h0.342l-0.245-0.195h-0.097V19.872z M33.215,18.31
			c-0.976,0.44-2.538,0.097-3.514,0.097C30.872,18.31,31.995,18.457,33.215,18.31z M55.477,18.31v0.195
			c-0.342,0.048-0.635-0.098-0.927-0.146c0.098-0.293,0.585-0.246,0.78-0.097C55.379,18.31,55.428,18.359,55.477,18.31z
			 M42.93,18.066c-0.829,0.391-2.245-0.097-3.417,0.148c-1.66,0.338-3.711-0.148-5.468,0.193c2.538-0.389,5.419-0.389,8.104-0.439
			L42.93,18.066z M54.061,18.066c0.049,0.148-0.098,0.196-0.195,0.293c-1.904-0.097-4.101-0.097-6.004-0.246
			c1.806-0.193,3.808,0.101,5.517-0.145C53.622,17.968,53.914,17.87,54.061,18.066z M150.037,15.722
			c-0.048,0.439-0.683,0.391-0.878,0.782c-0.439-0.148-1.074-0.635-1.464-0.196l0.194,0.341c-0.292,0.196-0.634,0.439-1.025,0.244
			c0.098-0.146,0.342-0.096,0.245-0.341c-0.049-0.148-0.342-0.098-0.245-0.341c0.684-0.587,1.514-0.293,2.295-0.635
			C149.403,15.381,149.842,15.477,150.037,15.722z M150.623,15.331v0.195c-0.146,0.05-0.244-0.097-0.342-0.195
			c-0.049-0.146,0.049-0.05,0.098-0.146C150.526,15.136,150.673,15.186,150.623,15.331z M152.625,14.599
			c-0.244,0.146-0.537,0.293-0.878,0.391c-0.244,0.05-0.488,0.195-0.781,0.243l0.049-0.243
			C151.551,14.844,152.088,14.745,152.625,14.599z M43.321,13.233c0,0.243-0.342,0.146-0.439,0.243
			c-0.146-0.097-0.391,0.05-0.489-0.195C42.637,13.086,43.027,13.183,43.321,13.233z M83.303,12.89
			c-0.44,0.196-1.123,0.148-1.563-0.195C82.131,12.208,82.766,12.842,83.303,12.89z M93.457,30.124
			c0.244-0.048,1.025,0.732,1.221,0.634c0.244,0.195,0.587,0.488,0.44,0.781c-1.025,0.439-2.099,0.829-3.125,0.976
			c0.196-0.147,0.634-0.243,0.537-0.586c-0.537-0.243-1.074,0.391-1.708,0.343c-1.221,0.341-2.295,0.927-3.515,1.171
			c-2.539,0.977-5.224,1.416-7.763,2.44c-0.243,0.148-0.634,0.148-0.732,0.439c0.489,0.488,0.976-0.096,1.416-0.146
			c0.634-0.145,1.318-0.39,1.903-0.438c-1.122,0.488-2.294,1.121-3.661,1.171c-1.562,0.049-2.538,1.269-4.101,1.22
			c0.342-0.391,0.878-0.293,1.221-0.634c0-0.048,0.048-0.148-0.049-0.148c-2.441,0.685-4.784,1.808-7.225,2.686
			c-0.684,0.098,0,0.683-0.44,0.976c-1.903,0.927-4.003,1.365-5.809,2.539l-5.565,2.491c-0.391,0.682-1.367,0.291-1.806,0.975
			c-1.074,0.244-1.954,0.975-3.075,1.123c-0.196,0-0.44-0.244-0.293-0.438c0.976,0,1.708-0.881,2.636-1.174
			c0.342-0.879,1.465-0.39,1.856-1.121c0.976-0.245,1.757-0.978,2.733-1.174v-0.146c-0.683,0.05-1.221,0.441-1.855,0.734
			c-1.562,0.34-2.881,1.414-4.394,1.855c-3.515,1.708-7.177,2.976-10.545,4.979c-0.147,0.245,0.147,0.782-0.341,0.782
			c-0.147-0.099-0.195-0.244-0.245-0.342c-1.025,0.342-2.147,1.024-3.124,1.609l0.147,0.196c0.195,0.048,0.391-0.149,0.586-0.099
			c-0.147,0.195-0.391,0.293-0.538,0.439c-0.293,0.146-0.39-0.048-0.585-0.244c-0.586,0.05-0.976,0.489-1.416,0.782
			c-0.391,0.244,0.292,0.489-0.098,0.731c-0.244,0.293-0.489-0.098-0.733-0.098c-1.122,0.587-2.197,1.221-3.221,2.003
			c-0.099,0.096-0.099,0.196,0.048,0.292c0.733-0.196,1.417-0.733,2.1-0.928c-1.416,0.88-2.783,1.951-4.199,2.831
			c0,0.685-0.877,0.732-1.024,1.222c0.39,0.194,0.195,0.927,0.829,0.975c0.587-0.293,0.978-0.925,1.515-1.366
			c0.048-0.391-0.392-0.098-0.489-0.391c0.293-0.392,0.635-0.682,1.025-0.83c0.635-0.389,0.342,0.587,0.83,0.539
			c0.683-0.636,1.464-1.124,2.197-1.563l0.146,0.098c-2.587,2.147-5.175,4.637-7.079,7.273v0.194
			c0.39,0.196,0.244,0.733,0.341,1.123c0.293,0.196,0.195,0.635,0.586,0.782c0.977,0.686,0.977-0.879,1.758-1.075
			c0.098-0.293-0.146-0.438-0.292-0.634l0.341-0.391c-0.098-0.78,0.683-1.22,1.123-1.66c-0.049-0.195,0.098-0.341,0.244-0.488
			c0.292-0.098,0.585-0.438,0.83-0.194c-0.634,0.977-1.709,1.758-1.709,2.832c-0.39,0.391-0.048,0.731,0.049,1.121
			c-0.049,0.537-0.488,0.099-0.732,0.246v0.339c0.732,0.538,1.416,1.027,2.099,1.661c1.953,0.976,3.612,1.562,4.736,1.66
			c5.467,1.123,11.619,0.782,17.282,0.242c2.831-0.389,5.613-0.826,8.543-1.12c2.783-0.392,5.467-1.223,8.348-1.465
			c0.488-0.733,1.464,0,2.197-0.389c4.394-1.076,8.836-2.149,13.132-3.664c0.097-0.048,0.146-0.146,0.097-0.292
			c-0.243-0.341-1.172,0.292-1.172-0.489c2.002-1.22,4.102-1.903,6.152-2.977c1.123,0.049,1.757-1.123,2.88-1.221l1.123-0.586
			c0-0.146,0-0.341-0.195-0.341c-0.928,0.242-1.708,1.22-2.685,0.927c-0.098-0.051-0.049-0.099-0.049-0.146
			c0.634-0.586,1.464-0.731,2.05-1.319c0.537-0.243,0.927-0.929,1.611-0.684c0.488-0.097,0.586-0.976,1.171-0.586
			c0.342-0.927,1.367,0.146,1.562-0.731c0.049,0,0.049,0.048,0.098,0.048c-0.733,0.731-1.611,1.417-2.587,1.611
			c-0.147,0.195-0.488,0.195-0.391,0.488c0.44,0.587,0.928-0.39,1.465-0.097l0.098,0.293c-1.221,0.684-2.392,1.514-3.71,2.001
			c0,0.439-0.585,0.343-0.83,0.636c-0.781-0.148-0.928,0.83-1.708,0.731c-1.27,1.026-2.881,1.223-4.296,2.001
			c-0.049,0.148,0.049,0.246,0.195,0.294c1.708-0.486,3.368-1.072,4.931-1.902c1.611-0.439,3.075-1.367,4.638-1.905
			c0.977-0.438,2.88-1.024,4.345-2.003l0.194-0.389c0.196-0.293,0.391-0.195,0.587-0.489c3.856-2.002,7.713-5.027,10.593-8.442
			c0-0.394,0.489-0.489,0.489-0.833c0.976-0.928,1.366-2.243,2.196-3.368c-0.195-0.439,0.537-0.537,0.293-1.023
			c0.683-1.026,1.074-2.148,1.367-3.274c0.293-0.731,0.488-1.61,0.488-2.391h-0.097c-0.097,0.586-0.049,1.319-0.586,1.66
			l-0.196-0.244c-0.146-0.343,0.049-0.684,0.293-0.83c0.195-0.391-0.049-0.733-0.244-1.075c0-0.536,0.586-0.341,0.878-0.487
			c0-0.784,0.342-1.661,0-2.393c-0.146-0.293,0.049-0.732-0.195-0.975c-0.097-0.636-0.244-1.271-0.439-1.905
			c-0.146-0.244-0.146-0.634-0.537-0.634c0.097-1.075-0.83-1.757-1.073-2.637c2.001-1.269,4.588-1.221,6.59-2.539
			c0.391-0.245,0.537,0.195,0.782,0.243c0.292-0.146,0.927-0.195,0.83-0.634c0.147-0.293,0.439-0.146,0.634-0.342l-0.684-0.145
			c0.342-0.148,0.635-0.441,1.074-0.391c1.123-0.684,2.49-0.879,3.71-1.318c3.71-1.662,7.665-2.54,11.424-3.906
			c-0.782-0.245-1.318,0.391-2.05,0.342c-0.049-0.098-0.146-0.098-0.146-0.196c1.513-0.682,3.417-0.487,4.881-1.22
			c0.44-0.683,0.977-0.389,1.611-0.537c0.294-0.097,0.488-0.489,0.879-0.441c0.439-0.096,0.78-0.389,1.221-0.243v-0.877
			c-0.538-0.293-1.074,0.048-1.661,0.048c-0.39,0-0.098,0.536-0.439,0.731l-0.244-0.243c0.049-0.098,0.195-0.243,0.049-0.391
			c-0.781,0.048-1.367,0.489-2.099,0.634c-1.514-0.048-2.587,0.93-4.052,0.978c-1.171,0.488-2.441,0.634-3.564,1.122
			c-2.294,0.488-4.492,1.123-6.688,1.659c-0.196,0.05-0.488,0.146-0.586-0.145c-0.439-0.098-0.342,0.438-0.635,0.536
			c-0.244,0.146-0.683,0.194-0.781-0.098c-0.293-0.097-0.487,0.39-0.683,0.635c-0.927,0.343-2.49,0.05-2.686,1.366
			c-0.438,0.295-0.195-0.341-0.536-0.439c-0.586,0.048-1.269,0.048-1.514,0.685c-0.586-0.441-1.27,0.049-1.806,0.193
			c-0.927-0.096-1.367,0.781-2.246,0.684c-1.122,0.391-2.197,0.731-3.368,1.025c-0.196-0.244-0.683-0.39-0.732-0.78
			c0.293-0.048-4.784-3.417-5.418-3.858c-1.563-0.78-2.978-2.245-4.687-2.343c-0.244-0.243-2.587-0.88-2.733-1.171
			c-3.173-1.122-6.297-2.391-9.617-3.027c-0.391-0.293-0.928-0.389-1.367-0.341c-1.416-0.439-2.978-0.782-4.492-0.879l0.245,0.195
			c1.514,0.343,2.978,0.782,4.54,1.025c0.049,0.098,0.146,0.148,0.146,0.244l-5.712-0.878c-3.369-0.586-6.883-0.877-10.349-1.22
			c-6.104-0.439-11.668-0.342-17.819-0.244c-1.757,0.146-3.417,0.439-5.224,0.389c-0.098,0.098-0.049,0.246-0.049,0.343
			c0.293,0.389,0.733,0,1.123,0.048c0.342,0.098,1.074-0.048,0.976,0.488c0.049,0.148-0.049,0.293-0.146,0.293
			c-0.879,0.342-1.22-0.635-2.05-0.293c-0.097,0.05-0.146,0.245-0.292,0.148c-0.146-0.391-1.025-0.098-0.733-0.684
			c0.146-0.098,0.391,0,0.44-0.245c-1.708-0.146-3.369,0.195-4.979,0.293c-0.245,0.293,0.097,0.539,0.146,0.733
			c0.293,0.196,0.684-0.049,0.927-0.195c0.88-0.147,1.758,0.29,2.246-0.586c0.391,0.048,0.635-0.098,0.928,0.098
			c-0.195,0.779-1.22,0-1.416,0.634c-0.342,0.097-0.782,0.049-0.977,0.439c-0.342,0-0.831-0.098-0.976,0.195l0.098,0.148
			c2.684,0,5.419-0.489,8.006-0.197c-0.049,0.342-0.683,0.049-0.585,0.538c-0.147-0.098-0.196,0.097-0.293,0.147
			c-0.049,0.291,0.049,0.535,0.293,0.584c0.39,0.05,0.83-0.049,1.22,0.098c0.146,0.146,0.05,0.537-0.195,0.635
			c-0.195,0.049-0.635,0.049-0.586-0.293c-0.878-0.389-1.268,0.684-2.099,0.147c-0.146-0.147,0-0.343,0.146-0.488
			c0.245,0.048,0.489,0.048,0.635-0.195c-0.049-0.196-0.146-0.439-0.342-0.389c-0.489,0.145-0.342-0.491-0.684-0.539
			c-0.39,0-0.732,0.048-1.024,0.195c-0.099,0.684-1.075,0.195-1.611,0.391c-0.244,0.145-0.342-0.146-0.488-0.293
			c-0.83,0.195-1.953-0.245-2.489,0.634c-2.099-0.293-4.151,0.441-6.25,0.244c-0.049,0.097-0.195,0.049-0.292,0.049
			c-0.098-0.391,0.537-0.391,0.83-0.634c0.39-0.048,0.83-0.098,1.221-0.293c1.221,0.391,2.197-0.341,3.369-0.245
			c0.097-0.196-0.147-0.244-0.244-0.293c-0.879,0.049-1.708-0.194-2.587,0c-0.197-0.048-0.293-0.194-0.439-0.292
			c0.243-0.391,0.83,0.146,1.219-0.196c-0.048-0.145-0.488-0.145-0.243-0.39l-0.098-0.146c-1.221,0.048-2.44,0.146-3.516,0.439
			c-1.708,0-3.318,0.682-4.832,0.489c0.684-0.099,1.366-0.148,2.001-0.344c0.049,0.05,0.098,0,0.098-0.048
			c-0.196-0.341-0.635-0.048-0.977-0.048l-0.098-0.097l-1.611,0.243c-1.464,0.146-3.172,0.146-4.687,0.39
			c-3.514,0.587-7.128,0.879-10.643,1.416c-0.682,0.097-1.512-0.048-2.098,0.245c2.001,0.098,3.954-0.341,5.808,0
			c0.635-0.245,1.221-0.489,1.953-0.489c1.122-0.684,2.734-0.293,4.003-0.634l0.44-0.245c1.563,0,3.369-0.439,5.127-0.244
			c-0.538,0.343-1.221,0.196-1.807,0.343c-1.123,0.487-2.685,0.096-3.759,0.877c-1.122-0.049-2.05,0.439-3.221,0.343
			c-0.196,0-0.342,0.342-0.635,0.195c-1.22-0.195-2.343,0.439-3.612,0.339c-0.293,0.197-0.635-0.193-0.782,0.293
			c0,0.733,0.586,0.1,0.878,0.343c0.195,0.341,0,0.684-0.292,0.829c-0.487-0.145-0.977,0.392-1.465,0
			c-0.488-0.293-1.025,0.587-1.415-0.097c0-0.439,0.537-0.342,0.732-0.586c0.146-0.146,0.586,0,0.537-0.341
			c-0.634-0.391-0.878,0.391-1.464,0.195c-1.172,0.146-2.393,0.39-3.516,0.684c-1.171-0.295-1.757,1.22-2.929,0.537
			C9.441,18.31,9.148,18.504,9.05,18.7c-0.244,0.341-0.732,0.245-1.171,0.293c-0.538-0.44-1.367-0.048-1.954,0.148
			c-0.585,0.291-1.465-0.196-1.904,0.389c0.049,0.147,0.196,0.147,0.292,0.196c0.928-0.439,1.954-0.39,2.979-0.244
			c1.074-0.782,2.539-0.05,3.661-0.782c0.342-0.243,0.586,0.196,0.831,0.245c0.391-0.342,0.976,0.096,1.513,0.146v-0.146
			c-0.097-0.049-0.244-0.049-0.293-0.147c-0.048-0.098,0.049-0.195,0.099-0.246c0.635-0.048,1.27-0.146,1.806-0.338
			c0.195-0.148,0.488-0.246,0.683-0.05c0.049,0.243-0.341,0.195-0.293,0.439c1.562,0.293,3.271-0.389,5.028-0.293l0.44-0.341
			l0.244,0.294c0.39,0.195,0.44-0.392,0.781-0.294c0.538,0.536,1.172-0.048,1.807,0c0.293,0,0.536-0.148,0.488-0.439
			c0.341-0.195,0.877-0.342,1.269-0.147l-0.098,0.391h1.513c0.441-0.148,0.782-0.439,1.221-0.391
			c0.489,0.488,1.221-0.048,1.856,0.195c0.732-0.341,1.416,0.293,2.245,0.099c0.196-0.146,0.439-0.196,0.684-0.146
			c0.538-0.636,1.318-0.293,2.05-0.293c0.098,0.146-0.049,0.389,0.196,0.489l2.05-0.148l0.196-0.293
			c0.195-0.145,0.391-0.243,0.634-0.195c0.147,0.098,0.244,0.245,0.196,0.391c0.098,0.245,0.342,0.097,0.537,0.145
			c0.293-0.048,0.098-0.389,0.343-0.536l2.001-0.096c0.244,0.146,0.39,0.389,0.683,0.487c0.39,0.097,0.928,0.097,1.221-0.244
			c0.195-0.148,0.244,0.048,0.439,0.098l2.49,0.097l0.292-0.292c0.343,0.195,0.733,0.097,1.075,0.292
			c3.514-0.097,7.029,0,10.496,0.44c0.977,0.099,2.05,0.05,2.88,0.489c-0.39,0.146-0.976,0-1.416,0.048
			c-1.073,0.098-2.245-0.487-3.222,0.05c0.928,0.389,2.05,0.146,3.027,0.439c0.683,0.097,1.513-0.05,2.148,0.097
			c3.416,0.293,6.834,1.075,10.3,1.464v-0.243c-0.293,0.148-0.781-0.098-0.976-0.44c0.293-0.194,0.634-0.39,0.83-0.733
			c0.538,0.391,0.732-0.438,1.318-0.145c0.146,0.049,0.293,0.245,0.245,0.44c0.927,0.048,1.708,0.536,2.635,0.438
			c0.098-0.194-0.244-0.292-0.244-0.438c0.342-0.147,0.635,0.096,1.025,0.048c0.44,0.342,1.075,0.293,1.514,0.684
			c0.293-0.049,0.732,0.244,0.977,0.097c0.244-0.097,0.586-0.097,0.733,0.196c0,0.339,0.39,0.193,0.634,0.193
			c0.781,0.587,1.806,0.488,2.637,1.025c0.146,0.097,0.39,0.097,0.536-0.146c0-0.098-0.146-0.146-0.195-0.245
			c-0.586,0.05-0.928-0.536-1.465-0.536c-0.878-0.439-1.854-0.634-2.831-0.879c-0.195-0.194-0.439-0.342-0.683-0.194l-0.391-0.343
			l0.098-0.146c2.147,0.586,4.296,1.025,6.346,1.904c0.538-0.295,0.538,0.489,1.074,0.439c0.439,0.098,0.83,0.635,1.269,0.292
			c0.146-0.146,0.39-0.584,0.634-0.241c0,0.144-0.195,0.144-0.292,0.241c-0.098,0.147,0.048,0.246,0,0.391l2.245,0.977
			c0.44,0.148,0.879-0.049,0.929,0.586c1.219,0.78,2.391,1.562,3.563,2.392c0.146,0.195,0.489-0.098,0.538,0.246
			c-0.098,0.195-0.293,0.439-0.538,0.439c-1.171-0.782-2.197-1.759-3.514-2.296c-0.244-0.098-0.537,0-0.733,0.097
			c-0.292-0.536-0.781-0.975-1.366-1.171c-0.586-0.245,0.097,0.489-0.537,0.293c-0.196-0.146-0.439-0.243-0.439-0.586
			c-0.635-0.634-0.684,0.489-1.318,0.293c-0.489-0.245-1.123-0.586-1.66-0.441c-0.098-0.098-0.245-0.098-0.196-0.291
			c-0.341,0.145-0.683-0.244-1.073-0.098c-0.587-0.441-1.27-0.684-1.807-1.073c-0.585,0.048-1.221-0.148-1.709,0
			c-0.244-0.05-0.391-0.343-0.586-0.246c0.098,0.294,0.538,0.294,0.782,0.537c0.049,0.538-0.635,0.097-0.879,0.341v0.1
			c0.293,0.243,0.733,0.195,1.074,0.389c0.635,0.098,1.318,0.488,1.855,0.536c-0.293-0.145-0.391-0.438-0.342-0.779l-0.635-0.048
			v-0.197c0.098-0.196,0.391-0.048,0.635-0.096c0.147,0.096,0.195,0.243,0.294,0.39c0.878,0.244,1.757,0.487,2.44,1.025
			c-0.245,0.292-0.586,0.146-0.928,0.097c-0.146-0.44-0.537-0.097-0.781-0.097c0.684,0.243,1.319,0.439,2.002,0.584
			c0.147-0.098-0.049-0.389,0.195-0.488c0.489-0.049,0,0.44,0.146,0.586c0.537,0.488,1.318,0.731,1.904,0.977
			c0.098-0.294-0.195-0.438-0.293-0.636c0.391-0.146,0.781,0.049,1.025,0.341c0,0.147-0.098,0.245-0.244,0.39
			c-0.048,0.05-0.048-0.145-0.097,0.245l2.489,1.123l4.101,3.124c0,0.245,0.146,0.44,0.391,0.536L93.457,30.124z"/>
	</g>
	<g>
		<path fill="#FFFFFF" d="M35.462,47.649l0.683,0.099l-0.098-0.195h-0.098L35.462,47.649z M42.393,47.649
			c-0.146,0.196-0.391,0.293-0.587,0.146c-0.097-0.146-0.146-0.389,0.099-0.44C42.101,47.211,42.54,47.307,42.393,47.649z
			 M28.529,49.406c-0.147,0.341-0.585,0.732-0.977,0.831c-0.049-0.146-0.341-0.245-0.146-0.439
			C27.796,49.699,28.09,49.358,28.529,49.406z M31.8,54.73c0,0.048-0.489,0.437-0.489,0.537l0.684-0.293L31.8,54.73z M34.73,50.043
			c0.097-0.196,0.585-0.685,0.732-0.344C35.169,49.747,35.022,50.043,34.73,50.043z M38.487,49.699
			c-0.732,0.586-1.562,1.025-2.392,1.416c-0.049,0.148,0,0.293,0.146,0.341c0.244-0.145,0.537,0,0.732-0.097
			c-0.44,0.342-0.976,0.635-1.611,0.683c-0.097-0.194,0.245-0.341-0.048-0.487c-0.489,0.146-0.977,0.487-1.514,0.44
			c-0.293,0.146-0.683,0.292-1.074,0.146c1.221-1.075,2.685-1.562,4.052-2.343c0.44,0.194,0.831,0.049,1.123-0.244L38.487,49.699z
			 M37.414,46.918c0,0.195-0.195,0.195-0.342,0.293l-0.194-0.048C36.925,46.967,37.219,46.918,37.414,46.918z M46.787,45.647
			c-0.146,0.685-1.025,0.782-1.61,0.978c-0.099-0.584,0.83-0.293,1.073-0.781v-0.391C46.494,45.404,46.738,45.404,46.787,45.647z
			 M48.056,45.306c-0.244-0.098-0.342,0.245-0.635,0.146v-0.341c0.293,0.097,0.635,0.048,0.831-0.146
			C48.35,45.159,48.203,45.306,48.056,45.306z M25.746,55.267c-0.293,0.145,0.049,0.682-0.391,0.682
			c-0.098-0.146-0.341-0.341-0.244-0.586C25.258,55.166,25.551,55.118,25.746,55.267z M34.534,46.136l-4.346,2.246
			c-0.536,0.194-0.341,0.782-0.926,0.929c-0.195,0-0.245-0.194-0.342-0.245c0-0.489,0.391-0.684,0.244-1.172
			c0.586-0.635,1.465-0.487,2.051-1.172c1.024-0.438,2-1.123,3.124-1.464C34.826,45.208,34.583,45.843,34.534,46.136z
			 M51.669,43.599c-0.146,0.243-0.439,0.486-0.732,0.341c-0.048-0.098-0.146-0.148-0.097-0.246
			C51.034,43.549,51.376,43.499,51.669,43.599z M52.889,43.158c0,0.146-0.146,0.146-0.292,0.146v-0.243
			C52.693,43.11,52.84,43.013,52.889,43.158z M48.935,38.814c0.048,0.39-0.342,0.342-0.537,0.487
			c-0.146-0.098-0.342,0.245-0.391-0.048c-0.049-0.44,0.439-0.342,0.635-0.489C48.739,38.814,48.886,38.716,48.935,38.814z
			 M52.303,37.787c0.049,0.392-0.391,0.246-0.586,0.392c-0.146-0.099-0.097-0.245-0.146-0.392
			C51.815,37.641,52.108,37.641,52.303,37.787z M52.986,37.739c-0.048,0.048-0.098,0.146-0.244,0.146
			c-0.097-0.098-0.146-0.244-0.049-0.292C52.84,37.544,52.986,37.641,52.986,37.739z M37.902,42.328
			c0.049,0.196-0.146,0.293-0.243,0.343c-0.781,0.244-1.562,0.584-2.343,0.878c-0.196-0.098,0.097-0.195,0.048-0.293
			c0.782-0.389,1.562-0.928,2.392-1.173L37.902,42.328z M46.103,36.959c-0.244,0.293-0.682,0.341-1.073,0.389
			C45.274,37.105,45.713,37.007,46.103,36.959z M83.888,33.297l0.147-0.293l0.293,0.148L83.888,33.297z M54.158,37.398
			c-0.146,0.293-0.488,0.341-0.83,0.293c-0.196-0.098-0.049-0.293-0.098-0.488c0.195,0.097,0.537,0.097,0.683-0.048L54.158,37.398z
			 M54.988,36.811v0.196c-0.195,0-0.292-0.097-0.244-0.293C54.842,36.616,55.086,36.665,54.988,36.811z M57.918,35.982
			c0.098,0.391-0.439,0.536-0.244,0.977l-0.098,0.096c-0.244-0.145-0.537-0.39-0.44-0.732c0.245-0.195,0.098-0.341,0.196-0.536
			C57.576,35.739,57.771,35.836,57.918,35.982z M58.992,35.396c-0.195,0.293,0.39,0.586-0.098,0.781l-0.391-0.097
			C58.601,35.884,58.845,35.494,58.992,35.396z M60.505,35.2c-0.293,0.099-0.635,0.391-0.977,0.195
			c-0.049-0.243,0.146-0.342,0.245-0.488C60.066,34.957,60.798,34.616,60.505,35.2z M61.579,34.664
			c0.146,0.195-0.195,0.195-0.342,0.244l-0.194-0.096C61.042,34.566,61.383,34.516,61.579,34.664z M65.094,33.638
			c0,0.294-0.146,0.587-0.391,0.685c-0.146,0-0.243-0.05-0.292-0.146C64.46,33.884,64.606,33.345,65.094,33.638z M50.351,35.446
			c-0.097,0.39-0.586,0.193-0.83,0.39c-0.732,0.341-1.66,0.291-2.392,0.682c0.927-0.391,1.953-0.83,2.978-1.123
			C50.204,35.348,50.204,35.494,50.351,35.446z M60.309,32.222v0.146c-1.122,0.099-1.953,0.879-3.075,0.879
			c-0.878,0.537-1.953,0.684-2.929,0.977c-0.927,0.195-1.757,0.586-2.684,0.78c2.049-1.073,4.441-1.561,6.687-2.294
			C58.992,32.613,59.577,32.124,60.309,32.222z M113.18,20.946c-0.098,0.243-0.439,0.195-0.635,0.293
			c0.049-0.146,0.099-0.391,0.293-0.439C112.985,20.75,113.033,20.898,113.18,20.946z M109.958,20.75l-0.147,0.245l-0.342-0.148
			l0.146-0.098C109.616,20.75,109.909,20.8,109.958,20.75z M121.235,19.774c0.049,0.147-0.049,0.245-0.147,0.294
			c-0.145,0-0.292-0.049-0.292-0.196c-0.049-0.146,0-0.195,0.098-0.195C121.04,19.627,121.137,19.726,121.235,19.774z M126.8,19.579
			c-0.245,0.098-0.585,0.244-0.878,0.098C126.214,19.579,126.653,19.189,126.8,19.579z M124.701,18.75
			c0.098,0.195-0.098,0.243-0.244,0.291l-0.146-0.145C124.408,18.75,124.554,18.457,124.701,18.75z M129.73,18.359h-0.244
			c-0.146-0.195-0.049-0.489,0.145-0.634C129.68,17.92,129.973,18.164,129.73,18.359z M124.652,17.675
			c-0.195,0.245-0.291,0.539-0.536,0.781c-1.416,0.146-2.637,0.83-4.198,0.732c-0.44,0.341-1.221-0.048-1.465,0.585
			c-1.025,0.049-1.953,0.539-2.978,0.44c-0.439,0-0.83,0.195-1.269,0.048c0.683-0.048,0.537-0.78,1.269-0.683
			c0.537-0.343,1.27-0.293,1.855-0.586c0.049,0.196,0.146,0.343,0.342,0.343c1.221-0.295,2.733,0.194,3.563-0.832l0.977-0.048
			c0-0.098,0.048-0.243-0.048-0.293C123.041,18.066,123.773,17.675,124.652,17.675z M131.292,17.088
			c-0.196,0.293-0.586,0.342-0.928,0.342c-0.098-0.194-0.342-0.438-0.538-0.292c-0.292,0.145-0.292,0.341-0.683,0.195
			c-0.342,0.391-1.025-0.098-1.318,0.342c-0.098,0.293,0,0.634-0.294,0.781c-0.146-0.195,0.098-0.636-0.243-0.781h-0.587
			c0.049-0.146,0.44-0.146,0.294-0.439c0.147-0.097,0.293,0.098,0.44,0.146c0.683-0.243,1.463-0.098,2.099-0.439
			C130.169,16.893,130.706,17.041,131.292,17.088z M133.733,17.088c0.049,0.148,0,0.245-0.098,0.293
			c-0.293,0.049-0.538,0-0.781-0.146c-0.097-0.294,0.195-0.439,0.39-0.488C133.488,16.697,133.781,16.797,133.733,17.088z
			 M86.33,25.437c-1.172,0.293-0.927,0.099-1.367,0.342c-3.173,0.733-6.248,1.661-9.471,2.343c-0.634,0.195-1.269,0.539-2.05,0.439
			c-3.954,1.222-8.104,2.052-12.058,3.223l-0.098,0.146c0.538-0.194,1.22-0.048,1.855-0.098c0.976-0.78,2.441-0.486,3.661-0.78
			c0.586-0.195,1.025-0.586,1.709-0.488c0.488-0.343,1.172-0.293,1.757-0.439c0.488,0.048,0.391-0.536,0.83-0.586
			c0.976,0.732,2.099-0.246,3.222,0v0.098c-1.464,0.584-3.075,0.877-4.588,1.317c-1.122,0.44-2.343,0.537-3.515,0.976
			c-4.199,1.318-8.494,2.343-12.644,3.955c-0.879,0.584-1.904,0.293-2.881,0.684c-0.39,0.195-0.536,0.537-1.074,0.391
			c-0.928,0.489-2.002,0.537-2.832,1.22c-2.733,1.171-5.565,2.05-8.153,3.466c-0.048,0.146,0.049,0.244,0.098,0.341
			c2.247-0.536,4.198-1.659,6.395-2.295c0.684-0.146,1.514-0.975,2.1-0.195c-0.049,0.832-0.684-0.048-1.124,0.293
			c-0.244,0.391-1.025,0.146-0.977,0.733c-0.634,0.537-1.513,0.488-2.245,0.976c-1.025,0.245-2.148,0.536-2.929,1.318
			c-1.222,0.098-2.052,1.123-3.174,1.366c-0.634,0.537-2.002,0.244-2.049,1.416c0.585,0.586,1.366-0.44,2.148-0.341
			c0.194,0.146,0.341,0.341,0.194,0.536c-1.61,0.731-3.222,1.562-4.833,2.247c-0.537,0.39-1.269,0.73-1.024,1.608
			c-1.562,1.125-3.223,2.003-4.833,3.028c-0.194,0.293,0.049,0.781-0.293,0.977c-0.879,0.487,0.439,1.075,0.146,1.757
			c0.342,0.05,0.536-0.195,0.83-0.39c1.123-0.292,2.002-1.319,3.075-1.758c0.538-0.051,0.977-0.44,1.514-0.488
			c0.245,0.048,0.439,0.342,0.439,0.636c-0.732,0.439-1.415,1.024-2.196,1.366c-0.391,0.244-0.684-0.342-1.025,0
			c-0.293,0.146-0.195,0.489-0.293,0.731c-0.683,0.585-1.514,0.879-2.099,1.562c0.049,0.587-0.098,1.317,0.146,1.904
			c1.025-1.024,2.342-1.807,3.563-2.488c1.222-1.076,2.686-1.514,3.955-2.346c-0.293-0.73-0.928,0.343-1.465,0.098
			c0.488-0.878,1.66-0.682,2.344-1.316c1.366,0.341,2.246-0.978,3.368-1.32c0.292-0.194-0.049-0.389-0.195-0.537
			c0.049-0.341,0.488-0.243,0.782-0.341c0.195,0,0.146,0.245,0.146,0.391h0.293c0.538-1.072,1.806-0.487,2.391-1.368
			c0.587-0.583,2.247-0.293,1.807-1.464c-0.587,0-1.074,0.392-1.562,0.587c-0.245,0.146-0.83,0.195-0.781-0.243
			c-0.391-0.101-0.391,0.194-0.635,0.341c-0.487-0.196-0.633,0.391-1.122,0.148c-0.098-0.1-0.244-0.198-0.293-0.345
			c0.39-0.245,0.83-0.73,1.27-0.439c0.341,0.194,0.585-0.097,0.83-0.194c0.831,0.78,1.514-0.586,2.49-0.391
			c0.341,0.146,0.39,0.585,0.292,0.928c0.684-0.048,1.075-0.585,1.611-1.026c0.098-0.194-0.147-0.293-0.244-0.39l0.146-0.146
			c0.195-0.051,0.586-0.245,0.733,0.098c0,0.144-0.147,0.291-0.195,0.438c0.634-0.097,1.171-0.39,1.757-0.731v-0.1
			c-0.146-0.194-0.293-0.194-0.44-0.243c0-0.196,0.245-0.146,0.293-0.292c0.342,0,0.879-0.44,1.074,0.048
			c0.245,0.146,0.44-0.048,0.684-0.048c1.024-0.831,2.343-0.927,3.417-1.563c0.391-0.194,0.488-0.537,0.586-0.878
			c0.244-0.098,0.537-0.05,0.732,0.194c0.781-0.144,1.465-0.585,2.197-0.828c2.05-0.929,4.247-1.562,6.346-2.344
			c0.195-0.341-0.244-0.391-0.342-0.586c0.391-0.195,0.88,0.05,1.318,0.196c2.099-0.634,3.955-2.003,6.2-2.294
			c0.439-0.099,0.976-0.099,1.318-0.245c0.244-0.147-0.049-0.39-0.146-0.486c0.635-0.489,1.465-0.589,2.197-0.88
			c1.025,0.243,1.758-0.536,2.686-0.636c1.953-0.584,3.758-1.316,5.76-1.659c1.123-0.439,2.392-0.584,3.515-0.976
			c0.342-0.245,0.977,0.048,1.123-0.44c-0.146-0.244-0.538-0.096-0.634-0.147v-0.097c1.22-0.585,2.587-0.83,3.856-1.268
			c1.172-0.245,2.246-0.782,3.418-0.733c-0.733,0.439-1.612,0.488-2.344,0.829c-1.074,0.294-2.246,0.44-3.173,1.026
			c1.562-0.147,3.075-0.781,4.638-1.172c0.536-0.195,1.17-0.537,1.757-0.683l-2.392-2.1c-0.342,0-0.635-0.391-0.83-0.586
			c-0.342-0.146-0.634-0.293-0.731-0.634c-0.294,0-0.587-0.196-0.685-0.489c-0.194,0-0.439-0.048-0.488-0.244
			c-0.195,0-0.488-0.048-0.537-0.243c-0.196,0-0.439-0.05-0.488-0.246c-0.195,0-0.44-0.048-0.488-0.243
			c-0.196,0-0.44-0.05-0.488-0.244c-0.196,0-0.293-0.148-0.489-0.245V25.437z M112.399,24.412c0-0.148,0.146-0.391,0.292-0.439
			c0.147,0.048,0.293,0.096,0.391,0.243c0.488,0.293,1.074,0.048,1.514-0.195c0.049-0.195-0.049-0.293-0.049-0.438
			c0.341-0.391,0.537,0.293,0.878,0.146c0.098-0.048,0.293-0.195,0.244-0.342c-0.049-0.195-0.244-0.195-0.342-0.39
			c0.049-0.098,0.146,0,0.195-0.05c0.098,0.295,0.488,0.147,0.585,0.441c0.244,0.098,0.586,0.05,0.586-0.245
			c0.585,0,1.074-0.195,1.61-0.341c0.342-0.097,0.683-0.048,0.976-0.243c0.587,0.098,0.879-0.293,1.368-0.441
			c0.438-0.391,1.074-0.196,1.61-0.341c0.44-0.683,1.172-0.392,1.758-0.342c0.098-0.829,0.976,0.05,1.172-0.634
			c0.586-0.05,1.074-0.438,1.61-0.586c0.342-0.146,0.878,0.098,0.976-0.391c0.098-0.146,0.245-0.293,0.391-0.244
			c0.487,0.342,1.074-0.097,1.659-0.147c0.342-0.243,0.928,0.05,1.221-0.487c0.684,0.244,1.123-0.488,1.807-0.393
			c0.879-0.291,1.904-0.243,2.539-0.877c0.83,0,1.758-0.196,2.587-0.392c0.39-0.195,0.781-0.438,1.221-0.486
			c0.927,0.048,1.708-0.245,2.44-0.636c1.318,0.098,2.148-1.317,3.417-1.025c1.025,0.195,1.758-0.83,2.831-0.439
			c1.27-0.684,2.832-0.536,4.151-1.025c-0.391,0.049-1.025-0.146-1.514-0.098c-0.732,0.683-1.757,0.147-2.637,0.439
			c-0.878-0.196-1.366,0.636-2.147,0.441c-1.024,0.39-2.294-0.197-3.173,0.488c-0.879-0.245-1.708,0.098-2.538,0.146
			c-0.538-0.391-0.83,0.584-1.367,0.243c-0.927-0.05-1.708,0.439-2.489,0.587c-0.538,0-1.124,0.195-1.563,0
			c0.342-0.196,0.83-0.196,1.025-0.489c-3.026,0.489-6.005,1.075-9.08,1.464c-0.243,0.147-0.536,0.391-0.879,0.195
			c-2.782,0.636-5.613,1.075-8.445,1.611c-0.488,0.391-1.221,0.196-1.708,0.441c-2.441,0.145-4.491,1.221-6.932,1.366
			c-0.439,0.194-0.977,0-1.27,0.536C107.224,20.995,112.399,24.412,112.399,24.412z"/>
	</g>
</g>
</svg>
