<?xml version="1.0" encoding="UTF-8"?>
<svg width="71px" height="71px" viewBox="0 0 71 71" version="1.1" xmlns="http://www.w3.org/2000/svg" xmlns:xlink="http://www.w3.org/1999/xlink">
    <!-- Generator: Sketch 46.2 (44496) - http://www.bohemiancoding.com/sketch -->
    <title>logo ESACM noir</title>
    <desc>Created with Sketch.</desc>
    <defs></defs>
    <g id="tests-couleurs" stroke="none" stroke-width="1" fill="none" fill-rule="evenodd">
        <g id="logo-ESACM-noir" fill="#000000">
            <polygon id="Fill-1" points="20.322 20.322 20.322 22.544 25.316 22.544 25.316 25.866 20.322 25.888 20.322 29.199 26.988 29.199 26.988 32.51 17 32.532 17 17 26.988 17 26.988 20.322"></polygon>
            <path d="M40.988,20.56 C40.988,21.249 40.855,21.899 40.592,22.507 C40.328,23.116 39.972,23.644 39.525,24.091 C39.078,24.539 38.549,24.894 37.941,25.158 C37.332,25.422 36.683,25.554 35.994,25.554 C35.304,25.554 34.655,25.422 34.047,25.158 C33.437,24.894 32.91,24.539 32.463,24.091 C32.015,23.644 31.66,23.116 31.396,22.507 C31.132,21.899 31,21.249 31,20.56 L34.343,20.56 C34.343,21.015 34.506,21.404 34.828,21.726 C35.15,22.049 35.539,22.21 35.994,22.21 C36.463,22.21 36.859,22.049 37.181,21.726 C37.504,21.404 37.666,21.015 37.666,20.56 C37.666,20.091 37.504,19.695 37.181,19.373 C36.859,19.049 36.463,18.888 35.994,18.888 C35.259,18.888 34.582,18.723 33.959,18.393 C33.336,18.063 32.826,17.62 32.429,17.062 C31.857,16.314 31.572,15.442 31.572,14.444 C31.572,13.829 31.689,13.252 31.924,12.717 C32.158,12.182 32.474,11.712 32.87,11.309 C33.265,10.906 33.731,10.587 34.267,10.352 C34.802,10.118 35.378,10 35.994,10 C36.609,10 37.189,10.118 37.732,10.352 C38.274,10.587 38.744,10.906 39.14,11.309 C39.536,11.712 39.851,12.182 40.086,12.717 C40.32,13.252 40.437,13.829 40.437,14.444 L37.116,14.444 C37.116,14.136 37.006,13.876 36.786,13.664 C36.566,13.451 36.301,13.344 35.994,13.344 C35.7,13.344 35.443,13.451 35.224,13.664 C35.004,13.876 34.894,14.136 34.894,14.444 C34.894,14.752 35.004,15.016 35.224,15.236 C35.443,15.456 35.7,15.566 35.994,15.566 C36.698,15.566 37.357,15.698 37.974,15.962 C38.59,16.226 39.125,16.593 39.58,17.062 C40.019,17.517 40.364,18.041 40.613,18.635 C40.863,19.229 40.988,19.871 40.988,20.56" id="Fill-2"></path>
            <path d="M45.236,33.76 L49.922,33.76 L47.59,28.81 L45.236,33.76 Z M47.59,21 L55.158,37.082 L40,37.082 L47.59,21 Z" id="Fill-4"></path>
            <path d="M25.766,41.322 C25.151,41.322 24.575,41.439 24.039,41.674 C23.504,41.909 23.038,42.227 22.643,42.631 C22.246,43.035 21.931,43.504 21.696,44.039 C21.461,44.575 21.344,45.15 21.344,45.766 C21.344,46.382 21.461,46.962 21.696,47.504 C21.931,48.047 22.246,48.516 22.643,48.912 C23.038,49.308 23.504,49.624 24.039,49.858 C24.575,50.093 25.151,50.21 25.766,50.21 L26.889,50.21 L26.889,53.532 L25.766,53.532 C24.696,53.532 23.688,53.331 22.742,52.926 C21.795,52.524 20.971,51.97 20.266,51.266 C19.563,50.562 19.008,49.737 18.606,48.791 C18.202,47.845 18,46.837 18,45.766 C18,44.695 18.202,43.687 18.606,42.741 C19.008,41.795 19.563,40.97 20.266,40.266 C20.971,39.562 21.795,39.009 22.742,38.605 C23.688,38.202 24.696,38 25.766,38 L26.889,38 L26.889,41.322 L25.766,41.322 Z" id="Fill-6"></path>
            <polygon id="Fill-8" points="45.332 44 45.332 60.082 41.988 60.082 41.988 51.92 38.666 55.198 35.322 51.92 35.322 60.082 32 60.082 32 44 33.122 45.078 36.443 48.356 38.666 50.534 40.889 48.356 44.21 45.078"></polygon>
            <path d="M35.264,4 C18.025,4 4,18.025 4,35.263 C4,52.502 18.025,66.527 35.264,66.527 C52.503,66.527 66.528,52.502 66.528,35.263 C66.528,18.025 52.503,4 35.264,4 M35.264,70.527 C15.82,70.527 0,54.708 0,35.263 C0,15.819 15.82,0 35.264,0 C54.708,0 70.528,15.819 70.528,35.263 C70.528,54.708 54.708,70.527 35.264,70.527" id="Fill-10"></path>
        </g>
    </g>
</svg>