<?xml version="1.0" encoding="UTF-8" standalone="no"?>
<svg width="51px" height="52px" viewBox="0 0 51 52" version="1.1" xmlns="http://www.w3.org/2000/svg" xmlns:xlink="http://www.w3.org/1999/xlink">
    <!-- Generator: Sketch 47.1 (45422) - http://www.bohemiancoding.com/sketch -->
    <title>LOGO_ESACM TEMPORAIRE Copy 4</title>
    <desc>Created with Sketch.</desc>
    <defs>
        <polygon id="path-1" points="0 0.248486779 0 51.65516 50.6602394 51.65516 50.6602394 0.248486779"></polygon>
    </defs>
    <g id="Symbols" stroke="none" stroke-width="1" fill="none" fill-rule="evenodd">
        <g id="menu-/-accueil-blanc" transform="translate(0.000000, -225.000000)">
            <g id="LOGO_ESACM-TEMPORAIRE-Copy-4" transform="translate(0.000000, 225.000000)">
                <polygon id="Fill-1" fill="#FFFFFF" points="14.5977085 14.6730184 14.5977085 16.2926221 18.1849479 16.2926221 18.1849479 18.7140098 14.5977085 18.7300455 14.5977085 21.1434154 19.385962 21.1434154 19.385962 23.5567852 12.2114831 23.5728209 12.2114831 12.2516307 19.385962 12.2516307 19.385962 14.6730184"></polygon>
                <path d="M29.5134127,14.6901474 C29.5134127,15.1923558 29.4178775,15.6661372 29.228962,16.1093051 C29.0393282,16.5532019 28.7836099,16.9380582 28.4625254,17.2638741 C28.1414408,17.5904189 27.7614549,17.8491764 27.3247225,18.0416046 C26.8872718,18.2340327 26.4210887,18.3302468 25.9261732,18.3302468 C25.4305394,18.3302468 24.9643563,18.2340327 24.5276239,18.0416046 C24.0894549,17.8491764 23.7109056,17.5904189 23.3898211,17.2638741 C23.0680183,16.9380582 22.8130183,16.5532019 22.6233845,16.1093051 C22.4337507,15.6661372 22.3389338,15.1923558 22.3389338,14.6901474 L24.7402437,14.6901474 C24.7402437,15.0217945 24.8573282,15.3053344 25.0886239,15.5400385 C25.3199197,15.7754714 25.5993423,15.8928234 25.9261732,15.8928234 C26.2630606,15.8928234 26.5475113,15.7754714 26.778807,15.5400385 C27.0108211,15.3053344 27.1271873,15.0217945 27.1271873,14.6901474 C27.1271873,14.3482959 27.0108211,14.0596536 26.778807,13.8249496 C26.5475113,13.5887878 26.2630606,13.4714357 25.9261732,13.4714357 C25.3982155,13.4714357 24.9119197,13.3511681 24.4644127,13.1106329 C24.0169056,12.8700977 23.6505676,12.5471975 23.3653986,12.1404743 C22.9545254,11.5952612 22.749807,10.9596651 22.749807,10.2322284 C22.749807,9.7839582 22.8338493,9.36338605 23.0026521,8.97342746 C23.1707366,8.58346888 23.3977225,8.24088844 23.6821732,7.94714393 C23.9659056,7.65339943 24.300638,7.42088206 24.6856521,7.24959184 C25.0699479,7.07903052 25.4836944,6.99302096 25.9261732,6.99302096 C26.3679338,6.99302096 26.7845535,7.07903052 27.1745958,7.24959184 C27.5639197,7.42088206 27.9015254,7.65339943 28.1859761,7.94714393 C28.4704268,8.24088844 28.6966944,8.58346888 28.8654972,8.97342746 C29.0335817,9.36338605 29.1176239,9.7839582 29.1176239,10.2322284 L26.7321169,10.2322284 C26.7321169,10.0077288 26.6531028,9.81821625 26.4950746,9.6636906 C26.3370465,9.50843606 26.1466944,9.43044435 25.9261732,9.43044435 C25.7149901,9.43044435 25.5303845,9.50843606 25.3730746,9.6636906 C25.2150465,9.81821625 25.1360324,10.0077288 25.1360324,10.2322284 C25.1360324,10.4567279 25.2150465,10.649156 25.3730746,10.8095128 C25.5303845,10.9698696 25.7149901,11.050048 25.9261732,11.050048 C26.4318634,11.050048 26.9052296,11.1462621 27.3484268,11.3386903 C27.7909056,11.5311184 28.1752014,11.7986227 28.5020324,12.1404743 C28.8173704,12.4721213 29.0651873,12.8540621 29.2440465,13.2870254 C29.4236239,13.7199888 29.5134127,14.1879391 29.5134127,14.6901474" id="Fill-2" fill="#FFFFFF"></path>
                <path d="M32.4936803,24.7956873 L35.8596803,24.7956873 L34.1845817,21.1876593 L32.4936803,24.7956873 Z M34.1845817,15.4949928 L39.6207507,27.217075 L28.7326099,27.217075 L34.1845817,15.4949928 Z" id="Fill-4" fill="#FFFFFF"></path>
                <path d="M18.5076845,29.979804 C18.0659239,29.979804 17.6521775,30.0650847 17.2671634,30.2363749 C16.8828676,30.4076651 16.5481352,30.6394536 16.2644028,30.933927 C15.9792338,31.2284004 15.7529662,31.5702519 15.5841634,31.9602105 C15.4153606,32.350898 15.3313183,32.7700124 15.3313183,33.2190114 C15.3313183,33.6680104 15.4153606,34.0907693 15.5841634,34.4858301 C15.7529662,34.8816199 15.9792338,35.2234714 16.2644028,35.5121137 C16.5481352,35.8007559 16.8828676,36.0310866 17.2671634,36.2016479 C17.6521775,36.3729381 18.0659239,36.4582188 18.5076845,36.4582188 L19.3143465,36.4582188 L19.3143465,38.8796065 L18.5076845,38.8796065 C17.739093,38.8796065 17.0150366,38.7330987 16.3355155,38.4378964 C15.6552761,38.1448808 15.0633887,37.7410732 14.5569803,37.2279314 C14.0520085,36.7147897 13.6533465,36.1134517 13.3645859,35.4239174 C13.0743887,34.7343832 12.9292901,33.9996575 12.9292901,33.2190114 C12.9292901,32.4383653 13.0743887,31.7036396 13.3645859,31.0141054 C13.6533465,30.3245711 14.0520085,29.7232331 14.5569803,29.2100914 C15.0633887,28.6969496 15.6552761,28.2938709 16.3355155,27.9993975 C17.0150366,27.705653 17.739093,27.5584163 18.5076845,27.5584163 L19.3143465,27.5584163 L19.3143465,29.979804 L18.5076845,29.979804 Z" id="Fill-6" fill="#FFFFFF"></path>
                <polygon id="Fill-8" fill="#FFFFFF" points="32.5624225 32.2597133 32.5624225 43.9817955 30.1603944 43.9817955 30.1603944 38.0325581 27.774169 40.4218745 25.3721408 38.0325581 25.3721408 43.9817955 22.9859155 43.9817955 22.9859155 32.2597133 23.7918592 33.0454616 26.1773662 35.434778 27.774169 37.0223103 29.3709718 35.434778 31.7564789 33.0454616"></polygon>
                <mask id="mask-2" fill="white">
                    <use xlink:href="#path-1"></use>
                </mask>
                <g id="Clip-11"></g>
                <path d="M25.3302634,3.16406499 C12.9473197,3.16406499 2.87302394,13.3868111 2.87302394,25.9514954 C2.87302394,38.5169086 12.9473197,48.7396547 25.3302634,48.7396547 C37.713207,48.7396547 47.7875028,38.5169086 47.7875028,25.9514954 C47.7875028,13.3868111 37.713207,3.16406499 25.3302634,3.16406499 M25.3302634,51.6552329 C11.3634465,51.6552329 -0.000215492958,40.12485 -0.000215492958,25.9514954 C-0.000215492958,11.7788697 11.3634465,0.248486779 25.3302634,0.248486779 C39.2970803,0.248486779 50.6607423,11.7788697 50.6607423,25.9514954 C50.6607423,40.12485 39.2970803,51.6552329 25.3302634,51.6552329" id="Fill-10" fill="#FFFFFF" mask="url(#mask-2)"></path>
            </g>
        </g>
    </g>
</svg>