<?xml version="1.0" encoding="UTF-8" standalone="no"?>
<svg width="126px" height="90px" viewBox="0 0 126 90" version="1.1" xmlns="http://www.w3.org/2000/svg" xmlns:xlink="http://www.w3.org/1999/xlink">
    <!-- Generator: Sketch 46.2 (44496) - http://www.bohemiancoding.com/sketch -->
    <title>logo_clermont-ville</title>
    <desc>Created with Sketch.</desc>
    <defs></defs>
    <g id="Symbols" stroke="none" stroke-width="1" fill="none" fill-rule="evenodd">
        <g id="footer-/-white" transform="translate(-613.000000, -205.000000)" fill="#FEFEFE">
            <g id="logo_clermont-ville" transform="translate(613.000000, 205.000000)">
                <path d="M51.0250832,31.6295479 C51.0961883,31.6662828 51.1676618,31.7026541 51.2387669,31.739389 C51.3080298,31.587721 51.3772928,31.4360529 51.4465558,31.2843848 C51.3853981,31.2549241 51.3238719,31.2254634 51.2627142,31.195639 C51.1835038,31.3403965 51.1042935,31.4847903 51.0250832,31.6295479 L51.0250832,31.6295479 Z M42.1590527,34.483963 C42.1494738,34.41704 42.1402633,34.3501169 42.1306843,34.2831938 C41.9538427,34.3013794 41.777001,34.3192013 41.5997909,34.3373869 C41.6045804,34.3988543 41.6097383,34.4603217 41.6145277,34.5217891 C41.7957904,34.5090592 41.9774216,34.4963293 42.1590527,34.483963 L42.1590527,34.483963 Z M77.6139642,41.0682492 C77.58928,41.0602475 77.5642275,41.0526095 77.5391749,41.0449716 C77.552438,41.1657241 77.5660696,41.2864766 77.5800695,41.4130485 C77.4654909,41.5596247 77.3545964,41.7011088 77.243702,41.8429566 C77.2632282,41.8655068 77.2827545,41.888057 77.3026492,41.9106072 C77.437491,41.8127685 77.5723327,41.7149299 77.7027534,41.6207283 C77.6677535,41.4028646 77.6408589,41.2355569 77.6139642,41.0682492 L77.6139642,41.0682492 Z M71.4779269,54.7572939 C71.5018742,54.8020305 71.5261899,54.8467671 71.5501372,54.8915038 C71.7855577,54.7722061 72.0213466,54.6529084 72.256767,54.533247 C72.2298724,54.482691 72.2029777,54.4324987 72.176083,54.3819427 C71.9432415,54.5070597 71.7107684,54.6321768 71.4779269,54.7572939 L71.4779269,54.7572939 Z M74.415709,27.2766375 L74.3574986,27.3464703 C74.6599716,27.6032513 74.9628129,27.860396 75.2652858,28.1175407 C75.2936542,28.0833517 75.322391,28.0491627 75.3507593,28.0153375 C75.0390759,27.7691042 74.7273925,27.5228708 74.415709,27.2766375 L74.415709,27.2766375 Z M24.7489909,16.5933123 C24.7442014,16.553304 24.7394119,16.5136593 24.7342541,16.4736509 C24.3319393,16.5303901 23.9296245,16.5867655 23.5273097,16.6435046 C23.5320992,16.6766025 23.537257,16.7093366 23.5420465,16.7424344 C23.9443613,16.6926058 24.3466761,16.6431409 24.7489909,16.5933123 L24.7489909,16.5933123 Z M57.3235938,55.3621477 C57.3372253,55.4112488 57.3508569,55.46035 57.3644884,55.5094512 C57.6485403,55.4319804 57.9325923,55.3545097 58.2166442,55.2766752 C58.2044863,55.232666 58.1923285,55.1882931 58.1801706,55.1439202 C57.894645,55.2166627 57.6091194,55.2894052 57.3235938,55.3621477 L57.3235938,55.3621477 Z M36.5163299,14.1491648 C36.5284878,14.2149967 36.5406456,14.2808287 36.5528035,14.3466606 C36.7764345,14.3124717 37.000434,14.2782827 37.2244334,14.24373 C37.2141177,14.1778981 37.2034335,14.1117024 37.1927493,14.0458705 C36.9672762,14.0800594 36.741803,14.1146121 36.5163299,14.1491648 L36.5163299,14.1491648 Z M47.6448285,32.4762704 C47.6245654,32.4235321 47.6043022,32.3707938 47.5844076,32.3180555 C47.3324082,32.3286032 47.0465142,32.2645898 46.899883,32.7661492 C47.2123032,32.6446693 47.4285658,32.560288 47.6448285,32.4762704 L47.6448285,32.4762704 Z M89.2063037,42.3550637 C89.5010398,42.1481114 89.7629865,41.9644366 90.0113017,41.7902183 C89.453882,41.8080402 89.2553036,41.9382493 89.2063037,42.3550637 L89.2063037,42.3550637 Z M75.1241809,26.827089 C75.0950757,26.4946558 75.0755495,26.2731549 75.0560232,26.0520178 C75.0188128,26.0545638 74.9812339,26.056746 74.9440235,26.059292 C74.8758658,26.2095053 74.8073396,26.3593548 74.7244451,26.5419384 C74.8346027,26.6205003 74.9303919,26.6888782 75.1241809,26.827089 L75.1241809,26.827089 Z M109.263833,17.11233 C109.016623,17.2570875 108.878465,17.3381954 108.740308,17.4193033 L108.764992,17.5480575 C108.925623,17.584065 109.086254,17.6200725 109.321675,17.6728108 C109.301043,17.4734964 109.289622,17.3611093 109.263833,17.11233 L109.263833,17.11233 Z M78.5169619,40.9056697 C78.4790147,40.8489306 78.4414358,40.7921914 78.403857,40.7354523 C78.2701205,40.8045577 78.1006472,40.8463846 78.016279,40.9536797 C77.9669107,41.016602 78.0527526,41.1831823 78.0778051,41.3035711 C78.1242261,41.3064808 78.170647,41.3093905 78.217068,41.3123002 C78.3169098,41.1766355 78.4171201,41.0409707 78.5169619,40.9056697 L78.5169619,40.9056697 Z M34.9192286,41.888057 C35.3499118,41.8356824 35.7673318,41.7614851 35.9894891,41.3384875 C36.013068,41.2941146 35.9235419,41.1919114 35.8866999,41.1166229 C35.8439632,41.1057115 35.8012264,41.0944365 35.7584897,41.0831614 C35.764016,41.6865603 35.210649,41.62873 34.9192286,41.888057 L34.9192286,41.888057 Z M44.9572036,33.9012957 C45.0205719,33.9045691 45.0839401,33.9074788 45.14694,33.9103885 C45.2445713,33.6979805 45.3418342,33.4852087 45.4589918,33.2295189 C45.3230448,33.1738709 45.2176766,33.1309528 44.9958877,33.0400247 C44.9800456,33.3877338 44.9686246,33.6445148 44.9572036,33.9012957 L44.9572036,33.9012957 Z M48.2015113,60.8753007 C48.1970902,60.8291092 48.1926692,60.7832814 48.1878797,60.7370899 C47.8400911,60.7661869 47.4919341,60.7952839 47.1437771,60.8243809 C47.1485665,60.8803926 47.153356,60.9364044 47.1581455,60.9927798 C47.5191972,61.1419019 47.8640384,61.0615214 48.2015113,60.8753007 L48.2015113,60.8753007 Z M99.3909098,23.6911604 C99.4004888,23.7177114 99.4100677,23.7438987 99.4196466,23.7704497 C100.017224,23.5973226 100.614802,23.4241955 101.212379,23.2514321 C101.193221,23.1932381 101.174063,23.1346804 101.154537,23.0764864 C100.566538,23.2812565 99.9789084,23.4863903 99.3909098,23.6911604 L99.3909098,23.6911604 Z M28.0946141,16.2394201 L28.0784036,16.0288306 C27.557826,16.090298 27.0372483,16.1514017 26.5166707,16.2128691 C26.5218285,16.2215982 26.526618,16.230691 26.5314075,16.2394201 L28.0946141,16.2394201 Z M73.3918695,50.6102448 C73.419501,50.6629831 73.4471325,50.7153577 73.4743956,50.7677322 C74.0782362,50.4327531 74.6820768,50.0977739 75.2859174,49.7627948 C75.264549,49.7235139 75.2431806,49.6842329 75.2214439,49.644952 C74.6117085,49.9668375 74.0019732,50.2883593 73.3918695,50.6102448 L73.3918695,50.6102448 Z M82.6248464,37.7962921 C82.5408466,37.5973414 82.4874257,37.4711332 82.4328995,37.3416516 C82.492952,37.2299919 82.5493203,37.1252427 82.645478,36.9470236 C82.4583205,37.0444986 82.3488997,37.1012377 82.2759526,37.1394275 C82.2129527,37.4798623 82.1580581,37.7755605 82.1035319,38.0712587 C82.1337424,38.0956275 82.1635844,38.1199962 82.1937949,38.1443649 C82.3297419,38.0345238 82.4653205,37.9250463 82.6248464,37.7962921 L82.6248464,37.7962921 Z M79.4512754,33.6146903 L79.4512754,34.2093602 L80.0333792,34.2093602 C80.0009582,33.9776753 79.9759057,33.7980014 79.9504847,33.6146903 L79.4512754,33.6146903 Z M80.6143778,46.1762265 C80.6633776,46.2373302 80.7123775,46.2984339 80.761009,46.3591739 C81.1902184,46.021285 81.6194279,45.6833962 82.0486373,45.3451436 C82.0047953,45.2920416 81.9609533,45.2385759 81.9171114,45.1851102 C81.482744,45.515361 81.0487451,45.8459756 80.6143778,46.1762265 L80.6143778,46.1762265 Z M76.636914,43.4571124 C76.8399135,43.5876852 76.9835973,43.6797044 77.1515969,43.787727 C77.3627017,43.7058917 77.5782274,43.6222378 77.8608057,43.5127604 C77.5203855,43.3487261 77.2687545,43.2272461 76.985071,43.0904903 C76.899966,43.1799635 76.7842821,43.3018072 76.636914,43.4571124 L76.636914,43.4571124 Z M90.4445638,41.573082 C90.4891426,41.5992693 90.533353,41.6250929 90.5775634,41.6512802 C90.89551,41.1457199 91.2130882,40.6397959 91.5306663,40.1342356 C91.4989822,40.0931361 91.4676665,40.0516729 91.4359823,40.0105734 C91.2351934,40.092045 91.034036,40.1735166 90.840247,40.2520785 C90.8634574,40.4579397 90.8774574,40.5834205 90.8859311,40.6583453 C90.7241946,40.9936881 90.5845634,41.2832032 90.4445638,41.573082 L90.4445638,41.573082 Z M79.5164858,41.7447543 C79.8926427,41.5519867 80.1247474,41.4094114 80.3749047,41.3101179 C80.8313772,41.1282617 81.0317978,40.73327 80.8037457,40.3117273 C80.3903783,40.7721872 79.9899056,41.217735 79.5164858,41.7447543 L79.5164858,41.7447543 Z M49.3056664,16.4623759 C49.3023506,16.5063851 49.2994033,16.5500305 49.2960875,16.5940398 C50.3228744,16.6867864 51.3500297,16.7791694 52.3768167,16.871916 C52.3827114,16.7926267 52.3886061,16.7129737 52.3945008,16.6336844 C51.3647665,16.5765816 50.3354007,16.5194787 49.3056664,16.4623759 L49.3056664,16.4623759 Z M74.104394,25.5981047 C73.9968153,25.4347978 73.8969735,25.2834934 73.8059737,25.1456464 C73.6633951,25.1052743 73.5399744,25.0707216 73.3808169,25.0256213 C73.336238,24.8397643 73.2905539,24.6513612 73.2293962,24.3982174 C73.1096596,24.3520259 72.9545548,24.2920133 72.7025554,24.1952658 C72.8757129,25.0456255 73.2831855,25.5031757 74.104394,25.5981047 L74.104394,25.5981047 Z M71.6765053,51.2190994 C71.6381896,51.1416286 71.5998739,51.0641579 71.5615582,50.9866871 C70.7436656,51.3554915 69.9651938,51.8057675 69.1904063,52.2651363 C69.9884043,51.8497767 70.9566124,51.8032215 71.6765053,51.2190994 L71.6765053,51.2190994 Z M53.1538147,18.2169246 C53.1659726,18.16455 53.177762,18.1121754 53.1895515,18.0598008 C53.0392361,18.002698 52.8907627,17.9034045 52.7382368,17.8972214 C52.32008,17.8804906 51.8978705,17.9299555 51.4811873,17.9015859 C51.1031883,17.8761261 50.7307155,17.7757414 50.3541901,17.721912 C50.1449275,17.6920876 49.9316122,17.6895416 49.7201391,17.6746294 C49.7149812,17.7346419 49.7101917,17.7942908 49.7050338,17.8543033 C50.8545047,17.9750558 52.0043439,18.0958084 53.1538147,18.2169246 L53.1538147,18.2169246 Z M79.1278025,35.7642308 C78.551225,36.0297409 78.551225,36.0297409 78.3408571,37.2325379 C78.4502779,37.1958029 78.562646,37.1579768 78.6934352,37.1143313 C78.7409614,37.2878222 78.7770666,37.4191224 78.8150138,37.5576968 C78.9170662,36.9721198 79.0132239,36.4214592 79.1278025,35.7642308 L79.1278025,35.7642308 Z M107.031207,17.6815399 C107.040049,17.6266193 107.049259,17.5716988 107.058101,17.5171419 C106.529787,17.3407414 103.955635,17.610616 103.709162,17.8852189 C103.837372,17.920499 103.957109,17.9528694 104.072793,17.9845124 C104.143161,18.1081746 104.205793,18.2191069 104.290529,18.368229 C104.356476,18.1598218 104.402897,18.0128819 104.448581,17.8677607 C105.063475,17.7364605 105.661421,17.6091611 106.227682,17.4884086 C106.503629,17.5546043 106.767418,17.6178902 107.031207,17.6815399 L107.031207,17.6815399 Z M78.2384363,17.385478 C76.7695452,16.6536886 75.3183383,16.2179611 73.8004474,15.9746375 C75.0818126,16.3870874 76.3631778,16.799901 77.6305431,17.2079863 C77.7255955,17.3378317 77.8077532,17.4502188 77.9039108,17.5818827 C77.9893843,17.5316904 78.057542,17.491682 78.2384363,17.385478 L78.2384363,17.385478 Z M79.1012763,47.2357208 C78.7461193,47.4677694 78.403857,47.7230955 78.0328579,47.9271382 C77.5093329,48.2151984 76.955229,48.4490655 76.4350198,48.741854 C76.2791781,48.8298724 76.1922309,49.0375522 76.0732312,49.1903114 C76.1074943,49.2208633 76.1417573,49.2514151 76.1760204,49.281967 C76.5407563,49.0339151 76.9040186,48.7829535 77.2717019,48.5392662 C77.4128068,48.4457921 77.5561222,48.3246759 77.7141745,48.2919417 C78.3541202,48.1595504 78.7100141,47.6787226 79.1012763,47.2357208 L79.1012763,47.2357208 Z M90.2367748,43.8666526 C90.201038,43.8335548 90.1649329,43.8004569 90.1288277,43.7677228 C89.4616188,44.3747589 88.7947784,44.9821586 88.1338327,45.5841027 C88.0793065,45.7765066 88.0273593,45.9590902 87.9757804,46.1420376 C87.996412,46.1605869 88.0170435,46.1794999 88.037675,46.1980493 C88.7708311,45.4211595 89.5036187,44.6439061 90.2367748,43.8666526 L90.2367748,43.8666526 Z M47.5324603,17.5676979 C46.3719369,17.3792949 45.2408871,16.966845 44.0656269,17.3912974 C44.3308894,17.4811344 44.5990992,17.5716988 44.8676775,17.6622632 L44.8761512,17.5676979 L47.5324603,17.5676979 Z M47.1898296,15.2202979 C45.919517,15.0708121 44.7287831,15.1373715 43.4072601,15.1348255 C43.5491018,15.3465061 43.6157859,15.4461633 43.7274172,15.6127436 C44.1776266,15.1039099 44.7099937,15.1446457 45.2570976,15.2159334 C45.3532552,15.3166817 45.4494129,15.4177938 45.5540442,15.5272712 C45.8270435,15.4545287 46.0889902,15.3846959 46.3332528,15.3199551 C46.6091995,15.4501642 46.8663567,15.7204025 47.1898296,15.2202979 L47.1898296,15.2202979 Z M38.8137979,16.7795331 C38.7927979,16.7231577 38.7714296,16.667146 38.7504296,16.6107705 C37.7597479,16.6107705 36.7690661,16.6074971 35.7787528,16.6173173 C35.7102267,16.6180448 35.6428058,16.715156 35.5215956,16.8082664 C36.0716468,17.025039 36.5782245,17.0384963 37.011855,16.8319077 C37.4580118,16.6194996 37.7932741,16.5834921 38.1277996,17.0555908 C38.3713253,16.9573885 38.5927458,16.8686426 38.8137979,16.7795331 L38.8137979,16.7795331 Z M75.8694949,45.4047925 C75.6064429,45.9132624 75.2361807,46.1802274 74.7413924,46.2980702 C74.6371295,46.3228026 74.5505508,46.4191864 74.4554984,46.4824724 C74.4838667,46.5192074 74.5122351,46.5555786 74.540235,46.5919498 C74.6842873,46.5359381 74.8283396,46.4799264 74.9845497,46.4188227 C75.0869705,46.503204 75.1834966,46.582857 75.2951279,46.6745126 C75.4012329,46.6268662 75.5010747,46.5821296 75.6053376,46.5355744 C75.5607588,46.4057291 75.5257589,46.3031622 75.465338,46.1263979 C76.0120735,45.7459547 76.5595458,45.3655115 77.1258075,44.9719747 C77.0517551,44.8181243 76.9998078,44.7108291 76.9478606,44.6031703 C76.9080712,44.5751644 76.8679134,44.5471586 76.8277556,44.5191527 C76.6505455,44.9977983 76.394862,45.3807874 75.8694949,45.4047925 L75.8694949,45.4047925 Z M107.236785,21.340487 C107.214311,21.2786559 107.191838,21.216461 107.169364,21.1546299 C105.830157,21.6027236 104.36495,21.6561894 103.146953,22.4887271 C104.510108,22.1061016 105.873631,21.7231124 107.236785,21.340487 L107.236785,21.340487 Z M77.2385441,28.5008936 C77.2064915,28.5318091 77.1740706,28.562361 77.142018,28.5932765 C77.41207,28.8755174 77.6824903,29.1581219 77.958437,29.4461822 C78.1179629,29.3537992 78.2376995,29.2846939 78.3659097,29.2108602 C78.5869618,29.3890793 78.793277,29.5549322 79.0401185,29.7538829 C79.2084865,29.5636613 79.3411178,29.4138118 79.4741174,29.2635985 C79.4461175,29.2323193 79.4181176,29.20104 79.3901177,29.169397 C79.2582232,29.1974029 79.1263288,29.2254087 78.9480135,29.2628711 C78.6215933,28.8471478 78.2896467,28.424514 77.9577002,28.0018801 C77.9087003,28.3866879 78.4403306,28.6547439 78.0339631,29.0337323 C77.5277539,29.1861278 77.577859,28.5638158 77.2385441,28.5008936 L77.2385441,28.5008936 Z M69.1380906,53.6468798 C69.9920885,53.5854124 70.4982977,53.1358639 70.6729289,52.2294925 C69.7098787,52.6110268 68.7748284,52.9816498 67.8394096,53.3519091 C67.8559885,53.3966457 67.8725675,53.4413823 67.8891464,53.4861189 C68.4686712,53.340634 68.9734068,52.8769006 69.6310367,53.0169299 C69.8495099,53.5508598 69.2987218,53.449384 69.1380906,53.6468798 L69.1380906,53.6468798 Z M23.2506262,15.7404067 C25.1037795,15.6061968 26.9569327,15.4716232 28.810086,15.3370496 C28.8049281,15.2668531 28.7997702,15.1966566 28.7946123,15.1264601 C26.9499327,15.3752394 25.0724637,15.1839267 23.2506262,15.7404067 L23.2506262,15.7404067 Z M98.3884387,18.9959966 C98.4046492,19.0414607 98.4208596,19.0869247 98.4367017,19.1327525 C98.5074384,19.1327525 98.5811224,19.1458462 98.6481749,19.1305702 C99.4804359,18.9403486 100.31675,18.7632207 101.1398,18.5384464 C101.317379,18.4900727 101.445589,18.2656621 101.596641,18.1223594 C101.560536,18.0652565 101.524799,18.0081537 101.488694,17.9514145 C100.840643,18.1376353 100.192224,18.3238561 99.5438042,18.5100768 C99.5438042,18.5195334 99.5438042,18.5289899 99.5434358,18.5384464 C99.1584367,18.6908419 98.7734377,18.8436011 98.3884387,18.9959966 L98.3884387,18.9959966 Z M45.2313082,14.5634333 C45.2298345,14.4895996 45.2279924,14.4154023 45.2265187,14.341205 C43.8250485,14.4986924 42.4158415,13.9683997 41.0180555,14.4655946 C42.4235783,14.8551306 43.8268906,14.4957827 45.2313082,14.5634333 L45.2313082,14.5634333 Z M93.2622409,20.0536724 C94.7193426,20.0423973 95.9970236,19.8354449 97.2175995,19.2327734 C96.8930213,19.2607793 96.5912853,19.3069708 96.2899176,19.3062433 C95.9951815,19.3058796 95.7004454,19.2575059 95.4057093,19.2302274 C94.7009216,19.3840778 93.907713,19.3968077 93.2622409,20.0536724 L93.2622409,20.0536724 Z M62.8627905,55.9840959 C62.8414221,55.9400867 62.8204222,55.8964412 62.7994222,55.852432 C62.3621075,55.7185858 58.1425917,56.9752123 57.4411198,57.4654966 C57.9966974,57.3592926 58.5080645,57.2745476 59.0128001,57.1614331 C59.5097989,57.0497733 60.0023766,56.9184731 60.4916385,56.7784439 C60.807743,56.6878795 61.1150054,56.5660358 61.425952,56.4583769 C61.434794,56.4761988 61.4432677,56.4940207 61.4521098,56.5118427 C61.9222139,56.3358058 62.392318,56.159769 62.8627905,55.9840959 L62.8627905,55.9840959 Z M62.579107,54.5845305 C62.5956859,54.6223566 62.6122648,54.6605464 62.6292121,54.6983725 L63.5697887,54.6983725 C64.1194716,54.5994427 64.5899441,54.5183348 65.0582061,54.4274067 C65.1396269,54.4117671 65.2184688,54.3641208 65.2895739,54.3179293 C65.6008889,54.1142503 65.9136776,53.9116625 66.216519,53.695981 C66.3428871,53.606144 66.4456763,53.4846641 66.5591497,53.3773689 C66.5326234,53.3344509 66.5057288,53.2911691 66.4792025,53.2478873 C65.1790479,53.693435 63.8792616,54.1389828 62.579107,54.5845305 L62.579107,54.5845305 Z M40.4805306,61.8144062 C41.2022656,62.0380893 45.9773589,61.4205056 46.3052529,61.0775248 C46.1365164,61.0273325 45.9895168,60.9364044 45.8554119,60.9516803 C45.2386766,61.0218768 44.6237834,61.11135 44.0125744,61.2164629 C43.7602066,61.2597447 43.522944,61.3994103 43.2709446,61.4281436 C42.5278412,61.5125248 41.7803168,61.5572615 41.0357397,61.6318225 C40.886898,61.6467347 40.7443194,61.7252966 40.4805306,61.8144062 L40.4805306,61.8144062 Z M26.6691966,46.5250267 C26.9720379,46.3973637 27.2398794,46.2842491 27.5080892,46.1711346 C27.4992472,46.1460384 27.4907735,46.1205785 27.4822998,46.0954824 C27.3481949,46.0791153 27.2144584,46.063112 27.0803535,46.0471086 C27.0549325,46.0096462 27.0291431,45.9718201 27.0037221,45.9343578 C27.1297218,45.8234255 27.2424583,45.6910341 27.3843001,45.6062892 C27.8783515,45.3098635 28.3827186,45.0301687 28.8834016,44.743927 C28.0364037,44.5256995 25.0628848,45.8485216 24.4247811,46.6883336 C25.1715688,46.4941112 25.8081987,46.328622 26.4566182,46.1602232 C26.5174075,46.2642449 26.5726705,46.3588102 26.6691966,46.5250267 L26.6691966,46.5250267 Z M25.8059882,54.3801241 C26.2123556,54.6616375 26.2993028,54.67364 26.5752495,54.480145 C28.088351,53.4199233 29.5996103,52.3567919 31.109396,51.2918419 C31.2051853,51.2245551 31.2836588,51.1336269 31.3698691,51.0536102 C31.3403955,51.0143293 31.3105534,50.9746846 31.2810798,50.9354037 C29.2986111,51.8010393 27.6005627,53.1136774 25.8059882,54.3801241 L25.8059882,54.3801241 Z M81.457323,51.4773352 C81.6982698,50.6502531 82.2339527,50.418932 83.0065297,50.588422 C82.9052141,50.5313192 82.8035302,50.4742163 82.6222675,50.3720131 C83.2209502,50.002845 83.7835277,49.6984177 84.2971054,49.3277947 C84.8324199,48.9411684 85.3529975,48.5225354 85.8194174,48.0588021 C86.2622584,47.61871 86.9703619,47.4666782 87.207256,46.8098136 C86.6516785,47.1986222 86.1108377,47.6037978 85.5932074,48.0366156 C85.1113139,48.439609 84.6279467,48.8113231 83.9548431,48.8335095 C83.8200013,48.8378741 83.6774227,48.9178908 83.5565809,48.9920882 C82.5397414,49.6198558 81.5236386,50.2487146 80.5171148,50.8924856 C80.3719573,50.9852323 80.2794839,51.1579957 80.1623263,51.2936604 C80.2002735,51.3554915 80.2382208,51.4173226 80.2757997,51.4791538 C80.6202725,51.3667666 80.9643769,51.2543795 81.3383233,51.1321721 C81.3788495,51.2500149 81.4138494,51.351127 81.457323,51.4773352 L81.457323,51.4773352 Z M85.9468908,45.6979447 C85.5243129,46.0642031 85.1735769,46.3671756 84.8232094,46.6712391 C84.6614729,46.8116321 84.4908944,46.9440235 84.3416842,47.0967827 C84.1677899,47.2750018 84.0395797,47.5070503 83.8439486,47.652899 C83.4206339,47.9689651 82.8632143,48.1653698 82.5530045,48.5585429 C82.2107422,48.9924519 81.8117432,49.2521425 81.3423759,49.4772805 C81.215271,49.5383842 81.1227975,49.6693207 81.0141136,49.7682505 C81.0487451,49.8148057 81.0833766,49.8609972 81.1183765,49.9075523 C81.4031653,49.7591577 81.7148487,49.6456794 81.9683217,49.4565489 C82.9030036,48.7585848 83.8152119,48.0318873 84.7432622,47.3259215 C84.9458933,47.1713437 85.1643664,46.9927609 85.4023658,46.9360218 C85.984838,46.7970836 86.437258,46.5766739 86.4284159,46.0369247 C86.7655203,45.743045 87.0256249,45.5302733 87.2687822,45.300407 C87.6025708,44.9847046 87.9002543,44.6271753 88.2565166,44.3394788 C88.7513048,43.9401225 88.8117257,43.8080949 88.5718842,43.2159711 C88.3891478,43.3709126 88.1997799,43.5222169 88.0207277,43.6851601 C87.5174658,44.1427103 87.0130986,44.5991694 86.5212578,45.0683585 C86.2979952,45.2818577 86.1034693,45.5248176 85.9468908,45.6979447 L85.9468908,45.6979447 Z M25.6836727,65.4846283 L81.4400073,65.4846283 L81.4400073,52.5826573 C81.3549022,52.5939324 81.3092181,52.5902952 81.2720077,52.6059349 C78.7759613,53.6465161 76.2865465,54.702737 73.7820264,55.7233141 C72.8723971,56.0939371 71.9299784,56.3867256 70.9960333,56.6969723 C70.8593495,56.7424363 70.6884025,56.6867883 70.5332977,56.6776955 C70.5222451,56.6144096 70.5115609,56.5507599 70.5005083,56.4874739 C70.7075604,56.3787239 70.9076125,56.254698 71.1224014,56.1644973 C71.9612941,55.8113325 72.815292,55.4912656 73.6438688,55.1155506 C74.3431303,54.7987571 75.0184444,54.4284979 75.6974427,54.0687863 C76.2920728,53.754175 76.8797029,53.4264701 77.4654909,53.0958555 C78.0195948,52.7834265 78.5681723,52.4622685 79.1152762,52.1385644 C79.2011181,52.0880084 79.2659601,52.0021722 79.3403809,51.9327032 C79.3190126,51.8879665 79.2972758,51.8432299 79.275539,51.7981296 C79.0721711,51.8552324 78.8636453,51.8988779 78.6665405,51.9723478 C78.4042254,52.0701865 78.1879628,52.0952826 78.0704367,51.6835601 C78.749435,51.3191203 79.4380123,50.9492247 80.172642,50.5545968 C79.5850119,50.1043208 79.3160652,50.8139237 78.9881713,50.7059011 C78.6613826,50.8943042 78.4178569,51.0572473 78.154805,51.1794547 C77.9131213,51.2918419 77.628701,51.3234848 77.4013858,51.454785 C76.8155978,51.7941287 76.2489676,52.1665703 75.6786532,52.5317375 C75.5467588,52.6161188 75.4303381,52.7237777 75.3065489,52.8208889 C75.3293909,52.8667167 75.352233,52.9121807 75.375075,52.9580085 C75.6447586,52.887812 75.9269684,52.8474399 76.1804415,52.7405085 C76.5389142,52.5892041 76.871966,52.3797057 77.2245441,52.2127617 C77.4297541,52.1156505 77.6261221,52.1047391 77.6570694,52.4608136 C77.4853856,52.5648354 77.3137018,52.6961355 77.1213865,52.781608 C76.1251784,53.2231549 75.1179178,53.6399693 74.1261308,54.090609 C72.6384503,54.7663867 71.1585066,55.4596226 69.6800366,56.1550408 C69.4928792,56.2430592 69.3333533,56.3889078 69.1613011,56.5082055 C69.1653537,56.551851 69.1697747,56.5954965 69.1738274,56.639142 C69.484774,56.6980634 69.7957205,56.7569848 70.1070356,56.8159062 C70.1158776,56.8788285 70.1250881,56.9417507 70.1339302,57.004673 C69.9585622,57.0952374 69.7931416,57.219627 69.606721,57.2712742 C66.356887,58.1765544 63.1066846,59.0821984 59.8502191,59.9638373 C59.1321682,60.1584235 58.4122753,60.4275707 57.6334351,60.2471693 C57.5136986,60.2195272 57.3615411,60.3162747 57.2270677,60.3628299 C57.0520681,60.4235698 56.8848054,60.5188625 56.7053848,60.5515966 C55.2099675,60.8243809 53.7171291,61.1149872 52.2147118,61.3448534 C50.1106644,61.6663752 47.995196,61.9147908 45.8918855,62.2403134 C42.5208412,62.761877 39.133955,63.0623035 35.7212793,63.0790343 C32.3911297,63.0957651 29.0852958,62.9222742 25.8966196,61.8402297 C25.8472513,61.823499 25.7868304,61.8384112 25.6836727,61.8384112 L25.6836727,65.4846283 Z M44.2421001,46.6381413 C44.221837,46.5770376 44.2015739,46.5155702 44.1813108,46.4544665 C43.5457861,46.66251 42.867893,46.7912642 42.2817366,47.0931456 C40.0734263,48.2304743 37.8956949,49.4259971 35.7047004,50.5971511 C34.5327559,51.2234639 33.3383379,51.8123143 32.1899723,52.4779081 C31.1042382,53.1071306 30.0590302,53.8061859 29.0075592,54.4914201 C28.4685605,54.84313 27.9232987,55.1962948 27.4351421,55.6112907 C26.420513,56.4736528 25.534831,57.4538578 25.3384631,58.8243263 C25.2202002,59.6503172 25.2839369,60.5101334 26.1342506,60.9775039 C26.8618803,61.3775875 27.6256153,61.7849455 28.4254554,61.9737122 C30.6540288,62.4985492 32.9327073,62.5272825 35.2128595,62.3948912 C35.3447539,62.3872532 35.4744378,62.3399706 35.6052269,62.3112373 C35.602648,62.2825041 35.600069,62.2534071 35.5974901,62.2246738 C35.2662804,62.1715718 34.9354391,62.118106 34.5390191,62.0544564 C34.8540183,61.4652422 35.4199116,61.8136787 35.785016,61.624912 C35.7677002,61.4808819 35.7533318,61.3597656 35.7245951,61.1204429 C36.0797521,61.0793433 36.4080144,61.029151 36.7377504,61.0073283 C37.023276,60.988779 37.3224332,61.0535198 37.5961693,60.9942346 C40.5542146,60.3530096 43.5085756,59.6950538 46.4633051,59.0385529 C46.5918837,59.0098196 46.7127255,58.9472611 46.8372515,58.9007059 C46.8239884,58.8399659 46.8107253,58.7795897 46.7978306,58.7188497 C45.6586755,58.9032519 44.5198889,59.0880178 43.3807338,59.27242 C43.361576,59.2047695 43.3424181,59.1374827 43.3232603,59.0698322 C43.5174177,58.9847235 43.7042067,58.8741549 43.9068378,58.8185069 C47.2889346,57.8855845 50.6010316,56.7548026 53.8434972,55.4236151 C54.4587588,55.1708349 55.0880204,54.9515163 55.705861,54.7034644 C56.6655954,54.3179293 57.6183299,53.9149359 58.5806433,53.5352201 C58.7608007,53.4639325 58.9711686,53.468297 59.1675365,53.4377452 C59.1830102,53.5013949 59.1984838,53.5650445 59.2139575,53.6286942 C58.9678528,53.7378079 58.7213798,53.8469217 58.3654859,54.0044092 C58.6484326,54.0593297 58.7983796,54.0884267 58.948695,54.1175237 C58.9494318,54.1477119 58.9501687,54.1775363 58.9509055,54.2073607 C58.7714849,54.2924694 58.5920643,54.3772144 58.4126437,54.4619594 C58.4340121,54.5096057 58.455012,54.5572521 58.476012,54.6045347 C60.796322,53.9018423 63.0680005,53.078761 65.189732,51.8483219 C64.8471013,51.8774189 64.504839,51.9065159 64.1625767,51.9356129 C64.1478399,51.8763277 64.1331031,51.8166789 64.1183663,51.7570301 C64.9311011,51.3373059 65.7390465,50.9070341 66.5628339,50.5091327 C66.6788862,50.453121 66.8734121,50.5560516 67.0314643,50.5855123 C67.0590958,50.6218836 67.0870957,50.6582548 67.1147272,50.694626 C67.4463054,50.3567372 67.761673,50.0010264 68.1146195,49.6867789 C68.4329345,49.4030832 68.7925125,49.1648516 69.1561432,48.889885 C69.1657221,48.7967746 69.1789852,48.6716575 69.1929852,48.5414485 C69.3300375,48.4730705 69.4575109,48.4097846 69.5846158,48.3461349 C69.565458,48.3217662 69.5463001,48.2973974 69.5271423,48.2730287 C69.8108258,48.0053363 70.0945093,47.7380077 70.3778244,47.4703154 C70.3568244,47.425215 70.3361929,47.3801147 70.3151929,47.3350143 C69.9375623,47.459404 69.5599317,47.5837936 69.1126696,47.7307335 C69.2040378,47.0680494 69.7113523,47.0025812 70.0992987,46.8072676 C70.5325608,46.1002106 71.2034539,45.7034004 71.9565046,45.4469831 C71.9881888,45.2778568 72.014715,45.1392824 72.0441886,44.9825223 C72.2829249,44.8592238 72.519819,44.7366527 72.8097657,44.5871669 C72.8657655,44.7359253 72.9416601,44.8384922 72.9291338,44.9290566 C72.914397,45.0399889 72.8256077,45.141101 72.7685026,45.2465776 C72.7935552,45.2734923 72.8186077,45.300407 72.8436603,45.3273217 C73.1218175,45.1301896 73.3999747,44.9334212 73.7267634,44.7017363 C73.3988695,44.6733668 73.1833437,44.6548174 72.9678179,44.6362681 C72.9453443,44.5780741 72.9228706,44.5198801 72.900397,44.4620498 C73.3911326,43.9437596 73.8818682,43.4254694 74.3843933,42.8944493 C74.5258666,43.0046541 74.6179717,43.0766692 74.8132343,43.2290647 C74.7517082,42.9093615 74.7108135,42.6976808 74.6581295,42.4241691 C74.780445,42.277593 74.9344446,42.0935545 75.140023,41.8473212 C75.188286,42.079006 75.2118649,42.1917569 75.2358122,42.3048714 C75.2708121,42.3186925 75.3061805,42.3325136 75.3415488,42.3463346 C76.0828101,41.1668152 77.4640172,40.4226596 77.61728,38.8903391 C77.548017,38.9172539 77.434912,38.9616268 77.2355967,39.0394612 C77.1324391,38.9434411 77.0215446,38.8405105 76.9449132,38.7695866 C77.2705966,37.8461207 77.5564907,37.0364969 77.8585952,36.1803178 C77.921595,36.1748621 78.0608578,36.1628596 78.3069625,36.1414006 C78.2008575,35.9184449 78.1186998,35.7460452 78.002279,35.5019941 C78.0280684,34.7629305 78.2505942,33.9271193 77.9009635,33.0571192 C77.2610177,33.2793475 76.6892297,33.5273994 76.0920206,33.6750666 C74.755024,34.0049538 73.4972376,34.5367013 72.2309776,35.0520819 C72.1112411,35.1008193 71.9970308,35.1622867 71.777084,35.2666722 L72.6377135,35.2666722 C72.6579766,35.3077717 72.6778713,35.3485075 72.6981344,35.389607 C72.5614505,35.5121781 72.4457666,35.6889423 72.2851354,35.7489549 C70.6987183,36.3410787 69.1060381,36.9164718 67.5115157,37.4864092 C67.3921476,37.5289635 67.2433059,37.4918648 67.1080957,37.4918648 C67.0948326,37.4351257 67.081201,37.3783866 67.0679379,37.3216474 L68.0512512,36.8430019 C67.7959361,36.8433656 67.5553577,36.8841014 67.3313583,36.9677552 C66.4099395,37.3125546 65.5014155,37.6929978 64.5715231,38.0123373 C64.1736293,38.1490932 63.8766827,38.2894862 63.9555246,38.7459453 C63.4039997,39.0896535 62.835159,39.1471201 62.2913709,38.947442 C62.1907922,38.9103433 62.0574241,38.9027054 61.9572138,38.9350758 C61.6584251,39.0310958 61.3684784,39.1536669 61.0748476,39.2660541 C61.0623213,39.443182 61.0516371,39.596305 61.0405845,39.7497916 C60.0207976,40.1997039 59.017958,40.6452516 58.0106973,41.0817065 C57.8677503,41.1439013 57.7049086,41.1617233 57.5512774,41.2002768 C57.3129096,41.389771 57.0487524,41.5130695 56.7794372,41.6247292 C56.4592801,41.7574842 56.1236494,41.8582326 55.8145449,42.0117192 C55.2224938,42.3059626 54.6580741,42.6569451 54.0568125,42.9297294 C53.4489192,43.2054234 52.808605,43.4109209 52.185975,43.6560631 C51.9170283,43.7615397 51.6572921,43.8888391 51.3931349,44.0063182 C50.5910843,44.3627564 49.7882968,44.7188308 48.9866146,45.0770876 C48.9085095,45.112004 48.8344571,45.1567406 48.7611415,45.2011135 C48.3348794,45.4600768 47.9248278,45.7495918 47.4812499,45.9740024 C46.5152523,46.4621045 45.5411495,46.9360218 44.5534151,47.3790235 C43.9562061,47.6470796 43.3276813,47.8460303 42.7341565,48.0682586 C42.4729466,47.7852903 42.6416831,47.6707209 42.8251563,47.5532418 C43.2989446,47.2502693 43.7701539,46.943296 44.2421001,46.6381413 L44.2421001,46.6381413 Z M69.2176694,50.6866244 C69.2895113,50.4040198 69.3613532,50.1214153 69.4475635,49.7824353 C68.9951436,49.9719294 68.6226708,50.1650607 68.227356,50.2832673 C67.7819361,50.416386 67.6032523,50.7193585 67.4577264,51.2172808 C67.9009358,50.9870508 68.2590402,50.8091955 68.6086709,50.6167916 C68.8363545,50.4913108 69.0397224,50.455667 69.2206167,50.6840784 C69.1240906,50.8532047 69.069196,51.1052574 68.9236701,51.176545 C68.3341979,51.464969 67.7189363,51.7013821 67.1099378,51.9494339 C66.7160967,52.1094674 66.2975714,52.2214908 65.9250986,52.4189867 C65.5769416,52.6041163 65.2744687,52.8732635 64.9521011,53.1056757 C64.9753115,53.139501 64.9988904,53.17369 65.0224693,53.2075152 C65.0898902,53.1871473 65.15989,53.1729625 65.2243635,53.1460478 C65.8329936,52.8907217 66.4430973,52.638669 67.0476748,52.37425 C67.5063578,52.1738445 67.9665146,51.973439 68.4104608,51.743209 C69.0610908,51.4056838 69.7025103,51.0503368 70.3384034,50.6866244 C70.8707705,50.3818334 71.389506,50.0544922 71.9145047,49.7369712 C72.0390307,49.5642078 72.1631883,49.3918081 72.2873459,49.2190447 C72.2656091,49.1994042 72.2442408,49.1801275 72.222504,49.160487 C72.4173982,49.044099 72.6126609,48.9277111 72.8211867,48.8033214 L72.8211867,48.4774351 C73.1137123,47.867853 74.0384468,48.3886892 74.166657,47.5881582 C74.0071311,47.5154157 73.878184,47.4564943 73.7591843,47.4023011 C73.7020792,47.2786389 73.6519741,47.1698889 73.6103426,47.0796882 C73.3476591,47.3219207 73.101186,47.549241 72.881976,47.7511014 C72.6487661,47.6405328 72.5316085,47.5848848 72.3761352,47.5110511 C72.4395034,47.684542 72.4826086,47.8016574 72.5463453,47.9766031 C72.1359252,48.2744835 71.7258736,48.5720003 71.3154536,48.8698808 C71.3265062,48.8920672 71.3375588,48.9142537 71.3486114,48.9364402 C71.5015058,48.9240739 71.6544001,48.9120714 71.7921893,48.9007963 C72.2121882,49.14412 72.0029256,49.451457 71.9196626,49.7420632 C71.1069278,50.0886811 70.294193,50.4352991 69.4022478,50.8157423 C69.3993005,50.8139237 69.3083007,50.750274 69.2176694,50.6866244 L69.2176694,50.6866244 Z M74.7034451,45.0159839 C74.0878151,45.4106119 73.4721851,45.8052399 72.7946604,46.2398762 C73.2426593,46.4384632 73.5259744,46.2769749 73.7485002,46.0623845 C74.0881835,45.7354071 74.3843933,45.363693 74.6990241,45.0112556 C75.0099707,44.8446753 75.4712327,44.8774094 75.4996011,44.3394788 C75.2343386,44.5649805 74.9687076,44.7904822 74.7034451,45.0159839 L74.7034451,45.0159839 Z M24.0092032,67.1435207 L24.0092032,60.9422238 C23.6569936,60.3573742 22.7212065,60.1940673 22.3527863,59.3673489 C22.6221014,59.3367971 22.7731537,59.3193389 22.9938374,59.2942427 C22.5543121,57.8339373 23.6024674,56.9530258 24.3993602,55.9168091 C23.6680462,55.9018969 23.5744675,56.5507599 23.2200473,56.8660986 C22.8678377,57.1796187 22.6810487,57.6746313 22.4408387,58.059439 C22.5329438,58.2798488 22.5970489,58.4333354 22.6431014,58.543904 C22.3918389,58.8665169 22.167471,59.1425747 21.9556294,59.4280889 C21.662367,59.8234443 21.2526838,59.8743641 20.9410004,59.4968306 C20.7645271,59.2833314 20.6580537,59.0036365 20.5604224,58.7395813 C20.4631595,58.4766172 20.4163701,58.1951038 20.3139493,57.788837 C21.8056824,55.6800323 23.7682565,53.8523774 25.8074619,52.0945552 C25.7875672,52.0650945 25.768041,52.0352701 25.7485147,52.0058094 C25.5001995,52.1702074 25.2482001,52.3298771 25.0046744,52.5011857 C24.7604119,52.672858 24.5249914,52.8565327 24.2483079,53.062394 C24.0976241,52.8703538 23.9786244,52.718322 23.7918354,52.4804541 C23.4842045,52.6964993 23.173258,52.9150904 22.8247325,53.1602326 C22.9986268,53.3042627 23.0929424,53.3824609 23.1721527,53.4479291 C22.7838379,53.9251198 22.4102599,54.3844886 22.112208,54.7507471 C21.3635783,54.6667295 21.4217886,54.1451659 21.180105,53.8545596 C21.2128944,53.788364 21.2254207,53.7254417 21.2637364,53.6901616 C22.0049977,53.0038363 22.7064696,52.2724106 23.6098358,51.7752157 C23.9362561,51.5955417 24.2250974,51.3503996 24.6115702,51.0783427 C24.2740973,51.1692708 24.0224664,51.237285 23.7358355,51.3147557 C23.8235195,50.840111 25.1708319,49.9162814 26.4838813,49.3488901 C26.6861439,49.3819879 26.8850908,49.4143583 27.1337744,49.4550941 C27.107985,49.2394126 27.0917745,49.1037479 27.0637746,48.8724268 C27.4450894,48.6258297 27.8580884,48.3585011 28.2014559,48.1362728 C28.5035604,48.2366574 28.6881389,48.2984886 28.8727174,48.359956 C28.8889279,48.3275856 28.9051384,48.2955789 28.9213489,48.2635722 C28.8535596,48.1653698 28.7857703,48.0671675 28.6627179,47.8889484 C29.5417684,47.427761 30.3906084,46.982577 31.2103432,46.5526689 C31.4022901,46.6519624 31.5246055,46.7148846 31.704763,46.807995 C31.748605,46.6079532 31.7832365,46.4482834 31.8384995,46.1965944 C32.2054459,45.992188 32.6169712,45.7248594 33.0590754,45.5233627 C35.3624381,44.4740524 37.673906,43.4429276 39.9816897,42.4023464 C40.9830556,41.9506155 41.9766847,41.4814265 42.9824717,41.0398796 C43.7889433,40.6856237 44.6060992,40.3546454 45.4243603,40.0283953 C45.5938336,39.9607448 45.7905699,39.9578351 45.9965168,39.9960249 C43.9447851,40.9282199 42.0080004,42.0480904 39.9463214,43.1697796 C40.1463735,43.1905112 40.2966889,43.252706 40.4038992,43.2101517 C41.2339497,42.8791734 42.0562635,42.5289183 42.8796825,42.1815729 C42.9585244,42.1484751 43.0255768,42.0870077 43.1040503,42.0520913 C44.9594141,41.2224632 46.8114621,40.3855609 48.6730891,39.5690265 C50.2606114,38.8728809 51.8595548,38.2014678 53.4518666,37.5158699 C53.620603,37.4431274 53.7797605,37.3481984 53.9411285,37.2645446 C53.9525496,37.047772 53.9624969,36.8648246 53.97576,36.6109533 C56.1019126,35.8711623 58.150697,34.8782273 60.3457441,34.2777381 C60.3744809,34.3366595 60.4032177,34.3955809 60.4319544,34.4545023 C60.1633762,34.5974413 59.8951663,34.7400166 59.6269565,34.8829556 C59.6365354,34.9113251 59.6457459,34.9396947 59.6553248,34.9680643 C60.0639027,34.8265802 60.4905332,34.7214673 60.8777428,34.5363376 C61.6016884,34.1897197 62.3341076,33.9503969 63.1490529,33.8641971 C63.838367,33.7910909 64.5055759,33.5128509 65.1687321,33.281166 C64.4532602,33.1360448 63.8545775,33.8838375 63.125474,33.5495858 C63.1088951,33.5012121 63.0926846,33.4528383 63.0761057,33.4044646 C63.2256843,33.3139002 63.3642103,33.1902379 63.5263151,33.1378633 C64.8765749,32.7039544 66.232361,32.2860488 67.5844629,31.8575956 C69.15688,31.3593096 70.7274551,30.8544767 72.2998722,30.3550995 C72.9464495,30.149602 73.5941321,29.9462868 74.2451305,29.754974 C74.360446,29.7211488 74.4945509,29.7502458 74.6327085,29.7502458 C74.6783926,29.8920936 74.7148662,30.0059356 74.7723397,30.1845184 C75.4727064,29.9390125 76.1472836,29.7025994 76.8178083,29.4680049 C76.7573874,28.8951578 76.2762307,28.8878836 75.995863,28.6729296 C74.2602357,29.4243594 72.4730297,29.9408311 70.6158238,30.2252542 C71.8655049,29.508377 73.3314486,29.4214497 74.63934,28.864606 C74.2594989,28.7522189 70.21793,29.8604506 69.2526693,30.3449156 C69.3499322,30.4263872 69.4390899,30.5009482 69.5912474,30.6282476 C69.4184583,30.7231765 69.2994586,30.8217426 69.16388,30.8573864 C67.2322533,31.3669475 65.2903107,31.8408648 63.3675261,32.3806141 C62.0872661,32.7399619 60.840164,33.211697 59.5654303,33.591049 C59.0032212,33.7587205 58.4038016,33.79982 57.8316451,33.9405767 C57.4868039,34.0253217 57.1625942,34.191902 56.833595,34.319565 L56.833595,34.7920275 C56.6899112,34.8458569 56.5499115,34.936785 56.4036487,34.9473327 C54.8953367,35.0571738 53.5388138,35.6271112 52.2051329,36.2730645 C51.9711861,36.3865428 51.7291341,36.4832903 51.4900294,36.5869483 C50.9432939,36.8237251 50.3995058,37.0797787 49.78756,36.7869902 C49.7392969,36.7640763 49.6729813,36.7738965 49.6155078,36.7757151 C49.5886131,36.7768062 49.5628237,36.7946281 49.5263501,36.8088129 C49.565771,36.9233823 49.605192,37.0383154 49.6667182,37.2168982 C49.4265082,37.3256483 49.2021404,37.4438548 48.9663515,37.5318732 C47.0822509,38.235293 45.1933609,38.9263467 43.3122077,39.6374045 C42.8498404,39.8123501 42.4095784,40.0407615 41.8926849,39.7028727 C41.590212,40.5797834 40.8353191,40.7107198 40.174005,40.9853227 C39.6280064,41.2122793 39.0967445,41.4723337 38.5544301,41.7072919 C38.3599043,41.7916732 38.1517469,41.8458663 37.9531684,41.9127894 C37.567801,41.5676263 37.2178019,41.6691021 36.8386975,41.9193362 C36.9208552,42.0317234 36.9923287,42.129562 37.1360126,42.3266942 C36.6250139,42.5525596 36.1534361,42.7613305 35.6118585,43.001017 L35.6118585,42.4525387 C35.4545431,42.465996 35.3219118,42.4769074 35.1609122,42.4907285 C35.1819122,42.6573088 35.1970174,42.7791524 35.2165437,42.9322754 C34.8098079,43.2432495 34.5124928,43.7200765 33.9267048,43.7691777 C33.8850733,43.7211676 33.8552313,43.7026183 33.8493366,43.6778858 C33.6739686,42.9613724 33.4289692,42.860624 32.756234,43.2396124 C32.3436035,43.4720246 31.932815,43.6898884 31.4476057,43.3974636 C30.9793437,43.7568114 30.251714,43.1752353 29.824715,43.9524887 C29.8913991,44.0121376 29.9820304,44.0932454 30.0660302,44.1685339 C30.5276607,43.98886 30.9130281,43.8393742 31.335606,43.6749761 C31.4336058,43.7513558 31.5540791,43.845921 31.737184,43.98886 C32.2533406,43.7862722 32.8022866,43.5709544 33.3556536,43.3534544 C33.6065477,43.7819076 33.5081795,44.0405071 33.1544962,44.1950849 C32.3041825,44.5664353 31.441711,44.9097798 30.5958184,45.2902231 C30.3021875,45.4222507 30.0431882,45.6288393 29.6909785,45.8503402 C29.6371892,45.7583209 29.5730841,45.6488435 29.4994001,45.5233627 C29.3159268,45.5673719 29.1545588,45.6062892 28.9596646,45.6532081 C29.0344539,45.8208795 29.0900853,45.9459966 29.1810851,46.1493118 C28.2276138,46.4835635 27.5629838,47.289914 26.4588287,47.3892075 C25.7348831,47.454312 24.9950955,47.7547385 24.3135183,48.259935 C24.7390435,48.4348807 25.0492533,47.8449392 25.4453049,48.2773932 C25.3148842,48.3857795 25.2047266,48.5065321 25.0695164,48.5858214 C23.6009937,49.4481835 22.1228922,50.2938149 20.6621063,51.1681796 C20.2557389,51.4111395 19.8983714,51.7344799 19.5181618,52.0203579 C19.3943727,52.1134682 19.2694782,52.2054875 19.1442154,52.2985979 C18.7150059,51.6908344 18.8550056,50.7037189 19.4120568,50.2967246 C19.6448983,50.1268709 19.8932135,49.9781126 20.1367392,49.8231711 C20.4303701,49.6365866 20.7166325,49.4616409 20.7844218,49.0670129 C20.8083691,48.9280748 20.9870529,48.8149602 21.092421,48.6927528 C21.3101573,48.7516742 21.4759464,48.7964109 21.7603667,48.8735179 C22.3432074,48.5094418 22.9964163,48.1017201 23.643362,47.6976356 C23.5575202,47.2935511 23.3349944,47.168434 23.0284688,47.3030076 C22.3435758,47.6034341 21.6638407,47.9184091 21.0014213,48.2639359 C20.3633176,48.596369 19.7510033,48.9768122 19.1239523,49.329977 C19.053584,49.3696217 18.9603737,49.3688942 18.8539003,49.3921718 C18.6711639,48.9844502 18.4943223,48.5894585 18.3720068,48.3166742 C18.5584274,47.8602151 18.6763218,47.5154157 18.8406372,47.1938939 C18.9124791,47.0535009 19.0635314,46.9367492 19.2042679,46.8487308 C20.3180019,46.1518578 21.438736,45.4655324 22.5554174,44.7733877 C22.6648382,44.7053735 22.7624695,44.6191736 22.8788903,44.5311552 C22.8287851,43.6887972 23.4587836,43.3752771 24.0777294,43.0792152 C25.2389896,42.52419 26.413513,41.9960796 27.580668,41.4526932 C27.6805099,41.406138 27.7656149,41.329031 27.8687726,41.2584708 C27.7125624,40.8514766 27.4436157,40.9831405 27.1890374,41.0664306 C26.7867226,41.1980945 26.3844078,41.3308495 25.9725141,41.4665143 C25.6807254,41.6570996 25.3771472,41.8898755 25.0429901,42.0662761 C24.1867817,42.5180069 23.3077313,42.9286382 22.4577861,43.3912805 C22.1796289,43.5425848 21.9615241,43.8026392 21.7172616,44.0146836 C21.5934724,44.1219787 21.4722622,44.2325473 21.198526,44.4765983 C21.1325788,44.3162012 21.0857895,44.2085423 21.044158,44.0994286 C20.9491056,43.8521041 21.2670522,42.9620998 21.5138937,42.8380738 C22.7116275,42.2350386 23.9100982,41.6334583 25.1177794,41.0500635 C25.3417789,40.9416772 25.6088835,40.9198545 25.8284619,40.8263804 C26.134619,40.6601638 26.431934,40.4757616 26.7480385,40.3313678 C27.4686683,40.002208 28.1981402,39.6908702 28.9250331,39.3751678 C29.3199795,39.2034955 29.7175048,39.0369152 30.1142933,38.8696075 C30.1673458,38.8470574 30.2351351,38.8463299 30.2775034,38.8128684 C31.3901322,37.9377763 32.8048655,37.7810162 34.0615466,37.2503598 C34.2789145,37.1587043 34.472335,36.9964885 34.654703,36.8411833 C35.0415441,36.5112961 35.4523326,36.258516 35.9905944,36.2959784 C36.1084888,36.30398 36.227857,36.2970695 36.4448564,36.2970695 C36.1792255,35.8391556 35.8649631,35.8649791 35.5470165,35.9835494 C34.1923357,36.4898371 32.843918,37.0128556 31.4888688,37.5173247 C30.878765,37.7442813 30.2601876,37.9497788 29.6390313,38.1450924 C29.5086106,38.1858282 29.3498215,38.1385455 29.2039271,38.131635 C29.1891903,38.070895 29.1744535,38.0105188 29.1593483,37.9497788 C29.4054529,37.7995656 29.6368208,37.6140722 29.9006096,37.5042311 C31.6097106,36.7920821 33.3265484,36.0984825 35.0393336,35.3950627 C36.0804889,34.9673369 37.1002758,34.4781436 38.16501,34.1198869 C39.0525341,33.8216427 39.895111,33.3880975 40.8887401,33.3571819 C41.4513176,33.33936 41.9947373,32.9585531 42.5606306,32.7850623 C45.633623,31.8423197 48.7047732,30.8908479 51.7899234,29.9866588 C54.0534967,29.3232474 56.3377015,28.7289413 58.611959,28.1008099 C58.7700112,28.0571644 58.9214319,27.9898776 59.0654842,27.8887656 C58.2052232,27.7887446 57.3748042,28.4314245 56.526701,27.8509395 C56.2279123,28.3714119 55.7710713,28.3728668 55.325283,28.4496101 C54.7582844,28.5478125 54.1724964,28.6441963 53.6508135,28.8678794 C52.93571,29.174489 52.1922382,29.2003126 51.4487663,29.3039706 C50.9841885,29.3687114 50.539137,29.5643887 50.0756645,29.64877 C49.5385079,29.7466086 48.9902988,29.786617 48.4428265,29.7971647 C48.8432992,29.4061738 69.2703534,24.2996513 69.7201944,24.4149481 C69.8192994,24.2498227 69.9195097,24.082515 70.0587725,23.8501027 C69.855773,23.7540826 69.675984,23.6693377 69.4162478,23.5467666 C69.4604582,23.7871805 69.4862476,23.9268461 69.5411422,24.2236354 C68.8956702,23.9159347 68.3540926,23.6576989 67.8441991,23.414739 L67.8441991,22.8157046 C67.7277783,23.0128367 67.6651469,23.118677 67.5667787,23.2852573 C67.0502537,23.1350441 66.5200971,22.98083 65.9895722,22.8262522 C65.9880985,22.7891536 65.9866248,22.7520549 65.9847827,22.7149562 C66.1048877,22.6658551 66.2246242,22.6171176 66.2599925,22.6025691 C66.5934128,22.7036812 66.8395174,22.7782422 67.0852536,22.853167 L67.1570956,22.7160474 C67.06978,22.644396 66.9931486,22.5480122 66.8929383,22.5047305 C66.5613602,22.3621552 66.2168874,22.2475858 65.8853093,22.1046468 C65.6123099,21.9871677 65.3547843,21.8351359 65.0825218,21.7165656 C64.9524695,21.6598265 64.8039962,21.6449143 64.6382071,21.7082002 C64.7612594,21.7580288 64.8843118,21.8078574 65.0092062,21.8584135 C65.083627,22.058819 65.1558374,22.2541326 65.2674687,22.5545591 C64.3965235,22.2781376 63.6117886,22.0289946 62.8270537,21.7798516 C62.835159,21.7252947 62.8436326,21.6703741 62.8517379,21.6158173 C63.0621058,21.5696258 63.2724737,21.523798 63.5848939,21.4554201 C63.319263,21.2579242 63.1228951,21.1117118 62.8930009,20.940767 C63.5642624,20.9818665 64.1633136,20.9869585 64.7516805,21.0691575 C65.0077325,21.1048013 65.2339425,21.3150271 65.4855734,21.4179577 C66.1623612,21.6951066 66.8376753,21.9788023 67.5288315,22.2173976 C68.0147776,22.3854328 68.5257763,22.4836351 69.0824592,22.628029 C69.2423535,22.5185515 69.4512477,22.3759763 69.7168786,22.1944837 C69.9478781,22.4396259 70.1619302,22.6669462 70.3991927,22.9186352 C70.5005083,22.8022472 70.5716133,22.7200482 70.7263498,22.5421928 C71.1577698,22.8549855 71.5884529,23.1670508 72.0854517,23.5274898 C72.7972394,23.3885517 73.3417643,23.934484 73.9419207,24.307653 C74.4908667,24.6488152 74.9981812,25.0554457 75.557443,25.457348 C75.688969,25.3475068 75.7961793,25.2576698 75.8834948,25.1845636 C74.64634,24.3742123 73.4368167,23.6155082 72.0508202,22.5952948 C71.5140321,22.3785222 70.6869289,22.0439068 69.8045626,21.6874686 C69.8332994,21.4746969 69.8572467,21.2957503 69.8775098,21.1451734 C69.2349851,21.7023808 68.9303017,21.380859 67.8279886,20.7316324 C66.0367299,20.217343 64.2093661,19.6928697 62.3820022,19.1680326 C62.3661601,19.2164064 62.3503181,19.2647801 62.334476,19.3131539 C63.8206828,19.9271005 65.4656787,20.1475102 66.8800436,21.0084175 C66.7415176,21.3310304 66.5455181,21.2899309 66.3038345,21.1979117 C65.5894679,20.9258548 64.8699434,20.6661641 64.1478399,20.413384 C64.0306823,20.3722845 63.8914195,20.3915612 63.7399988,20.3813773 C63.6519464,20.289358 63.5543151,20.1871548 63.4168944,20.0434884 C62.3050024,20.2908129 61.4174783,19.4095377 60.295639,19.3527985 C60.2820075,19.4677317 60.2680075,19.5819374 60.2411128,19.8059842 C59.5127462,19.6575896 58.8134848,19.5150143 58.1142234,19.372439 C58.1267497,19.3338855 58.139276,19.2949683 58.1518022,19.256051 C57.9233818,19.1705786 57.6942244,19.0160008 57.4665408,19.0178194 C57.2270677,19.0196379 56.9883315,19.171306 56.7219637,19.2036764 C56.5325958,19.3735301 56.3432278,19.5437476 56.0860706,19.774705 C56.3844909,19.9103697 56.6184376,20.0165737 56.8527529,20.1231415 L56.8431739,20.2253447 C56.6888059,20.2358923 56.5303852,20.2744458 56.3808067,20.2522594 C54.6757583,19.9980244 52.9762362,19.7023262 51.2667668,19.4822802 C49.7171917,19.282602 48.1573009,19.1607584 46.6014626,19.0076354 C45.8664645,18.934893 45.1303611,18.8756078 44.3960997,18.7948637 C44.2177844,18.7752232 44.0461006,18.694479 43.871101,18.6417407 C43.86668,18.6039146 43.862259,18.5660885 43.8578379,18.5282625 C44.0203112,18.4751604 44.1802055,18.387142 44.3456262,18.3769581 C44.6477307,18.3584088 44.9535194,18.3776855 45.2567292,18.3965986 C45.9611485,18.4406078 46.6648309,18.4937098 47.3688818,18.5431747 C47.376987,18.5020752 47.3854607,18.4606119 47.3935659,18.4191487 C47.0479878,18.3551353 46.7046203,18.2667532 46.3557264,18.230382 C43.1530502,17.8975851 39.9444793,17.6971796 36.7200663,17.7677398 C36.1427519,17.7804697 35.5761217,17.6717197 34.9767022,17.7521001 C34.3010197,17.8430282 33.5940214,17.7080909 32.8196023,17.6669914 C32.3417614,17.9746921 31.8683415,17.8397548 31.2818167,17.5680616 C30.7940284,17.3425599 30.1352932,17.4764061 29.6058735,17.4534922 C29.4714001,17.6633543 29.402874,17.7710132 29.3129795,17.9114062 C29.1744535,17.9186804 29.022296,17.9270458 28.8730858,17.9350475 C28.7761913,17.7939271 28.6973494,17.6786302 28.5562445,17.472769 C27.8573515,18.0452523 27.0110905,17.9754196 26.1663031,18.0081537 C26.0808296,17.8903109 25.998672,17.7771963 25.95483,17.7175474 C25.1579372,17.2934588 24.5165178,17.7575558 23.8319932,17.9288644 C23.6024674,17.9863309 23.3519417,17.9841487 23.1117318,17.9768744 C22.4360493,17.9557791 21.7607352,17.920499 21.0854211,17.8855826 C20.7748429,17.8695792 20.4646331,17.8415734 20.1337919,17.8179321 C19.4651093,17.920499 18.7610584,18.0285216 18.064376,18.135453 C17.9593762,17.941958 17.9015343,17.835754 17.8396397,17.7215483 C17.4911142,17.6618994 17.2461149,17.7702858 16.9462209,17.992514 C16.4495905,18.3598636 15.8188553,18.4435175 15.18812,18.3456788 C15.1052255,18.3329489 15.0274888,18.28603 14.9331733,18.2496587 C14.7972262,18.3264021 14.6616476,18.4035091 14.5139111,18.4867992 C14.3794378,18.4384255 14.2464381,18.3904154 14.11307,18.3424054 C12.5984949,18.4598845 11.1141302,18.9214356 9.51960782,18.7803152 C9.58702871,18.5868202 9.62571282,18.4762516 9.67950216,18.3220375 C9.0086091,18.4791613 8.37197911,18.6282834 7.71471759,18.7821337 C7.76408589,18.8836095 7.80866472,18.9756287 7.87903297,19.1200226 C7.40413942,19.0549181 6.98892993,18.9978152 6.40019455,18.917071 C6.22335289,18.7741321 5.90724842,18.8377817 5.54214406,18.9919958 C5.24667112,19.1171129 4.89225095,19.1043829 4.56435703,19.1571212 C3.99920055,19.2473219 3.43514932,19.3440694 2.86962442,19.4313604 C2.74362473,19.4506372 2.61283558,19.4364524 2.4849938,19.4462726 C1.82589018,19.4975561 1.16678656,19.5539315 0.507682944,19.6033964 C0.35920963,19.6143078 0.208894216,19.6048512 0,19.6048512 C0.180525865,19.1509381 0.504735582,19.2156789 0.77331386,19.1716697 C1.16715498,19.1076564 1.56946977,19.0796505 1.95446881,18.982903 C2.39436245,18.8723344 2.80330879,18.7704949 3.26899184,18.929801 C3.62451727,19.0512809 4.01283209,19.0087266 4.3020419,18.6722926 C4.40851531,18.5482666 4.57540963,18.474433 4.73714607,18.3620459 C5.27172369,18.6879322 5.6965121,18.4115108 6.16772145,18.191101 C6.54387841,18.0147005 6.98819309,17.976147 7.40487626,17.8877649 C8.08497982,17.743371 8.76766233,17.6102523 9.44813432,17.4691319 C9.9676067,17.361473 10.4833949,17.2367196 11.0058146,17.1454278 C11.1432353,17.1214228 11.2979718,17.1930741 11.444603,17.22108 C11.4475504,17.2676352 11.4501293,17.3141904 11.4530767,17.3607456 C11.1126565,17.5440566 10.7722363,17.7273677 10.4189214,17.9175893 C10.6558155,18.1841905 11.9154439,18.1827356 12.9057573,17.9615985 C12.9532835,17.8543033 13.0129675,17.7215483 13.1017568,17.5215064 C12.8140207,17.477861 12.5962844,17.4447631 12.3288113,17.4036636 L12.3288113,16.8780992 C16.1703281,16.6798759 19.8744241,15.8375179 23.6009937,15.0940897 C22.6386803,15.168287 21.673788,15.2184793 20.7147904,15.3221374 C19.4558988,15.4588933 18.1962704,15.6029234 16.9484314,15.8109669 C16.1541176,15.9433582 15.3808037,16.1986843 14.5975425,16.3950891 C14.4306482,16.436916 14.2604381,16.4914728 14.0913333,16.4936551 C12.7311261,16.5103859 11.370919,16.5162053 10.0110803,16.5245707 C9.81765971,16.5260255 9.62460756,16.5249344 9.42787121,16.4445539 C14.9722258,15.8156952 20.47237,14.87368 26.042514,14.5165144 C26.1187769,14.5117861 26.2009346,14.5936214 26.388092,14.6910963 C26.1268822,14.7834793 25.9725141,14.8380361 25.7949356,14.9005947 C26.7738279,14.773659 27.7317203,14.6518154 28.6885073,14.5237886 C29.6460313,14.3957618 30.6024499,14.2619157 31.5448686,14.132434 C31.6671841,14.3750302 31.7478681,14.5347 31.8698152,14.7765687 C31.5629212,14.7925721 31.2972903,14.8063932 31.0316594,14.8202142 C31.0261331,14.8569492 31.0209752,14.8940479 31.0154489,14.9307828 C31.1661327,14.9566064 31.3168166,14.9998882 31.4682373,15.0042527 C32.0333937,15.0209835 32.5992871,15.0158915 33.1637067,15.0398965 C33.3154958,15.0464434 33.4639691,15.1271875 33.6142845,15.1737427 C33.6102319,15.2221165 33.6065477,15.2704902 33.6028635,15.318864 C33.3740746,15.3530529 33.1460225,15.3956073 32.9161284,15.4203397 C32.2150249,15.4956282 31.508395,15.5334543 30.8135547,15.6447503 C30.2469245,15.7353147 29.6460313,15.7698674 29.1692956,16.1437638 C29.1759272,16.1885004 29.1825587,16.233237 29.1888219,16.2779737 C30.0914512,16.2165063 30.9940805,16.1579485 31.8963414,16.0924803 C32.4305506,16.0539268 32.9632862,15.9880948 33.4982322,15.9640898 C34.011073,15.9411759 34.4819139,15.9339017 34.9892285,15.679303 C35.5787007,15.3839685 36.2996989,15.4108832 36.949592,15.7022169 L38.1554311,15.7022169 C38.1443785,15.6589351 38.1333259,15.6156533 38.1222733,15.5723715 C38.5109565,15.4450722 38.9000082,15.3177728 39.2640073,15.1984752 C39.4342174,15.3981533 39.5266908,15.5065396 39.6191643,15.6145622 C39.6257958,15.6047419 39.6327958,15.5949217 39.6394274,15.5851015 C39.8221638,15.7145831 40.0045317,15.843701 40.3018468,16.0546542 C39.9525845,16.2234168 39.7352166,16.328166 39.5178487,16.4332789 C39.5086382,16.4751058 39.4997962,16.516569 39.4909541,16.5583959 C39.6545326,16.6045874 39.8192164,16.6900598 39.9816897,16.6853316 C40.1308998,16.680967 40.2793732,16.5845832 40.4245307,16.5205698 C40.7999508,16.354717 41.1554762,16.2874302 41.4634755,16.7988099 C41.6355277,16.6613266 41.7740536,16.550758 41.9122112,16.4398257 C41.8912112,16.3892697 41.8698429,16.3387136 41.8484745,16.2881576 C41.6557908,16.2681534 41.4546334,16.2754277 41.2726338,16.2212345 C41.041266,16.1521292 40.8257402,16.0328315 40.6032145,15.9353565 C40.7255299,15.7131282 40.8437928,15.488354 40.9731083,15.2701265 C40.997424,15.229027 41.066687,15.2137511 41.1904761,15.1446457 C38.9239555,14.8536758 36.7377504,15.3923339 34.553019,15.2788556 C34.5419664,15.2141148 34.5309138,15.149374 34.5198612,15.0849969 C35.0234915,14.9129609 35.5271219,14.7412886 36.0303838,14.5696164 C36.0255943,14.5339726 36.0208048,14.497965 36.0160154,14.4623212 C35.3337013,14.5401557 34.6513872,14.6179901 33.8987049,14.7038263 C33.8279682,14.5139684 33.7513368,14.3081071 33.6747054,14.1022459 C34.5165454,13.8040017 37.3379068,13.6236003 37.9620105,13.8214599 C37.8592213,13.9291188 37.7700636,14.0222292 37.6308008,14.1680778 C37.8636423,14.2739182 38.0736418,14.3699382 38.3057465,14.4754148 C38.699956,14.2259081 39.0650604,14.3950344 39.4530068,14.5437928 C39.6946904,14.6365395 39.9772687,14.6263555 40.2277943,14.6605445 C40.3456888,14.2397292 40.1493209,14.1389809 39.9172162,14.1262509 C39.6313221,14.1106113 39.3413755,14.137526 39.0551131,14.164077 C38.7614822,14.1909917 38.5415354,14.145164 38.513167,13.7068905 C49.5399816,12.7688761 60.4632702,13.2547959 71.3279799,15.2028397 C70.042562,14.8973213 68.7567758,14.5918028 67.4713579,14.2859207 C67.4864632,14.2200887 67.5012,14.1538931 67.5163052,14.0876974 C69.1178275,14.1749884 70.6640868,14.6034416 72.2092408,14.9886131 C73.7665527,15.377058 75.3113384,15.8255154 76.8365977,16.3227103 C78.3706991,16.8224512 79.8738533,17.4142113 81.4385336,17.9830575 L81.4385336,10.3414594 L25.6589886,10.3414594 L25.6589886,14.0542359 L24.0165716,14.0542359 L24.0165716,8.63273837 L83.1413715,8.63273837 L83.1413715,18.4249681 C84.5041575,19.2171338 85.7715228,19.9540152 86.9534146,20.641068 C87.3671504,20.5181332 87.7108864,20.3930161 88.0649381,20.3140905 C89.6329342,19.9641991 91.2009303,19.6132166 92.7751895,19.292786 C93.5112929,19.1429365 94.2665542,19.0858336 95.0048682,18.9443495 C96.2685492,18.702117 97.5244935,18.4216947 98.7852271,18.1660049 C99.9490663,17.9303192 101.111432,17.6829948 102.281903,17.4814981 C105.075633,17.001034 107.873783,16.5442112 110.670461,16.0801141 C110.761829,16.0652019 110.857986,16.0782955 110.984723,16.1739519 C110.81746,16.2616066 110.650198,16.3492613 110.482935,16.436916 C110.485514,16.4667404 110.488093,16.4965648 110.490672,16.5260255 C110.95967,16.4551016 111.429406,16.3896334 111.896931,16.3117989 C112.518824,16.2085046 113.138876,16.0950263 113.760032,15.9862763 C113.7884,15.981548 113.82119,15.9888223 113.845505,15.9771835 C114.774293,15.5400011 115.780448,15.6480237 116.760814,15.5600053 C117.821495,15.4650764 118.91644,15.4472545 119.924438,15.1548297 C120.919909,14.866042 121.90138,14.8023923 122.909746,14.7503814 C123.346692,14.7274676 123.775902,14.58271 124.212479,14.5194241 C124.360584,14.497965 124.520479,14.556159 124.69511,14.6747293 C124.505005,14.733287 124.317479,14.8049383 124.12369,14.8485838 C123.250166,15.0453522 122.379589,15.2592151 121.499065,15.4192486 C120.502857,15.6000137 119.495597,15.7200388 118.497178,15.8891651 C118.233021,15.9339017 117.970337,16.0361049 117.72939,16.1557663 C116.571446,16.7304319 115.365238,17.1374261 114.069136,17.2694537 C113.870926,17.2898216 113.679716,17.3705658 113.483717,17.4178484 C112.729561,17.5993409 111.974668,17.7797423 111.219038,17.9572339 C111.093775,17.9866946 110.93646,17.9590525 110.840671,18.024157 C110.129251,18.508622 109.276359,18.5148051 108.486466,18.7333963 C107.988362,18.871607 107.510521,19.0829239 107.010575,19.2113144 C106.237261,19.4099014 105.452895,19.565934 104.593371,19.7576105 C104.341003,19.8423555 104.001319,19.9467409 103.669373,20.0700394 C103.236111,20.2308003 102.811322,20.4141114 102.377323,20.5734174 C102.125692,20.6658004 101.859325,20.7185387 101.607325,20.8101942 C101.450378,20.8672971 101.307431,20.9625897 101.090064,21.0767955 C100.647223,21.0236934 100.171961,21.0393331 99.6841723,21.3553992 C99.323489,21.5892663 98.8025429,21.5736266 98.3600703,21.6940154 C97.4858093,21.9318834 96.6152326,22.1832087 95.745761,22.4367162 C95.473867,22.5156418 95.2148676,22.6596719 94.938921,22.6985892 C94.7178689,22.7295047 94.4798695,22.6465783 94.2591858,22.615299 C94.1785018,22.7400524 94.0801336,22.8924479 93.9854497,23.0393877 C93.7618186,22.9691912 93.6126085,22.9222723 93.4302405,22.8651695 C93.370188,23.0011979 93.3156619,23.1255876 93.2607673,23.2507046 C92.6937687,23.6027783 92.4756639,23.6111437 91.7001396,23.3012607 C91.6054556,23.3638192 91.5000874,23.4332883 91.361193,23.5253075 C91.2046145,23.436198 91.0351412,23.3394505 90.8652995,23.242703 C90.8575627,23.2532506 90.8498259,23.2634346 90.8417207,23.2739822 C91.1965092,23.6446052 91.5516663,24.0155919 91.9116127,24.3920343 C92.3419274,24.2778285 92.7236107,24.1956295 93.0920308,24.0745133 C94.0768178,23.7515367 95.0479733,23.3874605 96.0390235,23.0863066 C96.7066008,22.8837188 97.3988622,22.7600566 98.2978073,22.5501945 C98.5041226,22.3519712 98.9653846,22.2028491 99.5065938,22.2781376 C99.6001725,22.390161 99.6885933,22.4952739 99.8267509,22.6600357 C99.9914347,22.0315406 100.43096,21.8042203 100.976959,21.6965614 C101.571589,21.5790823 102.261271,21.6550982 102.557849,20.8723891 C103.135532,21.3241199 103.468215,21.0207837 103.746004,20.5796006 C104.459266,20.8963941 105.075264,20.5275897 105.698263,20.3679199 C108.138309,19.7416071 110.567303,19.0731037 112.998507,18.4129656 C113.750453,18.2089229 114.492451,17.9696002 115.244765,17.7677398 C116.121973,17.5324178 117.004708,17.3181912 117.886337,17.1017823 C118.009021,17.0715942 118.141284,17.0792321 118.286442,17.0683208 C118.333599,17.2036218 118.372652,17.3174638 118.435652,17.49932 C118.523704,17.3094621 118.58523,17.1770708 118.679177,16.9737555 C119.147071,16.9231995 119.647017,16.8690064 120.201858,16.8089938 L120.201858,17.6786302 C119.269387,17.7386428 118.537336,18.4176939 117.590864,18.4042365 C117.537075,18.4035091 117.468917,18.4260593 117.430233,18.4620668 C116.648814,19.1876731 115.616869,19.1385719 114.665977,19.3400686 C114.167136,19.4455452 113.668664,19.5535678 113.170191,19.660863 C113.181244,19.7136013 113.192665,19.7663396 113.204086,19.8190779 C113.702558,19.7070544 114.201399,19.5946673 114.699872,19.4826439 C114.711293,19.5328362 114.722345,19.5826648 114.733766,19.6324934 C110.294672,21.1269878 105.855946,22.6214821 101.308537,24.1527115 C101.519641,24.2894673 101.597378,24.3396597 101.720799,24.4196764 C101.577483,24.5047851 101.461799,24.5735268 101.346484,24.6422684 C101.364537,24.668092 101.382221,24.6935519 101.400273,24.7190117 C101.109221,24.9183261 100.817801,25.1176405 100.559539,25.2944048 C100.319697,25.1707426 100.180066,25.0987275 100.14875,25.0823604 C98.1684918,25.7497728 96.2751808,26.3877244 94.3733961,27.0289494 C94.4109749,27.2388114 94.4061854,27.3435606 94.4478169,27.4253959 C94.8015002,28.1222689 95.2159729,28.7940458 95.5073932,29.5145601 C95.7789189,30.1870644 95.9542868,30.9032142 96.1138128,31.6128171 C96.3076018,32.4762704 96.4590224,33.3528174 96.1307601,34.2610073 C95.9594447,34.3213836 95.7601294,34.3923075 95.5232353,34.4759614 C95.5412879,34.5988962 95.5276563,34.721831 95.5781299,34.8083945 C95.7756031,35.1459197 95.7590242,35.440163 95.5158669,35.7613211 C95.4274461,35.8788002 95.4771828,36.0977551 95.4558144,36.3705394 C96.0452866,35.9930059 95.8087609,35.4339799 96.0445498,35.0622658 C96.0876549,35.0666304 96.1303917,35.0709949 96.1734968,35.0753595 C96.1436548,35.3685117 96.1510232,35.6707567 96.0773392,35.9526338 C95.7586558,37.1721616 95.4178671,38.3818692 94.7959739,39.5002849 C94.2853436,40.4182951 93.896292,41.4054106 93.351767,42.301598 C91.9554547,44.5998969 90.0912488,46.5021129 87.9278858,48.095537 C86.5370998,49.1193875 85.0431562,50.0072096 83.5952651,50.9557716 C83.4637391,51.0416077 83.3300026,51.1241704 83.1443188,51.2412858 L83.1443188,67.1435207 L24.0092032,67.1435207 Z" id="Fill-1"></path>
                <path d="M59.7729858,77.2853349 C60.0090516,77.3261801 60.2114413,77.3609175 60.4291686,77.3987088 L60.4291686,78.6355155 L57.7004084,78.6355155 L57.7004084,77.4235213 C57.916802,77.371606 58.1155241,77.323508 58.3429207,77.2689205 L58.3429207,73.4355835 C57.7494221,75.2438405 57.193934,76.9375785 56.6307771,78.6538385 L55.6745107,78.6538385 C55.0866802,76.9131477 54.5018506,75.180855 53.8876795,73.3615278 L53.8876795,77.2914426 C54.1300804,77.3288522 54.3448069,77.3624445 54.5888749,77.4002358 L54.5888749,78.6316982 L51.7964302,78.6316982 L51.7964302,77.4109242 C52.0221598,77.3689339 52.2238827,77.3315243 52.4746192,77.2849532 L52.4746192,72.3419258 C52.2528907,72.3083335 52.0498342,72.2774133 51.8047659,72.2400037 L51.8047659,70.9936539 L54.3524757,70.9936539 C54.9289696,72.6923543 55.5067973,74.396399 56.1253029,76.2187801 C56.7341392,74.4151038 57.3102997,72.7080053 57.8937956,70.9802933 L60.4151647,70.9802933 L60.4151647,72.2392403 C60.2137753,72.2720691 60.011719,72.3052796 59.7729858,72.3442161 L59.7729858,77.2853349 Z" id="Fill-3"></path>
                <path d="M75.4141774,72.333495 C75.1592545,72.3021711 74.9502176,72.2768855 74.6952947,72.2455616 L74.6952947,71.0077 L77.6946454,71.0077 L77.6946454,72.2225404 C77.4695848,72.26028 77.2503511,72.2976423 76.9502703,72.3482135 L76.9502703,78.5005362 C76.0835323,78.806605 75.6108323,78.6631942 75.1446874,77.9906731 C74.2102127,76.6407248 73.2801081,75.2873798 72.2840877,73.8427048 L72.2840877,77.2196515 C72.5069632,77.2634295 72.7247402,77.3060753 72.9811199,77.3566465 L72.9811199,78.5771478 L70.0211001,78.5771478 L70.0211001,77.3592883 C70.2348713,77.3189068 70.4530125,77.2773932 70.7119414,77.228709 L70.7119414,72.3587806 C70.4941643,72.3176444 70.2763873,72.2765081 70.0214643,72.2282013 L70.0214643,70.9865658 C70.6897267,70.9865658 71.3292191,70.963922 71.9647056,71.0046809 C72.1019998,71.013361 72.2480343,71.2322511 72.3521885,71.3828325 C73.2710037,72.710137 74.1803503,74.0442347 75.0947954,75.3749359 C75.1650813,75.476833 75.2524834,75.5662761 75.4141774,75.7598806 L75.4141774,72.333495 Z" id="Fill-5"></path>
                <path d="M68.4287421,84.3598684 L68.4287421,87.8725717 C68.6741965,87.9113755 68.8945228,87.9463374 69.1720246,87.9901357 L69.1720246,89.2049632 L66.1843275,89.2049632 L66.1843275,87.9889831 C66.4021046,87.9547897 66.608228,87.9225172 66.8635151,87.8825608 L66.8635151,82.8403735 C66.6508366,82.8180901 66.4432564,82.7965752 66.1868768,82.7700656 L66.1868768,81.5364125 L68.2746958,81.5364125 C69.3424588,83.1146894 70.4444543,84.7429117 71.6079956,86.4625727 L71.6079956,82.8657304 C71.3625412,82.8211637 71.1440358,82.7812073 70.8912979,82.7351038 L70.8912979,81.531418 L73.8578728,81.531418 L73.8578728,82.7554662 C73.6451942,82.7854335 73.4266888,82.8165534 73.1371691,82.8572781 L73.1371691,89.188827 L71.7034096,89.188827 C70.6465718,87.6305283 69.5675194,86.0388046 68.4287421,84.3598684" id="Fill-7"></path>
                <path d="M47.1439658,75.0379737 C47.6596914,74.9983853 48.113868,75.02427 48.5406521,74.915402 C49.062803,74.7825526 49.3441694,74.2785622 49.3475512,73.6752202 C49.3502566,73.1392545 49.0786975,72.585398 48.6465026,72.4890916 C48.1784605,72.3847915 47.6860695,72.41867 47.1977366,72.392024 C47.1706821,72.5956757 47.1463331,72.6965499 47.1456567,72.7978048 C47.1422749,73.4989758 47.1439658,74.2005274 47.1439658,75.0379737 L47.1439658,75.0379737 Z M45.7239451,72.3748944 C45.5031131,72.3341641 45.3225246,72.3006662 45.0922236,72.2580326 L45.0922236,71.0677168 C45.1693288,71.0368836 45.242714,70.9813076 45.315761,70.9820689 C46.4324337,70.991966 47.5531645,70.9485711 48.6644262,71.0410708 C49.8078151,71.1358545 50.5521508,72.0227863 50.7110957,73.2884722 C50.855837,74.4418642 50.3181297,75.4266249 49.2714605,75.9252861 C49.2477879,75.9363252 49.2278352,75.9580227 49.1480246,76.0193085 C49.4561072,76.4608711 49.760808,76.8978659 50.050967,77.3135438 C50.3296279,77.3478029 50.5636489,77.3767329 50.8372371,77.4102307 L50.8372371,78.6538385 L49.2126171,78.6538385 C48.5619574,77.6245409 47.8933742,76.5674552 47.176093,75.4327155 L47.176093,77.2872784 C47.3580342,77.3340993 47.5105537,77.3736876 47.7070367,77.4243151 L47.7070367,78.64889 L45.0820782,78.64889 L45.0820782,77.4342122 C45.281943,77.3885333 45.4831605,77.3424737 45.7239451,77.2872784 L45.7239451,72.3748944 Z" id="Fill-9"></path>
                <path d="M66.1661374,77.1729617 C67.4720292,77.1802351 68.4791427,76.1703207 68.4859988,74.8469219 C68.4924939,73.5289782 67.481772,72.4714229 66.2065519,72.4623311 C64.9320534,72.4528757 63.8910206,73.5067942 63.8874122,74.8101911 C63.8838038,76.1568649 64.8562764,77.1656883 66.1661374,77.1729617 M66.1704675,78.65383 C64.0580911,78.6581941 62.366097,76.9805797 62.347694,74.8636508 C62.3296518,72.7678148 64.069638,70.9934639 66.1560338,70.9803717 C68.2463988,70.9669159 70.0083965,72.6863524 70.021026,74.7520038 C70.0340164,76.9307568 68.3384139,78.6491023 66.1704675,78.65383" id="Fill-11"></path>
                <path d="M70.2895104,6.21665643 C71.5771217,6.48146562 72.6228307,6.1209148 73.0596371,5.29989235 C73.5721243,4.33677717 73.5037005,2.85582136 72.9110399,2.08304965 C72.3902589,1.40336008 71.1727993,1.12221403 70.2895104,1.49568236 L70.2895104,6.21665643 Z M68.1027138,7.59959105 L68.1027138,6.41307874 C68.3335577,6.38686377 68.5433216,6.36330829 68.7990468,6.33443383 L68.7990468,1.3490305 C68.5854817,1.31445714 68.376409,1.28102355 68.1155001,1.23885164 L68.1155001,0.00902764126 C68.3615493,0.00902764126 68.5751144,0.00902764126 68.7890252,0.00902764126 C69.7134374,0.00940756835 70.6388864,0.0417013713 71.5619164,0.00256888066 C73.2044329,-0.0669577775 74.4885884,1.28330311 74.7512251,3.02146957 C74.9564965,4.38046879 74.6917863,5.59623549 73.8161,6.6284974 C73.2517766,7.29336982 72.5433485,7.61478814 71.7492179,7.64784179 C70.609167,7.69495275 69.4663515,7.66303888 68.3245728,7.66227902 C68.2727366,7.66227902 68.2209004,7.63416442 68.1027138,7.59959105 L68.1027138,7.59959105 Z" id="Fill-13"></path>
                <path d="M43.3365225,85.6256299 C43.8337066,85.5739884 44.300789,85.5866119 44.738108,85.4645848 C45.2373214,85.3253439 45.5072213,84.816579 45.506883,84.2362809 C45.506883,83.7191004 45.2396889,83.1487481 44.8537794,83.0557933 C44.3721535,82.9395042 43.8702344,82.9330012 43.3365225,82.8744741 L43.3365225,85.6256299 Z M41.8821746,82.8645283 C41.6474497,82.8396639 41.4651488,82.8205374 41.2453056,82.7972031 L41.2453056,81.6312516 C41.3017884,81.5880257 41.3234345,81.5570408 41.3450806,81.5570408 C42.5278375,81.5570408 43.7156676,81.4843601 44.8919983,81.5838179 C46.0115079,81.6783028 46.728197,82.5975224 46.8746465,83.8671395 C47.0082436,85.0223801 46.4809579,85.9855907 45.4453269,86.4813496 C45.4223279,86.4924429 45.4050787,86.5196026 45.341155,86.5823375 C45.7947086,87.1897951 45.9929058,88.1281412 47.0004645,87.953325 L47.0004645,89.1954 L45.3354053,89.1954 C44.7032713,88.1786352 44.0488147,87.1255301 43.3361843,85.9787051 L43.3361843,87.8737588 C43.5174704,87.9185148 43.6696696,87.9560027 43.8661757,88.0042015 L43.8661757,89.2049632 L41.2476731,89.2049632 L41.2476731,87.9938732 C41.4563551,87.9575328 41.6474497,87.9246353 41.8821746,87.8840871 L41.8821746,82.8645283 Z" id="Fill-15"></path>
                <g id="Group-19" transform="translate(76.735452, 81.531418)">
                    <path d="M2.62124651,1.70074995 L2.62124651,6.25006604 C3.82306985,6.56102733 4.99639146,6.2423925 5.51271143,5.4870964 C6.06739913,4.67516224 6.06922616,3.26030666 5.51600009,2.45312279 C5.01283477,1.71902029 3.77447073,1.38869244 2.62124651,1.70074995 L2.62124651,1.70074995 Z M0.3381841,7.65834429 L0.3381841,6.47588752 C0.571313712,6.43898142 0.791288675,6.40463317 1.04963136,6.364073 L1.04963136,1.5977052 C0.824906111,1.55933747 0.605296555,1.52170056 0.347319273,1.47785173 L0.347319273,0.373226623 C0.414188739,0.345455698 0.465711114,0.30489553 0.517598896,0.30489553 C1.79615769,0.305991751 3.080563,0.234737402 4.35217906,0.332666456 C6.50515661,0.498195788 7.60868549,2.47760505 7.39565326,4.4511678 C7.19760271,6.28770295 5.79042068,7.79646811 3.75510417,7.66565243 C3.03927202,7.61961116 2.31795877,7.65834429 1.59920336,7.65834429 L0.3381841,7.65834429 Z" id="Fill-17"></path>
                </g>
                <path d="M51.031375,85.6154445 C51.521024,85.5698378 51.9624216,85.5790358 52.3820721,85.4767081 C52.8645853,85.3590503 53.1496758,84.8742392 53.1704035,84.3074126 C53.1924904,83.6957457 52.9644859,83.1630283 52.5166321,83.0434544 C52.0497497,82.9188981 51.5556834,82.9242636 51.031375,82.8679259 L51.031375,85.6154445 Z M51.0334138,86.1818879 L51.0334138,87.8670378 C51.2067108,87.9137942 51.3467076,87.951736 51.5301985,88.0011752 L51.5301985,89.2049632 L48.9188508,89.2049632 L48.9188508,87.990061 C49.1251082,87.957868 49.330686,87.925675 49.5739814,87.88735 L49.5739814,82.8606442 C49.3500545,82.8357329 49.15569,82.8138877 48.9266661,82.7882099 L48.9266661,81.6070337 C48.9919074,81.5702417 49.0272464,81.5326832 49.0622455,81.5330665 C50.2773632,81.5464802 51.4975779,81.4928252 52.7058996,81.6024347 C53.6811199,81.6905822 54.4483838,82.6893314 54.5448865,83.743652 C54.6685729,85.0972906 54.2047487,86.0017604 53.1479768,86.4716248 C53.1112787,86.4877213 53.0783182,86.5141656 52.9947279,86.5666708 C53.1452585,86.7973873 53.2859348,87.0246545 53.4374847,87.2423404 C53.5941316,87.4665416 53.761652,87.6815448 53.9227163,87.8988475 C54.1714484,87.9268247 54.4062489,87.953269 54.6740097,87.9831625 L54.6740097,89.1988312 L53.0293873,89.1988312 C52.4078968,88.2096632 51.7578632,87.1752717 51.1078296,86.1408802 C51.0830243,86.1546772 51.0582191,86.1680909 51.0334138,86.1818879 L51.0334138,86.1818879 Z" id="Fill-20"></path>
                <path d="M61.4056518,83.5206423 C61.3732108,83.5217942 61.3407698,83.5233299 61.3083287,83.5244818 C61.0573566,84.2616582 60.8063844,84.9984506 60.5350921,85.7947546 L62.1785319,85.7947546 C61.9072396,84.9961469 61.6562674,84.2582026 61.4056518,83.5206423 M60.4848263,88.1341377 L60.4848263,89.2049632 L57.5515892,89.2049632 L57.5515892,87.9763359 C57.7972139,87.9502276 58.0157451,87.9268069 58.2927413,87.897243 C58.9472653,86.2570256 59.6089192,84.5991467 60.3005186,82.8663983 C60.0260178,82.8287716 59.8160426,82.7995917 59.5793302,82.7673402 L59.5793302,81.531418 L62.0191789,81.531418 C62.8401858,83.6450408 63.6658272,85.770566 64.4854082,87.8803494 C64.7567005,87.9210477 64.9738057,87.9532992 65.2251344,87.9909259 L65.2251344,89.199204 L62.2366406,89.199204 L62.2366406,88.1736842 C62.4434074,88.1268428 62.6401924,88.082305 62.9039984,88.0227934 C62.7920591,87.6949035 62.6936666,87.4061761 62.5860052,87.0909564 L60.1372441,87.0909564 C60.0253049,87.3816035 59.9105136,87.6803135 59.7682723,88.0496696 C60.0270873,88.0800014 60.2263678,88.1034221 60.4848263,88.1341377" id="Fill-22"></path>
                <path d="M42.6229282,76.3089418 L44.1178202,76.3089418 L44.1178202,78.6538385 L38.3677261,78.6538385 L38.3677261,77.4190769 C38.6084984,77.3822641 38.8305699,77.3481356 39.1028997,77.3063378 L39.1028997,72.3477343 C38.8835554,72.3116885 38.6501855,72.2733418 38.3712325,72.2273259 L38.3712325,70.9802933 L44.122885,70.9802933 L44.122885,73.3175207 L42.6307202,73.3175207 C42.5921499,73.0168831 42.557086,72.7404039 42.5161781,72.4202095 L40.7902537,72.4202095 L40.7902537,74.152327 L42.9669443,74.152327 L42.9669443,75.3790359 L40.7851889,75.3790359 L40.7851889,77.2894652 L42.5177365,77.2894652 C42.5508524,76.978474 42.5839683,76.6732348 42.6229282,76.3089418" id="Fill-24"></path>
                <path d="M60.4291686,7.67354522 L54.6740097,7.67354522 L54.6740097,6.46089949 C54.9196163,6.42317273 55.1410136,6.38929564 55.4139531,6.34733425 L55.4139531,1.31235216 C55.1765465,1.27462541 54.9543682,1.23920845 54.6822096,1.19609216 L54.6822096,0 L60.4287781,0 L60.4287781,2.29324782 L58.9356153,2.29324782 C58.9028157,1.98488934 58.8731398,1.70655827 58.8399498,1.39088541 L57.1011803,1.39088541 L57.1011803,3.12670116 L59.2928967,3.12670116 L59.2928967,4.40517624 L57.1062565,4.40517624 L57.1062565,6.28227484 L58.8399498,6.28227484 C58.8688446,5.96775689 58.8961777,5.67364218 58.9274154,5.33525627 L60.4291686,5.33525627 L60.4291686,7.67354522 Z" id="Fill-26"></path>
                <path d="M78.4564378,1.31656414 C78.1788553,1.2757822 77.9566334,1.24269496 77.6946454,1.20422144 L77.6946454,0 L83.4498043,0 L83.4498043,2.30648802 L81.9616969,2.30648802 C81.9266092,2.01408921 81.8934708,1.73669507 81.8544845,1.40890061 L80.1312897,1.40890061 L80.1312897,3.13136047 L82.2700786,3.13136047 L82.2700786,4.38175014 L80.1270012,4.38175014 L80.1270012,6.28388138 L81.8537048,6.28388138 C81.8841141,5.97994051 81.9133539,5.68638748 81.9468821,5.35166779 L83.4474651,5.35166779 L83.4474651,7.67354522 L77.7004933,7.67354522 L77.7004933,6.44393126 C77.9527347,6.41546085 78.1889918,6.38852938 78.4564378,6.35813529 L78.4564378,1.31656414 Z" id="Fill-28"></path>
                <path d="M32.6125672,76.0526625 C32.338576,77.3352312 30.8764002,78.4755354 29.4058408,78.6298376 C27.675771,78.8114984 26.0588797,77.9498865 25.3234095,76.4539212 C24.5806988,74.9433646 24.9366207,73.1209206 26.1979712,71.9751447 C27.5210555,70.7731925 29.192059,70.6550036 31.1080924,71.6497603 C31.1503914,71.4987412 31.190404,71.3561119 31.2441353,71.1627782 L32.4109798,71.1627782 L32.4109798,73.4991981 L31.0307346,73.4991981 C30.4930411,72.8334735 29.7922485,72.4176236 28.8616691,72.4296613 C27.7805659,72.4438878 26.8671348,73.1249332 26.5893328,74.1273504 C26.2917151,75.2019941 26.747478,76.261317 27.7504612,76.8270918 C28.6215933,77.3188161 29.9229564,77.2411178 30.5742096,76.5028018 C31.1835447,75.8126369 31.8732862,76.0727254 32.6125672,76.0526625" id="Fill-30"></path>
                <path d="M39.3269193,81.531418 L39.3269193,83.8590318 L37.8396485,83.8590318 C37.8023404,83.5638955 37.7638664,83.2587545 37.7211176,82.9216757 L35.9839605,82.9216757 L35.9839605,84.725586 L38.1723121,84.725586 L38.1723121,85.9573089 L35.9909557,85.9573089 L35.9909557,87.8370235 L37.7265584,87.8370235 C37.7580371,87.5338065 37.790293,87.2263568 37.8264352,86.8846604 L39.3086539,86.8846604 L39.3086539,89.2049632 L33.5717603,89.2049632 L33.5717603,87.9932495 C33.819315,87.9574638 34.040443,87.9259107 34.3097607,87.8870466 L34.3097607,82.8358668 C34.0746421,82.8147032 33.8531254,82.7943091 33.5799215,82.7696824 L33.5799215,81.531418 L39.3269193,81.531418 Z" id="Fill-32"></path>
                <path d="M29.6479257,0 L32.6125672,0 L32.6125672,1.21312828 C32.381409,1.24807437 32.1392972,1.28494056 31.8382628,1.33025526 C31.0903981,3.42087583 30.3357346,5.53031352 29.5686067,7.67354522 L27.9044189,7.67354522 C27.1924366,5.56717972 26.4747886,3.44545329 25.7578961,1.32487894 C25.4666821,1.28839677 25.2223041,1.25805896 24.939022,1.22272886 L24.939022,0.0145928695 L28.0422828,0.0145928695 L28.0422828,1.21236024 C27.837942,1.25114655 27.6672173,1.28340447 27.4031984,1.33371147 C27.8526727,2.67625546 28.2927042,3.99230188 28.7331134,5.30834829 L28.8452931,5.32217312 C29.3230956,4.00689475 29.800898,2.69161638 30.2911649,1.34139193 C30.0486754,1.29070091 29.8669972,1.25268264 29.6479257,1.20698392 L29.6479257,0 Z" id="Fill-34"></path>
                <path d="M27.3522388,87.8847917 C27.6127302,87.9240504 27.8326406,87.9575358 28.0900401,87.9964097 L28.0900401,89.2049632 L24.939022,89.2049632 L24.939022,88.0017981 C25.1751647,87.9644638 25.4070562,87.9278993 25.682234,87.8844068 L25.682234,82.8623664 C25.4495696,82.8227228 25.2188376,82.7834641 24.9452057,82.7368924 L24.9452057,81.531418 L30.6941809,81.531418 L30.6941809,83.8461444 L29.2336513,83.8461444 C29.2046649,83.5655599 29.1741325,83.2741984 29.1389623,82.9347257 L27.3460551,82.9347257 L27.3460551,84.7552538 L29.4813887,84.7552538 L29.4813887,86.0134581 L27.3522388,86.0134581 L27.3522388,87.8847917 Z" id="Fill-36"></path>
                <path d="M79.0718392,77.4190943 C79.3105576,77.3720455 79.51752,77.3314994 79.7668238,77.2821555 L79.7668238,72.4208282 L78.9218189,72.4208282 C78.8864126,72.7386945 78.8513714,73.0569434 78.8115849,73.4161208 L77.6946454,73.4161208 L77.6946454,70.9802933 L83.4498043,70.9802933 L83.4498043,73.4100007 L82.34126,73.4100007 C82.3142491,73.0959595 82.2879681,72.7895685 82.256577,72.4246533 L81.3444097,72.4246533 L81.3444097,77.2829205 C81.5740028,77.3242317 81.8065161,77.3659253 82.0616601,77.4118266 L82.0616601,78.6538385 L79.0718392,78.6538385 L79.0718392,77.4190943 Z" id="Fill-38"></path>
                <path d="M36.7889005,72.2361939 C36.5180416,72.2744603 36.3060136,72.304308 36.0446308,72.3414263 L36.0446308,77.2081369 L37.6883415,77.2081369 C37.7317737,76.9268795 37.7759955,76.6394994 37.82614,76.312705 L39.3269193,76.312705 L39.3269193,78.6538385 L33.5717603,78.6538385 L33.5717603,77.4224283 C33.8197186,77.3795701 34.0570163,77.3386251 34.3373513,77.2904095 L34.3373513,72.3521409 C34.0905775,72.3111959 33.8540695,72.2717816 33.5780778,72.225862 L33.5780778,70.9802933 L36.7889005,70.9802933 L36.7889005,72.2361939 Z" id="Fill-40"></path>
                <path d="M43.4824621,1.21653766 C43.2175409,1.24696073 42.9911393,1.27276257 42.7238597,1.30318564 L42.7238597,6.25521404 L44.4434895,6.25521404 C44.4694314,5.94905784 44.4945871,5.65522491 44.5224942,5.32480728 L46.0412713,5.32480728 L46.0412713,7.67354522 L40.2924013,7.67354522 L40.2924013,6.46432451 C40.5459239,6.42619939 40.7687879,6.39308061 41.0344953,6.35341509 L41.0344953,1.31743442 C40.7786144,1.27699869 40.5557504,1.2423395 40.2861124,1.19997827 L40.2861124,0 L43.4824621,0 L43.4824621,1.21653766 Z" id="Fill-42"></path>
                <path d="M51.1832751,1.20570555 C50.9231527,1.24337184 50.6974757,1.27642593 50.4262674,1.31562962 L50.4262674,6.26528729 L52.1030078,6.26528729 C52.1315144,5.94358644 52.1572495,5.64994314 52.186152,5.32478315 L53.7148166,5.32478315 L53.7148166,7.67354522 L47.963221,7.67354522 L47.963221,6.46207442 C48.2181964,6.42094898 48.4553551,6.382514 48.7257716,6.33869811 L48.7257716,1.32677576 C48.4680247,1.28295988 48.2312619,1.24298749 47.9596576,1.19724986 L47.9596576,0 L51.1832751,0 L51.1832751,1.20570555 Z" id="Fill-44"></path>
                <path d="M35.4682621,1.31187524 C35.1548947,1.27641915 34.8722586,1.2444316 34.5309535,1.20589237 L34.5309535,0 L38.3677261,0 L38.3677261,1.20319463 C38.0767088,1.23980689 37.8122322,1.27333602 37.4867584,1.3141876 L37.4867584,6.36321155 C37.7670663,6.39519911 38.0315429,6.4252597 38.3598104,6.46264275 L38.3598104,7.67354522 L34.5444567,7.67354522 L34.5444567,6.46456971 C34.8508398,6.43065519 35.1330102,6.39943842 35.4682621,6.36244076 L35.4682621,1.31187524 Z" id="Fill-46"></path>
                <path d="M63.2731978,21.8338579 C62.9114573,21.8086719 62.5497167,21.7843962 62.1884063,21.7579964 C61.8227945,21.7312931 61.4571828,21.7024658 60.9358635,21.6624109 C61.1775974,21.8141339 61.3023355,21.892423 61.4275037,21.9707121 C61.4210518,22.0007533 61.4150299,22.0310979 61.4090081,22.0614425 C61.1591017,22.0532495 60.9018831,22.0690287 60.6610095,22.0323117 C60.0510831,21.9388503 59.4450278,21.8296097 58.8454246,21.7076243 C58.7073524,21.6797073 58.6006798,21.5753218 58.5107823,21.4557641 C59.0828572,21.3692819 59.6110586,21.0194086 60.149153,21.4518193 C60.240771,21.3410614 60.3147537,21.2524552 60.4394918,21.1022494 C60.8124158,21.1984418 61.1810384,21.2937239 61.6386983,21.4120678 C62.1918473,21.2837101 62.7733851,21.3865784 63.3067481,21.6390455 C63.2955647,21.703983 63.2843812,21.7689205 63.2731978,21.8338579" id="Fill-48"></path>
                <path d="M41.2453056,33.5717603 C41.8906154,32.7429418 47.5109683,30.3568927 47.9596576,30.7343468 C45.6696071,31.702154 43.4574563,32.6369572 41.2453056,33.5717603" id="Fill-50"></path>
                <path d="M7.67354522,21.1289862 C7.09793299,21.260119 6.51951801,21.3727078 5.9474092,21.5250338 C4.11862291,22.0120355 2.29263936,22.5162566 0.463853074,23.0036998 C0.315658323,23.0434371 0.154851253,23.0089981 0,22.9445355 C0.374515813,22.4394313 6.81135307,20.8799663 7.67354522,21.1289862" id="Fill-52"></path>
                <path d="M48.9188508,39.3269193 C49.2193663,38.8669314 53.3082608,37.2876262 53.7148166,37.4159193 C53.7008962,37.5389346 53.6857476,37.6708817 53.6648671,37.8515478 C52.052155,38.2859582 50.5639072,39.0524693 48.9188508,39.3269193" id="Fill-54"></path>
                <path d="M119.899144,17.0948149 C120.242975,16.9524751 120.583374,16.7934507 120.931017,16.6719666 C121.290857,16.5463112 121.660608,16.4727951 122.020449,16.3455756 C122.317393,16.2402545 122.540388,16.3351478 122.776724,16.7710309 C122.494264,17.0614459 122.232008,17.3315266 121.963652,17.607864 C121.59352,17.4577033 121.238253,17.3137993 120.836101,17.1511252 C120.81628,17.4796017 120.805988,17.6537464 120.788453,17.9431186 C120.557835,18.0307123 120.30244,18.1276911 120.046663,18.2246699 C120.005876,17.8424901 119.976906,17.5760591 119.948317,17.3096281 C119.931926,17.2381975 119.915535,17.1662455 119.899144,17.0948149" id="Fill-56"></path>
                <path d="M31.653374,19.4933248 C29.7359785,19.5501856 27.8189131,19.6065988 25.9015176,19.6634596 C25.9005268,19.5927193 25.8992059,19.5219791 25.8982151,19.450791 C27.8129687,19.2358838 29.7290433,19.1235053 31.6487506,19.2170794 C31.6504018,19.3093105 31.6517228,19.4010937 31.653374,19.4933248" id="Fill-58"></path>
                <path d="M21.1022494,57.5074383 C20.6070101,57.7136903 20.4975117,57.1331153 20.1430562,57.0837047 C20.1480485,56.3200856 20.6685822,56.0535676 20.9984089,55.6332029 C21.0330224,55.6470528 21.0676359,55.6605284 21.1022494,55.6743784 L21.1022494,57.5074383 Z" id="Fill-60"></path>
                <path d="M37.4127439,19.1838631 L43.1140022,19.1838631 C43.1304251,19.2615577 43.1468479,19.3392523 43.1636919,19.416947 C43.0095697,19.494162 42.853342,19.6437962 42.7017464,19.6385206 C40.980294,19.5790506 39.2601049,19.4960804 37.5394947,19.4159878 C37.4952793,19.4140694 37.4523272,19.3728241 37.408533,19.3498035 C37.4102174,19.2946499 37.4114806,19.2390167 37.4127439,19.1838631" id="Fill-62"></path>
                <path d="M25.8982151,40.0184798 C26.6318034,39.2790522 27.5231959,38.8649092 28.4467751,38.3677261 C28.55317,38.5777066 28.6331897,38.7347953 28.7757946,39.0156509 C27.8039354,39.4636446 26.9112018,39.8746141 26.0184682,40.2861124 C25.9786818,40.1967252 25.9384485,40.107867 25.8982151,40.0184798" id="Fill-64"></path>
                <path d="M66.1843275,22.0848202 C66.9785959,21.9289304 67.5025656,22.5877674 68.1027138,23.0206357 C67.3672229,23.0144382 66.734979,22.6783455 66.1843275,22.0848202" id="Fill-66"></path>
                <path d="M37.408533,34.5205842 C38.0910517,34.1108174 38.6401059,33.6150309 39.3269193,33.5717603 C39.1699994,34.0466936 38.0243194,34.6149452 37.408533,34.5205842" id="Fill-68"></path>
                <path d="M23.9798288,19.1838631 C23.0228499,19.6255715 22.0629648,19.3416503 21.1064011,19.3200685 C21.1051556,19.2745068 21.1034949,19.2294247 21.1022494,19.1838631 L23.9798288,19.1838631 Z" id="Fill-70"></path>
                <path d="M22.0614425,51.809697 C21.9428108,52.4232668 21.5041101,52.8478509 21.1022494,52.7384116 C21.2019541,52.1481484 21.6501183,51.7139376 22.0614425,51.809697" id="Fill-72"></path>
                <path d="M57.5515892,21.781153 C57.7952761,21.4878162 57.9484013,21.303356 58.1153528,21.1022494 C58.2511953,21.1436404 58.3763224,21.1818822 58.5107823,21.2223735 C58.4022466,21.4963644 58.3109936,21.725365 58.1775707,22.0614425 C58.0227172,21.9921575 57.8343351,21.9080256 57.5515892,21.781153" id="Fill-74"></path>
                <path d="M21.1022494,45.2877945 C20.893022,45.525756 20.683482,45.7637176 20.4395398,46.0412713 C20.3300785,45.8698411 20.2603361,45.7600441 20.1430562,45.5763688 C20.4679997,45.3886118 20.7328959,45.2355491 20.9981048,45.0820782 C21.0328197,45.1506503 21.0675345,45.2192224 21.1022494,45.2877945" id="Fill-76"></path>
                <path d="M67.1435207,15.0916409 C66.8184117,15.5188839 66.4893455,15.4089152 66.1843275,14.7713944 C66.3828023,14.1658239 66.7280022,14.2809938 67.1435207,15.0916409" id="Fill-78"></path>
                <path d="M123.735917,16.9410617 C124.285561,16.5036208 124.958123,16.4920127 125.58023,16.3062836 C125.604921,16.3893729 125.629612,16.4730732 125.654303,16.5561626 L123.844343,17.2654767 L123.735917,16.9410617 Z" id="Fill-80"></path>
                <path d="M17.2654767,51.1114946 C17.6693214,50.9958438 17.8769562,50.9363663 18.2246699,50.8372371 C18.1253231,51.2318658 18.0632314,51.4801609 18.0006429,51.7284559 C17.9405381,51.751114 17.8799366,51.7737721 17.8198318,51.7964302 C17.6732953,51.6156374 17.5272555,51.4348446 17.2654767,51.1114946" id="Fill-82"></path>
                <path d="M21.1022494,56.3769072 C21.3777184,56.1288684 21.6531875,55.8808296 21.9282442,55.6332029 C21.9727811,55.6772895 22.017318,55.7213761 22.0614425,55.7654627 C21.8123657,56.0411072 21.5628765,56.3167516 21.3133873,56.592396 C21.2428705,56.5207037 21.1727661,56.4485994 21.1022494,56.3769072" id="Fill-84"></path>
                <path d="M48.9167576,39.6590189 C48.6378433,39.7080425 48.3584057,39.7574923 48.0794914,39.8065158 C48.0391979,39.7481139 47.9994278,39.6892856 47.9596576,39.6304574 C48.0925737,39.5277211 48.2082211,39.3704195 48.3641619,39.3358899 C48.5289987,39.3000814 48.7320358,39.3810768 48.9188508,39.4104909 C48.9178042,39.4936178 48.9172809,39.5763184 48.9167576,39.6590189" id="Fill-86"></path>
                <path d="M43.125155,19.6634596 C42.8182695,19.6085216 42.5113841,19.5535835 42.2044987,19.4981677 C42.5828184,19.0443316 42.8882939,19.1288884 43.1636919,19.454695 C43.1510029,19.5244425 43.1378439,19.5937122 43.125155,19.6634596" id="Fill-88"></path>
                <path d="M33.5717603,14.5845319 L32.6145972,14.5845319 C32.6140897,14.5188272 32.6130747,14.453602 32.6125672,14.3878973 L33.5661777,14.3878973 C33.5682078,14.453602 33.5697303,14.5188272 33.5717603,14.5845319" id="Fill-90"></path>
                <path d="M35.489774,62.6663507 C34.7705095,62.7498198 34.0512451,62.8332889 33.3096201,62.9195637 C33.3006759,63.052483 33.2943404,63.1489284 33.2835328,63.3067481 C32.4356952,63.234151 31.616181,63.1640089 30.6941809,63.0847483 C30.7586538,62.7582369 30.8015115,62.5411471 30.8395245,62.3475549 C32.4558197,62.4289198 33.9729832,62.5050239 35.4901467,62.5814788 C35.4901467,62.6098864 35.489774,62.6379432 35.489774,62.6663507" id="Fill-92"></path>
                <path d="M30.6941809,55.6332029 C31.1962376,54.681254 32.194858,54.3025643 33.0407741,53.7530859 C33.163084,53.6738169 33.3849997,53.7422765 33.5717603,53.7422765 C33.506211,54.2730186 31.471618,55.6227538 30.6941809,55.6332029" id="Fill-94"></path>
                <path d="M66.1955521,51.7964302 C66.0297333,51.2422144 67.7367753,50.1306809 68.9581043,49.8780439 C69.191566,50.119307 69.0149431,50.5846002 68.5912359,50.8248293 C68.4897716,50.8820431 68.3685782,50.9199559 68.2600678,50.9713104 C67.8504529,51.1653549 67.4525815,51.3738752 67.0302835,51.5513759 C66.7874269,51.6537404 66.5065213,51.7075076 66.1955521,51.7964302" id="Fill-96"></path>
                <path d="M42.2044987,49.8780439 C42.0008058,50.6215943 38.7143885,52.6181566 37.408533,52.7556234 C37.5532959,52.6058593 37.6814047,52.4310612 37.847092,52.3124797 C38.0926339,52.1363641 38.3659326,52.0006541 38.6264204,51.8460588 C39.6401879,51.2456847 40.6513933,50.6413579 41.669431,50.0484501 C41.8035182,49.9702741 41.9700596,49.9505105 42.2044987,49.8780439" id="Fill-98"></path>
                <path d="M63.5403308,51.9344224 C63.7989804,51.8709009 63.9815085,51.6488619 64.2659412,51.9521626 C63.3717174,52.4031078 62.4484365,52.7444642 61.3188906,52.7556234 C61.0684261,52.6614857 60.8183708,52.5676342 60.4291686,52.4214203 C60.8265559,52.2852212 61.1445477,52.1759184 61.437984,52.0751997 C61.6528433,52.1590366 61.8050864,52.2185522 61.9479167,52.274062 C62.4885435,52.1587505 63.0144372,52.0465864 63.5403308,51.9344224" id="Fill-100"></path>
                <path d="M37.408533,51.9624489 C36.6145904,52.7280223 35.6039072,53.1228228 34.7064237,53.7148166 C34.4139592,53.4144698 34.5259998,53.1721211 34.7589669,53.0453541 C35.5633408,52.6095407 36.3843277,52.2101831 37.2010647,51.8012973 C37.2331315,51.7851408 37.284902,51.8137255 37.3274001,51.8215966 C37.3544444,51.8684093 37.3814887,51.9156362 37.408533,51.9624489" id="Fill-102"></path>
                <path d="M78.6538385,34.5398498 C77.5245799,35.5963212 76.1827643,35.8877251 74.8170659,36.4493398 C75.0228561,35.9131567 78.0937867,34.4015654 78.6538385,34.5398498" id="Fill-104"></path>
                <path d="M60.4291686,54.8303885 C60.1206858,55.0960756 59.8563523,55.3241063 59.4980961,55.6332029 C59.5917376,55.2451323 59.6412298,55.039591 59.6935341,54.8235894 C59.6330749,54.5971278 59.5754277,54.3816493 59.4699755,53.9862567 C59.7593363,53.8884546 60.0037042,53.8063426 60.2745054,53.7148166 C60.3355271,54.1562337 60.3754583,54.443364 60.4291686,54.8303885" id="Fill-106"></path>
                <path d="M77.3552262,39.3269193 C77.6948992,39.4714013 77.7930182,39.7159093 77.5885051,40.0095042 C77.0734789,40.7490483 76.5328393,41.4645121 75.9988986,42.185996 C75.9756495,42.2174857 75.9165416,42.2128549 75.7762591,42.1401508 C76.2979842,41.2107425 76.8197093,40.280871 77.3552262,39.3269193" id="Fill-108"></path>
                <path d="M65.2251344,52.5272177 C65.6460924,51.9790891 66.6872842,51.6275761 67.1435207,51.8794294 C66.4565439,52.7829338 65.9116345,52.9668022 65.2251344,52.5272177" id="Fill-110"></path>
                <path d="M63.3067481,39.3269193 C63.6911914,38.6620001 64.8960592,38.1334314 65.2251344,38.4743077 C64.6324509,38.8682092 64.072849,39.2629524 63.3067481,39.3269193" id="Fill-112"></path>
                <path d="M42.2044987,60.5856786 C40.9423973,60.8534929 39.6802959,61.1209273 38.4181945,61.3883618 C38.4013717,61.306308 38.3845489,61.2242543 38.3677261,61.1422005 C39.639217,60.9047765 40.9107079,60.6669725 42.1821987,60.4291686 C42.1896321,60.481212 42.1970654,60.5336352 42.2044987,60.5856786" id="Fill-114"></path>
                <path d="M62.4610335,52.7556234 C62.4288449,52.6620981 62.3958379,52.5663384 62.3475549,52.4255716 C62.6536197,52.2091546 62.9389528,52.0074208 63.2373796,51.7964302 C63.4062335,52.1526564 63.2371068,52.2793784 63.0472484,52.3958861 C62.8696654,52.5047329 62.6923552,52.6135798 62.4610335,52.7556234" id="Fill-116"></path>
                <path d="M63.3067481,52.1656479 C63.0250895,52.3621224 62.7434309,52.5591489 62.4621608,52.7556234 C62.4240884,52.6546267 62.3856274,52.5536299 62.3475549,52.4526332 C62.6218321,52.2340828 62.8957208,52.0149806 63.169998,51.7964302 C63.2154518,51.9195028 63.2612942,52.0425753 63.3067481,52.1656479" id="Fill-118"></path>
            </g>
        </g>
    </g>
</svg>