<?xml version="1.0" encoding="UTF-8" standalone="no"?>
<svg width="87px" height="114px" viewBox="0 0 87 114" version="1.1" xmlns="http://www.w3.org/2000/svg" xmlns:xlink="http://www.w3.org/1999/xlink">
    <!-- Generator: Sketch 46.2 (44496) - http://www.bohemiancoding.com/sketch -->
    <title>logo ministere</title>
    <desc>Created with Sketch.</desc>
    <defs></defs>
    <g id="Symbols" stroke="none" stroke-width="1" fill="none" fill-rule="evenodd">
        <g id="footer-/-white" transform="translate(-433.000000, -205.000000)" fill="#FEFEFE">
            <g id="logo-ministere" transform="translate(433.000000, 205.000000)">
                <path d="M3.02737672,43.9059468 C3.21412319,43.8632849 3.36746458,43.8379293 3.53770975,43.8379293 C4.12410977,43.8379293 4.55797334,44.3056004 4.55797334,44.9519685 C4.55797334,45.614838 4.08989974,46.0482991 3.39362518,46.0482991 C3.28254323,46.0482991 3.11229806,46.0394448 3.01892483,46.022541 C3.01892483,45.3170096 3.02737672,44.4074255 3.02737672,43.9059468 M3.2567851,46.5324716 C3.29099512,46.5324716 3.33325456,46.5324716 3.38477083,46.5240197 C3.69064867,46.974787 4.01383275,47.5104757 4.30280682,48.0119544 C4.47264952,48.3009284 4.77007547,48.810859 5.05059765,48.9980079 C5.22889223,49.1167368 5.40799176,49.1589963 5.72232149,49.1589963 C5.98553742,49.1589963 6.20689638,49.142495 6.42785288,49.0909787 L6.42785288,48.8535209 C6.2660596,48.810859 6.18999261,48.7681971 6.07086124,48.6410163 C5.85835663,48.4285117 5.58628634,48.0538113 5.31461852,47.6207527 C5.0167901,47.1530816 4.76162358,46.7449762 4.4384395,46.3372732 C5.22084282,46.0482991 5.67965958,45.4788029 5.67965958,44.7817234 C5.67965958,44.3394079 5.46715497,43.8970925 5.14397088,43.6680866 C4.85499682,43.4640338 4.50685954,43.3791125 3.92850894,43.3791125 C3.72485869,43.3791125 3.46124029,43.3871619 3.00202105,43.4044682 C2.47518672,43.4302263 2.33915157,43.4302263 1.89683612,43.4302263 C1.72739589,43.4302263 1.55715072,43.4386782 1.38690556,43.4213719 L1.38690556,43.6596347 C1.67628209,43.6934422 1.85457668,43.7872179 1.91373989,44.0166263 C1.97370805,44.2544866 2.0075156,44.5096531 2.0075156,45.5468205 L2.0075156,46.974787 C2.0075156,47.8163535 1.99906371,47.96889 1.97370805,48.2240565 C1.95680427,48.4196573 1.89683612,48.5725963 1.80306041,48.6832757 C1.70123529,48.7939552 1.59941016,48.8362147 1.38690556,48.8535209 L1.38690556,49.0909787 L1.59095827,49.0829293 C1.81191477,49.0740749 2.11819508,49.0829293 2.50899427,49.0829293 C2.90864782,49.0829293 3.21412319,49.0740749 3.43548215,49.0829293 L3.63108298,49.0909787 L3.63108298,48.8535209 C3.3505608,48.8277628 3.19762188,48.7174858 3.11229806,48.4961268 C3.04468296,48.3178322 3.03623108,48.1222314 3.02737672,47.6630122 C3.02737672,47.4336038 3.01892483,47.2041954 3.01892483,46.974787 L3.01892483,46.5240197 C3.10384618,46.5240197 3.17186375,46.5324716 3.2567851,46.5324716" id="Fill-1"></path>
                <polygon id="Fill-3" points="8.18737491 43.7544166 8.517401 43.9512248 9.69020104 42.8766276 8.883247 42.7293233"></polygon>
                <path d="M7.31679023,48.3749831 C7.28861727,48.6840807 7.14855742,48.8668024 6.8326178,48.8949754 L6.8326178,49.0909787 C7.16908343,49.0772947 7.506354,49.0700502 7.84362456,49.0700502 C8.18049266,49.0700502 8.51736076,49.0845392 8.85463132,49.0909787 C9.093699,49.0982232 9.32471727,49.1123097 9.56378495,49.1123097 C9.95015696,49.1123097 10.0205894,49.0909787 10.0837773,48.9859338 C10.1606492,48.852716 10.273341,48.4454155 10.3719464,47.9535961 L10.0978638,47.8972502 C9.93607048,48.473186 9.66923231,48.6422237 8.91097724,48.6422237 C8.69324051,48.6422237 8.53184971,48.6349792 8.42640235,48.6068063 C8.25776706,48.5645468 8.20866562,48.466344 8.20866562,48.1713328 C8.20866562,47.7286149 8.20182361,47.2862994 8.20182361,46.843984 C8.32819946,46.843984 8.45417283,46.837142 8.58135362,46.837142 C9.30378878,46.837142 9.49375502,46.9357473 9.51468351,47.3354009 L9.76783767,47.3354009 C9.76059319,47.223514 9.75375119,47.0130217 9.75375119,46.6544202 C9.75375119,46.3038681 9.75375119,46.0716424 9.76783767,45.9593531 L9.51468351,45.9593531 C9.47282654,46.3384806 9.24824781,46.443928 8.51736076,46.443928 C8.39138738,46.443928 8.30727098,46.443928 8.20182361,46.4366835 L8.20182361,45.6220825 C8.20182361,45.2151845 8.20866562,45.1234211 8.2227521,44.849741 C8.39138738,44.8428989 8.59463516,44.8356545 8.74958643,44.8356545 C9.5851159,44.8356545 9.81653664,44.9833613 9.86644302,45.5238796 L10.1187922,45.5238796 C10.1051082,45.3552443 10.1119502,45.1938535 10.1119502,45.0252182 C10.1119502,44.821568 10.1187922,44.6110757 10.1187922,44.4074255 L6.8326178,44.4074255 L6.8326178,44.6038313 C7.07088054,44.6324067 7.19725639,44.7165231 7.26044431,44.8992449 C7.31679023,45.0465492 7.33812118,45.2151845 7.33812118,45.5870675 L7.33812118,47.574871 C7.33812118,47.9395096 7.33812118,48.1644908 7.31679023,48.3749831" id="Fill-5"></path>
                <path d="M12.6609591,46.6404947 L12.8155079,46.9986938 C12.9068688,47.0059383 12.9418837,47.0059383 13.0119137,47.0059383 C13.938804,47.0059383 14.6201871,46.4436865 14.6201871,45.6781869 C14.6201871,44.8639884 14.0233229,44.3725715 13.0260001,44.3725715 C12.6682036,44.3725715 12.3100045,44.3935 11.9518055,44.407184 C11.7272267,44.4144285 11.5585914,44.4144285 11.4390576,44.4144285 C11.1372045,44.4144285 11.2003924,44.4144285 11.1158735,44.407184 L11.1158735,44.6039923 C11.3549412,44.6321652 11.481317,44.7166841 11.544505,44.8994059 C11.6004484,45.0467102 11.6213769,45.214943 11.6213769,45.5872285 L11.6213769,47.3428063 C11.6213769,48.038276 11.6213769,48.1642493 11.6004484,48.3751441 C11.5722754,48.6838392 11.4318131,48.866561 11.1158735,48.8951364 L11.1158735,49.0911397 L11.2845088,49.0842977 C11.4603886,49.0774557 11.7199822,49.0774557 12.0496059,49.0774557 C12.3868764,49.0774557 12.6396281,49.0774557 12.8219474,49.0842977 L12.9909852,49.0911397 L12.9909852,48.8951364 C12.75232,48.8738054 12.6255416,48.7824446 12.5627562,48.5997228 C12.4927263,48.417001 12.4854818,48.2624522 12.4854818,47.3428063 L12.4854818,46.1136604 C12.4854818,45.6781869 12.4995683,45.243116 12.4995683,44.8076425 C12.6114552,44.786714 12.68229,44.779872 12.7664064,44.779872 C13.3000828,44.779872 13.6860523,45.179928 13.6860523,45.7417773 C13.6860523,46.2754537 13.3210113,46.5986378 12.6609591,46.6404947" id="Fill-7"></path>
                <path d="M19.3940951,44.7586216 C19.470967,44.6672607 19.5695724,44.6254037 19.7237187,44.6040727 L19.7237187,44.4072645 C19.4431965,44.4217535 19.3445911,44.4217535 18.9863921,44.4217535 C18.6354375,44.4217535 18.5372346,44.4217535 18.2567125,44.4072645 L18.2567125,44.6040727 C18.4386293,44.6254037 18.5440766,44.6954336 18.6217535,44.8218095 C18.698223,44.9413433 18.7195539,45.187253 18.7195539,45.9877675 L18.7195539,46.6824322 C18.7195539,47.4761047 18.7054674,47.6938414 18.614509,47.9956946 C18.4740467,48.4665854 18.0176448,48.7048482 17.5471564,48.7048482 C17.2098858,48.7048482 16.9221191,48.5716303 16.7538863,48.3748221 C16.5357471,48.1220704 16.5079766,47.8902472 16.5079766,46.6824322 C16.5079766,46.2405192 16.5148186,45.8054482 16.5289051,45.3623278 C16.5357471,45.0536327 16.5643226,44.9127679 16.627108,44.807723 C16.6971379,44.6885916 16.8029878,44.6322457 17.020322,44.6040727 L17.020322,44.4072645 L16.8589312,44.414509 C16.675807,44.4217535 16.4166158,44.4217535 16.0789427,44.4217535 C15.7420746,44.4217535 15.4824809,44.4217535 15.3001616,44.414509 L15.1387708,44.4072645 L15.1387708,44.6040727 C15.4333795,44.6322457 15.5665973,44.7376931 15.6088568,44.9904448 C15.6720447,45.3413993 15.6511162,45.7136849 15.6511162,46.0718839 C15.6511162,46.3181961 15.6370297,46.6474172 15.6370297,47.4056723 C15.6370297,48.1498409 15.8265935,48.5643859 16.3184129,48.8807279 C16.6343525,49.0912202 16.9712206,49.1753366 17.413536,49.1753366 C18.1158477,49.1753366 18.649524,48.9366714 18.9727081,48.4665854 C19.1759559,48.1711718 19.2532303,47.8765632 19.2532303,47.3847438 C19.2532303,46.9001689 19.2463883,46.4159965 19.2463883,46.2546057 C19.2463883,45.8187298 19.2532303,45.587309 19.2673167,45.2854559 C19.2818057,45.0045312 19.3168207,44.8640689 19.3940951,44.7586216" id="Fill-9"></path>
                <path d="M21.7668619,47.3005872 C21.7668619,46.9774031 21.7668619,46.9423881 21.7741064,46.7528243 C21.9564257,46.7387379 22.0828015,46.7314934 22.2023354,46.7314934 C22.8623876,46.7314934 23.2833721,47.1460384 23.2833721,47.7992485 C23.2833721,48.3892708 22.946504,48.7192969 22.3496397,48.7192969 C22.0546286,48.7192969 21.8863958,48.6351805 21.8300498,48.4588982 C21.7809484,48.3188384 21.7668619,48.1079437 21.7668619,47.7151321 L21.7668619,47.3005872 Z M21.8018769,44.7867543 C21.9282527,44.7867543 22.0546286,44.7726678 22.1814069,44.7726678 C22.7987972,44.7726678 23.1642407,45.0608369 23.1642407,45.5450093 C23.1642407,46.0509152 22.7710267,46.3386818 22.0828015,46.3386818 C21.9491812,46.3386818 21.8509783,46.3314374 21.7741064,46.3245954 C21.7809484,46.0295842 21.7950349,45.2431562 21.8018769,44.7867543 L21.8018769,44.7867543 Z M21.1486667,49.0702515 C21.5277942,49.0702515 21.9145687,49.0980219 22.2932938,49.0980219 C23.0096919,49.0980219 23.3823799,49.0139055 23.7120035,48.7611538 C24.0279431,48.5228911 24.1824919,48.2061466 24.1824919,47.7855645 C24.1824919,47.0900949 23.7888754,46.6618659 23.0447069,46.5145616 C23.7120035,46.3459263 24.0492741,45.9804828 24.0492741,45.439562 C24.0492741,44.7094799 23.4592518,44.3999798 22.8128836,44.3999798 C22.4059856,44.3999798 21.7950349,44.4217132 21.3877344,44.4217132 C20.937772,44.4217132 20.7486107,44.4217132 20.4254266,44.4072243 L20.4254266,44.6040325 C20.6644943,44.6322055 20.7908701,44.7167243 20.8609001,44.8994461 C20.93093,45.0817654 20.937772,45.3622876 20.937772,46.0154978 L20.937772,47.3424441 C20.937772,48.0383162 20.93093,48.1642896 20.910404,48.3747818 C20.882231,48.6979659 20.7554527,48.8666012 20.4254266,48.8947742 L20.4254266,49.0911799 L20.5099455,49.0843379 C20.7063512,49.0702515 20.9945204,49.0702515 21.1486667,49.0702515 L21.1486667,49.0702515 Z" id="Fill-11"></path>
                <path d="M27.1163031,49.0981829 C27.2921829,49.1054274 27.4745022,49.1122694 27.6499795,49.1122694 C28.0013365,49.1122694 28.0854529,49.0909385 28.1486409,48.9927356 C28.2259153,48.8736042 28.3591331,48.3676984 28.4364075,47.9608003 L28.1695693,47.8903679 C28.0995394,48.1853791 27.9522351,48.3962738 27.7554268,48.5013187 C27.5795471,48.599924 27.3690548,48.6421835 26.9830853,48.6421835 C26.6812322,48.6421835 26.5335254,48.606766 26.4566534,48.5298941 C26.3648901,48.4312887 26.3580481,48.3117549 26.3580481,47.3357631 L26.3580481,46.1629631 C26.3580481,45.3624486 26.3648901,45.2501592 26.3789766,45.1306254 C26.421236,44.7937573 26.5757848,44.603791 26.9339839,44.603791 L26.9339839,44.4073852 L26.7585066,44.4142273 C26.5757848,44.4214717 26.3089466,44.4214717 25.9648341,44.4214717 C25.613477,44.4214717 25.3538833,44.4214717 25.164722,44.4142273 L24.9884398,44.4073852 L24.9884398,44.603791 C25.227105,44.6323664 25.3607253,44.7164829 25.4243157,44.8992046 C25.4939432,45.0887684 25.5011876,45.2151442 25.5011876,46.1629631 L25.5011876,46.9143761 C25.5011876,47.2794172 25.4939432,47.5603418 25.4939432,47.9112964 C25.4939432,48.4240443 25.4589282,48.606766 25.3325524,48.7544728 C25.2556804,48.8458337 25.164722,48.8808487 24.9884398,48.8949352 L24.9884398,49.0909385 C25.213421,49.0772544 25.4520862,49.0704124 25.8098828,49.0704124 C26.2876157,49.0704124 26.6812322,49.0844989 27.1163031,49.0981829" id="Fill-13"></path>
                <path d="M30.2751761,45.1306254 C30.303349,44.8146857 30.4578978,44.625122 30.759751,44.603791 L30.759751,44.4073852 L30.5915181,44.4142273 C30.4156384,44.4214717 30.1556422,44.4214717 29.8260186,44.4214717 C29.4891505,44.4214717 29.2359963,44.4214717 29.0532746,44.4142273 L28.8846393,44.4073852 L28.8846393,44.603791 C29.1233045,44.6323664 29.2569248,44.7164829 29.3201127,44.8992046 C29.3764587,45.0465089 29.3905451,45.2151442 29.3905451,45.5870273 C29.3905451,45.79108 29.3973871,45.9806438 29.3973871,46.1629631 L29.3973871,47.3426051 C29.3973871,48.0384772 29.3905451,48.1644506 29.3688117,48.3749428 C29.3410412,48.6981269 29.2150679,48.8667622 28.8846393,48.8949352 L28.8846393,49.0909385 L29.0532746,49.0844989 C29.2359963,49.0772544 29.4891505,49.0772544 29.8260186,49.0772544 C30.1556422,49.0772544 30.4156384,49.0772544 30.5915181,49.0844989 L30.759751,49.0909385 L30.759751,48.8949352 C30.5210857,48.8736042 30.3943074,48.7826458 30.331522,48.599924 C30.2610896,48.4172023 30.2542476,48.2626535 30.2542476,47.3426051 L30.2542476,46.1629631 C30.2542476,45.5310838 30.2542476,45.3342756 30.2751761,45.1306254" id="Fill-15"></path>
                <path d="M33.8411885,44.8010822 C34.7680788,44.8010822 35.4917214,45.7489011 35.4917214,46.9563136 C35.4917214,47.9745648 34.8807707,48.7050494 34.0166658,48.7050494 C33.0966174,48.7050494 32.3733773,47.7431441 32.3733773,46.5212426 C32.3733773,45.5170779 32.984328,44.8010822 33.8411885,44.8010822 M33.8343465,49.1751354 C34.0589252,49.1751354 34.1498836,49.1686958 34.3889513,49.1336809 C34.7117329,49.400519 35.1540484,49.7023722 35.4703904,49.877447 C36.0245928,50.1865446 36.6081755,50.3551799 37.1555359,50.3551799 C37.6328663,50.3551799 38.0610953,50.228804 38.4056103,49.9901388 L38.3142494,49.7446316 C38.0333248,49.8846915 37.7942571,49.9478794 37.5068929,49.9478794 C37.0432465,49.9478794 36.5514271,49.7651576 35.8354315,49.3300866 C35.5895218,49.1823798 35.3367701,49.04232 35.0840184,48.9155417 C35.8849354,48.5086436 36.3900363,47.6304523 36.3900363,46.640374 C36.3900363,45.2502397 35.4277285,44.3229469 33.9812483,44.3229469 C32.4929111,44.3229469 31.4746599,45.3552846 31.4746599,46.8516712 C31.4746599,48.248245 32.4156367,49.1751354 33.8343465,49.1751354" id="Fill-17"></path>
                <path d="M41.2562308,44.7586216 C41.3331027,44.6672607 41.4317081,44.6254037 41.5858544,44.6040727 L41.5858544,44.4072645 C41.3053322,44.4217535 41.2067269,44.4217535 40.8485278,44.4217535 C40.4975733,44.4217535 40.3993704,44.4217535 40.1180433,44.4072645 L40.1180433,44.6040727 C40.300765,44.6254037 40.4066149,44.6954336 40.4838893,44.8218095 C40.5607612,44.9413433 40.5820921,45.187253 40.5820921,45.9877675 L40.5820921,46.6824322 C40.5820921,47.4761047 40.5676032,47.6938414 40.4766448,47.9956946 C40.33578,48.4665854 39.879378,48.7048482 39.4092921,48.7048482 C39.0720215,48.7048482 38.7842549,48.5716303 38.6156196,48.3748221 C38.3978829,48.1220704 38.3701124,47.8902472 38.3701124,46.6824322 C38.3701124,46.2405192 38.3765519,45.8054482 38.3910409,45.3623278 C38.3978829,45.0536327 38.4260558,44.9127679 38.4892438,44.807723 C38.5592737,44.6885916 38.664721,44.6322457 38.8824578,44.6040727 L38.8824578,44.4072645 L38.721067,44.414509 C38.5383452,44.4217535 38.2787515,44.4217535 37.9414809,44.4217535 C37.6046128,44.4217535 37.3450191,44.4217535 37.1622974,44.414509 L37.0005041,44.4072645 L37.0005041,44.6040727 C37.2955152,44.6322457 37.4291356,44.7376931 37.4709925,44.9904448 C37.533778,45.3413993 37.5136544,45.7136849 37.5136544,46.0718839 C37.5136544,46.3181961 37.4991655,46.6474172 37.4991655,47.4056723 C37.4991655,48.1498409 37.6887292,48.5643859 38.1805486,48.8807279 C38.4960858,49.0912202 38.8329539,49.1753366 39.2756718,49.1753366 C39.9779834,49.1753366 40.5116597,48.9366714 40.8348438,48.4665854 C41.0384941,48.1711718 41.115366,47.8765632 41.115366,47.3847438 C41.115366,46.9001689 41.1081215,46.4159965 41.1081215,46.2546057 C41.1081215,45.8187298 41.115366,45.587309 41.1294525,45.2854559 C41.143539,45.0045312 41.1789564,44.8640689 41.2562308,44.7586216" id="Fill-19"></path>
                <path d="M44.3099381,49.0910994 C44.5490058,49.0983439 44.780829,49.1124304 45.0194942,49.1124304 C45.4058662,49.1124304 45.4758961,49.0910994 45.539084,48.9856521 C45.6163584,48.8528367 45.7282453,48.4455362 45.8268507,47.9537168 L45.5531705,47.8973709 C45.3917797,48.4733067 45.1245391,48.6423445 44.366284,48.6423445 C44.1485473,48.6423445 43.9871565,48.6351 43.8817091,48.606927 C43.7130738,48.5642651 43.6643749,48.4664647 43.6643749,48.1714536 C43.6643749,47.7287356 43.6571304,47.2864202 43.6571304,46.8441047 C43.7835062,46.8441047 43.9094796,46.8368602 44.0362579,46.8368602 C44.759498,46.8368602 44.9490618,46.9354656 44.9699903,47.3355216 L45.222742,47.3355216 C45.2159,47.2232323 45.2086555,47.0131425 45.2086555,46.654541 C45.2086555,46.3035864 45.2086555,46.0717632 45.222742,45.9594738 L44.9699903,45.9594738 C44.9277308,46.3386013 44.7031521,46.4436462 43.9734725,46.4436462 C43.8466941,46.4436462 43.7625777,46.4436462 43.6571304,46.4364018 L43.6571304,45.6222032 C43.6571304,45.2153052 43.6643749,45.1235419 43.6780589,44.8498617 C43.8466941,44.8426172 44.0499419,44.8357752 44.2044907,44.8357752 C45.0400202,44.8357752 45.2722459,44.983482 45.3213473,45.5240004 L45.5745015,45.5240004 C45.5600125,45.3553651 45.567257,45.1939743 45.567257,45.025339 C45.567257,44.8216887 45.5745015,44.6111965 45.5745015,44.4071438 L42.2875221,44.4071438 L42.2875221,44.603952 C42.5265898,44.632125 42.6525632,44.7166438 42.7157511,44.8993656 C42.7724995,45.0466699 42.7934279,45.2153052 42.7934279,45.5871883 L42.7934279,47.5745893 C42.7934279,47.9396304 42.7934279,48.1642091 42.7724995,48.3751038 C42.743924,48.683799 42.6034617,48.8665207 42.2875221,48.8950961 L42.2875221,49.0910994 C42.6247927,49.0774154 42.9620632,49.070171 43.2989313,49.070171 C43.6357994,49.070171 43.9734725,49.0842574 44.3099381,49.0910994" id="Fill-21"></path>
                <path d="M48.4407781,43.4215329 L48.4407781,43.6593932 C48.7297522,43.6936032 48.8826911,43.7954283 48.959563,44.0167873 C49.0267756,44.1954843 49.0521313,44.3987321 49.0521313,44.8494995 L49.0521313,46.9745455 C49.0521313,47.8165145 49.0521313,47.969051 49.0267756,48.2242175 C48.9929681,48.5981129 48.8235279,48.8194719 48.4407781,48.8536819 L48.4407781,49.0911397 L48.6444283,49.0826878 C48.8653848,49.0742359 49.1712627,49.0742359 49.5797706,49.0742359 C49.9790217,49.0742359 50.2933514,49.0742359 50.505856,49.0826878 L50.7099087,49.0911397 L50.7099087,48.8536819 C50.1577187,48.8194719 50.1235087,48.410964 50.1066049,47.9436953 C50.098153,47.7231413 50.098153,47.5190886 50.098153,47.3319396 L50.098153,46.3796936 C50.2603488,46.3712417 50.3191095,46.3712417 50.4720484,46.3712417 C51.3647288,46.3712417 51.5603296,46.4730669 51.6198953,46.9833999 L51.9253707,46.9833999 C51.9253707,46.6686677 51.9084669,46.3458861 51.9084669,46.0307514 C51.9084669,45.7932936 51.9253707,45.546579 51.9253707,45.3087187 L51.6198953,45.3087187 C51.5768309,45.7675355 51.3393731,45.9035706 50.5481154,45.9035706 C50.4036284,45.9035706 50.3022057,45.8951187 50.098153,45.8866668 C50.098153,44.960179 50.098153,44.5520735 50.1146543,43.9656735 C50.3275614,43.9487697 50.5139054,43.9403178 50.7099087,43.9403178 C51.6706066,43.9403178 52.0275982,44.1781781 52.0360501,44.7899338 L52.3507823,44.7899338 C52.3334761,44.6027848 52.3334761,44.5520735 52.3334761,44.2119857 C52.3334761,43.854994 52.3334761,43.5829237 52.3507823,43.4215329 L48.4407781,43.4215329 Z" id="Fill-23"></path>
                <path d="M54.5106824,44.8077632 C54.6652312,44.7727483 54.7912045,44.7514173 54.9312644,44.7514173 C55.4166442,44.7514173 55.7748433,45.1377893 55.7748433,45.6714657 C55.7748433,46.2192285 55.3884713,46.5774275 54.812133,46.5774275 C54.7207721,46.5774275 54.5811148,46.5705855 54.5038404,46.5560966 C54.5038404,45.9737213 54.5106824,45.2223082 54.5106824,44.8077632 M54.7002461,46.9774836 C54.7276141,46.9774836 54.7626291,46.9774836 54.805291,46.9706416 C55.0580427,47.3425246 55.3252834,47.7852425 55.5635461,48.1997875 C55.7040084,48.4384527 55.9503206,48.8594372 56.1817413,49.013986 C56.3294481,49.1121889 56.4767524,49.1476064 56.7367486,49.1476064 C56.9540829,49.1476064 57.1368046,49.1339223 57.3191239,49.0912604 L57.3191239,48.8948547 C57.1859061,48.8594372 57.1231206,48.8244223 57.0245153,48.7193774 C56.8494404,48.5439001 56.6240568,48.2344 56.3998805,47.8766034 C56.1531659,47.4902314 55.9434786,47.1529609 55.6758355,46.8160928 C56.3218012,46.5774275 56.7013312,46.1069391 56.7013312,45.5310033 C56.7013312,45.1659623 56.5258539,44.8009212 56.2586132,44.610955 C56.0203505,44.4431247 55.7321814,44.3726923 55.2544485,44.3726923 C55.0866181,44.3726923 54.8688814,44.3795343 54.4897539,44.3936207 C54.053878,44.4145492 53.9415886,44.4145492 53.5765475,44.4145492 C53.4364877,44.4145492 53.2960254,44.4217937 53.1551606,44.4073048 L53.1551606,44.604113 C53.3942282,44.632286 53.5411301,44.7095604 53.590634,44.8995266 C53.639333,45.0955299 53.6679084,45.3064246 53.6679084,46.1628826 L53.6679084,47.3425246 C53.6679084,48.0383967 53.6610664,48.1643701 53.639333,48.3748623 C53.6260514,48.5366556 53.5765475,48.662629 53.4996756,48.7543923 C53.4151567,48.8457532 53.3306378,48.8807682 53.1551606,48.8948547 L53.1551606,49.0912604 L53.3237958,49.0844184 C53.5065176,49.077174 53.7588668,49.0844184 54.0820509,49.0844184 C54.412077,49.0844184 54.6652312,49.077174 54.8475505,49.0844184 L55.0093437,49.0912604 L55.0093437,48.8948547 C54.7771181,48.8739262 54.6503397,48.7825653 54.5811148,48.5998435 C54.5243664,48.4521367 54.5179268,48.2907459 54.5106824,47.9112159 C54.5106824,47.7220546 54.5038404,47.5328933 54.5038404,47.3425246 L54.5038404,46.9706416 C54.5742728,46.9706416 54.6298137,46.9774836 54.7002461,46.9774836" id="Fill-25"></path>
                <path d="M58.988734,47.0830517 C59.0937789,46.7389391 59.3465305,46.1207439 59.5292523,45.6434135 L60.0275112,47.0830517 L58.988734,47.0830517 Z M60.133361,48.8949754 L60.133361,49.0909787 L60.2947518,49.0845392 C60.4702291,49.0772947 60.7229808,49.0772947 61.0534094,49.0772947 C61.376191,49.0772947 61.6285402,49.0772947 61.8040175,49.0845392 L61.9734577,49.0909787 L61.9734577,48.8949754 C61.8040175,48.852716 61.7058146,48.7681971 61.6080142,48.5999643 C61.5158484,48.438171 61.396717,48.1854193 61.2280817,47.7567879 L60.2384059,45.222429 C60.140203,44.9696773 59.9924962,44.6251622 59.9297108,44.4074255 L59.4523804,44.4074255 C59.2624141,45.0046922 58.988734,45.7416163 58.8052073,46.1984208 L58.139118,47.8972502 C57.9282233,48.431329 57.7942005,48.6768362 57.6613851,48.79637 C57.5845132,48.8668024 57.5490958,48.8808889 57.4432459,48.8949754 L57.4432459,49.0909787 C57.7100841,49.0845392 57.8086894,49.0772947 58.139118,49.0772947 C58.4759861,49.0772947 58.5745915,49.0845392 58.8406247,49.0909787 L58.8406247,48.8949754 C58.6164484,48.8808889 58.52549,48.789528 58.52549,48.5854753 C58.52549,48.4667464 58.5806285,48.2341183 58.6860759,47.9189836 L58.8269407,47.5112806 L60.175218,47.5112806 C60.2593344,47.7499459 60.3152779,47.9258256 60.3993943,48.1854193 C60.4702291,48.396314 60.4915601,48.4941144 60.4915601,48.5645468 C60.4915601,48.7613551 60.3571348,48.8808889 60.133361,48.8949754 L60.133361,48.8949754 Z" id="Fill-27"></path>
                <path d="M66.6973788,45.4256365 C66.7110628,45.0605954 66.7251493,44.9410616 66.8028261,44.8146857 C66.9006265,44.6460505 67.0064764,44.6110355 67.1960401,44.603791 L67.1960401,44.4073852 C66.9074686,44.4214717 66.8092657,44.4214717 66.4514691,44.4214717 C66.0936725,44.4214717 65.9946647,44.4214717 65.7073005,44.4073852 L65.7073005,44.603791 C65.9668942,44.6392085 66.100917,44.7514978 66.149616,44.9768815 C66.1846309,45.1587983 66.1987174,45.3342756 66.1987174,46.0365872 L66.1987174,47.5671838 C65.6159396,46.8371017 64.9977444,46.1279481 64.3095193,45.2924186 C63.8253468,44.7027988 63.6925315,44.5619341 63.608415,44.4073852 C63.3757869,44.4214717 63.292073,44.4214717 63.0043063,44.4214717 C62.7088927,44.4214717 62.6247763,44.4214717 62.3925506,44.4073852 L62.3925506,44.603791 C62.6034454,44.625122 62.6952087,44.6673814 62.7648362,44.7796708 C62.8702835,44.9338171 62.898054,45.0746819 62.898054,45.6574597 L62.898054,47.1389549 C62.898054,47.5885148 62.891212,47.8344245 62.8835651,48.1294356 C62.8702835,48.4944767 62.8565995,48.8808487 62.3925506,48.8949352 L62.3925506,49.0909385 C62.6453023,49.0772544 62.891212,49.0772544 63.1443662,49.0772544 C63.3898734,49.0772544 63.6422226,49.0772544 63.8885348,49.0909385 L63.8885348,48.8949352 C63.6848845,48.8876907 63.5798396,48.8313448 63.5094072,48.6908824 C63.4385724,48.5576646 63.4112043,48.4099578 63.3967154,48.1157516 C63.3757869,47.5885148 63.3685424,47.0689249 63.3685424,46.5420906 L63.3685424,46.0860911 C63.3685424,45.6292867 63.3757869,45.7206476 63.3757869,45.5733433 C63.8185048,46.1138616 64.6962937,47.1953008 64.8089856,47.3357631 C64.8089856,47.3357631 65.7572069,48.4944767 66.2132063,49.0909385 L66.6905368,49.0909385 C66.6905368,48.9927356 66.6692058,48.7468259 66.6692058,48.5854351 L66.6692058,47.5112404 C66.6692058,47.0411544 66.6760478,46.0575157 66.6973788,45.4256365" id="Fill-29"></path>
                <path d="M71.7035124,48.9228666 C71.7312829,48.5509836 71.7948732,48.1501226 71.8572562,47.9114574 L71.591223,47.8551115 C71.4294297,48.4169608 71.0285688,48.7123744 70.4393514,48.7123744 C69.4629572,48.7123744 68.7538036,47.792326 68.7538036,46.5281651 C68.7538036,45.4330419 69.3579123,44.7729898 70.3479906,44.7729898 C70.9867118,44.7729898 71.3871703,45.0394255 71.4994596,45.5380868 L71.7731398,45.5380868 C71.7662978,45.376696 71.7594558,45.1235419 71.7594558,45.0044105 C71.7594558,44.8498617 71.7594558,44.6884709 71.7731398,44.5270801 C71.3662418,44.3934598 70.8953509,44.3230274 70.4111785,44.3230274 C68.8033075,44.3230274 67.8265107,45.2362337 67.8265107,46.7527438 C67.8265107,47.4618975 68.0587364,48.0660062 68.4938074,48.5087241 C68.8733374,48.9015357 69.3228973,49.1051859 69.9402876,49.1611294 L69.8002277,49.7302231 L69.9543741,49.7720801 C70.003878,49.7370652 70.052577,49.7165391 70.1097278,49.7165391 C70.2147727,49.7165391 70.2848026,49.8006555 70.2848026,49.9407154 C70.2848026,50.1165952 70.1511823,50.214798 69.9543741,50.214798 C69.8770997,50.214798 69.7929833,50.1934671 69.7020249,50.1588546 L69.603822,50.4329372 C69.7583708,50.4953202 69.8843442,50.5238956 70.024404,50.5238956 C70.5025394,50.5238956 70.8043925,50.2570575 70.8043925,49.8775275 C70.8043925,49.6461067 70.6285127,49.456543 70.362077,49.456543 C70.3339041,49.456543 70.2638742,49.449701 70.2280543,49.456543 L70.2916446,49.1752159 C70.8462495,49.1752159 71.246708,49.1051859 71.7035124,48.9228666" id="Fill-31"></path>
                <path d="M73.7598566,47.0830517 C73.8644991,46.7389391 74.1176532,46.1207439 74.2999725,45.6434135 L74.7990364,47.0830517 L73.7598566,47.0830517 Z M74.9040813,48.8949754 L74.9040813,49.0909787 L75.0658745,49.0845392 C75.2413518,49.0772947 75.493701,49.0772947 75.8237271,49.0772947 C76.1473137,49.0772947 76.4000654,49.0772947 76.5755427,49.0845392 L76.7445804,49.0909787 L76.7445804,48.8949754 C76.5755427,48.852716 76.4769373,48.7681971 76.3791369,48.5999643 C76.2873735,48.438171 76.1674372,48.1854193 75.9996069,47.7567879 L75.0091261,45.222429 C74.9105208,44.9696773 74.7636189,44.6251622 74.7008335,44.4074255 L74.2231006,44.4074255 C74.0335368,45.0046922 73.7598566,45.7416163 73.5763299,46.1984208 L72.9102407,47.8972502 C72.6989435,48.431329 72.5657257,48.6768362 72.4325078,48.79637 C72.3548309,48.8668024 72.3202184,48.8808889 72.2143686,48.8949754 L72.2143686,49.0909787 C72.4812068,49.0845392 72.5790072,49.0772947 72.9102407,49.0772947 C73.2471088,49.0772947 73.3453117,49.0845392 73.6117474,49.0909787 L73.6117474,48.8949754 C73.3871686,48.8808889 73.2958078,48.789528 73.2958078,48.5854753 C73.2958078,48.4667464 73.3525562,48.2341183 73.4571986,47.9189836 L73.5980634,47.5112806 L74.9463407,47.5112806 C75.0304571,47.7499459 75.0864005,47.9258256 75.170517,48.1854193 C75.2413518,48.396314 75.2622803,48.4941144 75.2622803,48.5645468 C75.2622803,48.7613551 75.1282575,48.8808889 74.9040813,48.8949754 L74.9040813,48.8949754 Z" id="Fill-33"></path>
                <path d="M78.5537674,45.1306254 C78.5823428,44.8146857 78.7360867,44.625122 79.0387447,44.603791 L79.0387447,44.4073852 L78.8709144,44.4142273 C78.6950346,44.4214717 78.4350385,44.4214717 78.1046099,44.4214717 C77.7681443,44.4214717 77.5145876,44.4214717 77.3322684,44.4142273 L77.1640355,44.4073852 L77.1640355,44.603791 C77.4031032,44.6323664 77.5359186,44.7164829 77.5991065,44.8992046 C77.65505,45.0465089 77.6691364,45.2151442 77.6691364,45.5870273 C77.6691364,45.79108 77.6763809,45.9806438 77.6763809,46.1629631 L77.6763809,47.3426051 C77.6763809,48.0384772 77.6691364,48.1644506 77.648208,48.3749428 C77.620035,48.6981269 77.4940616,48.8667622 77.1640355,48.8949352 L77.1640355,49.0909385 L77.3322684,49.0844989 C77.5145876,49.0772544 77.7681443,49.0772544 78.1046099,49.0772544 C78.4350385,49.0772544 78.6950346,49.0772544 78.8709144,49.0844989 L79.0387447,49.0909385 L79.0387447,48.8949352 C78.8000795,48.8736042 78.6737037,48.7826458 78.6101133,48.599924 C78.5396809,48.4172023 78.5328389,48.2626535 78.5328389,47.3426051 L78.5328389,46.1629631 C78.5328389,45.5310838 78.5328389,45.3342756 78.5537674,45.1306254" id="Fill-35"></path>
                <path d="M81.0947268,48.7469869 C80.5542084,48.7469869 80.1819229,48.4519757 80.0132876,47.8832844 L79.746047,47.9255439 C79.8031978,48.262412 79.8522993,48.6697125 79.8732278,48.9365506 C80.3501557,49.1196749 80.6455693,49.1752159 81.0528698,49.1752159 C82.0361061,49.1752159 82.7098423,48.655626 82.7098423,47.8905289 C82.7098423,47.3290821 82.3866582,46.9704806 81.8175644,46.5985975 L81.2207002,46.2122255 C80.849622,45.9735603 80.6169939,45.7489816 80.6169939,45.411711 C80.6169939,45.025339 80.933336,44.7516588 81.3692119,44.7516588 C81.8533843,44.7516588 82.1689215,45.0325835 82.2675268,45.5380868 L82.5347675,45.5380868 C82.527523,45.3412786 82.527523,45.2712487 82.527523,45.018497 C82.527523,44.8011627 82.527523,44.7444143 82.5347675,44.5761815 C82.2043389,44.4071438 81.8328583,44.3230274 81.3824934,44.3230274 C80.4556031,44.3230274 79.8591413,44.8289332 79.8591413,45.6153612 C79.8591413,46.233154 80.15375,46.5704246 80.6592533,46.8932062 L81.3973849,47.3640971 C81.7125195,47.5601004 81.9306587,47.7782396 81.9306587,48.0941792 C81.9306587,48.4873932 81.5929857,48.7469869 81.0947268,48.7469869" id="Fill-37"></path>
                <path d="M85.4700276,49.0910994 C85.7086928,49.0983439 85.9409185,49.1124304 86.1791812,49.1124304 C86.5655532,49.1124304 86.6355831,49.0910994 86.6987711,48.9856521 C86.7760455,48.8528367 86.8879324,48.4455362 86.9869402,47.9537168 L86.7124551,47.8973709 C86.5514667,48.4733067 86.2842261,48.6423445 85.525971,48.6423445 C85.3082343,48.6423445 85.1468435,48.6351 85.0413961,48.606927 C84.8727608,48.5642651 84.8236594,48.4664647 84.8236594,48.1714536 C84.8236594,47.7287356 84.8164149,47.2864202 84.8164149,46.8441047 C84.9431932,46.8441047 85.0695691,46.8368602 85.1955425,46.8368602 C85.919185,46.8368602 86.1087488,46.9354656 86.1300798,47.3355216 L86.3828315,47.3355216 C86.375587,47.2232323 86.36794,47.0131425 86.36794,46.654541 C86.36794,46.3035864 86.36794,46.0717632 86.3828315,45.9594738 L86.1300798,45.9594738 C86.0878203,46.3386013 85.8632416,46.4436462 85.132757,46.4436462 C85.0059787,46.4436462 84.9222648,46.4436462 84.8164149,46.4364018 L84.8164149,45.6222032 C84.8164149,45.2153052 84.8236594,45.1235419 84.8377459,44.8498617 C85.0059787,44.8426172 85.2096289,44.8357752 85.3637753,44.8357752 C86.1997072,44.8357752 86.4319329,44.983482 86.4810343,45.5240004 L86.733786,45.5240004 C86.7192971,45.3553651 86.7265416,45.1939743 86.7265416,45.025339 C86.7265416,44.8216887 86.733786,44.6111965 86.733786,44.4071438 L83.4472091,44.4071438 L83.4472091,44.603952 C83.6858743,44.632125 83.8118477,44.7166438 83.876243,44.8993656 C83.9321865,45.0466699 83.9535174,45.2153052 83.9535174,45.5871883 L83.9535174,47.5745893 C83.9535174,47.9396304 83.9535174,48.1642091 83.9321865,48.3751038 C83.9036111,48.683799 83.7631487,48.8665207 83.4472091,48.8950961 L83.4472091,49.0910994 C83.7840772,49.0774154 84.1213478,49.070171 84.4586183,49.070171 C84.7954864,49.070171 85.132757,49.0842574 85.4700276,49.0910994" id="Fill-39"></path>
                <path d="M1.7286033,37.1401705 C1.87872493,37.1401705 2.09766907,37.1474149 2.38503325,37.1542569 C2.71988899,37.1606965 3.0483052,37.1812225 3.38316094,37.1812225 C3.62907063,37.1812225 3.73210316,37.1542569 3.7936812,37.0721529 C3.87578526,36.9622783 4.03274888,36.6137386 4.19655452,36.1625688 L4.0118204,36.0941487 C3.75947118,36.6547906 3.47250947,36.8121567 2.69936298,36.8121567 C2.26187717,36.8121567 2.12503708,36.7300527 2.12503708,36.4632145 C2.12503708,36.4221625 2.13187909,36.3336189 2.1455631,36.2515148 C2.17977312,35.9983607 2.22082515,35.8067846 2.33029722,35.2461427 L2.4188408,34.7881308 C2.67239743,33.4684289 2.76818549,33.1742228 2.93843066,32.9560836 C3.0414632,32.8192435 3.15777727,32.7645074 3.36947693,32.7508234 L3.39724742,32.6002993 C3.34895092,32.6071413 3.30830137,32.6071413 3.28777535,32.6071413 C3.17105881,32.6071413 2.91106264,32.6139833 2.51503133,32.6139833 C2.26187717,32.6139833 2.01596749,32.6071413 1.76281333,32.6071413 C1.74268978,32.6071413 1.70807729,32.6071413 1.66742774,32.6002993 L1.63965725,32.7508234 C1.93386343,32.7850335 2.04293303,32.9077871 2.04293303,33.2088353 C2.04293303,33.3798854 2.00228348,33.7010571 1.89240894,34.2484174 L1.78333934,34.7881308 C1.63965725,35.4924548 1.59900769,35.7178385 1.51006164,36.0941487 C1.41427357,36.477301 1.34585353,36.6684746 1.23638146,36.8053147 C1.1405934,36.9353128 1.01743732,36.9968908 0.812579663,37.0170144 L0.784809175,37.1606965 L0.880597236,37.1542569 C1.02427933,37.1474149 1.52334317,37.1401705 1.7286033,37.1401705" id="Fill-41"></path>
                <path d="M4.90707655,36.7162882 C4.87286652,36.8668123 4.85234051,36.9766868 4.85234051,37.0378624 C4.85234051,37.160616 4.94128657,37.235878 5.07812665,37.235878 C5.26930031,37.235878 5.65929455,37.133248 6.02192078,36.9899683 L6.0078343,36.7987947 C5.81666065,36.8668123 5.69350457,36.8941803 5.63192654,36.8941803 C5.52929647,36.8941803 5.47456044,36.8326022 5.47456044,36.7299722 C5.47456044,36.6209026 5.51601493,36.3886769 5.68666257,35.7246 L5.78929264,35.3217267 C5.91244871,34.8431889 5.94625626,34.6242447 5.94625626,34.5421407 C5.94625626,34.4600366 5.90520424,34.4262291 5.80297664,34.4262291 C5.61824253,34.4262291 5.24877429,34.5151751 4.87286652,34.6584547 L4.89379501,34.8496284 L4.94128657,34.8363469 C5.08496866,34.7952948 5.14614423,34.7751713 5.20772227,34.7751713 C5.28338678,34.7751713 5.32484128,34.8154184 5.32484128,34.9043644 C5.32484128,34.99975 5.28338678,35.2464646 5.18719625,35.6022489 C5.11917868,35.8618426 4.9960226,36.3540644 4.90707655,36.7162882" id="Fill-43"></path>
                <path d="M6.2335802,33.3186695 C6.2335802,33.1202514 6.10358212,32.9966929 5.89832199,32.9966929 C5.6524123,32.9966929 5.47452019,33.167743 5.47452019,33.4140551 C5.47452019,33.6120708 5.61176275,33.7424713 5.82346241,33.7424713 C6.06253009,33.7424713 6.2335802,33.5645792 6.2335802,33.3186695" id="Fill-45"></path>
                <path d="M7.95510899,35.1850073 C8.03037103,35.0823773 8.17365066,34.9733077 8.37206878,34.8702751 C8.5636449,34.7680476 8.714169,34.719751 8.83732508,34.719751 C9.0357432,34.719751 9.1379708,34.8634331 9.1379708,35.1230268 C9.1379708,35.5677571 8.93271067,36.1903795 8.65943296,36.5795688 C8.48154085,36.8323205 8.24247317,36.9623186 7.96235346,36.9623186 C7.68827082,36.9623186 7.53774672,36.887459 7.53774672,36.7570585 C7.53774672,36.6616729 7.58604322,36.3952372 7.68827082,35.9710329 C7.79090088,35.5198631 7.86616293,35.307761 7.95510899,35.1850073 M7.35341508,35.0550093 L6.99763085,36.6069368 C6.92961328,36.894301 6.92277127,36.9623186 6.92277127,37.0170546 C6.92277127,37.1542972 7.24394301,37.2428408 7.77761935,37.2428408 C8.26259671,37.2428408 8.57732891,37.1470527 8.84416708,36.9144246 C9.34323093,36.4837808 9.70545469,35.7045972 9.70545469,35.0686933 C9.70545469,34.6380495 9.50019456,34.4259473 9.08323476,34.4259473 C8.74153702,34.4259473 8.36522678,34.5422614 7.93458297,34.7950131 C7.95510899,34.6988226 7.975635,34.589753 8.04445751,34.2959493 L8.2489127,33.3936096 C8.36522678,32.8877038 8.3994368,32.7166537 8.3994368,32.6413916 C8.3994368,32.5661296 8.34510323,32.52548 8.25575471,32.52548 C8.11247509,32.52548 7.80458489,32.5934976 7.43551913,32.7166537 L7.35341508,32.7440217 L7.36025708,32.9424398 C7.46288715,32.9078273 7.61341124,32.8740198 7.6609028,32.8740198 C7.73616485,32.8740198 7.77761935,32.9219138 7.77761935,33.0040178 C7.77761935,33.0925614 7.75025133,33.2704535 7.68142881,33.5984673 C7.55867521,34.1595116 7.46932668,34.5559454 7.35341508,35.0550093" id="Fill-47"></path>
                <path d="M11.9004099,34.6990238 C12.0847416,34.6990238 12.2352657,34.8499504 12.2352657,35.041124 C12.2352657,35.4790123 11.7563254,35.813868 11.1208239,35.813868 L11.0524039,35.813868 C11.2230515,35.1509986 11.5719937,34.6990238 11.9004099,34.6990238 M11.1964884,36.0666197 C12.0710576,36.0666197 12.740769,35.5949239 12.740769,34.965862 C12.740769,34.6241642 12.4884198,34.4261486 12.0573736,34.4261486 C11.1751575,34.4261486 10.4092555,35.4037502 10.4092555,36.531876 C10.4092555,36.9898878 10.6422861,37.2426395 11.0660879,37.2426395 C11.4146276,37.2426395 11.7973774,37.0993599 12.3036857,36.7850302 L12.2284237,36.552402 C11.8247454,36.8051537 11.5514677,36.9214678 11.3321211,36.9214678 C11.0934559,36.9214678 10.9707023,36.7367337 10.9707023,36.3885964 C10.9707023,36.2859663 10.9771418,36.1833363 10.9976678,36.0601802 C11.0866139,36.0666197 11.1477894,36.0666197 11.1964884,36.0666197" id="Fill-49"></path>
                <path d="M14.9973426,34.8088983 C15.1679902,34.8088983 15.2778648,34.8974419 15.2778648,35.0210005 C15.2778648,35.1095441 15.2706203,35.2053321 15.2573387,35.2874362 L15.4831249,35.3079622 C15.5374584,35.0757365 15.6195625,34.8499504 15.729437,34.6036382 C15.5716685,34.4877266 15.4074604,34.4189041 15.2778648,34.4189041 C15.0862886,34.4189041 14.8130109,34.5625862 14.5051207,34.8157403 C14.4986812,34.6990238 14.4849972,34.6036382 14.4640687,34.5219366 C14.4503847,34.4531141 14.4093327,34.4261486 14.3409126,34.4261486 C14.1698625,34.4261486 13.7871127,34.5356206 13.452257,34.6720583 L13.472783,34.8773184 L13.6434307,34.8225823 C13.7122532,34.8016539 13.7734287,34.7883723 13.8148832,34.7883723 C13.8965848,34.7883723 13.9380393,34.8636344 13.9380393,35.0346845 C13.9380393,35.1779641 13.8897428,35.4448023 13.7871127,35.8754461 L13.6365887,36.51135 C13.5818526,36.7435757 13.5339586,36.9488358 13.465941,37.208832 C13.7323767,37.174622 13.8007968,37.1673775 14.0603905,37.1540959 L14.190791,36.490824 C14.3409126,35.731764 14.4439452,35.2669102 14.7035389,34.9731064 C14.7920824,34.8704764 14.8947125,34.8088983 14.9973426,34.8088983" id="Fill-51"></path>
                <path d="M16.3303663,36.5455198 C16.2756302,36.7572194 16.2486647,36.9282696 16.2486647,37.0445836 C16.2486647,37.1745817 16.3372083,37.2425993 16.4808904,37.2425993 C16.678906,37.2425993 17.0479718,37.1472137 17.403756,37.0035316 L17.3828275,36.8055159 L17.3148099,36.8256395 C17.1510043,36.8735335 17.0479718,36.9009015 17.0004802,36.9009015 C16.9115342,36.9009015 16.8636401,36.8461655 16.8636401,36.7503774 C16.8636401,36.6960439 16.8700797,36.5934138 16.9453417,36.2307876 L17.2331084,34.8293841 L17.8001898,34.8434706 L17.8686098,34.5009679 L17.3011259,34.5082124 L17.4717736,33.7012583 L17.1437598,33.7692759 C17.0137618,34.1661122 16.8567981,34.5355804 16.3919443,34.6168795 L16.3436478,34.8362261 L16.706274,34.8293841 L16.4945744,35.8411958 C16.4394359,36.108034 16.3919443,36.3064521 16.3303663,36.5455198" id="Fill-53"></path>
                <path d="M19.8440977,34.6990238 C20.0288318,34.6990238 20.1793559,34.8499504 20.1793559,35.041124 C20.1793559,35.4790123 19.7012206,35.813868 19.0649142,35.813868 L18.9964941,35.813868 C19.1671418,35.1509986 19.516084,34.6990238 19.8440977,34.6990238 M19.1405787,36.0666197 C20.0151478,36.0666197 20.6852618,35.5949239 20.6852618,34.965862 C20.6852618,34.6241642 20.4325101,34.4261486 20.0014638,34.4261486 C19.1196502,34.4261486 18.3537482,35.4037502 18.3537482,36.531876 C18.3537482,36.9898878 18.5863763,37.2426395 19.0101781,37.2426395 C19.3591203,37.2426395 19.7418701,37.0993599 20.247776,36.7850302 L20.1725139,36.552402 C19.7692381,36.8051537 19.495558,36.9214678 19.2770163,36.9214678 C19.0379486,36.9214678 18.9143901,36.7367337 18.9143901,36.3885964 C18.9143901,36.2859663 18.9212321,36.1833363 18.9421606,36.0601802 C19.0307041,36.0666197 19.0926846,36.0666197 19.1405787,36.0666197" id="Fill-55"></path>
                <polygon id="Fill-57" points="20.5142519 32.8806203 19.6803323 33.8244144 19.8992765 34.0023065 21.1296298 33.0311444"></polygon>
                <polygon id="Fill-59" points="32.2621344 31.021366 31.4282148 31.9647576 31.6471589 32.1422473 32.8843543 31.1714876"></polygon>
                <path d="M31.7771168,37.1812627 C32.063676,37.1812627 32.1530245,37.1607367 32.2214446,37.0858771 C32.3172326,36.9695631 32.4810383,36.6069368 32.6315624,36.155767 L32.4605122,36.087347 C32.1936741,36.6753569 31.9272384,36.812197 31.0655483,36.812197 C30.6079389,36.812197 30.4843804,36.7502165 30.4843804,36.5111488 C30.4843804,36.3883952 30.5121509,36.148925 30.5870105,35.7657728 C30.744779,34.9797472 30.710569,35.1298688 30.744779,34.9592212 C30.8675326,34.9523792 30.9902863,34.9455372 31.3255445,34.9455372 C31.8861863,34.9455372 32.0713229,35.0413253 32.0713229,35.335129 C32.0713229,35.3628995 32.063676,35.403549 32.056834,35.451443 L32.2419706,35.451443 C32.2894621,35.1029033 32.4057762,34.5285774 32.5015643,34.1248991 L32.3172326,34.1248991 C32.2419706,34.3981768 32.0914465,34.5491034 31.8386948,34.5969974 C31.6809262,34.623963 31.4965946,34.6312075 31.0587063,34.6312075 L30.8059546,34.6312075 C30.9222687,34.0226715 31.0180567,33.5304497 31.1613364,32.9625633 C31.3871225,32.9424398 31.6056642,32.9424398 31.8314503,32.9424398 C32.5152483,32.9424398 32.7607555,33.0720354 32.7607555,33.4483457 C32.7607555,33.4962397 32.7547184,33.5236077 32.7478764,33.5984673 L32.9458921,33.5984673 C32.9937861,33.2772955 33.0622062,32.9078273 33.1374682,32.6003396 L30.0263686,32.6003396 L29.999403,32.7508637 C30.2936092,32.7850737 30.4026788,32.9078273 30.4026788,33.2088755 C30.4026788,33.3799256 30.3616268,33.7147814 30.2521547,34.2484577 L30.1426827,34.7881711 C29.985719,35.5540731 29.9575461,35.7114392 29.8690025,36.094189 C29.7736169,36.4773412 29.7051968,36.6685149 29.5957248,36.805355 C29.5003392,36.935353 29.3771831,36.9969311 29.1715205,37.0170546 L29.1441525,37.1607367 C29.4657267,37.1607367 29.7804589,37.1542972 30.1016306,37.1542972 C30.4163628,37.1542972 30.7375346,37.1607367 31.0522668,37.1675787 C31.2917369,37.1744207 31.5376466,37.1812627 31.7771168,37.1812627" id="Fill-61"></path>
                <path d="M34.3202898,37.1879437 C34.6072515,37.2700478 34.8877737,37.3658359 35.1204018,37.4547819 C35.3663115,37.55057 35.4689416,37.660042 35.4689416,37.8242501 C35.4689416,38.2613335 34.9219837,38.6650117 34.3267293,38.6650117 C33.8349099,38.6650117 33.5201777,38.4191021 33.5201777,38.0496338 C33.5201777,37.6532 33.8485939,37.3046603 34.3202898,37.1879437 M35.0173693,34.68538 C35.2842074,34.68538 35.4552575,34.8974822 35.4552575,35.2395824 C35.4552575,35.7044362 35.1610514,36.0807465 34.7980227,36.0807465 C34.5323919,36.0807465 34.3476578,35.8618023 34.3476578,35.5406306 C34.3476578,35.0757768 34.6483035,34.68538 35.0173693,34.68538 M33.0557264,37.9743718 C33.0557264,38.5555397 33.5133357,38.9113239 34.2655537,38.9113239 C35.1819798,38.9113239 35.8999878,38.3434375 35.8999878,37.61899 C35.8999878,37.2221538 35.6331497,37.0587506 35.0861918,36.887298 L34.5388314,36.7162479 C34.2377832,36.6208623 34.1633261,36.5866523 34.1633261,36.5113903 C34.1633261,36.4494097 34.2176597,36.4015157 34.3883073,36.2992881 C34.5323919,36.3399377 34.6277775,36.3540242 34.7577756,36.3540242 C35.4415735,36.3540242 35.9680054,35.8686443 35.9680054,35.2395824 C35.9680054,35.0822163 35.9406374,34.9731467 35.8585333,34.8294646 L36.3233872,34.8363066 L36.3986492,34.5010484 L35.4959071,34.5010484 C35.3457855,34.4463124 35.2157874,34.4261888 35.0382978,34.4261888 C34.3544998,34.4261888 33.8349099,34.9180082 33.8349099,35.5675961 C33.8349099,35.8412763 33.9371375,36.0396944 34.1492397,36.1902185 C33.7387194,36.4151997 33.5403013,36.6003363 33.5403013,36.7504579 C33.5403013,36.866772 33.6159658,36.921508 33.9576635,37.0446641 C33.3970216,37.1879437 33.0557264,37.4410979 33.0557264,37.9743718" id="Fill-63"></path>
                <path d="M38.7146274,36.0738642 C38.6466099,36.3334579 38.5914713,36.470298 38.4960858,36.566086 C38.3246332,36.7367337 37.8807078,36.9625198 37.6275537,36.9625198 C37.456906,36.9625198 37.354276,36.8462058 37.354276,36.6345061 C37.354276,36.2718799 37.5386076,35.71808 37.7986038,35.3011202 C38.0312319,34.9179679 38.3049121,34.7127078 38.5777873,34.7127078 C38.6941014,34.7127078 38.8377835,34.7473203 38.9883076,34.8157403 C38.9267296,35.2669102 38.823697,35.6565019 38.7146274,36.0738642 L38.7146274,36.0738642 Z M39.6378955,34.5557442 C39.3436894,34.4808846 39.0631672,34.4261486 38.7556795,34.4261486 C38.0581975,34.4261486 37.6005881,34.7883723 37.2315224,35.3626982 C36.9574397,35.7869025 36.7795476,36.2996503 36.7795476,36.6618741 C36.7795476,37.0377819 37.0186153,37.2494815 37.429538,37.2494815 C37.7913593,37.2494815 38.16123,37.1198859 38.6667334,36.8325217 C38.7283114,37.1673775 38.7693635,37.2426395 38.8921171,37.2426395 C39.0084311,37.2426395 39.3436894,37.1400095 39.6926316,37.0100114 L39.6721056,36.7987142 C39.500653,36.8602922 39.3573734,36.9009418 39.3026373,36.9009418 C39.2209357,36.9009418 39.1798837,36.7987142 39.1798837,36.6135776 C39.1798837,36.3197739 39.3573734,35.4516443 39.6032831,34.6652162 L39.6378955,34.5557442 Z" id="Fill-65"></path>
                <path d="M40.732093,37.2427603 C40.9164247,37.2427603 41.3402265,37.1264462 41.6887662,36.9900086 L41.6754847,36.7988349 C41.4907506,36.8531685 41.3675945,36.8805365 41.298772,36.8805365 C41.1965444,36.8805365 41.1490528,36.8326425 41.1490528,36.7300124 C41.1490528,36.6277848 41.1828604,36.4221222 41.2516829,36.1077925 C41.4698221,35.1438748 41.6956082,34.1316607 41.9213944,33.222479 C42.0103404,32.8670973 42.037306,32.7097312 42.037306,32.6413111 C42.037306,32.5660491 41.9898144,32.5253995 41.8936239,32.5253995 C41.7024502,32.5253995 41.3197005,32.6207851 40.9711607,32.7439412 L40.9844422,32.9496038 C41.0935118,32.9077468 41.2170704,32.8807813 41.2854904,32.8807813 C41.3607525,32.8807813 41.4018045,32.9218333 41.4018045,33.0039373 C41.4018045,33.0655154 41.3607525,33.2639335 41.2786484,33.6603673 C41.0935118,34.5220574 40.8612862,35.4855726 40.649989,36.3887171 C40.5473589,36.8193609 40.5264304,36.9421146 40.5264304,37.0379026 C40.5264304,37.1674982 40.6016925,37.2427603 40.732093,37.2427603" id="Fill-67"></path>
                <path d="M42.7000547,36.7162882 C42.6658447,36.8668123 42.6449162,36.9766868 42.6449162,37.0378624 C42.6449162,37.160616 42.7338623,37.235878 42.8711048,37.235878 C43.0622785,37.235878 43.4518702,37.133248 43.8144965,36.9899683 L43.8008125,36.7987947 C43.6092363,36.8668123 43.4864827,36.8941803 43.4245022,36.8941803 C43.3222746,36.8941803 43.2675386,36.8326022 43.2675386,36.7299722 C43.2675386,36.6209026 43.3081882,36.3886769 43.4792383,35.7246 L43.5822708,35.3217267 C43.7050244,34.8431889 43.738832,34.6242447 43.738832,34.5421407 C43.738832,34.4600366 43.6977799,34.4262291 43.5955523,34.4262291 C43.4108182,34.4262291 43.0421549,34.5151751 42.6658447,34.6584547 L42.6859682,34.8496284 L42.7338623,34.8363469 C42.8775444,34.7952948 42.9395249,34.7751713 43.0011029,34.7751713 C43.0763649,34.7751713 43.1170145,34.8154184 43.1170145,34.9043644 C43.1170145,34.99975 43.0763649,35.2464646 42.9805769,35.6022489 C42.9117544,35.8618426 42.7890008,36.3540644 42.7000547,36.7162882" id="Fill-69"></path>
                <path d="M43.6162393,33.7425518 C43.855307,33.7425518 44.0267596,33.5646597 44.0267596,33.31875 C44.0267596,33.1203319 43.896359,32.9967734 43.6915014,32.9967734 C43.4451892,32.9967734 43.2676996,33.167421 43.2676996,33.4141356 C43.2676996,33.6121513 43.4041372,33.7425518 43.6162393,33.7425518" id="Fill-71"></path>
                <path d="M44.9887052,37.2427603 C45.1867208,37.2427603 45.5561891,37.1473747 45.9119733,37.0036926 L45.8914473,36.8052745 L45.8230272,36.825398 C45.6588191,36.8736945 45.5561891,36.9010625 45.508295,36.9010625 C45.419349,36.9010625 45.3714549,36.845924 45.3714549,36.750136 C45.3714549,36.6962049 45.3782969,36.5935748 45.4531565,36.2305461 L45.7409232,34.8291426 L46.3084071,34.8432291 L46.3764246,34.5011289 L45.8093432,34.5083734 L45.9799909,33.7010168 L45.6519771,33.7694369 C45.5215766,34.1662731 45.3646129,34.5353389 44.9001616,34.6170405 L44.8518651,34.8363871 L45.2140888,34.8291426 L45.0027916,35.8413568 C44.9476531,36.1077925 44.9001616,36.3062106 44.8381811,36.5456808 C44.7838475,36.7573804 44.7564795,36.9280281 44.7564795,37.0447446 C44.7564795,37.1747427 44.8450231,37.2427603 44.9887052,37.2427603" id="Fill-73"></path>
                <polygon id="Fill-75" points="49.6371629 33.0311846 49.0221875 32.8806605 48.1878654 33.8244547 48.407212 34.0023468"></polygon>
                <path d="M48.3527175,34.6990238 C48.5370491,34.6990238 48.6875732,34.8499504 48.6875732,35.041124 C48.6875732,35.4790123 48.2090354,35.813868 47.572729,35.813868 L47.5047114,35.813868 C47.6757615,35.1509986 48.0243013,34.6990238 48.3527175,34.6990238 M47.5183954,37.2426395 C47.8673376,37.2426395 48.2500874,37.0993599 48.7559933,36.7850302 L48.6803287,36.552402 C48.2774554,36.8051537 48.0037752,36.9214678 47.7852336,36.9214678 C47.5449585,36.9214678 47.4230098,36.7367337 47.4230098,36.3885964 C47.4230098,36.2859663 47.4298518,36.1833363 47.4499754,36.0601802 C47.5385189,36.0666197 47.600097,36.0666197 47.647991,36.0666197 C48.5233651,36.0666197 49.1930766,35.5949239 49.1930766,34.965862 C49.1930766,34.6241642 48.9407274,34.4261486 48.5096811,34.4261486 C47.6278675,34.4261486 46.8623679,35.4037502 46.8623679,36.531876 C46.8623679,36.9898878 47.0937887,37.2426395 47.5183954,37.2426395" id="Fill-77"></path>
                <path d="M58.6322253,34.7882516 C58.4893481,35.4994176 58.4555406,35.7046777 58.3589476,36.0942695 C58.2700015,36.4774217 58.1947395,36.6681929 58.0856699,36.8054355 C57.9898818,36.9350311 57.8671282,36.9966091 57.6614656,37.0171351 L57.6340976,37.1608172 L57.7504117,37.1539752 C57.8393577,37.1471332 58.3452636,37.1471332 58.6189437,37.1471332 C58.8789399,37.1471332 59.1791832,37.1539752 59.2339192,37.1539752 L59.3433913,37.1608172 L59.3707593,37.0171351 C59.0906396,36.9833276 58.9674835,36.852927 58.9674835,36.5728073 C58.9674835,36.3812312 59.01578,36.0737435 59.1449731,35.416911 L59.2339192,34.9588992 C59.4126163,34.9524597 59.4741943,34.9456177 59.691931,34.9456177 C60.1024513,34.9456177 60.2388889,34.9657412 60.355203,35.0550898 C60.4377095,35.1162653 60.486006,35.2257374 60.486006,35.3420515 C60.486006,35.369822 60.4787615,35.4104715 60.4719195,35.4583655 L60.6630932,35.4583655 C60.7246712,35.0071957 60.8132148,34.5697099 60.9230893,34.1249796 L60.7383552,34.1249796 C60.5954781,34.5697099 60.4445515,34.6377275 59.685089,34.6377275 C59.5558959,34.6377275 59.4258978,34.631288 59.2954972,34.631288 C59.4190558,34.0501201 59.5289303,33.5100042 59.650879,32.9493623 C59.8219291,32.9425203 60.0143102,32.9352758 60.1571873,32.9352758 C60.6767772,32.9352758 60.9166498,32.9835723 61.0462454,33.1063259 C61.1283495,33.1880275 61.1762435,33.2974996 61.1762435,33.4343397 C61.1762435,33.4685497 61.169804,33.5232857 61.162157,33.5917058 L61.3601727,33.5917058 C61.4149087,33.263692 61.4841337,32.9079078 61.5521513,32.6004201 L58.5167162,32.6004201 L58.4893481,32.7509442 C58.7827494,32.7851542 58.8930264,32.9079078 58.8930264,33.208956 C58.8930264,33.3796036 58.8511694,33.7080198 58.7416974,34.2485382 L58.6322253,34.7882516 Z" id="Fill-79"></path>
                <path d="M62.3975413,36.4907033 C62.5480654,35.7316432 62.6506954,35.2667894 62.9102891,34.9729857 C62.9996376,34.8703556 63.1022677,34.8087776 63.2048978,34.8087776 C63.3751429,34.8087776 63.4850175,34.8977237 63.4850175,35.0208797 C63.4850175,35.1094233 63.477773,35.2052114 63.464089,35.2877179 L63.6902776,35.3078414 C63.7446112,35.0756158 63.8267152,34.8498296 63.9357848,34.6039199 C63.7788212,34.4876059 63.6150156,34.4187834 63.4850175,34.4187834 C63.2934414,34.4187834 63.0201637,34.5624654 62.7122735,34.8156196 C62.7054315,34.6989031 62.691345,34.6039199 62.6712214,34.5218159 C62.6575374,34.4533958 62.6168879,34.4260278 62.5480654,34.4260278 C62.3770153,34.4260278 61.994668,34.5354999 61.6594097,34.6719375 L61.6799358,34.8771976 L61.8505834,34.8224616 C61.918601,34.8019356 61.9809839,34.7882516 62.022036,34.7882516 C62.10414,34.7882516 62.1447896,34.8635136 62.1447896,35.0345637 C62.1447896,35.1778434 62.097298,35.4446815 61.994668,35.8757278 L61.8437414,36.5112293 C61.7890054,36.7434549 61.7415138,36.9487151 61.6730937,37.2087112 C61.9399319,37.1745012 62.008352,37.1676592 62.2679457,37.1539752 L62.3975413,36.4907033 Z" id="Fill-81"></path>
                <path d="M66.2096244,36.0738642 C66.1412043,36.3334579 66.0864683,36.470298 65.9906802,36.566086 C65.8200326,36.7367337 65.3753023,36.9625198 65.1225506,36.9625198 C64.9515005,36.9625198 64.8488704,36.8462058 64.8488704,36.6345061 C64.8488704,36.2718799 65.034007,35.71808 65.2931982,35.3011202 C65.5262289,34.9179679 65.7987016,34.7127078 66.0731867,34.7127078 C66.1890983,34.7127078 66.332378,34.7473203 66.4829021,34.8157403 C66.421324,35.2669102 66.318694,35.6565019 66.2096244,36.0738642 L66.2096244,36.0738642 Z M67.1328925,34.5557442 C66.8386863,34.4808846 66.5585666,34.4261486 66.2506764,34.4261486 C65.5535969,34.4261486 65.0951826,34.7883723 64.7257144,35.3626982 C64.4524367,35.7869025 64.2745445,36.2996503 64.2745445,36.6618741 C64.2745445,37.0377819 64.5144172,37.2494815 64.9241325,37.2494815 C65.2863562,37.2494815 65.6562269,37.1198859 66.1621328,36.8325217 C66.2233084,37.1673775 66.2651653,37.2426395 66.387114,37.2426395 C66.5034281,37.2426395 66.8386863,37.1400095 67.187226,37.0100114 L67.1671025,36.7987142 C66.9956499,36.8602922 66.8523703,36.9009418 66.7972318,36.9009418 C66.7151277,36.9009418 66.6744782,36.7987142 66.6744782,36.6135776 C66.6744782,36.3197739 66.8523703,35.4516443 67.0986825,34.6652162 L67.1328925,34.5557442 Z" id="Fill-83"></path>
                <path d="M68.1791154,36.5455198 C68.1243794,36.7572194 68.0970114,36.9282696 68.0970114,37.0445836 C68.0970114,37.1745817 68.1859574,37.2425993 68.3288346,37.2425993 C68.5268502,37.2425993 68.8971234,37.1472137 69.2525052,37.0035316 L69.2319792,36.8055159 L69.1635591,36.8256395 C68.9989485,36.8735335 68.8971234,36.9009015 68.8488269,36.9009015 C68.7594784,36.9009015 68.7123893,36.8461655 68.7123893,36.7503774 C68.7123893,36.6960439 68.7192313,36.5934138 68.7944934,36.2307876 L69.0814551,34.8293841 L69.648939,34.8434706 L69.717359,34.5009679 L69.1498751,34.5082124 L69.3205227,33.7012583 L68.992509,33.7692759 C68.8625109,34.1661122 68.7055473,34.5355804 68.240291,34.6168795 L68.1927994,34.8362261 L68.5546207,34.8293841 L68.3425186,35.8411958 C68.2885875,36.108034 68.240291,36.3064521 68.1791154,36.5455198" id="Fill-85"></path>
                <path d="M71.6930884,34.6990238 C71.8778225,34.6990238 72.0275416,34.8499504 72.0275416,35.041124 C72.0275416,35.4790123 71.5490038,35.813868 70.9135023,35.813868 L70.8450823,35.813868 C71.0161324,35.1509986 71.3650746,34.6990238 71.6930884,34.6990238 M70.9887644,36.0666197 C71.863736,36.0666197 72.5342524,35.5949239 72.5342524,34.965862 C72.5342524,34.6241642 72.2810983,34.4261486 71.8504545,34.4261486 C70.9678359,34.4261486 70.2027388,35.4037502 70.2027388,36.531876 C70.2027388,36.9898878 70.434562,37.2426395 70.8587663,37.2426395 C71.2077085,37.2426395 71.5900558,37.0993599 72.0955592,36.7850302 L72.0211021,36.552402 C71.6174239,36.8051537 71.3437437,36.9214678 71.1256045,36.9214678 C70.8861343,36.9214678 70.7633807,36.7367337 70.7633807,36.3885964 C70.7633807,36.2859663 70.7698203,36.1833363 70.7907487,36.0601802 C70.8792923,36.0666197 70.9404679,36.0666197 70.9887644,36.0666197" id="Fill-87"></path>
                <path d="M75.2754411,35.3078414 C75.3301771,35.0756158 75.4122812,34.8498296 75.5217533,34.6035175 C75.3643872,34.4876059 75.2005815,34.4187834 75.0709859,34.4187834 C74.8790073,34.4187834 74.6057296,34.5624654 74.2978394,34.8156196 C74.2909974,34.6989031 74.2777159,34.6035175 74.2575923,34.5218159 C74.2439083,34.4529934 74.2020514,34.4260278 74.1336313,34.4260278 C73.9629837,34.4260278 73.5798314,34.5354999 73.2449757,34.6719375 L73.2655017,34.8771976 L73.4365518,34.8224616 C73.5049719,34.8019356 73.5661474,34.7882516 73.6071995,34.7882516 C73.6893035,34.7882516 73.730758,34.8635136 73.730758,35.0345637 C73.730758,35.1778434 73.6824615,35.4446815 73.5798314,35.8757278 L73.4297098,36.5112293 C73.3749738,36.7434549 73.3270797,36.9487151 73.2586597,37.2087112 C73.5254979,37.1745012 73.5935154,37.1676592 73.8535116,37.1539752 L73.9835097,36.4907033 C74.1336313,35.7316432 74.2370663,35.2667894 74.4962576,34.9729857 C74.5852036,34.8703556 74.6878337,34.8087776 74.7904637,34.8087776 C74.9615138,34.8087776 75.0709859,34.8973212 75.0709859,35.0208797 C75.0709859,35.1094233 75.0637414,35.2052114 75.0500574,35.2877179 L75.2754411,35.3078414 Z" id="Fill-89"></path>
                <path d="M77.092436,35.3420515 C77.17454,35.2188954 77.3391506,35.0756158 77.5572898,34.9524597 C77.7629524,34.8293036 77.9541261,34.761286 78.0708426,34.761286 C78.1658257,34.761286 78.2137197,34.8156196 78.2137197,34.9182497 C78.2137197,35.0345637 78.1658257,35.3215255 77.9609681,36.1763735 L77.8929505,36.4633352 C77.8108464,36.8054355 77.7834784,36.9555571 77.7834784,37.0376611 C77.7834784,37.1608172 77.8655825,37.2429213 78.002825,37.2429213 C78.1589837,37.2429213 78.569504,37.1334492 78.9321302,37.0034511 L78.9120067,36.8054355 C78.7469936,36.8670135 78.6169955,36.8943815 78.55582,36.8943815 C78.4600319,36.8943815 78.4056983,36.839243 78.4056983,36.7366129 C78.4056983,36.6617534 78.4262244,36.5385973 78.4668739,36.3401792 C78.4942419,36.1900575 78.569504,35.8552018 78.6512056,35.5404696 C78.7956926,34.9866697 78.8363421,34.761286 78.8363421,34.6172015 C78.8363421,34.4807639 78.7469936,34.4260278 78.5216099,34.4260278 C78.1521417,34.4260278 77.6188678,34.5970779 77.099278,34.8904792 L77.099278,34.8361456 C77.099278,34.5149739 77.0513839,34.4260278 76.9012623,34.4260278 C76.7374567,34.4260278 76.3820749,34.5218159 76.0532563,34.651814 L76.0673427,34.8433901 C76.2315508,34.7882516 76.3474624,34.761286 76.4021985,34.761286 C76.5044261,34.761286 76.5527226,34.8361456 76.5527226,34.9935117 C76.5527226,35.1162653 76.5112681,35.3352095 76.408638,35.8000633 C76.3068129,36.2717591 76.2041828,36.6959634 76.0673427,37.2087112 C76.3337784,37.1745012 76.4021985,37.1676592 76.6686342,37.1471332 C76.7233702,36.825559 76.7921927,36.4834588 76.9012623,35.9847974 C76.9837688,35.6225736 77.0308579,35.4446815 77.092436,35.3420515" id="Fill-91"></path>
                <path d="M79.9641862,36.7162882 C79.9295737,36.8668123 79.9094502,36.9766868 79.9094502,37.0378624 C79.9094502,37.160616 79.9975913,37.235878 80.1348338,37.235878 C80.3264099,37.235878 80.7160017,37.133248 81.0782255,36.9899683 L81.0645415,36.7987947 C80.8733678,36.8668123 80.7498093,36.8941803 80.6886337,36.8941803 C80.5860036,36.8941803 80.5312676,36.8326022 80.5312676,36.7299722 C80.5312676,36.6209026 80.5723196,36.3886769 80.7433697,35.7246 L80.8455973,35.3217267 C80.9687534,34.8431889 81.0029634,34.6242447 81.0029634,34.5421407 C81.0029634,34.4600366 80.9619114,34.4262291 80.8592813,34.4262291 C80.6749497,34.4262291 80.3062864,34.5151751 79.9295737,34.6584547 L79.9496972,34.8496284 L79.9975913,34.8363469 C80.1416758,34.7952948 80.2032539,34.7751713 80.2648319,34.7751713 C80.3396915,34.7751713 80.381146,34.8154184 80.381146,34.9043644 C80.381146,34.99975 80.3396915,35.2464646 80.2439034,35.6022489 C80.1758859,35.8618426 80.0527298,36.3540644 79.9641862,36.7162882" id="Fill-93"></path>
                <path d="M81.2896837,33.3186695 C81.2896837,33.1202514 81.1604905,32.9966929 80.9552304,32.9966929 C80.7093207,32.9966929 80.5310261,33.167743 80.5310261,33.4140551 C80.5310261,33.6120708 80.6678662,33.7424713 80.8799683,33.7424713 C81.119036,33.7424713 81.2896837,33.5645792 81.2896837,33.3186695" id="Fill-95"></path>
                <path d="M83.0045314,34.8293036 L83.5724178,34.8433901 L83.6400329,34.5008874 L83.0729515,34.5081319 L83.2435991,33.7011778 L82.9159878,33.7691954 C82.7855873,34.1664341 82.6282212,34.5354999 82.1633674,34.6172015 L82.1154733,34.8361456 L82.4780996,34.8293036 L82.2659974,35.8415178 C82.2112614,36.1079535 82.1633674,36.3063716 82.1021918,36.5454393 C82.0474558,36.757139 82.0208927,36.9281891 82.0208927,37.0445031 C82.0208927,37.1745012 82.1090338,37.2429213 82.2523134,37.2429213 C82.451134,37.2429213 82.8197973,37.1471332 83.1751791,37.0034511 L83.1542506,36.8054355 L83.0866355,36.825559 C82.9228299,36.8738555 82.8197973,36.9012235 82.7719033,36.9012235 C82.6829572,36.9012235 82.6354657,36.846085 82.6354657,36.750297 C82.6354657,36.6959634 82.6423077,36.5933333 82.7171673,36.2307071 L83.0045314,34.8293036 Z" id="Fill-97"></path>
                <path d="M85.616044,34.6990238 C85.8003756,34.6990238 85.9513022,34.8499504 85.9513022,35.041124 C85.9513022,35.4790123 85.4731669,35.813868 84.836458,35.813868 L84.7680379,35.813868 C84.9394905,35.1509986 85.2876278,34.6990238 85.616044,34.6990238 M84.912525,36.0666197 C85.7866916,36.0666197 86.4576105,35.5949239 86.4576105,34.965862 C86.4576105,34.6241642 86.2040539,34.4261486 85.7730076,34.4261486 C84.8915965,34.4261486 84.1256945,35.4037502 84.1256945,36.531876 C84.1256945,36.9898878 84.3583226,37.2426395 84.7817219,37.2426395 C85.1306642,37.2426395 85.5142189,37.0993599 86.0201247,36.7850302 L85.9444602,36.552402 C85.5415869,36.8051537 85.2671018,36.9214678 85.0489626,36.9214678 C84.80909,36.9214678 84.6859339,36.7367337 84.6859339,36.3885964 C84.6859339,36.2859663 84.6927759,36.1833363 84.7133019,36.0601802 C84.802248,36.0666197 84.863826,36.0666197 84.912525,36.0666197" id="Fill-99"></path>
                <polygon id="Fill-101" points="85.4523591 33.8243339 85.6713032 34.002226 86.9012541 33.0310639 86.2862787 32.8805398"></polygon>
                <path d="M54.4432283,35.1398099 C54.4432283,34.681798 54.0709427,34.3103175 53.6129309,34.3103175 C53.1553216,34.3103175 52.783841,34.681798 52.783841,35.1398099 C52.783841,35.5978217 53.1553216,35.9697047 53.6129309,35.9697047 C54.0709427,35.9697047 54.4432283,35.5978217 54.4432283,35.1398099" id="Fill-103"></path>
                <path d="M25.9530819,35.1398099 C25.9530819,34.681798 25.5816013,34.3103175 25.123992,34.3103175 C24.6655777,34.3103175 24.2936946,34.681798 24.2936946,35.1398099 C24.2936946,35.5978217 24.6655777,35.9697047 25.123992,35.9697047 C25.5816013,35.9697047 25.9530819,35.5978217 25.9530819,35.1398099" id="Fill-105"></path>
                <path d="M19.9730091,25.6214147 C20.0386119,25.4258138 20.299413,25.361016 20.4294111,25.1650127 C20.4294111,25.0998124 20.4294111,25.0346122 20.3646133,25.0346122 C20.8862155,24.3174091 21.6034185,23.9266099 22.2550188,23.3398074 L22.2550188,23.1438041 C22.4502172,22.8834055 22.776621,22.7526025 22.9070216,22.4270036 C22.9718194,22.2318052 23.233023,21.9706016 23.5586219,21.8402011 C23.4934216,21.7750008 23.363021,21.7750008 23.363021,21.6446003 C23.1022199,21.6446003 22.8414188,21.7750008 22.5810202,21.5798024 C22.7041763,21.4562439 22.845846,21.3890313 22.9955652,21.3459669 C22.9372069,21.3355026 22.8840807,21.310147 22.8414188,21.2533986 C22.776621,21.122998 22.9673922,20.9773036 23.1674202,20.9269947 C23.4286238,20.8621969 23.7542227,20.8621969 23.950226,20.6665961 C23.4934216,20.6017983 22.9718194,20.7969967 22.5154174,20.536598 C22.8414188,19.688592 23.363021,18.9717914 24.1458268,18.5805897 C24.2110271,18.5805897 24.3414277,18.5805897 24.3414277,18.64579 C24.3414277,18.9717914 24.1458268,19.2325925 23.8198255,19.2977928 C24.3414277,19.4277908 24.8626274,19.4277908 25.3842296,19.688592 C25.3190293,19.8189925 25.1886288,19.7541947 25.123831,19.7541947 C25.4494299,19.9497955 25.8406316,19.8189925 26.1670354,20.0797936 C25.9710321,20.2753944 25.7758338,20.0797936 25.5798305,20.0797936 C27.6006366,20.6665961 29.7522457,21.122998 31.4470504,22.4270036 C30.0134493,23.1438041 28.5134404,23.4698055 26.9490363,23.7958069 C26.7534354,23.7958069 26.6230349,23.7958069 26.427434,23.7306066 C26.427434,23.7958069 26.427434,23.9266099 26.3622338,23.9266099 C26.1014327,23.9266099 25.9058318,23.9266099 25.710231,24.056608 C25.4494299,24.1870086 25.0586307,24.2522088 24.8626274,24.056608 C24.7974271,23.9914077 25.0586307,24.056608 25.123831,23.9266099 L24.6014238,23.9266099 C24.5370285,23.9266099 24.5370285,23.8614097 24.5370285,23.7958069 C24.2110271,23.8614097 23.8198255,23.9914077 23.4934216,24.056608 C23.0374221,24.1870086 22.6462205,24.51301 22.1246183,24.6434105 C21.4078177,24.9042116 20.8210152,25.4910141 20.0386119,25.7522177 C19.9730091,25.7522177 19.9730091,25.6866149 19.9730091,25.6214147 M21.6682163,19.362993 C21.6034185,19.4933936 21.5305713,19.5070776 21.4726155,19.6237941 C21.4078177,19.7541947 21.3426174,19.8189925 21.2118144,19.8845953 C21.1470166,19.8845953 21.0818163,19.8845953 21.0818163,19.8189925 C21.1470166,19.5581914 21.3426174,19.2977928 21.6034185,19.2325925 C21.6682163,19.2325925 21.6682163,19.2977928 21.6682163,19.362993 M16.2573983,23.6654064 C16.2573983,23.6654064 16.1913931,23.6006086 16.1913931,23.5354083 C17.0393991,22.4270036 17.6914019,21.3837991 18.2782044,20.2101942 C19.1262105,19.7541947 19.829327,19.0897153 20.4950138,18.3849889 C21.6034185,17.2113839 22.776621,16.1681795 24.1458268,15.5165792 C24.667429,15.3205759 25.3190293,15.3857762 25.8406316,15.581377 C25.6446283,15.8421781 25.3190293,15.7773803 25.0586307,15.9725786 C24.993028,15.9725786 24.9278277,15.9725786 24.8626274,15.9077808 C24.9278277,15.8421781 24.9278277,15.7773803 24.9278277,15.71218 C24.2758249,16.4293831 23.363021,16.7553844 22.8414188,17.6025856 C22.4502172,18.2545883 22.1898185,19.1017895 21.3426174,19.2977928 C21.0818163,19.362993 21.4078177,19.1017895 21.2766122,19.1669897 C19.2558061,20.405795 17.8218025,21.9058038 16.2573983,23.6654064 M26.2318332,25.0998124 C26.1014327,25.0998124 25.8406316,25.1650127 25.9058318,25.0346122 C25.9710321,24.7090133 26.427434,24.7090133 26.6886376,24.5782102 C26.8186357,24.51301 27.0142365,24.3826094 27.1442346,24.4482121 C27.2750376,24.6434105 27.4706385,24.5782102 27.6006366,24.7090133 C27.2102398,25.0998124 26.6886376,24.9042116 26.2318332,25.0998124 M23.5586219,27.4470224 C23.8850257,27.3162194 24.2758249,27.5118202 24.6014238,27.4470224 C24.7974271,27.4470224 24.993028,27.4470224 25.1886288,27.5770205 C24.571641,27.9138886 24.0037546,28.2962359 23.4415029,28.6459831 L26.8790063,28.6459831 C27.2500845,28.4692984 27.6211626,28.219364 27.9918382,28.0334224 C27.5358388,28.163823 27.1442346,28.3594238 26.7534354,28.6206274 C26.6886376,28.6206274 26.4926343,28.6858277 26.4926343,28.5554271 C26.5578346,28.4246241 26.7534354,28.3594238 26.8834335,28.2290233 C26.9490363,28.2290233 27.0142365,28.2290233 27.0142365,28.294626 C29.1002429,26.6646191 31.9690551,27.0558207 34.3810629,26.2082171 C34.5770662,26.0778166 34.7722645,25.947416 34.9678654,25.8170155 C35.2934643,25.6866149 35.5542654,25.361016 35.9458695,25.1650127 C36.4670692,24.7738111 36.8582709,24.3174091 37.0538717,23.6654064 C37.0538717,23.6006086 36.9886715,23.5354083 36.9886715,23.5354083 C36.1414703,24.4482121 35.1634662,25.1650127 34.1202618,25.6866149 C32.7510559,26.403818 31.2518521,26.2734174 29.817446,26.4690183 C29.8826462,26.3390202 30.0134493,26.3390202 30.1434473,26.3390202 C30.1434473,26.1430169 30.2738479,26.0778166 30.4042485,25.947416 L30.5998493,25.947416 C30.6650496,25.947416 30.6650496,25.8170155 30.7302498,25.8170155 C30.8606504,25.8170155 31.0562512,25.7522177 30.9906485,25.7522177 C30.7954501,25.4910141 30.4042485,25.947416 30.0782471,25.7522177 C30.2086476,25.6214147 30.1434473,25.4258138 30.2738479,25.361016 L30.5342465,25.361016 C30.5342465,25.230213 30.6650496,25.0998124 30.6650496,25.0998124 C31.6430537,24.51301 32.5558576,24.056608 33.4678565,23.5354083 C33.2722557,23.5354083 33.1426601,23.7306066 32.9466568,23.6006086 C33.0774598,23.6006086 32.9466568,23.4046053 33.0774598,23.4046053 C33.7942604,23.2090044 34.3810629,22.8182052 35.0982659,22.5574041 C34.8378673,22.5574041 34.6414615,22.7526025 34.3810629,22.5574041 C34.5114634,22.4922038 34.5770662,22.3614008 34.7722645,22.3614008 L34.7722645,22.1662025 C34.7722645,22.1010022 34.8378673,22.1010022 34.9022626,22.1010022 C34.8378673,22.1010022 34.7722645,22.0353994 34.7722645,22.0353994 C34.8378673,21.9058038 35.0330656,21.9706016 35.1634662,21.8402011 C35.0982659,21.8402011 34.9678654,21.8402011 34.9678654,21.7750008 C35.1634662,21.5141997 35.4894676,21.448597 35.8150665,21.3837991 C35.7502687,21.2533986 35.5542654,21.3837991 35.5542654,21.2533986 C35.5542654,21.1881983 35.6198681,21.1881983 35.6850684,21.1881983 L35.5542654,21.1881983 C35.4242673,21.122998 35.4894676,20.993 35.4894676,20.9269947 C35.8806692,20.4713977 35.8806692,19.8845953 36.0762701,19.362993 C36.0106673,19.362993 35.9458695,19.362993 35.9458695,19.2977928 C35.2934643,20.0145933 34.2506623,20.2753944 33.2722557,20.536598 L32.9466568,20.536598 C32.6206554,20.6665961 32.1642535,20.6665961 31.8386545,20.4713977 C31.577451,20.3405947 31.4470504,20.1449939 31.1862493,19.9497955 C30.6650496,19.6237941 30.1434473,19.362993 29.5566449,19.1669897 C27.9266379,18.64579 26.2318332,18.3849889 24.5370285,18.4497867 C25.2538291,18.05939 26.0446843,18.0255824 26.8186357,17.7981864 C27.9266379,17.472185 28.9698424,17.0809834 30.1434473,17.1461836 C29.9478465,17.0809834 29.6870454,17.1461836 29.4914446,17.1461836 C28.5790432,17.0809834 27.6658368,17.341382 26.6886376,17.5373853 C26.0362324,17.6677858 25.4494299,17.9281845 24.7974271,18.05939 C24.4066279,18.1889856 24.2110271,18.5805897 23.7542227,18.514987 L23.7542227,18.3197886 C24.4066279,17.5373853 25.1886288,16.7553844 26.2318332,16.6897817 C27.4050357,16.4941809 28.5134404,16.6897817 29.6870454,16.8201822 C30.5342465,16.8853825 31.3170523,17.0809834 32.1642535,17.2761817 C32.4906573,17.2761817 32.5558576,17.7981864 32.8162562,17.8629842 C33.2074579,17.9937872 33.599062,17.8629842 33.9894587,18.1241878 C33.9894587,17.9937872 33.9246609,17.8629842 33.9894587,17.7329861 C34.2506623,17.472185 34.5770662,17.7981864 34.8378673,17.6677858 C35.359067,17.341382 34.3810629,16.7553844 34.1202618,16.29858 C34.1202618,16.2333798 34.185462,16.1681795 34.185462,16.1681795 C34.7066618,16.6245814 35.0982659,17.1461836 35.7502687,17.472185 C36.0762701,17.6025856 36.8582709,17.7981864 36.7278704,17.4073872 C36.4022714,16.6897817 35.7502687,16.1033817 35.228264,15.4513789 L35.228264,15.1905778 C35.0982659,15.1905778 35.0982659,15.1249751 35.0330656,15.0597748 L35.0330656,14.7989737 C34.7722645,14.6689756 34.8378673,14.4081745 34.7066618,14.2125736 C34.5114634,13.8865723 34.6414615,13.4297679 34.5114634,13.0385662 C34.3810629,12.647767 34.3158626,12.3217656 34.2506623,11.930564 C34.0550615,10.8221593 33.7942604,9.84415511 33.6642623,8.80135315 C33.5334593,7.5625479 34.3810629,6.58494622 34.9678654,5.47654151 C35.4242673,4.69413819 35.9458695,3.91213734 36.7930706,3.39013266 C36.9886715,2.60772934 37.5102737,1.95612904 38.0318759,1.30412628 C38.5526732,0.6674174 39.3294419,0.339403663 40.0446326,0.000120741253 L1.35028071,0.000120741253 L1.35028071,28.6459831 L20.8548227,28.6459831 C21.4279412,27.7867078 22.6377686,27.8764588 23.5586219,27.4470224" id="Fill-107"></path>
                <path d="M23.4124042,21.2780274 C23.5488553,21.2558364 23.6838899,21.2312846 23.8132588,21.1883191 C23.6843621,21.1883191 23.5469667,21.2322289 23.4124042,21.2780274" id="Fill-109"></path>
                <path d="M37.9666756,26.2732564 C37.8358726,26.3388592 37.706277,26.2080562 37.6406742,26.2080562 C36.6630725,26.5336551 35.9458695,27.3820636 34.9678654,27.7728628 L34.9678654,27.6424622 C34.5770662,27.7728628 34.1967312,28.0091132 33.7942604,28.0988642 C33.2074579,28.2288623 32.6858557,28.1640645 32.1642535,28.1640645 C31.2804275,28.252608 30.396199,28.460283 29.5123731,28.6462245 L37.326747,28.6462245 C38.2282817,27.6255585 39.0980212,26.6648606 40.2482828,25.817257 C40.3138856,25.7520567 40.3138856,25.6212537 40.3786834,25.5560534 C40.0530845,25.6864539 39.8570812,25.9472551 39.5314823,26.0776556 C39.466282,26.0776556 39.4014842,26.0128578 39.466282,25.9472551 C39.6985077,25.7733876 39.9311358,25.5991178 40.1633615,25.4248479 C40.1488725,25.4256528 40.1335786,25.4260553 40.1182847,25.4260553 C40.0530845,25.4260553 40.0530845,25.360855 40.0530845,25.2952523 C39.2058833,25.1648517 38.5534781,25.7520567 37.9666756,26.2732564" id="Fill-111"></path>
                <path d="M40.2632558,25.361016 C40.2297333,25.3860399 40.1966828,25.4110638 40.1631602,25.4360877 C40.2184017,25.4327827 40.2632558,25.4190904 40.2632558,25.361016" id="Fill-113"></path>
                <path d="M86.7077059,8.04941688e-05 L56.0808821,8.04941688e-05 C56.5606274,0.250417359 57.028701,0.561929792 57.3293467,1.04328492 C57.4601497,1.23888575 57.6553481,1.63008741 57.5249475,1.89088852 C57.3945469,2.2168899 57.3293467,2.73849212 57.0033453,2.86889267 C56.6125461,3.0644935 56.0909439,3.0644935 55.6349444,2.99929322 C55.3737408,2.99929322 55.1129397,2.93409295 54.8525411,2.86889267 C55.8297403,3.26009433 56.7425442,3.71649627 57.3945469,4.6284952 C57.4601497,4.75929822 57.7201459,4.8244985 57.9813494,4.8244985 C58.0465497,4.8244985 58.0465497,4.95530152 58.0465497,5.02009933 C57.9161492,5.15049988 57.7857486,5.21610263 57.8513514,5.41130099 L58.0465497,5.41130099 C58.3729536,5.28090044 58.3073508,4.6284952 58.7637528,4.8244985 C59.0893517,5.02009933 59.2197522,5.47650127 59.0249563,5.80250265 C58.7637528,6.06330376 58.5029517,6.25890459 58.2413456,6.45450542 C58.1769503,6.58490597 58.1769503,6.7805068 58.2413456,6.91050488 C58.4377514,7.17130599 58.5029517,7.4321071 58.5681519,7.69331067 C58.7637528,8.14931014 58.828953,8.67050988 59.0249563,9.12731429 C59.2849525,10.104916 59.5461561,11.0837251 59.4809558,12.0609243 C59.4809558,12.582929 59.2197522,13.038526 59.4157555,13.5605306 C59.5461561,14.0821328 59.871755,14.4733345 60.1329586,14.9297364 C60.3933572,15.3205356 60.6545608,15.5813367 60.8493567,15.9729409 C61.2409608,16.6245412 61.9585663,17.2761415 61.63176,18.0593497 C61.4365616,18.5149467 60.7193586,18.4497464 60.2633591,18.71095 C59.871755,19.0369514 60.1977564,19.5581511 60.3933572,19.884555 C60.7193586,20.4713575 60.0021555,20.8621567 59.5461561,21.0577575 C59.6761542,21.2533583 59.9373577,21.1881581 60.0021555,21.3185586 C60.0677583,21.64456 60.3933572,21.8401608 60.1977564,22.1661622 C59.9373577,22.5573639 59.1545519,22.7525622 59.5461561,23.3397672 C59.8061522,23.7961691 59.6383219,24.3028799 59.4809558,24.7737708 C59.2849525,25.3609758 58.7637528,25.6213744 58.3073508,25.7521774 C57.9161492,25.8821755 57.4601497,25.8821755 57.0685456,25.8169752 C56.9385475,25.7521774 56.807342,25.6865747 56.6769414,25.6865747 C55.5689392,25.5561741 54.460937,25.2301728 53.3525323,25.2301728 C53.0261284,25.295373 52.700127,25.3609758 52.4401309,25.4909739 C51.3377632,26.2874637 50.6418911,27.4296759 50.2362005,28.6459428 L86.7077059,28.6459428 L86.7077059,8.04941688e-05 Z" id="Fill-115"></path>
                <path d="M58.6986732,11.6699641 C58.6330705,11.4743633 58.1118707,11.4743633 57.7854669,11.3439627 C57.4602704,11.2131597 57.0686663,11.3439627 56.6770622,11.409163 C56.3514633,11.409163 56.0254619,11.6047638 55.6994605,11.6699641 C55.2426561,11.8003646 54.8522594,12.0607633 54.4606552,12.3219669 C54.9170572,12.126366 55.3738616,12.0607633 55.8954638,11.9307652 C56.2866655,11.9307652 56.6183014,11.8345747 57.003466,11.9307652 C57.2638647,11.9959655 57.6554688,11.9959655 57.6554688,12.126366 C57.5250682,12.6479682 56.7426649,12.7779663 56.3514633,13.2995685 L56.15546,13.2995685 C55.9602616,13.4299691 56.0254619,13.7563729 55.829861,13.7563729 C55.6350652,13.6907702 55.4386594,13.7563729 55.2426561,13.8215732 C55.5038597,14.0819719 55.829861,14.2775727 56.2210627,14.2123724 C56.2866655,14.2123724 56.417066,14.342773 56.417066,14.4731735 C56.417066,14.4731735 56.4818638,14.4731735 56.5470641,14.4083757 C56.6122644,14.4083757 56.6770622,14.4083757 56.6770622,14.4731735 L56.6770622,14.7339746 C56.4818638,14.9947757 56.15546,14.8643752 55.8954638,14.9299779 C56.417066,15.059976 56.9386682,15.059976 57.3946677,14.9299779 C57.7854669,14.7987724 57.3946677,14.1471721 57.6554688,13.8215732 C57.5250682,13.8215732 57.6554688,13.6259724 57.5250682,13.6259724 C57.6554688,13.4955718 57.7854669,13.2995685 57.9162699,13.2347707 C58.0466705,13.2347707 58.2414663,13.1695705 58.3070691,13.0387674 C58.3070691,12.9087694 58.0466705,12.8435691 58.1118707,12.7131685 C58.5030724,12.4519649 58.8286713,12.0607633 58.6986732,11.6699641" id="Fill-117"></path>
                <path d="M54.3695358,105.7371 C54.3699383,105.980997 54.6049813,106.150035 54.9901459,106.149632 C55.6755537,106.148425 55.9001325,105.613139 55.8522384,104.936988 C55.2139197,105.247695 54.3687309,105.098379 54.3695358,105.7371" id="Fill-119"></path>
                <path d="M33.3060632,74.0570501 C32.6898804,74.0570501 32.3642815,74.5512843 32.294654,75.121183 L34.2595167,75.121183 C34.2595167,74.533978 33.9339178,74.0570501 33.3060632,74.0570501" id="Fill-121"></path>
                <path d="M68.8195673,103.352943 C68.1526731,103.353748 67.9566698,104.039558 67.9574747,104.593761 C67.9586822,105.523468 68.3068194,105.927147 68.8042734,105.926342 C69.3303028,105.925939 69.6490597,105.521456 69.6478523,104.591748 C69.6470473,103.868508 69.3266805,103.324368 68.8195673,103.352943" id="Fill-123"></path>
                <path d="M28.1376132,74.0570501 C27.5214303,74.0570501 27.1958314,74.5512843 27.1262039,75.121183 L29.0910666,75.121183 C29.0910666,74.533978 28.7654677,74.0570501 28.1376132,74.0570501" id="Fill-125"></path>
                <path d="M8.29113189,103.425629 C7.62423771,103.426434 7.42783193,104.112245 7.42863688,104.666447 C7.42984429,105.596155 7.77798157,105.999833 8.275838,105.999028 C8.8018674,105.998223 9.1206243,105.594142 9.11941689,104.664435 C9.11820948,103.941194 8.79824516,103.396651 8.29113189,103.425629" id="Fill-127"></path>
                <path d="M86.4671893,91.6085621 C85.884814,91.6077572 85.5559953,91.9365758 85.5551904,92.4626052 L86.7819215,92.4634102 L86.7819215,91.6741649 C86.6833162,91.6331128 86.5770639,91.6085621 86.4671893,91.6085621" id="Fill-129"></path>
                <path d="M86.5206375,94.4260592 C86.6115959,94.4260592 86.6985296,94.4099604 86.781841,94.3854097 L86.781841,93.4589218 L85.554305,93.4581169 C85.5539025,94.0404922 86.0042674,94.4256568 86.5206375,94.4260592" id="Fill-131"></path>
                <path d="M83.1888631,92.3948291 C83.0572551,92.375913 82.9163903,92.3380808 82.7851848,92.3380808 C81.9866827,92.3372758 81.5826019,92.7127811 81.5813945,93.7740967 L81.5797846,95.4737311 L79.6261912,95.4725237 L79.6314233,90.5511102 L81.4063197,90.5527201 L81.4051123,91.5480305 L81.4240284,91.5480305 C81.6969037,90.7781038 82.1766489,90.4122578 82.9373188,90.4130627 C83.0218377,90.4130627 83.1063566,90.4319788 83.1908754,90.4412357 L83.1888631,92.3948291 Z M78.6779699,95.4717187 L76.8652412,95.4701089 L76.8660461,94.7468688 C76.3770441,95.4226173 75.8977013,95.6101687 75.0899423,95.6097662 C74.0193698,95.6085588 73.3251076,94.9509215 73.3267175,93.5422735 L73.3295348,90.5462806 L75.2827258,90.5478904 L75.280311,93.2054054 C75.2795061,93.8815564 75.5141466,94.0980858 75.98383,94.0980858 C76.5472892,94.0988907 76.7259863,93.6762963 76.7267912,92.9156264 L76.729206,90.5490979 L78.6827995,90.5507077 L78.6779699,95.4717187 Z M75.7934613,107.091857 L75.7898391,104.490285 C75.7890341,104.002088 75.6570237,103.570237 75.1028214,103.571042 C74.5019324,103.571847 74.3429564,103.957012 74.3433589,104.586073 L74.3469811,107.093869 L72.3937901,107.095882 L72.3869481,102.174871 L74.1711014,102.172456 L74.1723088,102.942785 C74.6126119,102.350348 75.0911497,102.030384 75.8333059,102.029981 C77.1292621,102.028371 77.7410177,102.788236 77.7426276,104.140538 L77.7470548,107.089442 L75.7934613,107.091857 Z M68.8065675,107.241174 C67.2284793,107.243186 66.0065778,106.380691 66.004163,104.69957 C66.0017482,102.990277 67.1274591,102.040043 68.7896637,102.038433 C70.5271303,102.036018 71.5993127,103.058697 71.601325,104.589293 C71.6037398,106.392363 70.3842532,107.239161 68.8065675,107.241174 L68.8065675,107.241174 Z M65.1167148,95.460852 L63.3039861,95.4592422 L63.304791,94.736002 C62.815789,95.4121531 62.3364462,95.599302 61.5286872,95.5988995 C60.4581148,95.5976921 59.7638526,94.9400548 59.76506,93.5314068 L59.7682797,90.5354138 L61.7218732,90.5370237 L61.7190559,93.1945387 C61.718251,93.8710922 61.9528915,94.087219 62.422575,94.0876215 C62.9860341,94.088024 63.1647312,93.6654296 63.1659386,92.9047597 L63.167951,90.5378287 L65.1215444,90.5394386 L65.1167148,95.460852 Z M63.1337409,107.107151 L63.1268989,102.185737 L65.0800899,102.183323 L65.0869319,107.104736 L63.1337409,107.107151 Z M63.1240816,100.166541 L65.0776751,100.164529 L65.079285,101.554261 L63.1256915,101.556675 L63.1240816,100.166541 Z M61.1588165,105.099626 C61.159219,105.550394 61.2252242,105.709772 61.7701697,105.70937 L62.0800723,105.708967 L62.0820846,107.108358 C59.5183453,107.252443 59.2080403,107.074148 59.2056255,105.374514 L59.2028082,103.317485 L58.5077411,103.31829 L58.5061312,102.191372 L59.2293713,102.190567 L59.2273589,100.659568 L61.152377,100.657556 L61.1543893,102.188152 L62.0937563,102.187347 L62.0953662,103.313863 L61.1559992,103.315071 L61.1588165,105.099626 Z M55.7999172,95.6319021 C53.5645942,95.6298898 52.2134995,94.2574642 52.2159144,92.0603759 C52.2179267,89.8721419 53.7034466,88.511388 55.5910349,88.5125954 C57.6569177,88.5142053 58.8112041,89.538896 58.9878888,91.2767651 L56.8841737,91.2747528 C56.8189734,90.5704288 56.3782678,90.1663481 55.6832007,90.1655431 C54.9036146,90.1651407 54.4335287,90.8316324 54.4323213,92.1368453 C54.4311139,93.0854691 54.637179,93.9781494 55.7640973,93.9789544 C56.4776781,93.9793569 56.8165586,93.4819029 56.9014799,92.8339248 L59.033368,92.8355347 C58.8345474,94.5822582 57.5840705,95.6331096 55.7999172,95.6319021 L55.7999172,95.6319021 Z M56.0526689,107.115603 L55.9576858,106.589976 C55.4042884,107.107151 54.8412317,107.258077 54.1087347,107.258882 C53.1786246,107.26009 52.351547,106.800871 52.3503396,105.776985 C52.3471198,103.541662 55.851836,104.551863 55.8506285,103.631413 C55.8498236,103.274823 55.4175699,103.228137 55.2111024,103.228539 C54.9390321,103.228942 54.5727836,103.28569 54.5264995,103.708285 L52.648168,103.710699 C52.6465582,102.667897 53.387507,102.056544 55.3318436,102.054532 C57.6609424,102.051715 57.8030146,102.915417 57.8046245,104.089424 L57.8078443,106.39035 C57.8082467,106.67208 57.8175036,106.812945 58.0714627,107.01901 L58.0718651,107.113188 L56.0526689,107.115603 Z M48.9619376,107.264919 C47.374995,107.266932 46.1526911,106.376264 46.1502763,104.713657 C46.1478614,103.032938 47.3299183,102.063789 48.9546931,102.062179 C50.2695654,102.060569 51.5099805,102.622418 51.6532601,104.077753 L49.6714937,104.080168 C49.6618344,103.864443 49.5861699,103.695405 49.4642212,103.573457 C49.3418701,103.442251 49.1724298,103.376649 48.9567055,103.377051 C48.2242085,103.377856 48.1030648,104.138526 48.1038697,104.720901 C48.1050772,105.462655 48.3872092,105.950852 48.9603277,105.950047 C49.467441,105.949645 49.6642492,105.60191 49.7197902,105.216745 L51.6922998,105.21433 C51.5252744,106.7079 50.3238989,107.26331 48.9619376,107.264919 L48.9619376,107.264919 Z M43.3084296,107.130897 L43.3011852,102.209483 L45.2547786,102.207068 L45.2616206,107.128482 L43.3084296,107.130897 Z M43.2983679,100.190689 L45.2519613,100.188275 L45.2539737,101.578006 L43.3003802,101.580421 L43.2983679,100.190689 Z M40.3124367,107.134519 L40.3088144,104.532947 C40.3080095,104.04475 40.1759991,103.612899 39.6217967,103.613704 C39.0209077,103.614106 38.8615293,103.999271 38.8623342,104.628735 L38.8659565,107.136129 L36.9127655,107.138544 L36.905521,102.21713 L38.6900767,102.215118 L38.6908816,102.985447 C39.1315872,102.39301 39.6101251,102.073046 40.3522813,102.072241 C41.6482374,102.071033 42.2599931,102.830898 42.261603,104.1832 L42.2656277,107.132104 L40.3124367,107.134519 Z M34.1888428,107.141763 L34.1880378,106.418523 C33.7006457,107.095479 33.2221078,107.283836 32.4143488,107.285043 C31.3437764,107.28625 30.6479043,106.629418 30.6458919,105.22077 L30.6414648,102.224777 L32.5950582,102.222765 L32.5986805,104.88028 C32.5994854,105.556431 32.8349309,105.772155 33.3042119,105.771753 C33.8680735,105.770948 34.0455632,105.348353 34.0443558,104.587281 L34.041136,102.220752 L35.9947295,102.218338 L36.0015715,107.139751 L34.1888428,107.141763 Z M30.5098568,76.8361113 L30.1609146,76.8361113 L30.1609146,73.8244219 L30.5098568,73.8244219 L30.5098568,74.3882836 L30.5215285,74.3882836 C30.7131046,73.9061235 30.9980539,73.7431228 31.5039598,73.7431228 L31.5039598,74.121043 C30.7191416,74.1037367 30.5098568,74.6849046 30.5098568,75.3594457 L30.5098568,76.8361113 Z M27.821754,107.14941 L27.8181318,104.642017 C27.8169244,103.918777 27.6756571,103.62779 27.159287,103.628595 C26.5861685,103.628998 26.4742817,104.126854 26.4750866,104.718889 L26.4787088,107.15102 L24.5251154,107.153435 L24.5214931,104.646042 C24.5202857,103.922802 24.3790184,103.631815 23.8626483,103.632218 C23.2899323,103.633023 23.177643,104.130879 23.1788504,104.722511 L23.1820702,107.155045 L21.2284767,107.15746 L21.2216347,102.236046 L23.0154472,102.234034 L23.0166546,102.966531 C23.2601495,102.590623 23.8698928,102.091962 24.5742168,102.091157 C25.4572378,102.089949 25.9458374,102.465455 26.1812829,102.991082 C26.6034748,102.399047 27.1568722,102.088339 27.8801123,102.087534 C29.3169332,102.085522 29.7693105,102.892476 29.7709203,104.235521 L29.774945,107.146995 L27.821754,107.14941 Z M21.1495924,76.8361113 L21.4985346,76.8361113 L21.4985346,73.8244219 L21.1495924,73.8244219 L21.1495924,76.8361113 Z M21.1318837,73.1671871 L21.5158409,73.1671871 L21.5158409,72.650012 L21.1318837,72.650012 L21.1318837,73.1671871 Z M18.4296944,107.160679 L18.4264747,104.653286 C18.4252672,103.930046 18.284,103.63906 17.7676299,103.639865 C17.1945114,103.640267 17.0826245,104.138123 17.0834295,104.729756 L17.0866492,107.162289 L15.1334582,107.164704 L15.129836,104.656908 C15.129031,103.934071 14.9873613,103.643084 14.4709912,103.643487 C13.8982752,103.644292 13.7863883,104.142148 13.7867908,104.73378 L13.790413,107.166314 L11.8368195,107.168729 L11.8299775,102.247718 L13.6237901,102.245303 L13.6249975,102.9778 C13.8684924,102.601892 14.4782357,102.103633 15.1825597,102.102426 C16.0655807,102.101621 16.5545828,102.476321 16.7896257,103.002351 C17.2118177,102.409914 17.7652151,102.099206 18.4884552,102.098401 C19.9256786,102.096791 20.3772508,102.903745 20.3792632,104.246791 L20.3832879,107.158265 L18.4296944,107.160679 Z M11.7659847,72.650012 L12.3708983,72.650012 L13.7429215,76.3418771 L13.7541906,76.3418771 L15.1032729,72.650012 L15.7021495,72.650012 L15.7021495,76.8361113 L15.3065207,76.8361113 L15.3065207,73.1035967 L15.2952515,73.1035967 L13.9228259,76.8361113 L13.5509429,76.8361113 L12.1728827,73.1035967 L12.161211,73.1035967 L12.161211,76.8361113 L11.7659847,76.8361113 L11.7659847,72.650012 Z M8.27776986,107.313618 C6.70008415,107.315631 5.4777802,106.453136 5.47536538,104.772015 C5.47295055,103.062721 6.5986615,102.11289 8.26126856,102.110878 C9.99833272,102.108865 11.070515,103.131141 11.0725274,104.661738 C11.0753447,106.46521 9.85545557,107.312009 8.27776986,107.313618 L8.27776986,107.313618 Z M16.6262226,76.8361113 L16.9751648,76.8361113 L16.9751648,73.8244219 L16.6262226,73.8244219 L16.6262226,76.8361113 Z M16.6089163,73.1671871 L16.992471,73.1671871 L16.992471,72.650012 L16.6089163,72.650012 L16.6089163,73.1671871 Z M17.8646254,73.8244219 L18.2135676,73.8244219 L18.2135676,74.2429916 C18.4924799,73.9467731 18.7657576,73.7431228 19.1843273,73.7431228 C19.5505757,73.7431228 19.8878463,73.8594369 20.1031682,74.1733642 C20.2484602,74.3882836 20.2540948,74.6152771 20.2540948,74.8652115 L20.2540948,76.8361113 L19.905555,76.8361113 L19.905555,74.8712486 C19.905555,74.3303278 19.684196,74.0570501 19.1263715,74.0570501 C18.6961301,74.0570501 18.3995091,74.3359624 18.2892321,74.644255 C18.2192022,74.8362336 18.2135676,75.0048689 18.2135676,75.2141538 L18.2135676,76.8361113 L17.8646254,76.8361113 L17.8646254,73.8244219 Z M22.3066961,74.6036055 C22.3066961,74.1037367 22.6958854,73.7431228 23.3643894,73.7431228 C24.0155873,73.7431228 24.440194,74.0103635 24.5275302,74.6909417 L24.1725509,74.6909417 C24.108558,74.2256854 23.7946308,74.0570501 23.3587549,74.0570501 C22.9168419,74.0570501 22.6785791,74.2663349 22.6785791,74.5746276 C22.6785791,75.3940582 24.6088293,74.8825178 24.6088293,76.0396215 C24.6088293,76.6151548 24.0912518,76.9174104 23.3820982,76.9174104 C22.6725421,76.9174104 22.265644,76.4642282 22.2366661,75.8943295 L22.591243,75.8943295 C22.70152,76.4115045 22.9691631,76.6034831 23.4923752,76.6034831 C23.998281,76.6034831 24.2365438,76.3362425 24.2365438,76.0452561 C24.2365438,75.1735042 22.3066961,75.7896871 22.3066961,74.6036055 L22.3066961,74.6036055 Z M24.992384,73.8244219 L25.4165883,73.8244219 L25.4165883,72.9872826 L25.7655305,72.9872826 L25.7655305,73.8244219 L26.3297946,73.8244219 L26.3297946,74.1154084 L25.7655305,74.1154084 L25.7655305,76.1792788 C25.7655305,76.4754974 25.7772022,76.6034831 26.0677861,76.6034831 C26.1611593,76.6034831 26.2597647,76.5861769 26.3527355,76.5628336 L26.3527355,76.8477829 C26.2714363,76.8650892 26.1205098,76.9174104 25.9518745,76.9174104 C25.6085669,76.9174104 25.4165883,76.7664838 25.4165883,76.3185338 L25.4165883,74.1154084 L24.992384,74.1154084 L24.992384,73.8244219 Z M28.1376937,73.7431228 C28.9631614,73.7431228 29.4690672,74.3303278 29.4634326,75.4117669 L27.1262844,75.4117669 C27.1202474,76.0625623 27.4691896,76.6034831 28.1376937,76.6034831 C28.5912783,76.6034831 28.9458551,76.3535487 29.0504975,75.9116357 L29.4400893,75.9116357 C29.2658194,76.4815345 28.9052056,76.9174104 28.1376937,76.9174104 C27.1725686,76.9174104 26.7539989,76.2311976 26.7539989,75.341737 C26.7539989,74.4639481 27.277211,73.7431228 28.1376937,73.7431228 L28.1376937,73.7431228 Z M27.8583789,72.691064 L28.5039421,73.498823 L28.2073211,73.498823 L27.4051967,72.691064 L27.8583789,72.691064 Z M33.3062242,73.7431228 C34.1316919,73.7431228 34.6375978,74.3303278 34.6315607,75.4117669 L32.2944125,75.4117669 C32.2887779,76.0625623 32.6373177,76.6034831 33.3062242,76.6034831 C33.7594064,76.6034831 34.1143857,76.3535487 34.2190281,75.9116357 L34.6082174,75.9116357 C34.4339475,76.4815345 34.0737361,76.9174104 33.3062242,76.9174104 C32.3410991,76.9174104 31.9225295,76.2311976 31.9225295,75.341737 C31.9225295,74.4639481 32.4457416,73.7431228 33.3062242,73.7431228 L33.3062242,73.7431228 Z M66.1659563,88.6997443 L68.1191473,88.7013542 L68.1127077,95.4632669 L66.1591143,95.461657 L66.1659563,88.6997443 Z M68.840375,90.5426583 L69.5636151,90.5430608 L69.565225,89.0124642 L71.4906455,89.0140741 L71.4890357,90.5446707 L72.4280001,90.5454756 L72.4267927,91.672394 L71.4878282,91.671589 L71.4858159,93.4561448 C71.4854134,93.9069121 71.5510162,94.066693 72.0959617,94.0670955 L72.4058642,94.0670955 L72.4042544,95.4664866 C69.8401126,95.6053391 69.5306125,95.426642 69.5322224,93.7270076 L69.5342348,91.6699792 L68.8391676,91.6695767 L68.840375,90.5426583 Z M83.6013957,93.0621258 C83.6030056,91.4466078 84.8156502,90.4146726 86.3933359,90.41588 C86.5273587,90.41588 86.6561494,90.4247344 86.7821228,90.4380159 L86.7821228,65.5246682 L1.21118679,65.5246682 L1.21118679,100.249853 C1.27799695,100.24623 1.34400217,100.240596 1.41201974,100.240596 C3.47790258,100.238181 4.63460378,101.260457 4.81571566,102.997924 L2.71159809,103.000338 C2.6451904,102.296014 2.20327742,101.892739 1.50821027,101.893544 C1.40276291,101.893544 1.30456002,101.908435 1.21118679,101.932583 L1.21118679,105.664293 C1.32629345,105.691661 1.45427918,105.706552 1.59796127,105.706552 C2.31194454,105.705747 2.64921511,105.207488 2.73292905,104.55951 L4.86481711,104.556693 C4.67002122,106.303819 3.4223616,107.357085 1.63780588,107.3595 C1.49170896,107.3595 1.34963676,107.353061 1.21118679,107.341791 L1.21118679,113.064122 L86.7821228,113.064122 L86.7821228,95.6013144 C86.6537346,95.6117786 86.5249439,95.6190231 86.3973606,95.6186206 C84.8196749,95.6174132 83.5997858,94.7150736 83.6013957,93.0621258 L83.6013957,93.0621258 Z" id="Fill-133"></path>
            </g>
        </g>
    </g>
</svg>