<?xml version="1.0" encoding="UTF-8" standalone="no"?>
<svg width="129px" height="59px" viewBox="0 0 129 59" version="1.1" xmlns="http://www.w3.org/2000/svg" xmlns:xlink="http://www.w3.org/1999/xlink">
    <!-- Generator: Sketch 46.2 (44496) - http://www.bohemiancoding.com/sketch -->
    <title>logo rhone alpes</title>
    <desc>Created with Sketch.</desc>
    <defs>
        <polygon id="path-1" points="0 58.7033108 128.885959 58.7033108 128.885959 0.913688627 0 0.913688627"></polygon>
    </defs>
    <g id="Symbols" stroke="none" stroke-width="1" fill="none" fill-rule="evenodd">
        <g id="footer-/-white" transform="translate(-210.000000, -202.000000)">
            <g id="logo-rhone-alpes" transform="translate(210.000000, 201.686202)">
                <polygon id="Fill-1" fill="#FEFEFE" points="0.597353529 28.5830207 0.597353529 41.3093304 8.66148414 41.3093304 8.66148414 39.0501998 3.48139038 39.0501998 3.48139038 28.5830207"></polygon>
                <g id="Group-39" transform="translate(0.000000, 0.032855)">
                    <path d="M15.9816923,38.0202407 L15.9816923,37.2362675 L14.9856297,37.2362675 C13.4905889,37.2362675 12.6176139,37.557242 12.6176139,38.5542515 C12.6176139,39.2302864 13.0275902,39.6752954 13.9706305,39.6752954 C15.1096641,39.6752954 15.9816923,39.0522828 15.9816923,38.0202407 Z M14.9316605,35.7061941 L15.9816923,35.7061941 L15.9816923,35.3321972 C15.9816923,34.2281962 15.6436749,33.6231734 14.4696086,33.6231734 C13.4546095,33.6231734 12.9916108,34.1401413 12.8846193,34.9402106 L10.4465382,34.9402106 C10.6065521,32.7331555 12.3506085,31.7541357 14.6296225,31.7541357 C16.9076897,31.7541357 18.5277117,32.6801331 18.5277117,35.207216 L18.5277117,41.2773277 L16.0176718,41.2773277 L16.0176718,40.1562838 C15.483661,40.9033308 14.6646551,41.473321 13.2055938,41.473321 C11.5145597,41.473321 10.090531,40.6543151 10.090531,38.6962756 C10.090531,36.5252 12.0836031,35.7061941 14.9316605,35.7061941 Z" id="Fill-2" fill="#FEFEFE"></path>
                    <path d="M27.462829,30.757505 L29.0819042,30.757505 C30.4709003,30.757505 31.2539267,31.202514 31.2539267,32.5015614 L31.2539267,32.5735203 C31.2539267,33.8015557 30.5239226,34.4065785 29.0819042,34.4065785 L27.462829,34.4065785 L27.462829,30.757505 Z M31.751958,41.2767596 L34.8139985,41.2767596 L31.44992,35.8665867 C32.9449608,35.4206309 34.0660047,34.4065785 34.0660047,32.4845185 L34.0660047,32.4125596 C34.0660047,29.7784853 32.1619344,28.5504499 29.1529163,28.5504499 L24.5967819,28.5504499 L24.5967819,41.2767596 L27.462829,41.2767596 L27.462829,36.364618 L28.7088541,36.364618 L31.751958,41.2767596 Z" id="Fill-4" fill="#FEFEFE"></path>
                    <path d="M40.4903246,33.5342663 C41.7183599,33.5342663 42.4303743,34.2103012 42.5193761,35.6163402 L38.3542815,35.6163402 C38.5502748,34.299303 39.3333012,33.5342663 40.4903246,33.5342663 M40.5613366,41.4724688 C43.1064092,41.4724688 44.7084415,40.351425 45.0114263,38.3403631 L42.5723984,38.3403631 C42.4123846,39.1233896 41.8253515,39.6394106 40.6323487,39.6394106 C39.2263097,39.6394106 38.390261,38.7493927 38.3183021,37.2013295 L45.029416,37.2013295 L45.029416,36.4893152 C45.029416,33.1602694 42.893373,31.7542304 40.4903246,31.7542304 C37.7842913,31.7542304 35.7022174,33.6592475 35.7022174,36.5963067 L35.7022174,36.7383309 C35.7022174,39.7104227 37.7492587,41.4724688 40.5613366,41.4724688" id="Fill-6" fill="#FEFEFE"></path>
                    <polygon id="Fill-8" fill="#FEFEFE" points="43.1244936 27.8741309 40.4194072 27.8741309 39.404408 30.7041986 41.2734457 30.7041986"></polygon>
                    <path d="M51.3431465,38.9278697 C50.0611419,38.9278697 49.1531343,37.9668397 49.1531343,36.4178297 L49.1531343,36.2758056 C49.1531343,34.7447854 49.9541504,33.7117965 51.3961688,33.7117965 C52.8022078,33.7117965 53.6392034,34.6737733 53.6392034,36.2578159 L53.6392034,36.3827971 C53.6392034,37.9668397 52.6952163,38.9278697 51.3431465,38.9278697 M51.2181652,42.8259589 C49.9011281,42.8259589 49.3131481,42.2919481 49.1531343,41.4729422 L46.590072,41.4729422 C46.8390876,43.3950022 48.210094,44.7120394 51.2181652,44.7120394 C54.2792588,44.7120394 56.1132639,43.3060005 56.1303068,40.5469448 L56.1303068,31.96774 L53.5672445,31.96774 L53.5672445,33.3557893 C53.0332337,32.412749 52.1261729,31.7547038 50.6131424,31.7547038 C48.2990958,31.7547038 46.5190599,33.6227947 46.5190599,36.2937953 L46.5190599,36.4178297 C46.5190599,39.1768853 48.3161387,40.8679194 50.577163,40.8679194 C51.9481693,40.8679194 53.0512235,40.0489135 53.5672445,39.1409059 L53.5672445,40.5469448 C53.5672445,42.006953 52.7842181,42.8259589 51.2181652,42.8259589" id="Fill-10" fill="#FEFEFE"></path>
                    <mask id="mask-2" fill="white">
                        <use xlink:href="#path-1"></use>
                    </mask>
                    <g id="Clip-13"></g>
                    <polygon id="Fill-12" fill="#FEFEFE" mask="url(#mask-2)" points="58.6654377 41.2769489 61.2285 41.2769489 61.2285 31.96774 58.6654377 31.96774"></polygon>
                    <path d="M59.9295472,30.7041039 C60.765596,30.7041039 61.4065982,30.0990811 61.4065982,29.2980649 C61.4065982,28.4970488 60.765596,27.892026 59.9295472,27.892026 C59.1105413,27.892026 58.469539,28.4970488 58.469539,29.2980649 C58.469539,30.0990811 59.1105413,30.7041039 59.9295472,30.7041039" id="Fill-14" fill="#FEFEFE" mask="url(#mask-2)"></path>
                    <path d="M65.8167318,36.5245372 C65.8167318,34.7445013 66.6717171,33.7124592 68.0957458,33.7124592 C69.5368174,33.7124592 70.373813,34.7804808 70.373813,36.5605166 L70.373813,36.684551 C70.373813,38.4465972 69.5368174,39.5146187 68.0957458,39.5146187 C66.6357377,39.5146187 65.8167318,38.4465972 65.8167318,36.6675082 L65.8167318,36.5245372 Z M68.0777561,41.4726582 C70.8718443,41.4726582 72.9898976,39.6036205 72.9898976,36.6675082 L72.9898976,36.5245372 C72.9898976,33.6234574 70.889834,31.7544198 68.0957458,31.7544198 C65.3007108,31.7544198 63.1826574,33.6584901 63.1826574,36.5785064 L63.1826574,36.7205305 C63.1826574,39.6216102 65.3007108,41.4726582 68.0777561,41.4726582 L68.0777561,41.4726582 Z" id="Fill-15" fill="#FEFEFE" mask="url(#mask-2)"></path>
                    <path d="M81.1109326,35.7239945 L81.1109326,41.2771383 L83.6910378,41.2771383 L83.6910378,35.3499976 C83.6910378,32.8579473 82.3919903,31.7539464 80.5589321,31.7539464 C79.0099222,31.7539464 77.9958698,32.5199299 77.5328711,33.4449804 L77.5328711,31.9679294 L74.9518191,31.9679294 L74.9518191,41.2771383 L77.5328711,41.2771383 L77.5328711,35.901998 C77.5328711,34.5309917 78.3689199,33.8549568 79.4729209,33.8549568 C80.6119545,33.8549568 81.1109326,34.4599796 81.1109326,35.7239945" id="Fill-16" fill="#FEFEFE" mask="url(#mask-2)"></path>
                    <path d="M2.20705512,52.8255944 L3.7712143,48.1842456 L5.33537349,52.8255944 L2.20705512,52.8255944 Z M3.10275402,47.2762379 L0,56.2938239 L1.03393573,56.2938239 L1.90407029,53.695729 L5.62510273,53.695729 L6.50754605,56.2938239 L7.59261047,56.2938239 L4.54098514,47.2762379 L3.10275402,47.2762379 Z" id="Fill-17" fill="#FEFEFE" mask="url(#mask-2)"></path>
                    <path d="M12.7820778,53.6952556 C12.7820778,54.8816306 11.8996345,55.499909 10.9660625,55.499909 C9.93212677,55.499909 9.43977642,54.9819943 9.43977642,53.8221305 L9.43977642,49.6977495 L8.39353193,49.6977495 L8.39353193,53.8723123 C8.39353193,55.6883277 9.3772858,56.4069698 10.688642,56.4069698 C11.7481421,56.4069698 12.4800398,55.8653844 12.7820778,55.247106 L12.7820778,56.2942973 L13.8292691,56.2942973 L13.8292691,49.6977495 L12.7820778,49.6977495 L12.7820778,53.6952556 Z" id="Fill-18" fill="#FEFEFE" mask="url(#mask-2)"></path>
                    <polygon id="Fill-19" fill="#FEFEFE" mask="url(#mask-2)" points="17.8994916 55.2346079 15.9442926 49.6975601 14.8090463 49.6975601 17.205467 56.294108 18.5423875 56.294108 20.9132438 49.6975601 19.8291262 49.6975601"></polygon>
                    <path d="M22.3442791,52.3588084 C22.520389,51.1856891 23.2390311,50.4547381 24.3117868,50.4547381 C25.3959044,50.4547381 26.1022378,50.9963235 26.2035483,52.3588084 L22.3442791,52.3588084 Z M24.3117868,49.5836568 C22.4948246,49.5836568 21.2213415,50.971706 21.2213415,52.9647781 L21.2213415,53.0651418 C21.2213415,55.096087 22.5459533,56.4074432 24.4121505,56.4074432 C25.9005635,56.4074432 26.9979367,55.7134186 27.2251753,54.3897536 L26.177984,54.3897536 C26.0397471,55.1585776 25.4460862,55.5373087 24.4254061,55.5373087 C23.07523,55.5373087 22.3565878,54.7050472 22.3064059,53.2043255 L27.2753572,53.2043255 L27.2753572,52.8634675 C27.2753572,50.50492 25.837126,49.5836568 24.3117868,49.5836568 L24.3117868,49.5836568 Z" id="Fill-20" fill="#FEFEFE" mask="url(#mask-2)"></path>
                    <path d="M29.614116,50.8829883 L29.614116,49.6975601 L28.5678715,49.6975601 L28.5678715,56.294108 L29.614116,56.294108 L29.614116,52.6743861 C29.614116,51.0477363 30.459633,50.6311321 31.7842448,50.5676947 L31.7842448,49.5839408 C30.5988167,49.6218139 30.0307201,50.1387818 29.614116,50.8829883" id="Fill-21" fill="#FEFEFE" mask="url(#mask-2)"></path>
                    <path d="M37.5090485,52.8755869 C37.5090485,54.3516912 36.5754765,55.209517 35.3521753,55.209517 C34.2415465,55.209517 33.3212301,54.3516912 33.3212301,52.9144069 L33.3212301,52.8130963 C33.3212301,51.4250471 34.1033097,50.4545488 35.4146659,50.4545488 C36.7014046,50.4545488 37.5090485,51.3123746 37.5090485,52.787532 L37.5090485,52.8755869 Z M37.4711754,50.7575336 C37.0924444,50.1136908 36.4116753,49.5844142 35.3143022,49.5844142 C33.4982868,49.5844142 32.2371125,51.0728272 32.2371125,52.8632782 L32.2371125,52.9513331 C32.2371125,54.7682953 33.5105956,56.0796515 35.2385559,56.0796515 C36.1967455,56.0796515 37.0924444,55.4746287 37.4711754,54.8307859 L37.4711754,55.7899223 C37.4711754,57.2016422 36.6512227,57.8199206 35.3521753,57.8199206 C34.2292377,57.8199206 33.5986506,57.4288808 33.4471581,56.6723656 L32.3753493,56.6723656 C32.5524061,57.7820475 33.409285,58.7033108 35.364484,58.7033108 C37.2060637,58.7033108 38.5051111,57.7697388 38.5174199,55.8524129 L38.5174199,49.6980335 L37.4711754,49.6980335 L37.4711754,50.7575336 Z" id="Fill-22" fill="#FEFEFE" mask="url(#mask-2)"></path>
                    <path d="M43.3648931,49.5839408 C42.2798287,49.5839408 41.547931,50.126473 41.245893,50.7447514 L41.245893,49.6975601 L40.1987017,49.6975601 L40.1987017,56.294108 L41.245893,56.294108 L41.245893,52.295655 C41.245893,51.1102269 42.1160275,50.4919485 43.0874726,50.4919485 C44.1460259,50.4919485 44.6383762,51.0089163 44.6383762,52.169727 L44.6383762,56.294108 L45.6846207,56.294108 L45.6846207,52.2454732 C45.6846207,50.3281473 44.7264312,49.5839408 43.3648931,49.5839408" id="Fill-23" fill="#FEFEFE" mask="url(#mask-2)"></path>
                    <path d="M48.0390022,52.3588084 C48.2151122,51.1856891 48.9337543,50.4547381 50.0055631,50.4547381 C51.0906276,50.4547381 51.7969609,50.9963235 51.8982715,52.3588084 L48.0390022,52.3588084 Z M50.0055631,49.5836568 C48.1895478,49.5836568 46.9160647,50.971706 46.9160647,52.9647781 L46.9160647,53.0651418 C46.9160647,55.096087 48.2406765,56.4074432 50.1068737,56.4074432 C51.5952867,56.4074432 52.6926598,55.7134186 52.9198985,54.3897536 L51.8727072,54.3897536 C51.7335235,55.1585776 51.1408094,55.5373087 50.1201293,55.5373087 C48.7699531,55.5373087 48.051311,54.7050472 48.0011291,53.2043255 L52.9700803,53.2043255 L52.9700803,52.8634675 C52.9700803,50.50492 51.5318492,49.5836568 50.0055631,49.5836568 L50.0055631,49.5836568 Z" id="Fill-24" fill="#FEFEFE" mask="url(#mask-2)"></path>
                    <polygon id="Fill-25" fill="#FEFEFE" mask="url(#mask-2)" points="54.2276567 53.3168086 56.9270622 53.3168086 56.9270622 52.3330547 54.2276567 52.3330547"></polygon>
                    <path d="M59.8183896,51.5009826 L59.8183896,48.1586812 L61.5084769,48.1586812 C62.7317781,48.1586812 63.4882934,48.5629766 63.4882934,49.7862779 L63.4882934,49.8364597 C63.4882934,50.9461417 62.7942688,51.5009826 61.5084769,51.5009826 L59.8183896,51.5009826 Z M64.5856666,49.8364597 L64.5856666,49.7862779 C64.5856666,47.9825713 63.160691,47.2762379 61.4327307,47.2762379 L58.7210165,47.2762379 L58.7210165,56.2938239 L59.8183896,56.2938239 L59.8183896,52.3711172 L61.2054921,52.3711172 L63.8916419,56.2938239 L65.1149432,56.2938239 L62.3530471,52.2963178 C63.5896039,52.0558236 64.5856666,51.3248727 64.5856666,49.8364597 L64.5856666,49.8364597 Z" id="Fill-26" fill="#FEFEFE" mask="url(#mask-2)"></path>
                    <path d="M69.3527541,49.5839408 C68.2686365,49.5839408 67.5367388,50.126473 67.233754,50.7447514 L67.233754,46.5446242 L66.1875095,46.5446242 L66.1875095,56.294108 L67.233754,56.294108 L67.233754,52.295655 C67.233754,51.1102269 68.1048354,50.4919485 69.0753336,50.4919485 C70.1348337,50.4919485 70.6271841,51.0098632 70.6271841,52.169727 L70.6271841,56.294108 L71.6734286,56.294108 L71.6734286,52.2454732 C71.6734286,50.3281473 70.715239,49.5839408 69.3527541,49.5839408" id="Fill-27" fill="#FEFEFE" mask="url(#mask-2)"></path>
                    <polygon id="Fill-28" fill="#FEFEFE" mask="url(#mask-2)" points="77.1809353 48.5627873 77.9507061 48.5627873 76.6014768 46.7467719 75.6555961 46.7467719 74.2931111 48.5627873 75.0373176 48.5627873 76.1091265 47.6169065"></polygon>
                    <path d="M78.2784032,53.0526437 C78.2784032,54.5410567 77.4461417,55.5371193 76.1224767,55.5371193 C74.7846093,55.5371193 73.9656035,54.5533654 73.9656035,53.0526437 L73.9656035,52.9513331 C73.9656035,51.4383027 74.7978649,50.4545488 76.1224767,50.4545488 C77.433833,50.4545488 78.2784032,51.4383027 78.2784032,52.9645887 L78.2784032,53.0526437 Z M76.1224767,49.5844142 C74.2553327,49.5844142 72.8805391,50.9715166 72.8805391,52.9513331 L72.8805391,53.0526437 C72.8805391,54.9822783 74.2307152,56.4072539 76.1092212,56.4072539 C77.9886739,56.4072539 79.3634676,55.0324602 79.3634676,53.0403349 L79.3634676,52.9390244 C79.3634676,50.9592079 77.9886739,49.5844142 76.1224767,49.5844142 L76.1224767,49.5844142 Z" id="Fill-29" fill="#FEFEFE" mask="url(#mask-2)"></path>
                    <path d="M83.8119477,49.5839408 C82.7268832,49.5839408 81.9949855,50.126473 81.6929475,50.7447514 L81.6929475,49.6975601 L80.6457562,49.6975601 L80.6457562,56.294108 L81.6929475,56.294108 L81.6929475,52.295655 C81.6929475,51.1102269 82.5630821,50.4919485 83.5345272,50.4919485 C84.5930804,50.4919485 85.0854308,51.0089163 85.0854308,52.169727 L85.0854308,56.294108 L86.1316753,56.294108 L86.1316753,52.2454732 C86.1316753,50.3281473 85.1734857,49.5839408 83.8119477,49.5839408" id="Fill-30" fill="#FEFEFE" mask="url(#mask-2)"></path>
                    <path d="M88.4860568,52.3588084 C88.6621667,51.1856891 89.3808088,50.4547381 90.4526177,50.4547381 C91.5376821,50.4547381 92.2440155,50.9963235 92.345326,52.3588084 L88.4860568,52.3588084 Z M90.4526177,49.5836568 C88.6366024,49.5836568 87.3631192,50.971706 87.3631192,52.9647781 L87.3631192,53.0651418 C87.3631192,55.096087 88.687731,56.4074432 90.5539282,56.4074432 C92.0423412,56.4074432 93.1397144,55.7134186 93.366953,54.3897536 L92.3197617,54.3897536 C92.180578,55.1585776 91.587864,55.5373087 90.5671838,55.5373087 C89.2170077,55.5373087 88.4983655,54.7050472 88.4481837,53.2043255 L93.4171349,53.2043255 L93.4171349,52.8634675 C93.4171349,50.50492 91.9789038,49.5836568 90.4526177,49.5836568 L90.4526177,49.5836568 Z" id="Fill-31" fill="#FEFEFE" mask="url(#mask-2)"></path>
                    <polygon id="Fill-32" fill="#FEFEFE" mask="url(#mask-2)" points="94.6751847 53.3168086 97.3745902 53.3168086 97.3745902 52.3330547 94.6751847 52.3330547"></polygon>
                    <path d="M100.401314,52.8255944 L101.965473,48.1842456 L103.529632,52.8255944 L100.401314,52.8255944 Z M101.297013,47.2762379 L98.1942588,56.2938239 L99.2281945,56.2938239 L100.098329,53.695729 L103.819362,53.695729 L104.701805,56.2938239 L105.786869,56.2938239 L102.735244,47.2762379 L101.297013,47.2762379 Z" id="Fill-33" fill="#FEFEFE" mask="url(#mask-2)"></path>
                    <polygon id="Fill-34" fill="#FEFEFE" mask="url(#mask-2)" points="106.898729 56.2936346 107.958229 56.2936346 107.958229 46.5441508 106.898729 46.5441508"></polygon>
                    <path d="M114.832387,53.0521703 C114.832387,54.6542026 114.126053,55.5366459 112.814697,55.5366459 C111.527958,55.5366459 110.645515,54.7422575 110.645515,53.0521703 L110.645515,52.9518066 C110.645515,51.2617193 111.57814,50.4540754 112.802388,50.4540754 C113.91207,50.4540754 114.832387,51.2863368 114.832387,52.9518066 L114.832387,53.0521703 Z M112.915061,49.5839408 C111.956871,49.5839408 111.061172,50.1643461 110.682441,50.8072421 L110.682441,49.6975601 L109.636197,49.6975601 L109.636197,58.589218 L110.682441,58.589218 L110.682441,55.2090435 C111.061172,55.8651951 111.830943,56.4077273 112.915061,56.4077273 C114.732023,56.4077273 115.917451,55.019678 115.917451,53.0019884 L115.917451,52.9016247 C115.917451,50.8451152 114.643021,49.5839408 112.915061,49.5839408 L112.915061,49.5839408 Z" id="Fill-35" fill="#FEFEFE" mask="url(#mask-2)"></path>
                    <path d="M117.919045,52.3588084 C118.095155,51.1856891 118.813797,50.4547381 119.886552,50.4547381 C120.97067,50.4547381 121.677003,50.9963235 121.778314,52.3588084 L117.919045,52.3588084 Z M119.886552,49.5836568 C118.06959,49.5836568 116.796107,50.971706 116.796107,52.9647781 L116.796107,53.0651418 C116.796107,55.096087 118.120719,56.4074432 119.986916,56.4074432 C121.475329,56.4074432 122.572702,55.7134186 122.799941,54.3897536 L121.75275,54.3897536 C121.614513,55.1585776 121.020852,55.5373087 120.000172,55.5373087 C118.649996,55.5373087 117.931353,54.7050472 117.881172,53.2043255 L122.850123,53.2043255 L122.850123,52.8634675 C122.850123,50.50492 121.411892,49.5836568 119.886552,49.5836568 L119.886552,49.5836568 Z" id="Fill-36" fill="#FEFEFE" mask="url(#mask-2)"></path>
                    <path d="M126.345716,52.4474315 C125.13567,52.2325016 124.807121,51.9929543 124.807121,51.4002402 C124.807121,50.8330905 125.299471,50.4543594 126.055986,50.4543594 C126.888248,50.4543594 127.291596,50.769653 127.443089,51.4882951 L128.452407,51.4882951 C128.27535,50.0633196 127.253723,49.5842249 126.068295,49.5842249 C125.034359,49.5842249 123.836622,50.214812 123.836622,51.4381133 C123.836622,52.5856683 124.416081,53.0647631 126.131733,53.3800567 C127.153359,53.5694222 127.670327,53.7966608 127.670327,54.4906854 C127.670327,55.1970188 127.229106,55.5369299 126.232096,55.5369299 C125.172596,55.5369299 124.756939,55.0455264 124.681193,54.2634468 L123.659566,54.2634468 C123.723003,55.6126761 124.668884,56.4070645 126.245352,56.4070645 C127.846437,56.4070645 128.66639,55.6003674 128.66639,54.4016837 C128.66639,53.0022725 127.7082,52.6992876 126.345716,52.4474315" id="Fill-37" fill="#FEFEFE" mask="url(#mask-2)"></path>
                    <path d="M100.900576,29.2342488 L121.255476,29.2342488 L121.255476,27.0073103 L100.900576,27.0073103 L100.900576,29.2342488 Z M96.8954954,29.2351956 L94.9734354,28.1103644 L100.114709,19.3105488 L100.196136,19.1694715 L102.155123,19.1694715 L102.17974,19.1694715 C103.320667,20.3795171 104.937849,21.1341387 106.73114,21.1341387 C108.652254,21.1341387 110.371693,20.2668446 111.518301,18.9034129 L113.165781,20.3956132 C111.61109,22.2068944 109.306511,23.3553962 106.73114,23.3553962 C104.716291,23.3553962 102.868084,22.6519033 101.413757,21.4778371 L100.620315,22.840322 L100.629783,22.8422157 L96.8954954,29.2351956 Z M109.892598,9.41998772 L111.821286,9.41998772 L120.083303,23.5958904 L118.156509,24.7122002 L110.854575,12.1932457 L107.264204,18.3580402 L105.339304,17.2369963 L109.892598,9.41998772 Z M108.705276,0.913688627 C97.5582747,0.913688627 88.522699,9.94926435 88.522699,21.0953188 C88.522699,32.2413732 97.5582747,41.2769489 108.705276,41.2769489 C119.850384,41.2769489 128.885959,32.2413732 128.885959,21.0953188 C128.885959,9.94926435 119.850384,0.913688627 108.705276,0.913688627 L108.705276,0.913688627 Z" id="Fill-38" fill="#FEFEFE" mask="url(#mask-2)"></path>
                </g>
            </g>
        </g>
    </g>
</svg>