<?xml version="1.0" encoding="UTF-8" standalone="no"?>
<svg width="106px" height="66px" viewBox="0 0 106 66" version="1.1" xmlns="http://www.w3.org/2000/svg" xmlns:xlink="http://www.w3.org/1999/xlink">
    <!-- Generator: Sketch 48.2 (47327) - http://www.bohemiancoding.com/sketch -->
    <title>Page 1</title>
    <desc>Created with Sketch.</desc>
    <defs>
        <polygon id="path-1" points="0 0.7694 105.1146 0.7694 105.1146 66 0 66"></polygon>
    </defs>
    <g id="footer-/-white" stroke="none" stroke-width="1" fill="none" fill-rule="evenodd" transform="translate(-712.000000, -206.000000)">
        <g id="Page-1" transform="translate(712.000000, 205.000000)">
            <path d="M41.8329,43.5201 C41.8659,43.4841 41.9169,43.4551 41.9259,43.4161 C42.0609,42.8241 42.3409,42.2841 42.5279,41.7111 C42.6499,41.3331 42.8059,40.9661 42.9429,40.5921 C43.0609,40.2691 43.1709,39.9431 43.2889,39.6191 C43.4149,39.2761 43.5469,38.9351 43.6739,38.5931 C43.7779,38.3101 43.8639,38.0201 43.9819,37.7431 C44.1829,37.2691 44.3319,36.7771 44.5289,36.2791 L40.9559,36.2791 C40.0659,38.6911 39.1779,41.0971 38.2839,43.5201 L41.8329,43.5201 Z" id="Fill-1" fill="#FEFEFE"></path>
            <path d="M83.7942,43.5149 C84.0742,42.8359 84.2942,42.1499 84.5602,41.4799 C84.7102,41.1009 84.8702,40.7199 84.9882,40.3329 C85.1792,39.7029 85.4942,39.1169 85.6282,38.4689 C85.9112,37.9209 86.0592,37.3219 86.2912,36.7549 C86.3542,36.6009 86.4112,36.4429 86.4762,36.2729 L82.9352,36.2729 C82.9132,36.2949 82.8892,36.3079 82.8812,36.3279 C82.7492,36.6679 82.6122,37.0069 82.4882,37.3509 C82.3182,37.8269 82.1512,38.3039 81.9692,38.7759 C81.8802,39.0059 81.8022,39.2409 81.7192,39.4749 C81.5972,39.8189 81.4902,40.1709 81.3452,40.5059 C81.2672,40.6859 81.2012,40.8649 81.1512,41.0539 C81.1022,41.2409 81.0172,41.4189 80.9412,41.5939 C80.7732,41.9789 80.6672,42.3859 80.4952,42.7699 C80.4032,42.9739 80.3542,43.1989 80.2552,43.4029 C80.2422,43.4299 80.2572,43.4689 80.2602,43.5149 L83.7942,43.5149 Z" id="Fill-3" fill="#FEFEFE"></path>
            <path d="M22.8997,38.158 C22.9157,38.177 22.9317,38.196 22.9487,38.215 L22.9347,38.229 C22.9157,38.213 22.8967,38.196 22.8777,38.18 C22.8847,38.173 22.8927,38.165 22.8997,38.158 M22.0637,37.973 C21.8977,38.088 21.6637,38.065 21.5467,38.266 L21.5467,38.48 C21.6697,38.574 21.8037,38.675 21.9437,38.782 L22.2377,38.782 C22.3187,38.91 22.4077,39.048 22.4767,39.157 C22.6447,39.26 22.8027,39.337 22.9357,39.444 C23.0797,39.56 23.2007,39.703 23.3027,39.805 C23.4457,39.846 23.5497,39.876 23.6267,39.898 C23.7327,39.796 23.8227,39.71 23.9187,39.619 L23.9187,39.511 C23.5317,39.137 23.1427,38.75 22.9637,38.2 C23.2447,38.512 23.5247,38.824 23.8607,39.198 C23.8337,39.053 23.8337,38.978 23.8067,38.915 C23.6387,38.53 23.3377,38.264 22.9987,38.034 C22.9257,37.985 22.8477,37.942 22.7817,37.885 C22.6957,37.811 22.6197,37.726 22.5217,37.628 C22.3747,37.774 22.2127,37.869 22.0637,37.973" id="Fill-5" fill="#FEFEFE"></path>
            <path d="M44.3732,41.4658 C44.3732,41.5208 44.3802,41.5778 44.3972,41.6298 C44.5832,42.2298 44.9822,42.7268 45.5562,43.0358 C46.2792,43.4248 47.0472,43.6608 47.8762,43.6658 C48.1552,43.6678 48.4352,43.6508 48.7132,43.6698 C49.2072,43.7038 49.6932,43.6028 50.1842,43.5968 C50.2072,43.5958 50.2412,43.6068 50.2522,43.5948 C50.3462,43.4998 50.4642,43.5378 50.5742,43.5248 C50.6932,43.5108 50.8102,43.4648 50.9292,43.4608 C51.0762,43.4558 51.2192,43.4578 51.3302,43.3718 C51.6122,42.6298 51.8902,41.8998 52.1742,41.1528 C52.1102,41.1528 52.0212,41.1258 51.9782,41.1578 C51.8042,41.2928 51.5702,41.1458 51.4052,41.2928 C51.0742,41.3348 50.7442,41.3818 50.4152,41.4218 C49.8782,41.4878 49.3522,41.3928 48.8622,41.1408 C48.4772,40.9438 48.2552,40.4788 48.3532,40.0688 C48.4262,39.7648 48.8552,39.1168 49.1442,38.9338 C49.7432,38.5558 50.3902,38.3068 51.1092,38.2918 C51.3072,38.2878 51.5052,38.2918 51.7022,38.2908 C52.2272,38.2888 52.6232,38.5038 52.8792,39.0218 C53.2352,38.1698 53.5802,37.3478 53.9212,36.5238 C53.9412,36.4748 53.9332,36.4158 53.9402,36.3488 C53.7132,36.3508 53.5092,36.2848 53.3032,36.2518 C53.0082,36.2038 52.7112,36.1508 52.4162,36.1348 C51.8712,36.1068 51.3232,36.1268 50.7772,36.1268 C50.7072,36.1268 50.6152,36.0988 50.5722,36.1328 C50.4352,36.2398 50.2852,36.1758 50.1432,36.1978 C50.0012,36.2188 49.8602,36.2428 49.7192,36.2668 C49.4362,36.3138 49.1382,36.3198 48.8742,36.4178 C48.1792,36.6768 47.4672,36.8868 46.8332,37.3048 C46.2922,37.6598 45.7732,38.0188 45.3532,38.5218 C45.0612,38.8708 44.8232,39.2438 44.6422,39.6588 C44.5062,39.9708 44.4232,40.2988 44.3792,40.6298 C44.3432,40.9038 44.3712,41.1868 44.3732,41.4658" id="Fill-7" fill="#FEFEFE"></path>
            <path d="M63.5381,42.7555 C63.4701,42.9365 63.4051,43.1195 63.3411,43.3015 C63.3181,43.3685 63.3011,43.4385 63.2781,43.5205 L70.6921,43.5205 C70.9571,42.9505 71.1101,42.3295 71.3761,41.7525 C71.4061,41.6885 71.3801,41.5985 71.3801,41.4965 L67.3941,41.4965 C67.4821,41.2475 67.5601,41.0255 67.6411,40.7955 L71.4391,40.7955 C71.5581,40.4825 71.6921,40.1875 71.7831,39.8785 C71.8761,39.5635 72.0591,39.2735 72.0901,38.9195 C70.8321,38.9195 69.6011,38.9195 68.3701,38.9185 C68.3601,38.9185 68.3491,38.9135 68.3401,38.9075 C68.3311,38.9015 68.3251,38.8925 68.3361,38.9045 C68.4251,38.6725 68.5091,38.4515 68.5951,38.2275 L72.5341,38.2275 C72.5701,38.1905 72.6091,38.1705 72.6171,38.1415 C72.7931,37.5105 73.0851,36.9205 73.2801,36.2785 L65.9651,36.2785 C65.9291,36.3155 65.8891,36.3365 65.8821,36.3655 C65.7481,36.8655 65.5571,37.3505 65.3681,37.8275 C65.1631,38.3465 65.0311,38.8965 64.7561,39.3875 C64.5411,40.1565 64.2141,40.8845 63.9551,41.6375 C63.8251,42.0135 63.6771,42.3825 63.5381,42.7555" id="Fill-9" fill="#FEFEFE"></path>
            <path d="M72.3675,43.3775 C72.3495,43.4125 72.3655,43.4645 72.3655,43.5175 L79.2465,43.5175 C79.5365,42.6935 79.8565,41.9095 80.1315,41.0725 L76.7505,41.0725 C76.7665,40.9925 76.7665,40.9335 76.7895,40.8855 C76.9735,40.5065 77.0785,40.0985 77.2405,39.7105 C77.4225,39.2755 77.5405,38.8145 77.7365,38.3805 C77.8295,38.1755 77.8745,37.9495 77.9505,37.7365 C78.0865,37.3625 78.2245,36.9895 78.3715,36.6195 C78.4175,36.5045 78.4755,36.3995 78.4185,36.2745 L75.0165,36.2745 C74.9815,36.3655 74.9475,36.4555 74.9135,36.5455 C74.7735,36.9175 74.6185,37.2855 74.4995,37.6645 C74.3985,37.9835 74.2885,38.3035 74.1605,38.6065 C73.9425,39.1225 73.7585,39.6515 73.5675,40.1745 C73.3685,40.7195 73.1735,41.2705 72.9735,41.8145 C72.7815,42.3375 72.6255,42.8785 72.3675,43.3775" id="Fill-11" fill="#FEFEFE"></path>
            <path d="M52.8919,43.5104 L56.2819,43.5104 C56.5839,42.7024 56.8849,41.8964 57.1849,41.0934 L58.8449,41.0934 C58.7169,41.5124 58.5589,41.8974 58.4069,42.2864 C58.2519,42.6844 58.1229,43.0944 57.9769,43.5144 L61.3989,43.5144 C61.4009,43.4694 61.3959,43.4324 61.4059,43.4024 C61.5979,42.8654 61.8019,42.3334 61.9959,41.7974 C62.1939,41.2514 62.3879,40.7034 62.5969,40.1624 C62.7479,39.7714 62.9089,39.3834 63.0409,38.9864 C63.1459,38.6694 63.2509,38.3464 63.3809,38.0444 C63.5979,37.5404 63.7139,36.9974 63.9799,36.5124 C64.0119,36.4524 63.9839,36.3594 63.9839,36.2744 L60.6429,36.2744 C60.3259,37.1264 60.0079,37.9824 59.6899,38.8404 L58.0739,38.8404 C58.0659,38.8104 58.0509,38.7864 58.0559,38.7694 C58.3189,37.9294 58.6689,37.1214 58.9449,36.2804 L55.5319,36.2804 C55.4379,36.5734 55.3759,36.8744 55.2479,37.1444 C54.9269,37.8284 54.7639,38.5714 54.4249,39.2464 C54.3679,39.6134 54.2019,39.9464 54.0669,40.2844 C53.9269,40.6334 53.8649,41.0144 53.6569,41.3354 C53.4639,42.0774 53.1269,42.7674 52.8919,43.5104" id="Fill-13" fill="#FEFEFE"></path>
            <path d="M19.8081,36.7074 C19.7451,37.1264 19.9261,37.4584 20.2341,37.7024 C20.5881,37.9824 21.0281,38.0044 21.4511,37.9224 C21.8671,37.8424 22.1931,37.5834 22.4161,37.2434 C22.4811,37.1444 22.5261,37.0324 22.5921,36.9044 C22.5811,36.7854 22.6561,36.6384 22.6481,36.5094 C22.6331,36.2304 22.5621,35.9514 22.3661,35.7234 C22.2241,35.5584 22.0411,35.4604 21.8551,35.3684 C21.4591,36.2434 20.7081,36.5844 19.8081,36.7074" id="Fill-15" fill="#FEFEFE"></path>
            <path d="M34.8192,38.7503 C34.7952,38.8353 34.7832,38.8773 34.7712,38.9193 C34.7602,38.8873 34.7452,38.8553 34.7412,38.8213 C34.7392,38.8113 34.7662,38.7983 34.8192,38.7503 Z M27.2752,43.5163 C27.8662,41.9133 28.4552,40.3133 29.0442,38.7123 C29.0842,38.7593 29.0872,38.8033 29.0832,38.8453 C29.0612,39.1033 29.0382,39.3613 29.0142,39.6193 C28.9942,39.8313 29.0692,40.0533 28.9442,40.2533 C28.9602,40.5953 28.8912,40.9343 28.8862,41.2713 C28.8782,41.7533 28.7512,42.2253 28.8042,42.7083 C28.8072,42.7313 28.8142,42.7603 28.8032,42.7773 C28.6512,43.0123 28.7812,43.2663 28.7242,43.5183 L31.6032,43.5183 C32.6282,41.9953 33.6652,40.4573 34.7012,38.9183 C34.7172,38.9193 34.7332,38.9203 34.7482,38.9213 C34.7372,38.9873 34.7342,39.0563 34.7122,39.1183 C34.6552,39.2803 34.5882,39.4393 34.5292,39.6013 C34.4002,39.9543 34.2752,40.3103 34.1452,40.6633 C34.0192,41.0063 33.8902,41.3483 33.7612,41.6913 C33.6102,42.0933 33.4472,42.4923 33.3122,42.9003 C33.2452,43.0993 33.1282,43.2903 33.1332,43.5203 L36.3462,43.5203 C36.4152,43.3433 36.4862,43.1633 36.5532,42.9813 C36.6832,42.6283 36.8092,42.2733 36.9392,41.9203 C37.0652,41.5773 37.1982,41.2363 37.3202,40.8913 C37.4422,40.5463 37.5672,40.2003 37.6942,39.8593 C37.7942,39.5903 37.9052,39.3173 38.0072,39.0473 C38.1142,38.7673 38.1962,38.4703 38.3102,38.1953 C38.4722,37.8073 38.5792,37.4003 38.7592,37.0193 C38.8502,36.8273 38.8772,36.6053 38.9942,36.4183 C39.0142,36.3863 38.9972,36.3313 38.9972,36.2773 L34.0092,36.2773 C33.1982,37.5093 32.3872,38.7413 31.5572,40.0023 C31.5422,39.9333 31.5192,39.8953 31.5302,39.8723 C31.6172,39.6783 31.5982,39.4743 31.5962,39.2713 C31.5942,38.8843 31.7162,38.5043 31.6672,38.1143 C31.6662,38.1023 31.6632,38.0883 31.6672,38.0793 C31.8112,37.8193 31.7382,37.5373 31.7272,37.2703 C31.7162,36.9983 31.6532,36.7213 31.4112,36.5313 C31.3382,36.4753 31.2792,36.4003 31.2202,36.3403 C31.0822,36.3143 30.9522,36.2703 30.8222,36.2703 C29.4622,36.2643 28.1012,36.2663 26.7112,36.2663 C26.6812,36.3533 26.6472,36.4433 26.6182,36.5343 C26.5212,36.8313 26.3772,37.1093 26.2802,37.4083 C26.2292,37.5673 26.1822,37.7363 26.1042,37.8933 C26.0232,38.0553 26.0052,38.2493 25.9212,38.4093 C25.8272,38.5853 25.7702,38.7653 25.7242,38.9573 C25.6792,39.1443 25.5792,39.3143 25.5152,39.4983 C25.3992,39.8343 25.2792,40.1693 25.1492,40.4983 C25.0542,40.7373 24.9732,40.9833 24.8722,41.2213 C24.7712,41.4573 24.7032,41.7113 24.6072,41.9493 C24.4512,42.3383 24.3332,42.7413 24.1572,43.1243 C24.1042,43.2393 24.0072,43.3733 24.0752,43.5163 L27.2752,43.5163 Z" id="Fill-17" fill="#FEFEFE"></path>
            <path d="M15.7049,25.5726 C16.0819,25.7076 16.0269,26.0496 16.0549,26.3566 C16.1139,26.1436 16.2219,25.9546 16.1389,25.7236 C16.0599,25.4986 15.9729,25.2926 15.7609,25.1676 L15.6439,25.1676 C15.5699,25.2466 15.4919,25.3316 15.4259,25.4016 C15.3859,25.5266 15.3469,25.6076 15.3349,25.6916 C15.3219,25.7906 15.3319,25.8946 15.3319,26.0686 C15.4489,25.8436 15.5019,25.6616 15.7049,25.5726" id="Fill-19" fill="#FEFEFE"></path>
            <path d="M80.8209,21.8863 C81.0479,21.8863 81.2569,21.8753 81.4639,21.8903 C81.6259,21.9013 81.7769,21.8663 81.9219,21.8133 C82.2039,21.7083 82.4289,21.5493 82.5649,21.2483 C82.7479,20.8433 82.7359,20.4433 82.6189,20.0443 C82.5539,19.8243 82.4029,19.6283 82.2119,19.4833 C82.0499,19.3593 81.8459,19.3343 81.6579,19.3113 C81.3859,19.2793 81.1059,19.3033 80.8209,19.3033 L80.8209,21.8863 Z" id="Fill-21" fill="#FEFEFE"></path>
            <path d="M15.3167,27.8081 C15.4117,27.6761 15.5667,27.6031 15.6367,27.4061 C15.3057,27.4021 14.9997,27.3641 14.7047,27.5041 C14.8737,27.6781 15.0307,27.8731 15.3167,27.8081" id="Fill-23" fill="#FEFEFE"></path>
            <path d="M66.9515,11.4849 C66.7285,11.5059 66.7005,11.7279 66.5975,11.8599 C66.4895,11.9979 66.4275,12.1859 66.4305,12.3789 C66.4355,12.6589 66.3965,12.9439 66.5395,13.2329 C66.5595,13.2529 66.6025,13.2929 66.6415,13.3359 C66.9305,13.6589 67.3575,13.7079 67.7375,13.5889 C68.0065,13.5059 68.2075,13.3629 68.4065,13.1809 C68.6715,12.9409 68.7725,12.6269 68.7975,12.2999 C68.8295,11.8749 68.8045,11.4459 68.8045,10.9849 C68.5225,11.0309 68.2645,10.9269 68.0305,11.0659 C67.6225,11.0809 67.2625,11.2199 66.9515,11.4849" id="Fill-25" fill="#FEFEFE"></path>
            <path d="M17.5318,31.178 C17.2818,31.246 17.0298,31.313 16.7798,31.382 C16.5228,31.453 16.2548,31.438 15.9968,31.511 C15.8348,31.557 15.6498,31.511 15.4758,31.522 C15.3098,31.534 15.1468,31.578 14.9808,31.587 C14.5698,31.61 14.1668,31.47 13.7538,31.519 C13.7318,31.522 13.6968,31.525 13.6878,31.513 C13.6088,31.407 13.4958,31.468 13.3988,31.449 C13.2918,31.429 13.1858,31.398 13.0788,31.381 C12.7558,31.333 12.4518,31.225 12.1288,31.114 C12.1088,31.844 11.9598,32.524 11.6178,33.154 C11.9528,33.495 12.3798,33.647 12.7908,33.82 C13.0508,33.929 13.3278,33.989 13.6088,34.041 C13.9028,34.096 14.2018,34.112 14.4958,34.161 C14.8018,34.212 15.1228,34.162 15.4368,34.175 C15.7458,34.188 16.0398,34.049 16.3498,34.102 C16.3618,34.104 16.3748,34.106 16.3848,34.102 C16.6568,33.98 16.9588,33.979 17.2428,33.901 C17.5458,33.818 17.8518,33.738 18.1338,33.608 C18.4778,33.45 18.8308,33.296 19.1238,33.051 C19.2968,32.907 19.4308,32.717 19.5918,32.556 C19.7378,32.411 19.7368,32.192 19.8698,32.037 C19.8608,31.691 19.9428,31.319 19.7838,30.997 C19.6608,30.747 19.5858,30.455 19.3588,30.274 C19.2428,30.365 19.1348,30.463 19.0138,30.541 C18.5608,30.831 18.3818,30.947 17.5318,31.178" id="Fill-27" fill="#FEFEFE"></path>
            <path d="M20.4648,34.3872 C20.4158,34.4062 20.3788,34.4882 20.3608,34.5482 C20.2808,34.8062 20.2028,35.0632 20.0458,35.2882 C19.9408,35.4402 19.8378,35.5942 19.7578,35.7112 C19.8338,35.9482 19.7798,36.1672 19.8118,36.4272 C20.6188,36.2892 21.2348,35.9392 21.5368,35.1542 C21.5738,34.7912 21.5638,34.4272 21.3378,34.1012 C21.2728,34.0082 21.2198,33.9122 21.0998,33.8852 C20.9018,34.0782 20.7258,34.2842 20.4648,34.3872" id="Fill-29" fill="#FEFEFE"></path>
            <path d="M20.3593,33.1752 C20.4083,33.3922 20.4663,33.6072 20.5203,33.8252 C20.7883,33.6792 20.9673,33.4842 21.0583,33.2062 C21.1613,32.8882 21.1673,32.4382 21.0333,32.0942 C20.9633,31.9132 20.9323,31.7042 20.7243,31.5892 C20.5073,31.9312 20.3693,32.2982 20.0393,32.5642 C20.1573,32.7732 20.3083,32.9502 20.3593,33.1752" id="Fill-31" fill="#FEFEFE"></path>
            <path d="M20.1624,30.8264 C20.2064,31.0314 20.2064,31.2584 20.3274,31.4504 C20.5444,31.0424 20.5894,30.6034 20.4164,30.1944 C20.2604,29.8254 19.9664,29.5404 19.5354,29.4184 L19.5354,29.8244 C19.6044,29.8934 19.6774,29.9544 19.7344,30.0264 C19.9274,30.2644 20.0934,30.5074 20.1624,30.8264" id="Fill-33" fill="#FEFEFE"></path>
            <path d="M14.6905,43.6175 C15.0505,43.9505 15.4685,44.1455 15.9655,44.1565 C16.0505,44.1585 16.1355,44.1795 16.2725,44.1995 C16.3315,44.1875 16.4155,44.1685 16.5005,44.1555 C16.5995,44.1405 16.7015,44.1415 16.7985,44.1175 C17.2385,44.0105 17.5735,43.7405 17.8605,43.4045 C17.9765,43.2685 18.0215,43.0915 18.0465,42.9265 C18.0795,42.7145 18.0545,42.4935 18.0545,42.2705 C16.8455,42.9465 15.6785,42.9545 14.5355,42.2215 C14.4635,42.3295 14.3705,42.4395 14.3105,42.5655 C14.2655,42.6605 14.1705,42.7535 14.2165,42.8735 C14.2855,43.0545 14.3085,43.2575 14.4675,43.3975 C14.5465,43.4655 14.6135,43.5465 14.6905,43.6175" id="Fill-35" fill="#FEFEFE"></path>
            <path d="M82.8254,45.4845 C61.3984,45.4815 39.9714,45.4815 18.5444,45.4815 L18.1894,45.4815 C18.2224,45.8495 18.1524,46.1825 18.0434,46.5215 L82.8874,46.5215 C82.9964,46.2155 83.1074,45.9015 83.2304,45.5565 C83.1314,45.4135 82.9654,45.4845 82.8254,45.4845" id="Fill-37" fill="#FEFEFE"></path>
            <path d="M14.2846,41.8594 C14.3776,41.6364 14.4806,41.4134 14.4046,41.1654 C14.2916,41.2094 14.1826,41.2494 14.0746,41.2934 C13.7776,41.4124 13.4776,41.5124 13.1496,41.5034 C12.8706,41.4964 12.5916,41.5024 12.3126,41.5024 C12.2426,41.5024 12.1666,41.5204 12.1036,41.4994 C11.7066,41.3664 11.2976,41.2644 10.9306,41.0474 C10.4546,40.7674 10.0166,40.4524 9.7456,39.9504 C9.6826,39.8354 9.5936,39.7334 9.4876,39.5834 C9.3766,39.8524 9.2366,40.0504 9.1736,40.3064 C9.1136,40.5474 9.1296,40.7784 9.1226,41.0134 C9.1136,41.3154 9.2426,41.5944 9.3756,41.8484 C9.5136,42.1114 9.6896,42.3694 9.9336,42.5594 C10.0996,42.6884 10.2636,42.8224 10.4446,42.9274 C10.8246,43.1474 11.2256,43.3194 11.6776,43.3164 C11.9366,43.3144 12.1926,43.3174 12.4536,43.2594 C12.6786,43.2094 12.8986,43.1494 13.1066,43.0604 C13.6606,42.8224 14.0526,42.4174 14.2846,41.8594" id="Fill-39" fill="#FEFEFE"></path>
            <path d="M11.0461,43.5207 C10.5931,43.3387 10.1311,43.1627 9.7691,42.8137 C9.5781,42.6307 9.3941,42.4407 9.1821,42.2277 C8.9041,42.6937 8.9141,43.2807 9.0581,43.6637 C9.2361,44.1397 9.5361,44.5467 10.0301,44.7447 C10.2601,44.8367 10.4931,44.9587 10.7591,44.9227 C11.0791,45.1117 11.3901,44.9377 11.6981,44.8847 C12.0671,44.8207 12.3401,44.5717 12.5651,44.2937 C12.7371,44.0827 12.8741,43.8367 12.7961,43.5067 C12.6741,43.5377 12.5611,43.5767 12.4451,43.5947 C12.2041,43.6307 11.2661,43.6087 11.0461,43.5207" id="Fill-41" fill="#FEFEFE"></path>
            <path d="M86.1163,42.4033 C85.9833,42.7733 85.8453,43.1403 85.7053,43.5193 L88.7293,43.5193 C89.3213,41.9183 89.8993,40.3533 90.4773,38.7883 C90.5153,38.9893 90.5163,39.1843 90.5153,39.3793 C90.5143,39.5703 90.4843,39.7563 90.4573,39.9453 C90.4133,40.2413 90.4263,40.5503 90.4503,40.8503 C90.4753,41.1623 90.3723,41.4573 90.3753,41.7633 C90.3773,42.1013 90.3753,42.4383 90.3753,42.7753 C90.3753,42.8453 90.4033,42.9343 90.3703,42.9813 C90.2503,43.1523 90.3323,43.3323 90.2993,43.5173 L95.3063,43.5173 C95.3253,43.4983 95.3623,43.4783 95.3733,43.4483 C95.4783,43.1543 95.5783,42.8593 95.6813,42.5643 C95.8013,42.2183 95.9253,41.8733 96.0543,41.5323 C96.1563,41.2633 96.2643,40.9903 96.3673,40.7203 C96.4743,40.4413 96.5543,40.1423 96.6703,39.8683 C96.8333,39.4813 96.9353,39.0733 97.1203,38.6943 C97.2233,38.4833 97.2743,38.2473 97.3573,38.0253 C97.5073,37.6223 97.6433,37.2143 97.8133,36.8183 C97.8863,36.6463 97.9293,36.4603 97.9883,36.2753 L94.9973,36.2753 C94.4213,37.8313 93.8483,39.3813 93.2753,40.9313 C93.2403,40.8433 93.2163,40.7403 93.2563,40.6933 C93.3213,40.6173 93.3023,40.5433 93.3073,40.4673 C93.3363,40.0233 93.2903,39.5813 93.3633,39.1333 C93.4383,38.6753 93.3383,38.1983 93.4443,37.7333 C93.5073,37.4603 93.3663,37.1983 93.3733,36.9523 C93.3453,36.8933 93.3283,36.8523 93.3073,36.8153 C93.0893,36.4433 92.7783,36.2583 92.3333,36.2623 C91.1243,36.2753 89.9153,36.2663 88.7053,36.2663 L88.3733,36.2663 C88.1933,36.7163 88.0213,37.1483 87.8753,37.5843 C87.6873,38.1453 87.4373,38.6853 87.2793,39.2573 C87.2273,39.4433 87.1163,39.6083 87.0803,39.8033 C87.0453,39.9943 86.9433,40.1673 86.8733,40.3443 C86.6893,40.8033 86.5593,41.2823 86.3473,41.7323 C86.2473,41.9443 86.1963,42.1803 86.1163,42.4033" id="Fill-43" fill="#FEFEFE"></path>
            <path d="M30.0461,19.3026 C29.8961,19.3076 29.7471,19.3036 29.5831,19.3036 L29.5831,23.7636 L30.4821,23.7636 C30.5591,23.7326 30.6001,23.7186 30.6391,23.7006 C30.8641,23.6016 31.0271,23.4236 31.1731,23.2386 C31.2711,23.1156 31.3261,22.9556 31.3861,22.8056 C31.4641,22.6126 31.4381,22.3936 31.5271,22.2026 C31.5031,21.6036 31.5641,21.0076 31.4001,20.4096 C31.2191,19.7496 30.7511,19.2776 30.0461,19.3026" id="Fill-45" fill="#FEFEFE"></path>
            <path d="M57.4905,11.6148 C57.4655,11.7718 57.5465,11.8978 57.5685,12.0398 C57.6305,12.4548 57.7185,12.8538 58.0285,13.1768 C58.2745,13.4358 58.5865,13.6078 58.9045,13.5768 C59.0125,13.5668 59.1235,13.5458 59.2245,13.5068 C59.4815,13.4078 59.7455,13.2918 59.9115,13.0718 C60.1515,12.7538 60.3035,12.3908 60.2915,11.9738 C60.2785,11.5548 60.2885,11.1358 60.2885,10.6098 C60.2385,10.1118 60.3645,9.5008 60.2255,8.8948 C60.1965,8.7688 60.1955,8.6318 60.1485,8.5068 C59.8785,7.7878 59.3875,7.5808 58.7375,7.6508 C58.6045,7.6658 58.4595,7.7268 58.3525,7.8088 C58.0555,8.0378 57.8325,8.3348 57.7075,8.6908 C57.5275,9.2048 57.4715,9.7438 57.4285,10.2838 C57.4155,10.4338 57.4265,10.5858 57.4265,10.7378 C57.4265,10.8888 57.3895,11.0528 57.4365,11.1878 C57.4865,11.3328 57.5135,11.4738 57.4905,11.6148" id="Fill-47" fill="#FEFEFE"></path>
            <path d="M39.0735,12.6448 C39.1645,13.0278 39.3025,13.3988 39.6145,13.6738 C39.9655,13.9838 40.3705,14.0308 40.7995,13.9018 C41.0595,13.8228 41.4245,13.4638 41.5015,13.1978 C41.6375,12.7248 41.7865,12.2508 41.7895,11.7488 C41.7905,11.4938 41.7895,11.2388 41.7895,10.9828 C41.7895,10.6808 41.8065,10.3778 41.7845,10.0778 C41.7635,9.7928 41.7065,9.5108 41.6595,9.2278 C41.5995,8.8658 41.4725,8.5418 41.3025,8.2238 C41.1325,7.9078 40.8615,7.7008 40.5265,7.6558 C39.9715,7.5808 39.6275,7.7668 39.2725,8.3068 C39.0485,8.6488 39.0565,9.0528 38.9275,9.4178 C38.9805,9.7618 38.8505,10.0938 38.8575,10.4338 C38.8645,10.7968 38.8745,11.1578 38.9115,11.5218 C38.9505,11.8998 38.9865,12.2778 39.0735,12.6448" id="Fill-49" fill="#FEFEFE"></path>
            <path d="M17.5542,38.9682 C17.1922,39.1282 16.7932,39.1442 16.4232,39.2682 C16.1482,39.2222 15.8972,39.3942 15.6042,39.3282 C15.6472,39.7012 15.5822,40.0212 15.4012,40.3152 C15.3522,40.3952 15.3002,40.4742 15.2382,40.5722 C15.4292,40.6062 15.5912,40.6362 15.7532,40.6642 C15.9192,40.6932 16.0972,40.6032 16.2552,40.7152 C16.4222,40.6272 16.6022,40.6762 16.7762,40.6652 C16.8342,40.6612 16.8942,40.6732 16.9502,40.6632 C17.1432,40.6302 17.8572,40.3552 18.0282,40.2352 C18.4062,39.9682 18.7312,39.6552 18.9142,39.2142 C19.0622,38.8582 19.1332,38.4932 19.0912,38.0852 C18.9142,38.2072 18.7432,38.3102 18.5882,38.4332 C18.2772,38.6782 17.9102,38.8112 17.5542,38.9682" id="Fill-51" fill="#FEFEFE"></path>
            <path d="M19.0988,36.3028 C18.9328,36.4048 18.7728,36.5338 18.5918,36.5928 C18.2128,36.7158 17.8718,36.9568 17.4568,36.9688 C17.2138,37.1118 16.9308,37.1048 16.6678,37.1658 C16.3958,37.2278 16.1078,37.2328 15.8268,37.2408 C15.4198,37.2528 15.0128,37.2528 14.6058,37.2408 C14.3128,37.2328 14.0078,37.2408 13.7308,37.1628 C13.3868,37.0658 13.0118,37.0828 12.6928,36.8948 C12.3048,36.8688 11.9608,36.6918 11.6198,36.5378 C11.0808,36.2928 10.5608,36.0018 10.1338,35.5748 C10.1218,35.5628 10.0908,35.5698 10.0268,35.5658 C10.0268,35.7608 10.0288,35.9338 10.0258,36.1058 C10.0218,36.3868 10.1048,36.6498 10.2118,36.9008 C10.4148,37.3788 10.7728,37.7288 11.1968,38.0108 C11.7258,38.3618 12.3198,38.5568 12.9298,38.7118 C13.1758,38.7748 13.4238,38.8158 13.6718,38.8638 C14.0018,38.9268 14.3348,38.9358 14.6638,38.9838 C14.8808,39.0148 15.1058,38.9978 15.3258,38.9868 C15.5488,38.9748 15.7718,38.9438 15.9948,38.9188 C16.2058,38.8958 16.4318,38.9098 16.6208,38.8328 C16.7478,38.7808 16.8688,38.8188 16.9788,38.7708 C17.3248,38.6208 17.6958,38.5378 18.0268,38.3528 C18.4278,38.1288 18.8028,37.8728 19.0508,37.4698 C19.3038,37.0578 19.4698,36.6258 19.3518,36.1238 C19.2608,36.1888 19.1828,36.2508 19.0988,36.3028" id="Fill-53" fill="#FEFEFE"></path>
            <path d="M21.6562,38.7659 C21.5762,38.7889 21.4982,38.8109 21.4032,38.8379 C21.4132,39.1099 21.4312,39.1539 21.5892,39.2909 C21.6012,39.1109 21.7412,38.9739 21.6562,38.7659" id="Fill-55" fill="#FEFEFE"></path>
            <path d="M21.9989,38.9814 C21.9549,39.0034 21.8889,39.0374 21.8299,39.0674 L21.8299,39.5884 C21.8609,39.6194 21.8849,39.6434 21.9189,39.6774 C22.0549,39.5724 22.1839,39.4734 22.3039,39.3804 C22.2179,39.2404 22.2289,39.0374 21.9989,38.9814" id="Fill-57" fill="#FEFEFE"></path>
            <path d="M20.0096,33.6227 C20.0156,33.4077 19.9106,33.2337 19.8396,33.0557 C19.7996,33.0557 19.7836,33.0507 19.7776,33.0567 C19.3546,33.4697 18.7996,33.6667 18.3036,33.9587 C18.0296,33.9827 17.7946,34.1367 17.5216,34.1797 C17.1766,34.2337 16.8526,34.4027 16.4916,34.3817 C16.3676,34.5157 16.2086,34.4407 16.0666,34.4477 C15.9096,34.4557 15.7746,34.5407 15.6076,34.5267 C15.0726,34.4817 14.5316,34.5837 13.9966,34.4567 C13.8376,34.4187 13.6686,34.4207 13.5026,34.3937 C12.9746,34.3067 12.4696,34.1237 12.0296,33.9027 C11.7816,33.7777 11.5466,33.6267 11.3186,33.4947 C11.1896,33.5927 11.0736,33.7037 10.9386,33.7797 C10.6946,33.9167 10.4506,34.0707 10.1656,34.0967 C10.0376,34.1077 9.9326,34.1497 9.8236,34.2007 C9.8246,34.3927 9.9096,34.6787 10.0086,34.8167 C10.2536,35.1607 10.5406,35.4607 10.8906,35.7017 C11.6156,36.1997 12.4626,36.5017 13.2696,36.6937 C13.4376,36.7337 13.6226,36.6997 13.7586,36.7707 C13.8996,36.8447 14.0256,36.8007 14.1556,36.8247 C14.2966,36.8507 14.4396,36.8967 14.5796,36.8907 C15.1276,36.8647 15.6816,36.9747 16.2246,36.8247 C16.5536,36.8557 16.8626,36.7457 17.1766,36.6807 C17.4816,36.6167 17.7876,36.5377 18.0716,36.4047 C18.5476,36.1827 18.9786,35.9037 19.3446,35.5117 C19.7736,35.0507 20.0096,34.5297 20.0096,33.9017 C20.0096,33.8087 20.0066,33.7157 20.0096,33.6227" id="Fill-59" fill="#FEFEFE"></path>
            <path d="M22.791,39.8053 C22.836,39.6063 22.69,39.5563 22.586,39.4373 C22.407,39.5893 22.248,39.7243 22.07,39.8743 C22.116,39.9663 22.154,40.0413 22.193,40.1183 C22.483,40.0833 22.618,39.8913 22.791,39.8053" id="Fill-61" fill="#FEFEFE"></path>
            <path d="M18.4797,41.3177 C18.7227,40.9287 18.8027,40.5017 18.7367,40.0387 C18.6557,40.0867 18.5777,40.1217 18.5127,40.1737 C17.9017,40.6597 17.2137,40.9317 16.4277,40.9437 C16.2427,40.9457 16.0567,40.9457 15.8707,40.9427 C15.7377,40.9407 15.6127,40.9387 15.4777,40.8837 C15.3107,40.8157 15.1157,40.8187 14.9577,40.7947 C14.9027,40.8497 14.8777,40.8747 14.8287,40.9237 C14.9347,41.2727 14.7047,41.6107 14.7037,41.9587 C14.9147,42.1467 15.1427,42.2497 15.3767,42.3377 C15.5817,42.4157 15.7897,42.4847 16.0147,42.4807 C16.2007,42.4767 16.3867,42.4907 16.5717,42.4767 C16.7577,42.4617 16.9617,42.4617 17.1237,42.3847 C17.4057,42.2517 17.7427,42.2047 17.9447,41.9267 C18.2257,41.8137 18.3357,41.5477 18.4797,41.3177" id="Fill-63" fill="#FEFEFE"></path>
            <path d="M9.7903,39.3548 C9.9743,39.7608 10.2403,40.0928 10.5573,40.3968 C10.8653,40.6908 11.2323,40.8708 11.6253,41.0168 C11.8343,41.0948 12.0363,41.1808 12.2653,41.1538 C12.7223,41.3328 13.1873,41.2188 13.6293,41.1288 C14.1153,41.0288 14.5523,40.7788 14.8853,40.3808 C15.1333,40.0828 15.2763,39.7528 15.2613,39.3508 C15.2163,39.3458 15.1833,39.3388 15.1513,39.3388 C14.8953,39.3378 14.6393,39.3268 14.3853,39.3418 C14.1333,39.3558 13.9003,39.2158 13.6473,39.2678 C13.6253,39.2728 13.5983,39.2758 13.5783,39.2678 C13.3043,39.1528 13.0043,39.1568 12.7203,39.0698 C12.4113,38.9748 12.0963,38.8918 11.8013,38.7648 C11.4643,38.6198 11.1263,38.4498 10.8493,38.2118 C10.6513,38.0428 10.3943,37.9338 10.2673,37.6718 C10.2073,37.5488 10.0783,37.4468 9.9263,37.3528 C9.8143,37.6058 9.6513,37.8308 9.6203,38.0728 C9.5663,38.5048 9.6013,38.9388 9.7903,39.3548" id="Fill-65" fill="#FEFEFE"></path>
            <path d="M14.0022,25.9707 C14.0902,25.8537 14.1692,25.7487 14.2612,25.6247 C14.3932,25.6797 14.4812,25.7177 14.5642,25.7517 C14.5902,25.8487 14.6232,25.9317 14.6312,26.0157 C14.6392,26.1097 14.6532,26.1827 14.7732,26.1887 C14.7732,26.0617 14.7852,25.9337 14.7702,25.8097 C14.7562,25.6917 14.7152,25.5777 14.6872,25.4647 C14.6112,25.3887 14.5372,25.3147 14.4692,25.2477 L14.1742,25.2477 C14.0092,25.3897 13.9482,25.5507 13.9262,25.7557 C13.8992,26.0157 13.8702,26.0127 14.0022,26.2907 L14.0022,25.9707 Z" id="Fill-67" fill="#FEFEFE"></path>
            <path d="M61.8598,19.5097 C61.7188,19.4607 61.5938,19.3557 61.4508,19.3227 C61.2968,19.2877 61.1308,19.3027 60.9698,19.3047 C60.8118,19.3067 60.6518,19.2867 60.4978,19.3187 L60.4978,21.8867 C60.7848,21.8867 61.0518,21.9037 61.3158,21.8817 C61.5658,21.8607 61.8028,21.7637 61.9988,21.6027 C62.2728,21.3767 62.3298,21.0457 62.3828,20.7177 C62.4178,20.5007 62.3688,20.2857 62.3048,20.0877 C62.2288,19.8527 62.1388,19.6067 61.8598,19.5097" id="Fill-69" fill="#FEFEFE"></path>
            <path d="M16.5098,47.5696 C16.6708,47.5226 16.8528,47.4966 16.9798,47.3596 C17.1038,47.2246 17.2608,47.1096 17.3498,46.9546 C17.5428,46.6196 17.7068,46.2666 17.6178,45.8346 C17.4088,45.9246 17.2628,46.0946 17.0298,46.1306 C16.8308,46.1606 16.6458,46.2826 16.4468,46.3116 C16.2198,46.3446 15.9808,46.3416 15.7528,46.3126 C15.5398,46.2856 15.3258,46.2246 15.1278,46.1416 C14.9398,46.0636 14.7638,45.9516 14.5878,45.8416 C14.3998,45.7246 14.2868,45.5266 14.0838,45.4116 C14.0618,45.5686 14.0858,45.6976 14.0128,45.8286 C13.9318,45.9756 14.0638,46.1276 14.0798,46.2826 C14.1278,46.7566 14.3788,47.1276 14.7788,47.3596 C15.3158,47.6706 15.9078,47.7446 16.5098,47.5696" id="Fill-71" fill="#FEFEFE"></path>
            <path d="M14.4966,45.4445 C14.7366,45.6995 15.3186,45.9485 15.6716,45.9715 C15.7246,45.9755 15.7756,46.0075 15.8286,46.0105 C15.9376,46.0185 16.0476,46.0225 16.1566,46.0155 C16.2206,46.0115 16.2856,45.9665 16.3456,45.9735 C16.5086,45.9935 16.6596,45.9485 16.8046,45.8975 C17.4066,45.6865 17.9036,45.3535 18.1506,44.7255 C18.2996,44.3465 18.3216,43.9745 18.1696,43.5845 C18.0186,43.7355 17.8946,43.8965 17.7356,44.0095 C17.5446,44.1475 17.3346,44.2805 17.1126,44.3505 C16.8866,44.4215 16.6436,44.4545 16.4076,44.4995 C16.1026,44.5575 15.7876,44.5015 15.5026,44.4165 C14.9446,44.2485 14.4016,44.0245 14.1456,43.4265 C13.9876,43.3455 14.0396,43.1335 13.9016,43.0385 C13.8476,43.1435 13.7926,43.2485 13.7256,43.3795 C13.7086,43.5015 13.7726,43.6685 13.6626,43.7985 C13.6846,43.8765 13.7196,43.9485 13.7236,44.0215 C13.7426,44.3595 13.8666,44.6505 14.0436,44.9375 C14.1676,45.1395 14.3416,45.2805 14.4966,45.4445" id="Fill-73" fill="#FEFEFE"></path>
            <path d="M10.9767,47.0959 C10.8657,47.1869 10.7577,47.1539 10.6507,47.1539 C10.4037,47.1539 10.1607,47.1559 9.9107,47.0989 C9.6757,47.0459 9.4447,46.9889 9.2337,46.8819 C8.8137,46.6669 8.4387,46.3939 8.1837,45.9809 C8.0777,45.8069 7.9497,45.6469 7.8117,45.4539 C7.6997,45.6369 7.6027,45.7949 7.5137,45.9409 C7.5137,46.1549 7.5187,46.3519 7.5127,46.5489 C7.5037,46.8329 7.6027,47.1039 7.7357,47.3249 C7.9787,47.7259 8.3037,48.0709 8.7697,48.2379 C8.9347,48.2969 9.0977,48.3739 9.2827,48.3439 C9.6007,48.5179 9.9147,48.3829 10.2227,48.3129 C10.3287,48.2889 10.4787,48.2909 10.5357,48.1489 C10.7607,48.0639 10.9127,47.8759 11.0367,47.6979 C11.1517,47.5319 11.2907,47.3449 11.2827,47.0869 C11.1727,47.0869 11.0377,47.0459 10.9767,47.0959" id="Fill-75" fill="#FEFEFE"></path>
            <path d="M13.517,45.7848 L13.517,45.4838 L12.972,45.4838 C12.916,45.8868 12.698,46.2018 12.471,46.5198 L13.596,46.5198 C13.567,46.3928 13.532,46.2808 13.52,46.1658 C13.507,46.0398 13.517,45.9118 13.517,45.7848" id="Fill-77" fill="#FEFEFE"></path>
            <path d="M18.4813,50.9199 C18.4613,50.8919 18.4483,50.8739 18.4243,50.8409 C18.2273,50.9679 18.0293,51.0949 17.7953,51.1659 C17.6793,51.2019 17.5723,51.1819 17.4643,51.2059 C17.0053,51.3079 17.0053,51.3079 16.6873,51.1549 C16.8183,51.1269 16.9583,51.0679 17.0963,51.0719 C17.3693,51.0799 17.6183,50.9899 17.8763,50.9299 C18.1053,50.8769 18.2443,50.7149 18.3823,50.5569 C18.4883,50.4349 18.4973,50.2719 18.4553,50.0799 C18.3803,49.9919 18.2993,49.8649 18.1873,49.7759 C18.0623,49.6759 17.9093,49.6119 17.7683,49.5299 C17.5423,49.3989 17.3173,49.2659 17.0523,49.1109 C16.9543,49.1109 16.8023,49.1009 16.6523,49.1139 C16.5003,49.1279 16.3503,49.1649 16.1763,49.1959 C16.1403,49.1029 16.1093,49.0239 16.0683,48.9199 C16.3223,48.8719 16.5453,48.8289 16.8173,48.7779 C16.7723,48.7159 16.7433,48.6919 16.7363,48.6629 C16.7243,48.6099 16.7243,48.5539 16.7163,48.4679 C16.4523,48.4879 16.1973,48.5069 15.8953,48.5299 C15.8733,48.4839 15.8353,48.4009 15.7973,48.3199 C16.0593,48.1659 16.3353,48.1939 16.6003,48.0999 C16.5593,48.0149 16.5203,47.9319 16.4813,47.8509 C16.2243,47.9249 15.9783,48.0199 15.7243,47.9879 C15.4813,47.9579 15.2443,47.8769 14.9703,47.8099 C14.8903,47.9359 14.8113,48.1129 14.6853,48.2469 C14.5513,48.3899 14.5733,48.5759 14.5093,48.7339 C14.4593,48.8589 14.4843,49.0359 14.5343,49.1989 C14.6233,49.4869 14.7663,49.7219 14.9873,49.9189 C15.1983,50.1089 15.4143,50.3079 15.5353,50.5639 C15.7123,50.9399 15.9543,51.2329 16.4153,51.4249 C16.4623,51.4359 16.5973,51.3909 16.7253,51.4769 C16.7893,51.5209 16.9073,51.4939 16.9993,51.4819 C17.0953,51.4699 17.1903,51.4159 17.2843,51.4189 C17.5343,51.4279 17.7653,51.3399 17.9893,51.2649 C18.1743,51.2029 18.3903,51.1329 18.4813,50.9199" id="Fill-79" fill="#FEFEFE"></path>
            <path d="M12.3107,44.9758 C12.0907,45.0308 11.9267,45.2458 11.6727,45.2018 C11.4877,45.3528 11.2727,45.2568 11.0737,45.2678 C10.6217,45.2928 10.2117,45.1758 9.8197,44.9288 C9.2507,44.5708 9.0907,44.4048 8.7707,43.8268 C8.7247,43.7418 8.6887,43.6508 8.6527,43.5738 C8.6137,43.3688 8.5757,43.1718 8.5347,42.9568 C8.4247,43.0938 8.3167,43.1978 8.2477,43.3228 C8.1327,43.5298 8.0097,43.7368 7.9987,43.9878 C7.9937,44.1178 7.9377,44.2478 7.9377,44.3768 C7.9377,44.5068 7.9777,44.6368 8.0027,44.7668 C8.0297,44.9058 8.0357,45.0558 8.0937,45.1818 C8.2487,45.5188 8.4267,45.8458 8.6797,46.1248 C9.1387,46.6278 9.7467,46.7978 10.3907,46.8728 C10.5767,46.8948 10.7637,46.8658 10.9557,46.8178 C11.3207,46.7268 11.6827,46.5608 11.9427,46.3298 C12.1667,46.1298 12.2797,45.8698 12.3987,45.6098 C12.4957,45.3988 12.5587,45.1798 12.5297,44.8898 C12.4307,44.9288 12.3727,44.9598 12.3107,44.9758" id="Fill-81" fill="#FEFEFE"></path>
            <path d="M19.8129,58.0392 C19.7439,57.6812 19.5739,57.4342 19.2689,57.2862 L18.7109,57.2862 C18.5799,57.4172 18.4569,57.5402 18.3339,57.6632 C18.3069,57.7922 18.2249,57.9022 18.1999,58.0242 C18.1559,58.2302 18.1399,58.4442 18.1269,58.6552 C18.1159,58.8402 18.1299,59.0262 18.1229,59.2112 C18.1119,59.5042 18.1719,59.7892 18.2699,60.0562 C18.4679,60.5942 18.6849,60.7472 19.1409,60.7002 C19.1639,60.6972 19.1869,60.6992 19.1799,60.6992 C19.3099,60.6332 19.4159,60.5782 19.5089,60.5312 C19.8779,60.0502 19.8879,59.5152 19.9359,58.9922 C19.9499,58.8402 19.9429,58.6882 19.8799,58.5302 C19.8219,58.3832 19.8449,58.2062 19.8129,58.0392" id="Fill-83" fill="#FEFEFE"></path>
            <g id="Group-87" transform="translate(0.000000, 0.231000)">
                <mask id="mask-2" fill="white">
                    <use xlink:href="#path-1"></use>
                </mask>
                <g id="Clip-86"></g>
                <path d="M101.0406,19.0674 L98.9316,19.0674 C98.8956,19.1034 98.8706,19.1284 98.8346,19.1654 L98.8346,21.0744 C98.8716,21.1114 98.8956,21.1354 98.9326,21.1724 L100.7676,21.1724 L100.7676,21.8504 L98.9326,21.8504 C98.8986,21.8944 98.8696,21.9314 98.8286,21.9824 L98.8286,23.5304 L101.0396,23.5304 L101.0396,24.2984 L98.0696,24.2984 L98.0696,18.3144 L101.0406,18.3144 L101.0406,19.0674 Z M101.0396,57.1114 L100.1526,57.1114 L100.1526,60.9504 L99.5326,60.9504 L99.5326,57.1154 L98.7156,57.1154 C98.6786,57.0784 98.6536,57.0544 98.6206,57.0214 C98.6206,56.8814 98.6206,56.7344 98.6206,56.5864 C98.6456,56.5614 98.6706,56.5364 98.7066,56.5004 L101.0396,56.5004 L101.0396,57.1114 Z M96.2976,60.9504 L95.7486,60.9504 C95.2276,59.9094 94.7046,58.8644 94.1476,57.7524 L94.1476,60.9504 L93.5986,60.9504 L93.5986,56.4964 L94.1176,56.4964 C94.6236,57.5804 95.2596,58.5944 95.7466,59.7514 L95.7466,56.4974 L96.2126,56.4974 C96.2376,56.5224 96.2626,56.5474 96.2976,56.5834 L96.2976,60.9504 Z M90.7106,58.5784 L90.7106,59.1404 L89.3406,59.1404 L89.3406,60.4004 L90.9236,60.4004 L90.9236,60.9414 L88.7086,60.9414 L88.7086,56.5854 C88.7306,56.5634 88.7556,56.5384 88.7926,56.5014 L90.9226,56.5014 C90.9536,56.6904 90.9196,56.8944 90.9396,57.1084 L89.3446,57.1084 L89.3446,58.5784 L90.7106,58.5784 Z M86.0356,60.9494 C85.8696,60.9674 85.6906,60.9524 85.4866,60.9594 L85.4866,57.6144 C85.4716,57.6104 85.4566,57.6064 85.4416,57.6024 C85.0946,58.2324 84.7476,58.8624 84.3876,59.5164 C84.1276,59.2364 84.0146,58.8864 83.8386,58.5734 C83.6586,58.2524 83.4836,57.9284 83.3066,57.6064 C83.2876,57.6164 83.2776,57.6194 83.2716,57.6254 C83.2646,57.6334 83.2556,57.6444 83.2556,57.6534 C83.2546,58.7454 83.2556,59.8374 83.2556,60.9434 L82.7326,60.9434 C82.6786,60.6694 82.6596,57.8054 82.7066,56.5834 C82.7316,56.5594 82.7566,56.5344 82.7916,56.4994 L83.3326,56.4994 C83.6636,57.1134 84.0066,57.7474 84.3706,58.4224 C84.4526,58.2734 84.5196,58.1564 84.5806,58.0374 C84.8146,57.5874 85.0446,57.1364 85.2816,56.6884 C85.3226,56.6104 85.3956,56.5504 85.4456,56.4924 L85.9456,56.4924 C85.9736,56.5204 85.9986,56.5454 86.0356,56.5824 L86.0356,60.9494 Z M80.1066,57.0204 C80.0796,57.0474 80.0546,57.0724 80.0176,57.1084 L78.4546,57.1084 L78.4546,58.5774 L79.8196,58.5774 L79.8196,59.1384 L78.4516,59.1384 L78.4516,60.3974 L80.1016,60.3974 L80.1016,60.9354 C80.1066,60.9304 80.0986,60.9404 80.0896,60.9464 C80.0806,60.9514 80.0696,60.9564 80.0586,60.9564 C79.3166,60.9574 78.5746,60.9574 77.8216,60.9574 L77.8216,56.5834 C77.8586,56.5454 77.8836,56.5214 77.9066,56.4974 L80.0176,56.4974 C80.0496,56.5304 80.0746,56.5554 80.1066,56.5874 L80.1066,57.0204 Z M75.4276,57.1974 C75.3516,57.4354 75.2856,57.6784 75.2376,57.9184 C75.1756,58.2294 75.0686,58.5274 74.9956,58.8334 C74.9196,59.1464 74.8396,59.4624 74.7466,59.7734 C74.6446,60.1154 74.5696,60.4664 74.4606,60.8074 C74.4486,60.8474 74.4596,60.8954 74.4596,60.9484 L73.8256,60.9484 C73.7326,60.6724 73.6966,60.3654 73.6006,60.0814 C73.5026,59.7934 73.4296,59.4984 73.3546,59.2094 C73.2746,58.9054 73.2126,58.5914 73.1246,58.2894 C73.0406,57.9974 72.9796,57.7004 72.8986,57.4084 C72.8176,57.1164 72.7296,56.8274 72.6366,56.5054 C72.7376,56.5004 72.8346,56.4924 72.9306,56.4904 C73.0346,56.4874 73.1386,56.4894 73.2486,56.4894 C73.5266,57.6234 73.8026,58.7534 74.0896,59.9234 C74.0856,59.9194 74.1166,59.9484 74.1516,59.9804 C74.3986,58.8234 74.7026,57.6894 74.9916,56.5524 C74.9966,56.5324 75.0236,56.5184 75.0466,56.4954 L75.5726,56.4954 C75.5976,56.7484 75.4976,56.9764 75.4276,57.1974 Z M70.4806,56.7344 L70.4806,58.8974 C70.4806,59.0254 70.4906,59.1544 70.4776,59.2814 C70.4646,59.4024 70.5076,59.5204 70.4406,59.6494 C70.3876,59.7514 70.4416,59.9024 70.4046,60.0184 C70.3506,60.1914 70.3306,60.3854 70.1846,60.5194 C69.9636,60.7224 69.9566,60.8584 69.5366,60.9644 C69.2126,61.0464 68.8956,61.0354 68.5936,60.9254 C68.1686,60.7704 68.0066,60.4234 67.9006,60.0354 C67.8396,59.8084 67.8216,59.5724 67.8236,59.3324 C67.8326,58.3924 67.8276,57.4514 67.8276,56.4904 L68.3856,56.4904 L68.3856,56.7924 C68.3856,57.5604 68.3976,58.3284 68.3796,59.0954 C68.3736,59.3724 68.4466,59.6334 68.4686,59.9034 C68.4826,60.0604 68.5816,60.2324 68.7226,60.3524 C68.8416,60.4554 68.9786,60.4794 69.1286,60.4694 C69.2096,60.4644 69.2916,60.4684 69.3976,60.4684 C69.4166,60.4494 69.4416,60.4074 69.4796,60.3894 C69.7906,60.2474 69.8436,59.9614 69.8476,59.6764 C69.8596,58.7344 69.8516,57.7914 69.8516,56.8494 L69.8516,56.4984 L70.3846,56.4984 C70.4066,56.5204 70.4316,56.5454 70.4806,56.5944 L70.4806,56.7344 Z M65.3846,59.4714 C65.2456,59.8084 65.2246,60.1794 64.9906,60.4954 C64.7376,60.8364 64.4186,60.9744 64.0266,61.0294 C63.7576,61.0684 63.5106,60.9764 63.2886,60.8744 C63.0826,60.7794 62.9196,60.5874 62.7976,60.3734 C62.6316,60.0814 62.5846,59.7634 62.5146,59.4434 C62.4366,59.0914 62.4386,58.7404 62.4586,58.3914 C62.4816,58.0004 62.5626,57.6134 62.7306,57.2524 C62.8736,56.9464 63.0696,56.6954 63.3916,56.5624 C63.4406,56.5424 63.4906,56.5224 63.5696,56.4894 C63.7206,56.4894 63.9066,56.4884 64.0926,56.4894 C64.5256,56.4914 64.8116,56.7204 65.0396,57.0704 C65.1796,57.2844 65.2486,57.5214 65.3096,57.7594 C65.4566,58.3224 65.3596,58.9004 65.3846,59.4714 Z M59.9976,60.9454 L59.4616,60.9454 L59.4616,57.5434 C59.0686,58.2464 58.7176,58.8744 58.3406,59.5504 C57.9796,58.8884 57.6496,58.2844 57.3206,57.6804 C57.3146,57.6854 57.3056,57.6904 57.2996,57.6994 C57.2926,57.7074 57.2866,57.7184 57.2866,57.7284 C57.2866,58.7964 57.2866,59.8644 57.2866,60.9444 L56.7616,60.9444 C56.7116,60.6574 56.6946,57.6244 56.7396,56.5014 L57.2866,56.5014 C57.6666,57.0834 57.9776,57.7374 58.3086,58.3894 C58.3486,58.3674 58.3886,58.3584 58.4016,58.3354 C58.7266,57.7254 59.0496,57.1144 59.3726,56.5014 L59.9756,56.5014 C60.0246,56.7894 60.0416,59.8654 59.9976,60.9454 Z M50.7246,60.9424 L50.1676,60.9424 C49.6406,59.9314 49.1316,58.8744 48.6006,57.8274 C48.5976,57.8274 48.5876,57.8264 48.5816,57.8304 C48.5736,57.8374 48.5616,57.8474 48.5616,57.8564 C48.5606,58.8784 48.5606,59.9014 48.5606,60.9404 L48.0116,60.9404 L48.0116,56.5054 L48.5336,56.5054 C48.7346,56.9064 48.9426,57.3294 49.1586,57.7494 C49.4096,58.2384 49.6706,58.7224 49.9196,59.2124 C49.9986,59.3684 50.0576,59.5354 50.1546,59.7674 L50.1546,56.4964 L50.6516,56.4964 C50.6756,56.5554 50.7176,56.6134 50.7216,56.6744 C50.7306,56.8484 50.7246,57.0234 50.7246,57.1974 L50.7246,60.9424 Z M45.3376,57.1194 L43.7546,57.1194 L43.7546,58.5774 L45.1316,58.5774 L45.1316,59.1284 L43.7576,59.1284 C43.7276,59.5524 43.7526,59.9644 43.7416,60.3884 L45.3326,60.3884 L45.3326,60.9484 L43.1296,60.9484 L43.1296,56.4964 L45.3376,56.4964 L45.3376,57.1194 Z M37.1706,57.1094 L35.5166,57.1094 L35.5166,58.5834 C35.9136,58.5834 36.3166,58.5834 36.7196,58.5834 C36.8116,58.5834 36.9116,58.5634 36.9666,58.7354 L36.9666,59.1314 L35.6216,59.1314 C35.5766,59.1764 35.5436,59.2094 35.5166,59.2374 L35.5166,60.3954 L37.1686,60.3954 L37.1686,60.9344 C37.1746,60.9274 37.1676,60.9374 37.1586,60.9444 C37.1506,60.9504 37.1396,60.9564 37.1296,60.9564 C36.4106,60.9574 35.6906,60.9574 34.9596,60.9574 L34.9596,56.4954 L37.1706,56.4954 L37.1706,57.1094 Z M32.2136,60.9504 L31.6676,60.9504 L31.6676,57.6354 C31.2866,58.2864 30.9766,58.9124 30.5876,59.5354 C30.2266,58.8744 29.8846,58.2484 29.5396,57.6184 C29.5416,57.6184 29.5316,57.6154 29.5256,57.6194 C29.5166,57.6254 29.5036,57.6354 29.5036,57.6444 C29.5026,58.7364 29.5026,59.8284 29.5026,60.9434 C29.3266,60.9754 29.1456,60.9444 28.9556,60.9624 L28.9556,56.4924 C29.1456,56.4844 29.3476,56.4924 29.5676,56.4884 C29.9026,57.1224 30.2366,57.7524 30.5906,58.4224 C30.9486,57.7604 31.2876,57.1334 31.6326,56.4954 L32.2136,56.4954 L32.2136,60.9504 Z M26.2106,60.9494 C26.0456,60.9684 25.8656,60.9514 25.6626,60.9594 L25.6626,57.6364 C25.2836,58.2864 24.9726,58.9124 24.5846,59.5314 C24.2256,58.8714 23.8856,58.2454 23.5446,57.6184 C23.5376,57.6184 23.5276,57.6164 23.5216,57.6204 C23.5126,57.6264 23.5006,57.6364 23.5006,57.6454 C23.4996,58.7374 23.4996,59.8294 23.4996,60.9504 L22.9516,60.9504 L22.9516,56.4964 C23.1416,56.4814 23.3446,56.4934 23.5426,56.4884 C23.9486,57.1014 24.2066,57.7824 24.6226,58.4314 C24.9706,57.7484 25.2666,57.0894 25.6656,56.4954 L26.2106,56.4954 L26.2106,60.9494 Z M20.4206,59.6994 C20.3126,60.1574 20.1156,60.5854 19.7096,60.8614 C19.5736,60.9544 19.3896,60.9964 19.2216,61.0224 C18.8166,61.0864 18.4556,60.9564 18.1316,60.7184 C18.0256,60.6404 17.7506,60.1854 17.7096,59.9894 C17.6496,59.7094 17.5536,59.4354 17.5636,59.1424 C17.5736,58.8874 17.5716,58.6314 17.5646,58.3764 C17.5546,57.9934 17.6636,57.6304 17.7956,57.2864 C17.9356,56.9204 18.1856,56.6124 18.6096,56.5284 C19.1256,56.4274 19.6306,56.4354 19.9966,56.8744 C20.1586,57.0684 20.2856,57.3164 20.3476,57.5604 C20.4486,57.9594 20.5406,58.3684 20.5156,58.7914 C20.4866,59.0944 20.4896,59.4054 20.4206,59.6994 Z M16.1276,51.6724 C16.0036,51.5884 15.8526,51.4984 15.7156,51.3904 C15.4746,51.1994 15.3296,50.9294 15.2046,50.6604 C15.1316,50.5024 15.0456,50.3704 14.9256,50.2534 C14.7916,50.1234 14.6656,49.9854 14.5286,49.8594 C14.2936,49.6434 14.1826,49.3644 14.0626,49.0754 C13.9766,48.8684 14.0596,48.6684 13.9856,48.4694 L10.3496,48.4694 C10.1226,48.5994 10.1206,48.5994 10.0416,48.8314 C9.9506,49.0984 9.8956,49.3754 9.8236,49.6474 C9.8046,49.7204 9.8686,49.8124 9.8856,49.8964 C9.9016,49.9734 9.8966,50.0544 9.9156,50.1294 C9.9956,50.4374 10.0856,50.7444 10.0966,51.0664 C10.0976,51.1004 10.0816,51.1484 10.0986,51.1684 C10.2136,51.3044 10.1196,51.4304 10.1066,51.5674 C10.0906,51.7304 10.0326,51.8604 9.9616,51.9994 C9.8916,52.1374 9.7946,52.2274 9.6646,52.3034 C9.3536,52.4834 9.0286,52.5954 8.6626,52.5824 C8.3956,52.5724 8.1256,52.5644 7.8606,52.5864 C7.6936,52.5994 7.5366,52.5534 7.4076,52.4944 C7.0816,52.3454 6.7546,52.1824 6.4876,51.9344 C6.2586,51.7224 6.0996,51.4574 5.9766,51.1704 C5.9646,51.1404 5.9406,51.1144 5.9076,51.0654 C5.9076,50.9984 5.9176,50.9054 5.9056,50.8154 C5.8786,50.5984 5.9886,50.4284 6.0986,50.2664 C6.2486,50.0454 6.4196,49.8384 6.5896,49.6314 C6.8836,49.2754 7.1536,48.9024 7.3746,48.4674 L5.2176,48.4674 L5.2176,46.3114 L6.9466,46.3114 C6.9276,45.9424 6.9956,45.6014 7.1646,45.2604 L5.2206,45.2604 L5.2206,32.3434 L6.1556,32.3434 C5.7576,31.9554 5.5046,31.5444 5.4096,31.0304 C5.1386,30.7964 4.9086,30.5114 4.7516,30.1694 C4.6546,29.9574 4.5616,29.7494 4.5776,29.5064 C4.5826,29.4244 4.5406,29.3384 4.5166,29.2374 C4.5316,29.2164 4.5566,29.1814 4.5916,29.1314 C4.2136,28.5604 4.3566,28.0164 4.7036,27.4984 C4.5246,27.3324 4.3296,27.1774 4.1666,26.9934 C3.8386,26.6244 3.6216,26.2014 3.6016,25.6924 C3.5956,25.5274 3.5436,25.3634 3.5386,25.1974 C3.5336,25.0434 3.5096,24.8884 3.5976,24.7344 C3.6636,24.6204 3.5626,24.4984 3.5106,24.3934 C3.4016,24.1754 3.2946,23.9604 3.3316,23.7094 C3.4646,23.5684 3.6116,23.4474 3.6776,23.2544 C3.7306,23.0994 3.8786,23.0584 4.0276,23.0524 C4.1786,23.0474 4.3296,23.0514 4.4766,23.0514 C4.6516,23.2364 4.8766,23.1824 5.0896,23.1924 C5.6066,23.4894 5.5066,23.3914 6.0006,24.0874 C6.0966,24.0224 6.1926,23.9574 6.2846,23.8954 C6.7016,23.8534 7.0766,23.9004 7.2956,24.3884 L7.2956,24.6304 C7.2556,24.6714 7.2136,24.7124 7.1616,24.7654 C7.1866,25.0104 7.0996,25.2824 7.2376,25.5214 C7.3556,25.7254 7.4386,25.9304 7.4486,26.1694 C7.4536,26.2854 7.5076,26.3994 7.5326,26.4904 C7.7096,26.6554 7.8746,26.8094 8.0396,26.9644 C8.0656,26.9874 8.0946,27.0094 8.1136,27.0384 C8.2356,27.2214 8.2656,27.4484 8.4986,27.5804 C8.7016,27.6954 8.8486,27.9124 9.0386,28.0514 C9.1946,28.1234 9.3506,28.1954 9.5126,28.2694 C9.6236,28.1544 9.8056,28.1844 9.9176,28.2304 C10.1536,28.3254 10.4226,28.2614 10.6446,28.4184 C10.7056,28.4614 10.8496,28.4254 10.9346,28.3834 C11.1476,28.2814 11.3816,28.2884 11.6016,28.2244 C11.8116,28.1624 12.0386,28.1604 12.2816,28.1294 C12.2126,27.9854 12.1456,27.8624 12.0936,27.7344 C12.0326,27.5824 11.9636,27.4324 11.9786,27.2574 C11.9906,27.1184 11.9936,26.9774 11.9786,26.8394 C11.9396,26.4864 12.1306,26.2284 12.3086,25.9444 C12.3376,25.6964 12.3466,25.4244 12.4056,25.1634 C12.4756,24.8554 12.6246,24.5724 12.8336,24.3304 C13.0406,24.0904 13.2886,23.8984 13.5686,23.7494 C13.6166,23.7234 13.6896,23.7014 13.7036,23.6614 C13.8166,23.3354 14.1506,23.3434 14.3816,23.1984 C14.7166,23.1994 15.0516,23.1424 15.3726,23.3234 C15.5196,23.4064 15.6156,23.5054 15.7046,23.6544 C16.0506,23.7634 16.3926,23.9484 16.6156,24.2484 C16.8876,24.6144 17.1426,25.0174 17.0716,25.5274 C17.4156,25.8204 17.5676,26.2254 17.6276,26.6504 C17.6886,27.0864 17.6096,27.5154 17.3066,27.9154 C17.9636,27.9784 18.5376,28.1604 19.0696,28.4944 C19.4206,28.4644 19.7096,28.6574 20.0066,28.8144 C20.1806,28.9064 20.3686,29.0114 20.4856,29.1614 C20.7116,29.4504 20.9496,29.7334 21.0006,30.1364 C21.0286,30.3594 21.0676,30.5634 20.9886,30.7784 C20.9736,30.8184 20.9866,30.8684 20.9866,30.8654 C21.3866,31.3014 21.6636,31.7404 21.6126,32.3284 L101.0396,32.3284 L101.0396,48.4624 L17.3166,48.4624 C17.4436,48.5784 17.5196,48.6884 17.6236,48.7354 C17.8746,48.8484 18.0956,49.0044 18.3216,49.1574 C18.6066,49.3514 18.8276,49.5914 18.9246,49.9274 C18.9496,50.0124 18.9476,50.1044 18.9626,50.1914 C18.9766,50.2654 18.9976,50.3384 19.0226,50.4374 C19.0116,50.4574 18.9616,50.5074 18.9666,50.5524 C18.9906,50.8054 18.8256,50.9854 18.6816,51.1284 C18.5286,51.2804 18.3206,51.4034 18.0946,51.4644 C17.6766,51.5764 17.2636,51.7094 16.8196,51.6754 C16.5996,51.6594 16.3776,51.6724 16.1276,51.6724 Z M15.1116,60.9504 L14.5066,60.9504 L14.5066,59.2294 L13.0366,59.2294 L13.0366,60.9414 L12.4786,60.9414 L12.4786,56.5034 L13.0266,56.5034 L13.0266,58.6414 L14.4966,58.6414 L14.4966,56.5004 L15.0286,56.5004 C15.0546,56.5264 15.0876,56.5584 15.1116,56.5834 L15.1116,60.9504 Z M9.9846,57.2004 C9.9046,57.4554 9.7166,57.5724 9.5386,57.6444 C9.4816,57.6134 9.4316,57.5854 9.3666,57.5494 C9.4916,57.3714 9.7626,57.3294 9.7366,57.0634 C9.6346,57.0144 9.4746,57.1104 9.4046,56.9174 L9.4046,56.5874 L9.4936,56.4984 L9.8686,56.4984 C10.0466,56.7024 10.0686,56.9334 9.9846,57.2004 Z M7.2926,60.9404 L5.2206,60.9404 L5.2206,56.4974 C5.3876,56.4794 5.5676,56.4944 5.7576,56.4874 L5.7576,60.3994 L7.2926,60.3994 L7.2926,60.9404 Z M32.2976,21.8394 C32.2916,22.3774 32.1516,22.8774 31.8946,23.3464 C31.6276,23.8364 31.2116,24.1154 30.6756,24.2454 C30.4506,24.3004 30.2306,24.3064 30.0056,24.3074 C29.5896,24.3094 29.1736,24.3084 28.7356,24.3084 L28.7356,24.1294 C28.7356,22.2944 28.7346,20.4594 28.7366,18.6244 C28.7366,18.5154 28.6866,18.3844 28.8806,18.3044 C29.2696,18.3044 29.7126,18.2734 30.1486,18.3144 C30.4896,18.3464 30.8306,18.3974 31.1546,18.5714 C31.4676,18.7394 31.7056,18.9604 31.8706,19.2524 C32.0576,19.5814 32.2076,19.9334 32.2256,20.3234 C32.3456,20.4994 32.2766,20.6984 32.2956,20.8874 C32.3036,20.9634 32.3026,21.0344 32.3346,21.1144 C32.3786,21.2234 32.4036,21.3874 32.3506,21.4774 C32.2756,21.6044 32.2996,21.7204 32.2976,21.8394 Z M28.6746,3.9384 L36.0566,3.9384 L36.0566,6.2834 L35.0386,6.2834 C34.9656,5.9874 34.8386,5.6944 34.6726,5.4144 C34.5466,5.2024 34.3686,5.0524 34.1846,4.9024 C34.1466,4.8714 33.6766,4.7624 33.6156,4.7624 C33.0456,4.7614 32.4766,4.7614 31.8916,4.7614 L31.8916,8.7414 C32.2396,8.7414 32.5876,8.7634 32.9316,8.7314 C33.1176,8.7144 33.3236,8.6864 33.4856,8.5614 C33.6666,8.4204 33.7616,8.2204 33.8306,8.0074 C33.8866,7.8334 33.9356,7.6564 33.9866,7.4854 L34.7706,7.4854 C34.8246,7.7684 34.8406,9.7554 34.7966,10.8234 L33.9816,10.8234 C33.9506,10.7034 33.9256,10.5654 33.8806,10.4324 C33.7786,10.1364 33.6586,9.8494 33.3706,9.6614 C32.8956,9.5154 32.3926,9.6034 31.8766,9.5734 L31.8766,10.1114 C31.8766,10.9484 31.8756,11.7854 31.8766,12.6234 C31.8776,12.9054 31.8416,13.1904 31.9596,13.4354 C32.1416,13.7694 32.4666,13.8344 32.7766,13.9144 L32.7766,14.3844 L28.6816,14.3844 L28.6816,13.9294 C28.8036,13.8734 28.9486,13.8084 29.0936,13.7434 C29.1106,13.7484 29.1266,13.7544 29.1436,13.7604 C29.2416,13.6384 29.3396,13.5154 29.4186,13.4164 C29.5746,12.5164 29.4856,11.6394 29.4996,10.7664 C29.5146,9.8714 29.5026,8.9754 29.5026,8.0804 C29.5026,7.1964 29.5076,6.3124 29.4996,5.4294 C29.4976,5.2414 29.4476,5.0544 29.4166,4.8504 C29.3086,4.7424 29.1856,4.6184 29.0696,4.5024 C28.9356,4.4654 28.8096,4.4304 28.6746,4.3924 L28.6746,3.9384 Z M36.3326,18.6914 C36.3856,19.0294 36.3246,19.3634 36.0476,19.6094 C35.9086,19.7334 35.7456,19.8224 35.5366,19.8474 C35.4956,19.7544 35.4656,19.6864 35.4236,19.5904 C35.4896,19.5764 35.5496,19.5644 35.6066,19.5534 C35.7126,19.4514 35.8206,19.3474 35.9236,19.2494 L35.9236,19.0874 L35.6716,19.0874 C35.6026,18.9864 35.5206,18.8934 35.4686,18.7864 C35.3766,18.5944 35.4756,18.3644 35.6706,18.3064 C35.7996,18.2674 35.9106,18.2024 36.0706,18.2944 C36.2426,18.3924 36.3106,18.5524 36.3326,18.6914 Z M42.3406,21.1624 L42.3406,21.8524 L40.4696,21.8524 L40.4696,23.5324 L42.6816,23.5324 L42.6816,24.2994 L39.7086,24.2994 L39.7086,18.3404 C39.9746,18.2894 41.7306,18.2744 42.6856,18.3174 L42.6856,19.0644 L40.4716,19.0644 L40.4716,21.1624 L42.3406,21.1624 Z M36.6116,10.0014 C36.6736,9.8444 36.6036,9.6474 36.6896,9.4744 C36.7216,9.4084 36.6876,9.3104 36.7196,9.2434 C36.8446,8.9804 36.8836,8.6894 37.0306,8.4294 C37.3566,7.8524 37.7786,7.3864 38.3786,7.0874 C38.7836,6.8864 39.2076,6.7824 39.6526,6.7014 C40.0326,6.6334 40.4036,6.6754 40.7776,6.6474 C40.8356,6.6424 40.9016,6.6284 40.9506,6.6494 C41.2176,6.7694 41.5196,6.7024 41.7886,6.8164 C42.0156,6.9134 42.2616,6.9634 42.4766,7.0904 C43.0816,7.4454 43.6426,8.0164 43.8826,8.8324 C43.9346,9.0094 44.0016,9.1874 44.0156,9.3684 C44.0306,9.5474 44.1216,9.7084 44.0986,9.8974 C44.0746,10.0924 44.0926,10.2924 44.0926,10.4894 C44.0926,10.6174 44.0786,10.7474 44.0956,10.8724 C44.1356,11.1614 44.0566,11.4404 44.0106,11.7144 C43.9666,11.9724 43.9306,12.2554 43.7456,12.4734 C43.6706,12.8494 43.4156,13.1154 43.1776,13.3884 C42.8526,13.7624 42.6656,13.8974 42.1636,14.1244 C41.8766,14.2534 41.5846,14.3544 41.2666,14.4094 C41.0296,14.4504 40.7966,14.4514 40.5616,14.4674 C40.4976,14.4714 40.4376,14.5084 40.3736,14.5174 C40.2966,14.5274 40.1906,14.5574 40.1456,14.5194 C40.0376,14.4304 39.9246,14.4634 39.8166,14.4684 C39.3866,14.4884 38.9896,14.3514 38.5876,14.2314 C37.9666,14.0474 37.2826,13.3684 37.0216,12.8184 C36.8746,12.5104 36.7896,12.1924 36.6876,11.8744 C36.6236,11.6734 36.6706,11.4614 36.6126,11.2764 C36.5326,11.0264 36.5606,10.7814 36.5576,10.5344 C36.5556,10.3584 36.5396,10.1844 36.6116,10.0014 Z M49.1906,21.6824 C49.1866,20.5894 49.1886,19.4974 49.1886,18.4094 C49.2256,18.3724 49.2586,18.3394 49.2926,18.3054 L49.9186,18.3054 C49.9776,18.6084 49.9986,22.6484 49.9486,24.2944 L49.2166,24.2944 C48.5026,22.8664 47.7816,21.4234 47.0336,19.9284 L47.0336,24.2974 L46.3426,24.2974 L46.3426,18.3144 L47.0346,18.3144 C47.2326,18.6834 47.4526,19.0694 47.6506,19.4654 C48.1026,20.3704 48.5426,21.2824 48.9926,22.1884 C49.0456,22.2954 49.1256,22.3864 49.1246,22.5194 C49.1246,22.5574 49.1896,22.5964 49.2296,22.6394 C49.2436,22.6004 49.2626,22.5754 49.2566,22.5604 C49.1486,22.2734 49.1916,21.9754 49.1906,21.6824 Z M45.4356,6.7904 C45.9956,6.8044 46.5466,6.6824 47.1096,6.7114 C47.5606,6.7354 48.0136,6.7164 48.4836,6.7164 C48.4616,6.8424 48.4356,6.9564 48.4226,7.0714 C48.4066,7.2054 48.4326,7.3544 48.3846,7.4744 C48.3316,7.6044 48.3696,7.7124 48.3516,7.8804 C48.5126,7.7724 48.6396,7.7054 48.7426,7.6114 C49.0716,7.3134 49.4356,7.0664 49.8346,6.8764 C50.0116,6.7924 50.2036,6.7534 50.3936,6.7054 C50.6786,6.6334 50.9626,6.6214 51.2386,6.6554 C51.7076,6.7144 52.1726,6.8364 52.5036,7.2104 C52.7366,7.4734 52.9026,7.7794 52.9626,8.1364 C52.9846,8.2664 53.0306,8.3894 53.0326,8.5264 C53.0356,8.6684 53.0836,8.8094 53.0956,8.9514 C53.1076,9.0904 53.0976,9.2304 53.0976,9.3704 C53.0976,10.5324 53.0946,11.6954 53.1016,12.8584 C53.1026,13.0344 53.1156,13.2224 53.1786,13.3834 C53.2656,13.6024 53.4316,13.7704 53.6756,13.8374 C53.7376,13.8544 53.7956,13.8824 53.8576,13.9064 L53.8576,14.3814 L50.1736,14.3814 L50.1736,13.9324 C50.2086,13.8994 50.2426,13.8414 50.2766,13.8414 C50.4626,13.8394 50.6126,13.7494 50.6996,13.6074 C50.7936,13.4524 50.8706,13.2774 50.8646,13.0834 C50.8636,13.0484 50.8646,13.0134 50.8646,12.9784 C50.8646,11.6884 50.8616,10.3974 50.8666,9.1064 C50.8676,8.8354 50.7836,8.5834 50.6946,8.3394 C50.6346,8.1784 50.4846,8.0514 50.3616,7.8924 C50.1056,7.8654 49.8506,7.8384 49.6066,7.8134 C49.5636,7.8504 49.5416,7.8834 49.5126,7.8914 C49.1536,7.9874 48.9246,8.2574 48.6906,8.5134 C48.5566,8.6594 48.4926,8.8554 48.4926,9.0564 C48.4896,10.3824 48.4856,11.7084 48.4966,13.0334 C48.4986,13.2234 48.5266,13.4264 48.6846,13.5834 C48.7886,13.6874 48.8956,13.7814 49.0626,13.8384 C49.1036,13.8524 49.1356,13.8904 49.1866,13.9284 L49.1866,14.3794 L45.4976,14.3794 L45.4976,13.9284 C45.6216,13.8744 45.7646,13.8394 45.8746,13.7584 C46.1196,13.5774 46.2456,13.3144 46.2536,13.0124 C46.2656,12.5364 46.2566,12.0594 46.2566,11.5824 C46.2566,10.4434 46.2556,9.3034 46.2586,8.1644 C46.2586,7.9814 46.2196,7.8184 46.1226,7.6614 C45.9666,7.4074 45.7246,7.3164 45.4356,7.2624 L45.4356,6.7904 Z M53.1766,19.0784 C53.1766,18.8364 53.1766,18.6194 53.1756,18.4014 C53.2006,18.3764 53.2256,18.3514 53.2616,18.3154 L56.4326,18.3154 L56.4326,19.0664 L55.3036,19.0664 C55.2666,19.1034 55.2416,19.1274 55.2046,19.1654 L55.2046,24.3004 L54.4326,24.3004 L54.4326,19.0784 L53.1766,19.0784 Z M63.1706,24.2924 L62.3366,24.2924 C62.0416,23.6634 61.7826,22.9914 61.4696,22.3464 C61.1476,22.4834 60.8356,22.3944 60.5256,22.4304 C60.5246,22.4314 60.5146,22.4384 60.5086,22.4484 C60.5026,22.4574 60.4976,22.4684 60.4976,22.4784 C60.4976,23.0804 60.4976,23.6834 60.4976,24.2974 L59.7466,24.2974 L59.7466,18.3044 C60.2836,18.3044 60.8276,18.2824 61.3686,18.3144 C61.6456,18.3304 61.9426,18.3944 62.1826,18.5254 C62.5206,18.7104 62.8356,18.9564 62.9446,19.3704 C62.9656,19.4514 63.0276,19.5224 63.0596,19.5784 C63.0916,19.7594 63.1326,19.9214 63.1476,20.0864 C63.1616,20.2474 63.1666,20.4134 63.1476,20.5734 C63.0946,21.0264 63.0016,21.4674 62.6326,21.7894 C62.5066,21.9004 62.4146,22.0534 62.2246,22.1154 C62.5376,22.8344 62.8496,23.5524 63.1706,24.2924 Z M55.1826,9.9354 C55.2456,9.7914 55.1446,9.5974 55.2616,9.4454 C55.2156,9.2124 55.3566,9.0184 55.4086,8.8074 C55.4706,8.5564 55.6086,8.3324 55.7466,8.1104 C56.0696,7.5904 56.5206,7.2224 57.0686,6.9764 C57.3746,6.8384 57.7046,6.7664 58.0406,6.7054 C58.3596,6.6474 58.6736,6.6464 58.9906,6.6514 C59.1316,6.6534 59.2736,6.6044 59.4216,6.7064 C59.5296,6.7814 59.6976,6.6804 59.8466,6.7764 C59.9536,6.8444 60.1206,6.8174 60.2626,6.8334 C60.2976,6.2514 60.3456,5.0534 60.1396,4.3754 C59.9606,4.1544 59.7196,3.9964 59.3896,3.9794 L59.3896,3.5194 C59.5186,3.5084 59.6656,3.5274 59.7816,3.4764 C59.9196,3.4174 60.0506,3.4464 60.1836,3.4374 C60.3226,3.4284 60.4646,3.4194 60.6016,3.4384 C60.9136,3.4824 61.2086,3.3624 61.5156,3.3654 C61.8176,3.3684 62.1196,3.3654 62.4526,3.3654 L62.4526,5.1014 C62.4526,7.6254 62.4526,10.1494 62.4526,12.6734 C62.4526,12.8074 62.4516,12.9344 62.5136,13.0674 C62.5606,13.1694 62.5476,13.3004 62.5796,13.4214 C62.6216,13.5774 62.7016,13.6444 62.8326,13.6994 C62.9816,13.7624 63.1236,13.8414 63.2776,13.9174 L63.2776,14.3954 C63.0976,14.3954 62.9036,14.4024 62.7106,14.3944 C61.9856,14.3644 61.2666,14.5184 60.5406,14.4654 C60.4626,14.4604 60.3836,14.4654 60.2976,14.4654 C60.3736,14.2624 60.3826,13.6704 60.3156,13.3264 C60.2646,13.3624 60.2176,13.3904 60.1776,13.4254 C59.8266,13.7294 59.4746,14.0304 59.0396,14.2164 C58.7466,14.3414 58.4626,14.4794 58.1306,14.4694 C58.0366,14.4664 57.9386,14.5344 57.8456,14.5284 C57.7646,14.5234 57.6956,14.4504 57.5946,14.4624 C57.3346,14.4934 57.0916,14.4084 56.8506,14.3254 C56.4536,14.1884 56.1416,13.9534 55.8816,13.6124 C55.6436,13.2994 55.4736,12.9714 55.3806,12.5954 C55.3476,12.4594 55.2766,12.3274 55.2676,12.1904 C55.2536,11.9664 55.1416,11.7534 55.1926,11.5224 C55.0656,11.1664 55.1366,10.7974 55.1256,10.4344 C55.1216,10.2694 55.1076,10.1064 55.1826,9.9354 Z M69.3566,21.1544 L69.3566,21.8564 L67.4936,21.8564 L67.4936,23.5364 L69.6986,23.5364 L69.6986,24.2724 C69.4336,24.3234 67.6576,24.3384 66.7216,24.2954 L66.7216,18.3214 L69.7026,18.3214 L69.7026,19.0684 L67.4856,19.0684 L67.4856,21.1544 L69.3566,21.1544 Z M68.8016,9.1284 C68.7966,8.9864 68.7416,8.8454 68.7396,8.7034 C68.7366,8.5554 68.7106,8.4184 68.6686,8.2784 C68.5766,7.9724 68.3656,7.7584 68.1386,7.5574 C68.0866,7.5114 67.9996,7.4964 67.9256,7.4874 C67.8276,7.4734 67.7226,7.5044 67.6386,7.4174 C67.6216,7.3994 67.5596,7.3994 67.5386,7.4174 C67.4076,7.5234 67.2546,7.4674 67.1176,7.4874 C66.9916,7.5574 66.8346,7.5984 66.7526,7.6994 C66.6046,7.8854 66.4176,8.0484 66.3576,8.3014 C66.3006,8.5414 66.2096,8.7744 66.1326,9.0144 L64.7676,9.0144 L64.7676,7.6204 C64.9976,7.5124 65.2426,7.3644 65.5076,7.2824 C65.8066,7.1914 66.0866,7.0484 66.3976,6.9824 C66.6496,6.9294 66.9006,6.8544 67.1506,6.7824 C67.4296,6.7024 67.7176,6.6864 68.0016,6.6544 C68.2886,6.6204 68.5876,6.6104 68.8716,6.6544 C69.3516,6.7304 69.8566,6.7704 70.2396,7.1354 C70.4686,7.1694 70.5226,7.3914 70.6086,7.5384 C70.7646,7.8074 70.8716,8.0974 70.9176,8.4254 C70.9656,8.7684 70.9586,9.1064 70.9656,9.4454 C70.9776,10.0384 70.9596,10.6314 70.9716,11.2244 C70.9846,11.9464 70.9036,12.6724 71.0336,13.3064 C71.1726,13.7384 71.4936,13.8184 71.7996,13.9224 L71.7996,14.3834 L68.9656,14.3834 C69.0696,14.0404 68.9856,13.7004 69.0236,13.3214 C68.9406,13.3624 68.8906,13.3764 68.8536,13.4064 C68.4856,13.7044 68.1246,14.0144 67.6906,14.2184 C67.3906,14.3594 67.0836,14.4694 66.7456,14.4664 C66.6476,14.4654 66.5366,14.4294 66.4586,14.5334 C66.4506,14.5444 66.4096,14.5434 66.3916,14.5334 C66.1486,14.3904 65.8706,14.4854 65.6086,14.4074 C65.1736,14.2794 64.8546,14.0184 64.5836,13.6874 C64.4656,13.5434 64.3936,13.3474 64.3436,13.1634 C64.2916,12.9714 64.2566,12.7624 64.2736,12.5664 C64.3166,12.0884 64.4546,11.6504 64.8146,11.2904 C65.2086,10.8964 65.6756,10.6564 66.1936,10.4844 C66.5886,10.3524 66.9876,10.2424 67.4036,10.2064 C67.5796,10.0474 67.8346,10.2334 68.0086,10.0674 L68.6026,10.0674 C68.6876,10.0234 68.7466,9.9934 68.8046,9.9634 C68.8046,9.6854 68.8126,9.4064 68.8016,9.1284 Z M76.7626,20.6664 C76.7676,21.0374 76.6606,21.3754 76.4866,21.7024 C76.2306,22.1804 75.8546,22.4674 75.3156,22.5734 C75.1366,22.6084 74.9636,22.6294 74.7856,22.6324 C74.5666,22.6354 74.3476,22.6324 74.1186,22.6324 L74.1186,24.2924 L73.3516,24.2924 L73.3516,18.3044 C73.8646,18.3044 74.3636,18.2844 74.8606,18.3124 C75.1726,18.3294 75.4776,18.4334 75.7736,18.5394 C75.8346,18.5614 75.8966,18.5934 75.9416,18.6384 C76.1526,18.8454 76.3836,19.0384 76.5296,19.2994 C76.6076,19.4384 76.6416,19.6014 76.6926,19.7544 C76.7936,20.0524 76.7586,20.3614 76.7626,20.6664 Z M72.5906,7.2344 C72.6826,7.1374 72.8396,7.1674 72.9656,7.1184 C73.3206,6.9804 73.5796,6.7274 73.6886,6.3544 C73.7626,6.1014 73.8106,5.8424 73.8386,5.5774 C73.8646,5.3344 73.9216,5.0934 73.8956,4.8394 L75.7026,4.8394 L75.7026,6.7324 C75.7236,6.7564 75.7296,6.7664 75.7376,6.7724 C75.7466,6.7794 75.7576,6.7854 75.7676,6.7854 C76.4866,6.7864 77.2056,6.7864 77.9376,6.7864 L77.9376,7.6724 C77.9426,7.6674 77.9346,7.6764 77.9256,7.6824 C77.9166,7.6884 77.9056,7.6934 77.8946,7.6934 C77.1756,7.6934 76.4566,7.6934 75.7156,7.6934 L75.7156,8.0464 L75.7156,11.3584 C75.7156,11.4864 75.7056,11.6154 75.7186,11.7424 C75.7316,11.8634 75.6886,11.9814 75.7556,12.1104 C75.8086,12.2114 75.7526,12.3644 75.7906,12.4794 C75.8926,12.7844 75.9376,13.1334 76.2906,13.2564 C76.8316,13.3574 77.2996,13.2304 77.7026,12.8334 C77.8656,13.0524 78.0136,13.2524 78.1636,13.4534 C77.6796,13.9424 77.0956,14.2334 76.4666,14.4444 C76.4046,14.4654 76.3326,14.4574 76.2656,14.4654 C76.1116,14.4854 75.9466,14.4114 75.8036,14.5314 C75.7786,14.5524 75.6946,14.5464 75.6746,14.5214 C75.5986,14.4314 75.5036,14.4654 75.4166,14.4674 C74.9286,14.4764 74.5316,14.2524 74.1526,13.9814 C74.0486,13.9064 73.7296,13.3854 73.6936,13.2314 C73.6246,12.9294 73.5436,12.6334 73.5466,12.3134 C73.5596,10.8954 73.5516,9.4774 73.5516,8.0594 L73.5516,7.7034 L72.5906,7.7034 L72.5906,7.2344 Z M78.5866,6.7864 C79.2006,6.8104 79.7976,6.6774 80.4066,6.7124 C80.8116,6.7354 81.2176,6.7164 81.6496,6.7164 L81.6496,7.0284 C81.6496,8.9344 81.6476,10.8414 81.6526,12.7474 C81.6526,12.9584 81.6596,13.1834 81.7286,13.3774 C81.8076,13.5954 81.9766,13.7684 82.2206,13.8374 C82.2816,13.8544 82.3416,13.8794 82.4066,13.9014 L82.4066,14.3794 L78.7276,14.3794 L78.7276,13.9284 C78.8176,13.8034 78.9896,13.7964 79.1186,13.7094 C79.3186,13.5754 79.3926,13.3944 79.4086,13.1964 C79.4396,12.8004 79.5126,12.4074 79.4906,12.0054 C79.4676,11.5994 79.4856,11.1914 79.4856,10.7854 L79.4856,9.5994 C79.4856,9.1924 79.4886,8.7854 79.4846,8.3784 C79.4826,8.1894 79.4186,8.0074 79.4016,7.8164 C79.3866,7.6494 79.2416,7.4964 79.0726,7.4174 C78.9266,7.3494 78.7696,7.3074 78.5866,7.2424 L78.5866,6.7864 Z M79.4976,3.7384 C79.4936,3.7434 79.4996,3.7334 79.5086,3.7274 C79.5176,3.7204 79.5286,3.7154 79.5386,3.7154 C80.2106,3.7144 80.8836,3.7144 81.5676,3.7144 L81.5676,5.5234 L79.4976,5.5234 L79.4976,3.7384 Z M83.3946,19.6454 C83.4966,20.0134 83.4976,20.3964 83.4536,20.7654 C83.4146,21.0954 83.2956,21.4154 83.0606,21.6824 C82.9106,21.8544 82.7436,21.9974 82.5546,22.1234 C82.8586,22.8234 83.1616,23.5224 83.4626,24.2234 C83.4706,24.2394 83.4556,24.2654 83.4486,24.2974 L82.6556,24.2974 C82.3666,23.6484 82.1186,22.9714 81.7686,22.3414 C81.4526,22.4984 81.1366,22.3804 80.8236,22.4354 L80.8236,24.3014 L80.0546,24.3014 L80.0546,18.3164 C80.1306,18.3124 80.2186,18.3054 80.3066,18.3054 C80.7246,18.3044 81.1456,18.2814 81.5616,18.3124 C81.8746,18.3344 82.1976,18.3634 82.4866,18.5144 C82.9526,18.7594 83.2536,19.1394 83.3946,19.6454 Z M87.0376,24.3014 L87.7806,24.3014 L87.7806,18.3114 L87.0376,18.3114 L87.0376,24.3014 Z M83.7436,10.7334 C83.7436,10.4774 83.7346,10.2904 83.7456,10.1054 C83.7876,9.3484 83.9966,8.6484 84.4296,8.0164 C84.8366,7.4234 85.4056,7.0714 86.0736,6.8594 C86.3026,6.7864 86.5466,6.7554 86.7796,6.7024 C87.1576,6.6164 87.5306,6.6644 87.9046,6.6514 C88.0806,6.6454 88.2586,6.6874 88.4336,6.7184 C88.5946,6.7464 88.7556,6.7804 88.9116,6.8264 C89.0766,6.8744 89.2396,6.9324 89.3986,6.9974 C89.5486,7.0584 89.7046,7.1154 89.8336,7.2094 C90.1426,7.4334 90.4496,7.6674 90.6496,8.0044 C90.7376,8.1524 90.8226,8.3044 90.8956,8.4604 C90.9966,8.6754 91.0496,8.9074 91.1326,9.1294 C91.2056,9.3224 91.1876,9.5484 91.2136,9.7594 C91.2336,9.9134 91.2696,10.0654 91.2806,10.2194 C91.2916,10.3814 91.2916,10.5454 91.2806,10.7074 C91.2666,10.9194 91.2256,11.1294 91.2166,11.3414 C91.2066,11.5434 91.1146,11.7264 91.0896,11.9144 C91.0386,12.2964 90.8546,12.6134 90.6786,12.9334 C90.5126,13.2344 90.3016,13.5004 90.0066,13.7074 C89.8356,13.8284 89.6636,13.9534 89.4836,14.0554 C89.2706,14.1764 89.0346,14.2664 88.7936,14.3234 C88.4236,14.4124 88.0516,14.4974 87.6656,14.4674 C87.6146,14.4634 87.5606,14.4944 87.5076,14.5044 C87.4426,14.5174 87.3586,14.5554 87.3136,14.5294 C87.1416,14.4304 86.9596,14.4694 86.7816,14.4664 C86.4016,14.4624 86.0446,14.3444 85.6996,14.2124 C85.2856,14.0544 84.8996,13.8324 84.6086,13.4794 C84.5086,13.3584 84.3996,13.2434 84.3156,13.1124 C84.2286,12.9764 84.1606,12.8284 84.0946,12.6804 C84.0286,12.5334 83.9666,12.3834 83.9206,12.2294 C83.8736,12.0734 83.8616,11.9064 83.8106,11.7514 C83.6946,11.3924 83.7686,11.0254 83.7436,10.7334 Z M91.7636,18.6314 C91.9836,18.4724 92.2226,18.3564 92.4966,18.2954 C92.6756,18.2544 92.8526,18.2114 93.0266,18.2404 C93.3696,18.2954 93.7306,18.3214 93.9906,18.6044 C94.2956,18.7104 94.3476,19.0414 94.5496,19.2404 C94.5946,19.2854 94.5886,19.3814 94.6076,19.4614 C94.3746,19.5924 94.1406,19.7234 93.8836,19.8684 C93.8656,19.4774 93.5536,19.3224 93.3806,19.1084 C92.8716,18.8974 92.4586,18.9894 92.1126,19.4004 C92.0866,19.5984 92.0586,19.8074 92.0396,19.9474 C92.2296,20.4014 92.5506,20.6214 92.9076,20.8004 C93.1576,20.9264 93.4096,21.0464 93.6626,21.1664 C94.0366,21.3424 94.3316,21.6114 94.5446,21.9584 C94.6276,22.0924 94.6856,22.2594 94.6966,22.4154 C94.7176,22.7174 94.7206,23.0214 94.6146,23.3194 C94.4136,23.8854 94.0776,24.0804 93.6346,24.2854 C93.4906,24.3524 93.3136,24.3654 93.1496,24.3744 C92.7906,24.3934 92.4376,24.3704 92.0896,24.2454 C91.9076,24.1804 91.7596,24.0714 91.6146,23.9654 C91.3946,23.8054 91.2306,23.5804 91.0756,23.3554 C91.0596,23.3314 91.0736,23.2874 91.0736,23.2324 C91.2816,23.1004 91.4976,22.9624 91.7376,22.8094 C91.8256,23.1614 92.0876,23.3374 92.3436,23.5114 C92.4286,23.5694 92.5256,23.6234 92.6506,23.6144 C92.8816,23.5984 93.1146,23.6104 93.3856,23.6104 C93.5326,23.4744 93.6986,23.3214 93.8596,23.1724 C93.8576,23.0054 93.9476,22.8704 93.9426,22.7054 C93.9356,22.4324 93.7656,22.2544 93.6096,22.0804 C93.4966,21.9554 93.3246,21.8814 93.1726,21.7964 C93.0316,21.7184 92.8816,21.6574 92.7376,21.5854 C92.3756,21.4034 92.0096,21.2204 91.7186,20.9334 C91.4356,20.6524 91.2736,20.3154 91.2756,19.8954 C91.2776,19.6104 91.3196,19.3394 91.4276,19.0834 C91.5006,18.9104 91.6076,18.7444 91.7636,18.6314 Z M92.5466,6.7864 C92.6616,6.7864 92.7756,6.7934 92.8886,6.7844 C93.1466,6.7664 93.4046,6.7304 93.6626,6.7194 C93.9296,6.7074 94.1976,6.7164 94.4646,6.7164 L95.2676,6.7164 L95.5776,6.7164 C95.6996,6.9134 95.5346,7.0854 95.5356,7.2714 C95.5366,7.4474 95.5996,7.6374 95.4656,7.8224 C95.5256,7.8274 95.5796,7.8314 95.6426,7.8374 C95.9696,7.4854 96.3606,7.2114 96.7806,6.9794 C97.3026,6.6904 97.8686,6.6014 98.4566,6.6504 C98.6066,6.6624 98.7536,6.7154 98.8986,6.7594 C99.5216,6.9484 99.8886,7.3874 100.0766,7.9914 C100.1126,8.1054 100.1196,8.2284 100.1496,8.3454 C100.2746,8.8434 100.2046,9.3494 100.2156,9.8514 C100.2266,10.3634 100.2186,10.8754 100.2186,11.3874 C100.2186,11.7124 100.2386,12.0404 100.2126,12.3634 C100.1876,12.6874 100.3106,12.9924 100.2906,13.2714 C100.4126,13.6274 100.6456,13.8224 100.9756,13.8854 L100.9756,14.3794 L97.2956,14.3794 L97.2956,13.9324 C97.5136,13.8324 97.7446,13.7464 97.9016,13.5264 C98.0286,13.0824 98.0646,12.6154 98.0576,12.1394 C98.0456,11.3604 98.0616,10.5814 98.0516,9.8014 C98.0466,9.4504 98.0146,9.0994 97.9796,8.7494 C97.9696,8.6464 97.9026,8.5504 97.8686,8.4484 C97.8506,8.3964 97.8476,8.3404 97.8346,8.2674 C97.6816,8.1254 97.5156,7.9714 97.3796,7.8444 C96.9786,7.8104 96.6486,7.8454 96.3336,8.0374 C95.9806,8.2524 95.6026,8.7454 95.6086,9.2414 C95.6176,10.1014 95.6076,10.9624 95.6126,11.8224 C95.6156,12.3474 95.5646,12.8754 95.6976,13.3644 C95.8116,13.7084 96.1016,13.8074 96.3706,13.9334 L96.3706,14.3854 L92.6946,14.3854 L92.6946,13.9144 C92.9626,13.7944 93.2776,13.6724 93.3716,13.2314 C93.5186,11.8254 93.4216,10.3334 93.4446,8.8424 C93.4476,8.6424 93.4666,8.4444 93.3876,8.2394 C93.3216,8.0704 93.3466,7.8664 93.3346,7.7254 C93.1366,7.3944 92.8426,7.3284 92.5466,7.2524 L92.5466,6.7864 Z M-0.0004,66.0004 L105.1146,66.0004 L105.1146,0.7694 L-0.0004,0.7694 L-0.0004,66.0004 Z" id="Fill-85" fill="#FEFEFE" mask="url(#mask-2)"></path>
            </g>
            <path d="M75.5973,19.5771 C75.5273,19.4731 75.0733,19.3061 74.9473,19.3041 C74.6723,19.3011 74.3963,19.3031 74.1273,19.3031 L74.1273,22.0961 L75.1763,22.0961 C75.2523,22.0511 75.3163,22.0071 75.3843,21.9751 C75.7743,21.7881 75.9353,21.4341 75.9843,21.0471 C76.0193,20.7621 76.0093,20.4661 75.9383,20.1681 C75.8803,19.9231 75.7223,19.7641 75.5973,19.5771" id="Fill-88" fill="#FEFEFE"></path>
            <path d="M64.3466,57.3903 C64.3046,57.3533 64.2786,57.2973 64.2656,57.2793 L63.7446,57.2793 C63.3746,57.3983 63.2456,57.6503 63.1556,57.9103 C63.0436,58.2383 63.0626,58.5933 63.0236,58.9343 C62.9946,59.1953 63.1106,59.4673 63.0806,59.7413 C63.2196,59.8203 63.1316,59.9693 63.1846,60.0833 C63.3126,60.3583 63.4916,60.5663 63.7486,60.6933 L64.1496,60.6933 C64.3936,60.5783 64.5216,60.4073 64.6266,60.1823 C64.7406,59.9363 64.8036,59.6763 64.8136,59.4263 C64.8276,59.0313 64.8516,58.6343 64.7706,58.2303 C64.7036,57.8953 64.6046,57.6133 64.3466,57.3903" id="Fill-90" fill="#FEFEFE"></path>
            <path d="M13.801,25.5206 C13.836,25.3536 13.955,25.2246 14.121,25.1066 C14.181,25.0926 14.245,25.0776 14.337,25.0546 C14.431,25.0886 14.559,25.1346 14.65,25.1676 C14.728,25.2746 14.81,25.3456 14.839,25.4336 C14.945,25.7596 14.96,26.0936 14.839,26.4196 C14.799,26.5286 14.724,26.6316 14.646,26.7216 C14.522,26.8616 14.378,26.8716 14.196,26.7906 C13.965,26.6866 13.865,26.5066 13.785,26.2676 C13.695,26.0026 13.75,25.7646 13.801,25.5206 M15.071,27.2616 C15.326,27.2616 15.582,27.2636 15.838,27.2596 C15.889,27.2586 15.94,27.2316 16.012,27.2096 C16.044,27.2976 16.082,27.4016 16.128,27.5286 L15.782,27.5286 C15.699,27.6306 15.626,27.7326 15.54,27.8206 C15.466,27.8966 15.376,27.9576 15.288,28.0306 C15.069,28.0526 14.899,27.9256 14.727,27.8056 C14.671,27.7666 14.635,27.6966 14.577,27.6616 C14.438,27.5786 14.305,27.4586 14.124,27.5906 C14.081,27.6216 14.001,27.6006 13.882,27.6066 C13.995,27.4336 14.079,27.3076 14.165,27.1766 C14.222,27.2336 14.263,27.2746 14.321,27.3326 C14.456,27.3096 14.607,27.3696 14.762,27.2696 C14.836,27.2226 14.966,27.2616 15.071,27.2616 M15.27,25.3626 C15.375,25.2586 15.48,25.1536 15.607,25.0276 C15.639,25.0276 15.711,25.0136 15.776,25.0306 C15.909,25.0656 16.028,25.1006 16.108,25.2536 C16.234,25.4936 16.337,25.7306 16.307,26.0036 C16.271,26.3396 16.193,26.6556 15.777,26.7856 C15.657,26.7266 15.542,26.6696 15.434,26.6156 C15.133,26.2296 15.131,25.8016 15.27,25.3626 M13.077,31.0206 C13.43,31.1066 13.796,31.1726 14.167,31.1716 C14.702,31.1696 15.237,31.1706 15.771,31.1706 C15.841,31.1706 15.934,31.1996 15.976,31.1656 C16.079,31.0816 16.191,31.1136 16.3,31.0996 C16.419,31.0836 16.536,31.0366 16.655,31.0346 C16.958,31.0306 17.229,30.8986 17.517,30.8426 C17.766,30.7946 17.99,30.6856 18.22,30.6006 C18.507,30.4946 18.785,30.3266 18.973,30.0696 C19.066,29.9426 19.179,29.8086 19.171,29.6296 C19.163,29.4616 19.057,29.3486 18.947,29.2346 C18.766,29.0456 18.534,28.9466 18.296,28.8706 C17.928,28.7546 17.555,28.6526 17.163,28.6546 C17.079,28.6546 16.996,28.6146 16.9,28.5896 C16.82,28.6476 16.74,28.7346 16.641,28.7716 C16.539,28.8106 16.442,28.9426 16.308,28.8326 C16.4,28.7426 16.491,28.6536 16.6,28.5466 C16.578,28.4406 16.553,28.3246 16.527,28.2056 C16.726,28.0766 16.908,27.9236 17.034,27.6986 C17.099,27.5826 17.025,27.4536 17.083,27.3716 C17.239,27.1576 17.108,26.9626 17.075,26.7636 C17.039,26.5516 16.935,26.3716 16.775,26.2256 C16.682,26.1406 16.594,26.0496 16.542,25.9996 C16.561,25.8306 16.596,25.7096 16.583,25.5936 C16.568,25.4676 16.518,25.3436 16.469,25.2246 C16.272,24.7506 15.894,24.4856 15.424,24.3286 C15.343,24.3016 15.266,24.2636 15.191,24.2316 L15.191,24.0696 C15.111,24.0196 15.028,23.9666 14.939,23.9106 C14.877,23.9106 14.804,23.9236 14.738,23.9086 C14.583,23.8716 14.461,23.9816 14.315,23.9926 C14.273,23.9966 14.237,24.0886 14.193,24.1476 C14.261,24.1796 14.309,24.2016 14.353,24.2226 L14.353,24.2976 C13.358,24.3696 12.74,25.3516 12.92,26.1406 C13.059,26.0206 13.217,26.0946 13.372,26.1156 C13.244,26.1546 13.116,26.1946 12.96,26.2426 C12.063,26.9376 12.465,28.0586 13.329,28.4186 C13.239,28.4876 13.159,28.5496 13.06,28.6266 C13.107,28.7126 13.138,28.7806 13.18,28.8416 C13.223,28.9046 13.276,28.9606 13.348,29.0466 C13.204,29.0796 13.121,29.0876 13.001,29.0276 C12.787,28.9186 12.549,28.8696 12.301,28.8616 C12.106,28.8566 11.923,28.9006 11.737,28.9386 C11.537,28.9796 11.338,29.0346 11.124,29.0876 C11.587,29.5436 11.863,30.0696 11.998,30.6676 C12.35,30.8206 12.714,30.9316 13.077,31.0206" id="Fill-92" fill="#FEFEFE"></path>
            <path d="M9.0868,49.3964 C8.7538,49.3724 8.4378,49.1874 8.0798,49.2574 L8.0798,48.9014 C8.2768,48.9254 8.4718,48.9424 8.6648,48.9734 C8.8458,49.0024 9.0358,49.0104 9.2048,49.1424 C9.1578,49.2434 9.1268,49.3114 9.0868,49.3964 M8.8828,50.0974 C8.5718,49.9784 8.2698,49.9164 7.9428,49.9594 L7.9428,49.6074 C8.1108,49.5934 8.2768,49.6304 8.4518,49.6554 C8.6278,49.6814 8.7948,49.7374 9.0068,49.7494 C8.9608,49.8814 8.9218,49.9884 8.8828,50.0974 M9.4478,49.3044 C9.5058,49.1104 9.5488,48.9114 9.6048,48.6924 C9.0998,48.7034 8.6208,48.6484 8.2358,48.2754 C8.2058,48.3184 8.1648,48.3604 8.1428,48.4104 C7.9078,48.9674 7.5568,49.4554 7.2018,49.9364 C6.9528,50.2744 6.6808,50.5954 6.4568,50.9834 C6.5198,51.1204 6.4208,51.2854 6.5268,51.4584 C6.6398,51.6414 6.7378,51.8384 6.9118,51.9554 C7.1608,52.1244 7.4208,52.2764 7.7198,52.3614 C8.1578,52.4864 8.2268,52.5014 8.6308,52.3424 C8.6268,52.3204 8.6238,52.2994 8.6158,52.2524 C8.3918,52.2524 8.1558,52.2844 7.9338,52.2434 C7.7388,52.2064 7.5558,52.0944 7.3728,52.0044 C7.1748,51.9094 7.1038,51.8324 6.9128,51.5624 C6.9348,51.5604 6.9668,51.5464 6.9768,51.5564 C7.0758,51.6474 7.1868,51.7154 7.3108,51.7644 C7.4198,51.8084 7.5248,51.8684 7.6368,51.9004 C7.7638,51.9374 7.8978,51.9764 8.0258,51.9664 C8.1698,51.9554 8.2818,52.0404 8.4158,52.0434 C8.4508,52.0444 8.5038,52.0574 8.5168,52.0414 C8.5978,51.9394 8.7068,51.9714 8.8048,51.9754 C8.9778,51.9844 9.1268,51.9204 9.2778,51.8504 C9.3648,51.8104 9.4538,51.7734 9.5498,51.7314 C9.5698,51.6084 9.5988,51.4904 9.6058,51.3714 C9.6218,51.0684 9.5048,50.7884 9.4258,50.5044 C9.2988,50.0474 9.2948,49.8234 9.4478,49.3044" id="Fill-94" fill="#FEFEFE"></path>
            <path d="M7.4705,31.1643 C7.8105,31.0493 8.1185,30.8793 8.3325,30.5463 C8.4565,30.3533 8.5605,30.1483 8.7005,29.9293 C8.7005,29.8793 8.6745,29.7883 8.7045,29.7213 C8.8085,29.4913 8.7645,29.2763 8.7065,29.0433 C8.6285,28.7243 8.4655,28.4713 8.2415,28.2303 C8.0675,28.9303 7.6805,29.4113 7.0435,29.7353 C6.3925,30.0663 5.7785,30.0623 5.1425,29.7083 C5.1495,29.8313 5.1195,29.9233 5.2015,30.0223 C5.2805,30.1173 5.3005,30.2583 5.3565,30.3733 C5.4755,30.6153 5.6645,30.8213 5.8795,30.9513 C6.3675,31.2463 6.9145,31.3533 7.4705,31.1643" id="Fill-96" fill="#FEFEFE"></path>
            <path d="M86.1788,12.4508 C86.2648,12.7898 86.4208,13.3448 86.6508,13.5768 C86.8328,13.7618 87.0358,13.9498 87.3378,13.9318 C87.3958,13.9288 87.4578,13.9748 87.5078,13.9948 C87.5758,13.9708 87.6358,13.9408 87.6978,13.9308 C87.7648,13.9198 87.8348,13.9278 87.8738,13.9278 C87.9758,13.8718 88.0608,13.8408 88.1258,13.7868 C88.2528,13.6798 88.3978,13.5778 88.4858,13.4418 C88.7238,13.0738 88.8558,12.6488 88.8948,12.2238 C88.9268,11.8648 88.9738,11.5018 88.9748,11.1398 C88.9758,10.8478 89.0028,10.5568 88.9208,10.2598 C88.8528,10.0168 88.9078,9.7498 88.8548,9.4878 C88.8068,9.2518 88.7618,9.0148 88.6978,8.7828 C88.6098,8.4588 88.4728,8.1588 88.1968,7.9468 C88.0578,7.8398 87.9118,7.7428 87.7758,7.6458 L87.5558,7.6458 C87.1938,7.6448 87.1788,7.6468 86.9428,7.7628 C86.5658,7.9468 86.3858,8.2868 86.2608,8.6588 C86.1958,8.8528 86.1068,9.0478 86.1178,9.2608 C86.1308,9.4878 86.0088,9.6968 86.0438,9.9298 C86.0658,10.0768 86.0448,10.2308 86.0478,10.3818 C86.0598,11.0728 86.0048,11.7658 86.1788,12.4508" id="Fill-98" fill="#FEFEFE"></path>
            <path d="M10.4363,30.3568 C10.4883,30.9848 10.4373,31.5988 10.0303,32.1358 C9.7533,32.5008 9.4193,32.7578 8.9903,32.9248 C8.7133,33.0328 8.4133,33.0318 8.1393,33.1588 C8.5133,33.5708 9.0143,33.6788 9.5283,33.7508 C9.6533,33.7688 9.7843,33.7628 9.9103,33.7508 C10.0183,33.7408 10.1263,33.7138 10.2303,33.6828 C10.5923,33.5728 10.9263,33.3978 11.1743,33.1158 C11.3353,32.9328 11.4503,32.6988 11.5443,32.4708 C11.6263,32.2728 11.6733,32.0528 11.6963,31.8388 C11.7213,31.5978 11.7133,31.3508 11.6983,31.1078 C11.6883,30.9548 11.6583,30.7948 11.6183,30.6528 C11.5653,30.4608 11.5183,30.2528 11.4093,30.0798 C11.1173,29.6148 10.6963,29.2948 10.1953,29.0788 C10.1493,29.0598 10.0873,29.0768 10.0083,29.0768 C10.0863,29.2658 10.1603,29.4198 10.2143,29.5808 C10.2983,29.8368 10.4153,30.0938 10.4363,30.3568" id="Fill-100" fill="#FEFEFE"></path>
            <path d="M8.4933,32.6958 C9.0243,32.5798 9.4303,32.2418 9.7443,31.8068 C10.0673,31.3608 10.0813,30.8328 10.0143,30.3228 C9.9673,29.9658 9.8183,29.6098 9.5933,29.3178 C9.4573,29.1428 9.3033,28.9628 9.0783,28.8428 C8.9843,29.0958 9.2033,29.3158 9.1043,29.5468 C9.0133,29.7558 9.0353,29.9978 8.9103,30.1988 C8.7903,30.3928 8.6923,30.6008 8.5573,30.7828 C8.4163,30.9748 8.2273,31.1278 8.0153,31.2368 C7.8153,31.3388 7.6133,31.4358 7.3853,31.4848 C7.1433,31.5378 6.9063,31.4918 6.6693,31.5218 C6.4303,31.5518 6.2203,31.4508 5.9663,31.3588 C6.1703,31.8048 6.4383,32.1318 6.8273,32.3588 C6.9313,32.4188 7.0183,32.5138 7.1273,32.5588 C7.2863,32.6238 7.4553,32.6868 7.6243,32.6998 C7.9133,32.7228 8.2163,32.7568 8.4933,32.6958" id="Fill-102" fill="#FEFEFE"></path>
            <path d="M5.6161,26.5606 C5.5111,26.5026 5.4111,26.4356 5.2661,26.3456 L5.0071,26.3456 L5.0071,26.2146 C5.1101,26.2146 5.2141,26.2026 5.3131,26.2176 C5.4081,26.2316 5.4991,26.2726 5.6121,26.3086 C5.6331,26.3526 5.6521,26.3916 5.6701,26.4306 C5.6831,26.4596 5.6941,26.4896 5.7111,26.5296 C5.6731,26.5426 5.6341,26.5706 5.6161,26.5606 M5.5021,28.4126 C5.3921,28.2876 5.3831,28.0796 5.1651,28.0126 C5.0871,28.1506 5.0121,28.2836 4.9311,28.4256 L4.9311,29.0066 C5.0421,29.1276 5.1631,29.2776 5.3011,29.4086 C5.5341,29.6286 6.0881,29.7676 6.2901,29.6936 C6.4561,29.6336 6.6341,29.6266 6.7891,29.5516 C6.9451,29.4766 7.0901,29.3776 7.2371,29.2856 C7.6121,29.0506 7.7911,28.6756 7.8521,28.2706 C7.9211,27.8126 7.7221,27.4436 7.2981,27.2206 C7.2831,27.2136 7.2661,27.2126 7.2411,27.2056 C7.1911,27.2926 7.1421,27.3766 7.0951,27.4576 L7.0951,27.9866 C6.9341,28.1496 6.9341,28.1496 6.7641,28.1516 C6.7871,27.8636 6.8111,27.5746 6.8361,27.2716 C7.0391,26.9936 7.0431,26.6596 7.0241,26.3686 C6.9221,26.1306 6.8381,25.9326 6.7421,25.7076 C6.7851,25.3996 6.6731,25.0516 6.8161,24.7196 C6.7261,24.6386 6.6711,24.5006 6.4951,24.5426 C6.4271,24.6186 6.3491,24.7046 6.2621,24.7996 C6.1321,25.1406 6.1591,25.4936 6.3381,25.8286 C6.0881,25.9606 6.0761,25.9756 5.9871,26.1616 C5.9361,26.2136 5.8841,26.2656 5.8521,26.2976 C5.8391,26.0626 5.8391,26.0626 5.9761,25.7546 C5.8041,25.6636 6.0041,25.4446 5.8381,25.3396 L5.8381,24.9196 C5.6991,24.6996 5.5631,24.4756 5.4181,24.2576 C5.2991,24.0786 5.1591,23.9206 4.8831,23.8396 C5.1081,24.2386 5.3011,24.5886 5.5021,24.9336 C5.5841,25.0746 5.6811,25.2066 5.5861,25.4106 C5.2891,25.1736 5.2401,24.8156 5.0541,24.5426 C4.8531,24.2466 4.6681,23.9446 4.4211,23.7166 C4.3211,23.6926 4.2431,23.6746 4.1791,23.6586 C4.1431,23.6896 4.1171,23.7116 4.0911,23.7346 C4.2101,23.8536 4.3641,23.9486 4.4331,24.0876 C4.6651,24.5516 4.9661,24.9786 5.1831,25.4506 C5.2191,25.5286 5.2151,25.5856 5.1781,25.6586 C5.0291,25.5126 4.9251,25.3646 4.8361,25.1906 C4.6251,24.7796 4.4031,24.3686 4.0721,24.0646 L3.7981,24.0646 C3.8211,24.1446 3.8321,24.2096 3.8581,24.2666 C3.8811,24.3156 3.9461,24.3556 3.9481,24.4016 C3.9561,24.5426 4.0201,24.5826 4.1551,24.6156 C4.4391,24.6856 4.5721,24.8826 4.5811,25.1706 C4.5831,25.2286 4.5641,25.2956 4.5871,25.3426 C4.6971,25.5686 4.6701,25.8296 4.8141,26.0646 L4.6101,26.0646 C4.4731,25.7216 4.4261,25.3516 4.3631,25.0006 C4.3031,24.9336 4.2501,24.8726 4.2001,24.8166 C4.1361,24.8196 4.0811,24.8216 4.0231,24.8246 C4.0231,25.1616 4.0251,25.4746 4.0221,25.7886 C4.0201,26.0026 4.0951,26.2006 4.1711,26.3896 C4.3391,26.8046 4.6781,27.1016 5.0151,27.3576 C5.3331,27.5976 5.5301,27.8956 5.7281,28.2286 C5.8751,28.2786 6.0341,28.3326 6.2081,28.3926 C6.1481,28.4526 6.1151,28.4856 6.0811,28.5196 C5.8831,28.5076 5.6721,28.5636 5.5021,28.4126" id="Fill-104" fill="#FEFEFE"></path>
        </g>
    </g>
</svg>