<?xml version="1.0" encoding="UTF-8" standalone="no"?>
<svg width="161px" height="72px" viewBox="0 0 161 72" version="1.1" xmlns="http://www.w3.org/2000/svg" xmlns:xlink="http://www.w3.org/1999/xlink">
    <!-- Generator: Sketch 47 (45396) - http://www.bohemiancoding.com/sketch -->
    <title>logo-blanc-auvergne</title>
    <desc>Created with Sketch.</desc>
    <defs></defs>
    <g id="Symbols" stroke="none" stroke-width="1" fill="none" fill-rule="evenodd">
        <g id="footer-/-white" transform="translate(-210.000000, -204.000000)">
            <g id="logo-blanc-auvergne" transform="translate(210.000000, 204.000000)">
                <polygon id="Fill-1" fill="#FFFFFF" points="1 34 1 50 11 50 11 47.1597351 4.57637666 47.1597351 4.57637666 34"></polygon>
                <path d="M13,46.5712616 C13,43.8906965 15.5984738,42.8794934 19.3116373,42.8794934 L20.6806195,42.8794934 L20.6806195,42.4177302 C20.6806195,41.0546517 20.2399282,40.3076473 18.7092358,40.3076473 C17.3859275,40.3076473 16.7822915,40.9459328 16.642801,41.9337555 L13.4641454,41.9337555 C13.672764,39.2087677 15.9465829,38 18.9178543,38 C21.8878914,38 24,39.1433025 24,42.2634194 L24,49.7580127 L20.7275278,49.7580127 L20.7275278,48.3738919 C20.0313096,49.2962494 18.9635282,50 17.0612726,50 C14.8565818,50 13,48.9887969 13,46.5712616 Z M20.6806195,45.7365806 L20.6806195,44.7686313 L19.3819998,44.7686313 C17.4328358,44.7686313 16.294692,45.1649294 16.294692,46.3959084 C16.294692,47.2305894 16.8291999,47.7800292 18.0586915,47.7800292 C19.54371,47.7800292 20.6806195,47.0108134 20.6806195,45.7365806 Z" id="Fill-2" fill="#FFFFFF"></path>
                <path d="M31,35 L36.7970531,35 C40.6256139,35 43.048281,36.5439327 43.048281,39.8567815 L43.048281,39.9460606 C43.048281,42.3625474 41.6219071,43.638643 39.7196738,44.1981251 L44,51 L40.1039755,51 L36.2320452,44.824269 L34.64665,44.824269 L34.64665,51 L31,51 L31,35 Z M36.7067,42.3625474 C38.5414697,42.3625474 39.4702993,41.6018897 39.4702993,40.057957 L39.4702993,39.9686779 C39.4702993,38.3342757 38.4740061,37.7747935 36.7067,37.7747935 L34.64665,37.7747935 L34.64665,42.3625474 L36.7067,42.3625474 Z" id="Fill-4" fill="#FFFFFF"></path>
                <path d="M45,45.0816042 L45,44.9040524 C45,41.2322796 47.6787128,38.8507172 51.1601868,38.8507172 C54.2518526,38.8507172 57,40.6084807 57,44.7702966 L57,45.6604233 L48.3657497,45.6604233 C48.4583291,47.5957388 49.5339559,48.7083972 51.3429093,48.7083972 C52.8777789,48.7083972 53.6330322,48.063292 53.8388996,47.0843894 L56.9768551,47.0843894 C56.587047,49.5985239 54.5259365,51 51.2515481,51 C47.6336413,51 45,48.7971731 45,45.0816042 L45,45.0816042 Z M53.7706832,43.6801281 C53.656177,41.9223646 52.7401279,41.076034 51.1601868,41.076034 C49.6716069,41.076034 48.6641965,42.0336304 48.4120394,43.6801281 L53.7706832,43.6801281 Z M51.0688255,34 L54.5490813,34 L52.1675972,37.538017 L49.7629682,37.538017 L51.0688255,34 Z" id="Fill-6" fill="#FFFFFF"></path>
                <path d="M58.0886612,50.0002923 L61.28874,50.0002923 C61.4885233,51.0116186 62.2226382,51.6710267 63.8670082,51.6710267 C65.8222835,51.6710267 66.7999212,50.6597004 66.7999212,48.8568506 L66.7999212,47.120643 C66.1556497,48.2418707 64.7772633,49.2531969 63.0666929,49.2531969 C60.2437198,49.2531969 58,47.1650712 58,43.7581293 L58,43.6049689 C58,40.3079284 60.2224411,38 63.1116146,38 C64.9995074,38 66.1331888,38.8125685 66.7999212,39.9782243 L66.7999212,38.2630617 L70,38.2630617 L70,48.8568506 C69.9775392,52.2637925 67.6888976,54 63.8670082,54 C60.1113191,54 58.3995665,52.3736938 58.0886612,50.0002923 M66.8885824,43.7148703 L66.8885824,43.5605407 C66.8885824,41.6045305 65.8447444,40.4178297 64.0892523,40.4178297 C62.2888385,40.4178297 61.28874,41.6922178 61.28874,43.5827548 L61.28874,43.7581293 C61.28874,45.6708805 62.4224214,46.8575813 64.0218698,46.8575813 C65.7111615,46.8575813 66.8885824,45.6708805 66.8885824,43.7148703" id="Fill-8" fill="#FFFFFF"></path>
                <path d="M73,35.7857395 C73,34.7684091 73.8729852,34 74.9883946,34 C76.1270148,34 77,34.7684091 77,35.7857395 C77,36.80307 76.1270148,37.5714791 74.9883946,37.5714791 C73.8729852,37.5714791 73,36.80307 73,35.7857395 L73,35.7857395 Z M73.2669246,51 L76.7575758,51 L76.7575758,39.1768409 L73.2669246,39.1768409 L73.2669246,51 Z" id="Fill-10" fill="#FFFFFF"></path>
                <path d="M79,44.1321122 L79,43.956742 C79,40.3522993 81.59162,38 85.0104267,38 C88.430392,38 91,40.3078722 91,43.8901013 L91,44.0666407 C91,47.6921278 88.40838,50 84.9895733,50 C81.59162,50 79,47.7143414 79,44.1321122 M87.7989959,44.0876851 L87.7989959,43.9345284 C87.7989959,41.7365549 86.77486,40.4177708 85.0104267,40.4177708 C83.2691639,40.4177708 82.223016,41.6921278 82.223016,43.8901013 L82.223016,44.0666407 C82.223016,46.2634451 83.22514,47.5822292 85.0104267,47.5822292 C86.77486,47.5822292 87.7989959,46.2634451 87.7989959,44.0876851" id="Fill-12" fill="#FFFFFF"></path>
                <path d="M94,38.2696361 L97.2487541,38.2696361 L97.2487541,40.1308411 C97.8315276,38.9652018 99.107909,38 101.057638,38 C103.364897,38 105,39.3911314 105,42.5313184 L105,50 L101.752438,50 L101.752438,43.002585 C101.752438,41.409823 101.124377,40.6474448 99.6906826,40.6474448 C98.3022752,40.6474448 97.2487541,41.499304 97.2487541,43.2268841 L97.2487541,50 L94,50 L94,38.2696361 Z" id="Fill-14" fill="#FFFFFF"></path>
                <path d="M3.67789001,58 L5.38271605,58 L9,69 L7.71380471,69 L6.667789,65.8307434 L2.25701459,65.8307434 L1.22558923,69 L0,69 L3.67789001,58 Z M2.61616162,64.7693196 L6.32435466,64.7693196 L4.47025814,59.1076228 L2.61616162,64.7693196 Z" id="Fill-16" fill="#FFFFFF"></path>
                <path d="M10,65.9777025 L10,61 L11.3473262,61 L11.3473262,65.9178662 C11.3473262,67.300875 11.9813621,67.9173017 13.3128375,67.9173017 C14.5150671,67.9173017 15.6514545,67.1800734 15.6514545,65.766582 L15.6514545,61 L17,61 L17,68.8645216 L15.6514545,68.8645216 L15.6514545,67.6169913 C15.2624978,68.3530906 14.3199791,69 12.9555827,69 C11.2668525,69 10,68.1430991 10,65.9777025" id="Fill-18" fill="#FFFFFF"></path>
                <polygon id="Fill-20" fill="#FFFFFF" points="18 61 19.4878238 61 22.049015 67.7150854 24.5791841 61 26 61 22.8928184 69 21.1406856 69"></polygon>
                <path d="M27,65.0815873 L27,64.9628139 C27,62.6273068 28.6828277,61 31.0838286,61 C33.0994683,61 35,62.0800611 35,64.8451505 L35,65.243652 L28.4338442,65.243652 C28.5001564,67.0041626 29.4497967,67.9798807 31.2339693,67.9798807 C32.5827338,67.9798807 33.3672193,67.5358679 33.5498905,66.634522 L34.9336878,66.634522 C34.6334063,68.1863466 33.1832968,69 31.2164529,69 C28.750391,69 27,67.4626058 27,65.0815873 L27,65.0815873 Z M33.5836722,64.2535035 C33.4497967,62.6561676 32.5164216,62.0212294 31.0838286,62.0212294 C29.6662496,62.0212294 28.7166093,62.878174 28.4838911,64.2535035 L33.5836722,64.2535035 Z" id="Fill-22" fill="#FFFFFF"></path>
                <path d="M36,61.1354593 L37.3023256,61.1354593 L37.3023256,62.5487512 C37.8192523,61.6614929 38.525758,61.0451531 40,61 L40,62.1728517 C38.3526641,62.2484831 37.3023256,62.7440384 37.3023256,64.6844927 L37.3023256,69 L36,69 L36,61.1354593 Z" id="Fill-24" fill="#FFFFFF"></path>
                <path d="M40.1772686,69.5500986 L41.5423576,69.5500986 C41.735303,70.4626726 42.5384383,70.9343786 43.9686464,70.9343786 C45.6219475,70.9343786 46.6662647,70.1896999 46.6662647,68.4856194 L46.6662647,67.3286263 C46.185107,68.105285 45.0443172,68.8351158 43.8239373,68.8351158 C41.6231535,68.8351158 40,67.2532447 40,65.0626103 L40,64.9552487 C40,62.7954522 41.6062707,61 43.92041,61 C45.3168526,61 46.185107,61.6384591 46.6662647,62.4151178 L46.6662647,61.1370574 L48,61.1370574 L48,68.5610009 C47.9843232,70.8738449 46.3298161,72 43.9843232,72 C41.4941212,72 40.4015677,70.8886928 40.1772686,69.5500986 M46.7145011,64.9700966 L46.7145011,64.8638771 C46.7145011,63.0844149 45.6870666,62.0496314 44.0482364,62.0496314 C42.3780525,62.0496314 41.3819717,63.2214723 41.3819717,64.894715 L41.3819717,65.0169245 C41.3819717,66.7507009 42.5541152,67.7854844 43.9686464,67.7854844 C45.5266807,67.7854844 46.7145011,66.7507009 46.7145011,64.9700966" id="Fill-26" fill="#FFFFFF"></path>
                <path d="M50,61.1354593 L51.3359793,61.1354593 L51.3359793,62.3828136 C51.7225194,61.6468181 52.6550475,61 54.0393443,61 C55.7763589,61 57,61.8872584 57,64.1731339 L57,69 L55.6640207,69 L55.6640207,64.0828277 C55.6640207,62.6988853 55.035893,62.0825455 53.6854185,62.0825455 C52.4460742,62.0825455 51.3359793,62.8196698 51.3359793,64.2329618 L51.3359793,69 L50,69 L50,61.1354593 Z" id="Fill-28" fill="#FFFFFF"></path>
                <path d="M59,65.0815873 L59,64.9628139 C59,62.6273068 60.6828277,61 63.0838286,61 C65.0994683,61 67,62.0800611 67,64.8451505 L67,65.243652 L60.4338442,65.243652 C60.5001564,67.0041626 61.4497967,67.9798807 63.2339693,67.9798807 C64.5827338,67.9798807 65.3659681,67.5358679 65.5498905,66.634522 L66.9336878,66.634522 C66.6334063,68.1863466 65.1832968,69 63.2164529,69 C60.750391,69 59,67.4626058 59,65.0815873 L59,65.0815873 Z M65.5836722,64.2535035 C65.4497967,62.6561676 64.5164216,62.0212294 63.0838286,62.0212294 C61.6662496,62.0212294 60.7166093,62.878174 60.4838911,64.2535035 L65.5836722,64.2535035 Z" id="Fill-30" fill="#FFFFFF"></path>
                <polygon id="Fill-32" fill="#FFFFFF" points="68 65 71 65 71 64 68 64"></polygon>
                <path d="M73,58 L76.3923601,58 C78.554042,58 80.3366894,58.8616128 80.3366894,61.0618438 L80.3366894,61.1230575 C80.3366894,62.9386812 79.090613,63.8314784 77.5436778,64.1236875 L81,69 L79.4684631,69 L76.1080841,64.2160857 L74.3728161,64.2160857 L74.3728161,69 L73,69 L73,58 Z M76.4871187,63.1535069 C78.095647,63.1535069 78.9638733,62.4766905 78.9638733,61.1230575 L78.9638733,61.0618438 C78.9638733,59.5696136 78.0174711,59.0764385 76.4871187,59.0764385 L74.3728161,59.0764385 L74.3728161,63.1535069 L76.4871187,63.1535069 Z" id="Fill-34" fill="#FFFFFF"></path>
                <path d="M83,57 L84.3350017,57 L84.3350017,62.1696611 C84.7216086,61.4086627 85.6555057,60.7408954 87.0400414,60.7408954 C88.7773559,60.7408954 90,61.6568904 90,64.016801 L90,69 L88.6649983,69 L88.6649983,63.92357 C88.6649983,62.4959697 88.0367622,61.8585025 86.6848464,61.8585025 C85.4464964,61.8585025 84.3350017,62.6195008 84.3350017,64.0785666 L84.3350017,69 L83,69 L83,57 Z" id="Fill-35" fill="#FFFFFF"></path>
                <path d="M91,64.8329903 L91,64.7083211 C91,62.2478683 92.6965094,60.5248456 95.0005842,60.5248456 C97.3034906,60.5248456 99,62.2325787 99,64.6918553 L99,64.8177007 C99,67.292267 97.3034906,69 94.9842267,69 C92.6661312,69 91,67.2299324 91,64.8329903 L91,64.8329903 Z M97.6610194,64.8329903 L97.6610194,64.7236107 C97.6610194,62.8276977 96.6188112,61.6057042 95.0005842,61.6057042 C93.3659997,61.6057042 92.3389806,62.8276977 92.3389806,64.7083211 L92.3389806,64.8329903 C92.3389806,66.6971479 93.3496422,67.9191414 95.0005842,67.9191414 C96.6340003,67.9191414 97.6610194,66.6818583 97.6610194,64.8329903 L97.6610194,64.8329903 Z M94.4245655,57 L95.591792,57 L97.2567548,59.2558071 L96.3068497,59.2558071 L94.9842267,58.0808586 L93.6616036,59.2558071 L92.7432452,59.2558071 L94.4245655,57 Z" id="Fill-36" fill="#FFFFFF"></path>
                <path d="M101,61.1354593 L102.33621,61.1354593 L102.33621,62.3828136 C102.722817,61.6468181 103.655506,61 105.040041,61 C106.777356,61 108,61.8872584 108,64.1731339 L108,69 L106.664998,69 L106.664998,64.0828277 C106.664998,62.6988853 106.036762,62.0825455 104.686055,62.0825455 C103.446496,62.0825455 102.33621,62.8196698 102.33621,64.2329618 L102.33621,69 L101,69 L101,61.1354593 Z" id="Fill-37" fill="#FFFFFF"></path>
                <path d="M109,65.0815873 L109,64.9628139 C109,62.6273068 110.682828,61 113.083829,61 C115.099468,61 117,62.0800611 117,64.8451505 L117,65.243652 L110.433844,65.243652 C110.500156,67.0041626 111.449797,67.9798807 113.233969,67.9798807 C114.582734,67.9798807 115.365968,67.5358679 115.549891,66.634522 L116.933688,66.634522 C116.633406,68.1863466 115.183297,69 113.216453,69 C110.750391,69 109,67.4626058 109,65.0815873 L109,65.0815873 Z M115.583672,64.2535035 C115.449797,62.6561676 114.516422,62.0212294 113.083829,62.0212294 C111.66625,62.0212294 110.716609,62.878174 110.483891,64.2535035 L115.583672,64.2535035 Z" id="Fill-38" fill="#FFFFFF"></path>
                <polygon id="Fill-39" fill="#FFFFFF" points="118 65 121 65 121 64 118 64"></polygon>
                <path d="M126.67789,58 L128.382716,58 L132,69 L130.713805,69 L129.667789,65.8307434 L125.258137,65.8307434 L124.225589,69 L123,69 L126.67789,58 Z M125.616162,64.7693196 L129.324355,64.7693196 L127.470258,59.1076228 L125.616162,64.7693196 Z" id="Fill-40" fill="#FFFFFF"></path>
                <polygon id="Fill-41" fill="#FFFFFF" points="134 69 135 69 135 57 134 57"></polygon>
                <path d="M137,61.1387867 L138.333735,61.1387867 L138.333735,62.4942698 C138.814893,61.7089686 139.955683,61 141.176063,61 C143.376847,61 145,62.540532 145,65.0514142 L145,65.1751656 C145,67.6397855 143.490202,69.3341394 141.176063,69.3341394 C139.795297,69.3341394 138.814893,68.6725896 138.333735,67.8710966 L138.333735,72 L137,72 L137,61.1387867 Z M143.618028,65.236463 L143.618028,65.1138682 C143.618028,63.0794869 142.445885,62.0628746 141.03256,62.0628746 C139.474525,62.0628746 138.285499,63.0494165 138.285499,65.1138682 L138.285499,65.236463 C138.285499,67.3009147 139.409406,68.2712649 141.048236,68.2712649 C142.71842,68.2712649 143.618028,67.1933551 143.618028,65.236463 L143.618028,65.236463 Z" id="Fill-42" fill="#FFFFFF"></path>
                <path d="M146,65.0815873 L146,64.9628139 C146,62.6273068 147.682828,61 150.083829,61 C152.099468,61 154,62.0800611 154,64.8451505 L154,65.243652 L147.433844,65.243652 C147.500156,67.0041626 148.449797,67.9798807 150.233969,67.9798807 C151.583985,67.9798807 152.367219,67.5358679 152.549891,66.634522 L153.933688,66.634522 C153.633406,68.1863466 152.183297,69 150.216453,69 C147.750391,69 146,67.4626058 146,65.0815873 L146,65.0815873 Z M152.583672,64.2535035 C152.449797,62.6561676 151.516422,62.0212294 150.083829,62.0212294 C148.66625,62.0212294 147.716609,62.878174 147.483891,64.2535035 L152.583672,64.2535035 Z" id="Fill-43" fill="#FFFFFF"></path>
                <path d="M154,66.486539 L155.224281,66.486539 C155.315053,67.4035526 155.813162,67.9797391 157.083964,67.9797391 C158.27761,67.9797391 158.806354,67.5811823 158.806354,66.7529836 C158.806354,65.9392173 158.186838,65.6727727 156.962557,65.4518457 C154.906581,65.0821538 154.212179,64.5192895 154.212179,63.1737441 C154.212179,61.7393838 155.647504,61 156.886536,61 C158.30711,61 159.531392,61.5617541 159.74357,63.232584 L158.534039,63.232584 C158.352496,62.3899528 157.869138,62.0202609 156.871785,62.0202609 C155.965204,62.0202609 155.375189,62.4643353 155.375189,63.1293367 C155.375189,63.8243131 155.768911,64.1051901 157.218986,64.3572023 C158.85174,64.6525118 160,65.0077713 160,66.6486261 C160,68.0541216 159.017398,69 157.098714,69 C155.209531,69 154.076021,68.068554 154,66.486539" id="Fill-44" fill="#FFFFFF"></path>
                <path d="M161,25 C161,38.807178 149.807178,50 136,50 C122.192822,50 111,38.807178 111,25 C111,11.192822 122.192822,0 136,0 C149.807178,0 161,11.192822 161,25 Z M139.86031,10.5365939 L137.471147,10.5365939 L131.831926,20.2199156 L134.215224,21.608609 L138.662796,13.9719681 L147.708069,29.4798264 L150.096059,28.0969974 L139.86031,10.5365939 Z M139.485808,22.2843068 C138.064274,23.9732583 135.935491,25.047619 133.554539,25.047619 C131.333099,25.047619 129.330988,24.1128313 127.917664,22.6138869 L127.885996,22.6138869 L125.460474,22.6138869 L125.359606,22.7886465 L118.990852,33.6894206 L121.371804,35.0828055 L125.997654,27.1634999 L125.985925,27.1611541 L126.968801,25.4733756 C128.77035,26.9277504 131.059817,27.7992024 133.554539,27.7992024 C136.744781,27.7992024 139.600751,26.3764954 141.526624,24.1327703 L139.485808,22.2843068 Z M126.331457,35.0826882 L151.546094,35.0826882 L151.546094,32.3240676 L126.331457,32.3240676 L126.331457,35.0826882 Z" id="Combined-Shape" fill="#FFFFFF"></path>
                <g id="Group" transform="translate(126.000000, 32.000000)"></g>
            </g>
        </g>
    </g>
</svg>