<?xml version="1.0" encoding="UTF-8" standalone="no"?>
<svg width="139px" height="181px" viewBox="0 0 139 181" version="1.1" xmlns="http://www.w3.org/2000/svg" xmlns:xlink="http://www.w3.org/1999/xlink">
    <!-- Generator: Sketch 47 (45396) - http://www.bohemiancoding.com/sketch -->
    <title>Page 1</title>
    <desc>Created with Sketch.</desc>
    <defs>
        <polygon id="path-1" points="3.08509728e-16 6.683425 3.08509728e-16 0.043925 5.65113333 0.043925 5.65113333 6.683425 0 6.683425"></polygon>
    </defs>
    <g id="Symbols" stroke="none" stroke-width="1" fill="none" fill-rule="evenodd">
        <g id="footer-/-white" transform="translate(-432.000000, -205.000000)">
            <g id="Page-1" transform="translate(432.000000, 205.000000)">
                <path d="M3.60343313,70.8203468 C3.8998004,70.7539169 4.14315369,70.7150616 4.41333333,70.7150616 C5.3439521,70.7150616 6.03249501,71.4426572 6.03249501,72.4491331 C6.03249501,73.4813035 5.28966068,74.1562565 4.18467066,74.1562565 C4.00838323,74.1562565 3.73820359,74.1424692 3.59001996,74.1161479 C3.59001996,73.0175475 3.60343313,71.6012116 3.60343313,70.8203468 M3.96750499,74.9101734 C4.02179641,74.9101734 4.08886228,74.9101734 4.17061876,74.8970127 C4.6560479,75.5989137 5.16894212,76.4330478 5.62754491,77.2139127 C5.89708583,77.6638813 6.3691018,78.4579068 6.81429142,78.7493211 C7.09724551,78.9341968 7.38147705,79 7.88031936,79 C8.29804391,79 8.64934132,78.9743054 9,78.8940882 L9,78.5243367 C8.74323353,78.4579068 8.62251497,78.3914769 8.43345309,78.1934406 C8.09620758,77.8625444 7.66443114,77.2790892 7.23329341,76.6047629 C6.76063872,75.8765406 6.35568862,75.2410696 5.84279441,74.6062252 C7.08447106,74.1562565 7.81261477,73.2694798 7.81261477,72.1840401 C7.81261477,71.4952998 7.47536926,70.8065594 6.96247505,70.4499687 C6.50387226,70.1322331 5.95137725,70 5.03353293,70 C4.71033932,70 4.29197605,70.0125339 3.56319361,70.0394819 C2.72710579,70.0795906 2.51121756,70.0795906 1.80926148,70.0795906 C1.54035928,70.0795906 1.27017964,70.0927512 1,70.0658032 L1,70.436808 C1.45924152,70.4894506 1.74219561,70.6354711 1.83608782,70.9926885 C1.93125749,71.3630666 1.98491018,71.7603927 1.98491018,73.3753917 L1.98491018,75.5989137 C1.98491018,76.9093378 1.97149701,77.1468561 1.93125749,77.5441822 C1.90443114,77.8487571 1.80926148,78.086902 1.66043912,78.2592438 C1.49884232,78.4315855 1.33724551,78.4980155 1,78.5243367 L1,78.8940882 L1.32383234,78.8815542 C1.67449102,78.8677669 2.16055888,78.8815542 2.78075848,78.8815542 C3.41500998,78.8815542 3.8998004,78.8677669 4.2510978,78.8815542 L4.56151697,78.8940882 L4.56151697,78.5243367 C4.11632735,78.4842281 3.87361277,78.3125131 3.73820359,77.9678295 C3.6308982,77.6902026 3.61748503,77.3856277 3.60343313,76.6705661 C3.60343313,76.3133487 3.59001996,75.9561312 3.59001996,75.5989137 L3.59001996,74.8970127 C3.72479042,74.8970127 3.83273453,74.9101734 3.96750499,74.9101734" id="Fill-1" fill="#FFFFFF"></path>
                <path d="M10.8207869,76.902994 C10.7730271,77.3628743 10.5355924,77.6347305 10,77.6766467 L10,77.9682635 C10.5703889,77.9479042 11.1421424,77.9377246 11.7138958,77.9377246 C12.284967,77.9377246 12.8560382,77.9586826 13.4277917,77.9682635 C13.833068,77.9790419 14.2246987,78 14.629975,78 C15.284967,78 15.4043666,77.9682635 15.5114851,77.811976 C15.6418012,77.6137725 15.8328406,77.0077844 16,76.2760479 L15.535365,76.1928144 C15.2610871,77.0491018 14.8087332,77.3005988 13.5233113,77.3005988 C13.154196,77.3005988 12.8806004,77.2904192 12.7018422,77.2479042 C12.4159654,77.1850299 12.3327269,77.039521 12.3327269,76.6 C12.3327269,75.9419162 12.321128,75.2832335 12.321128,74.6251497 C12.535365,74.6251497 12.7489197,74.6149701 12.9645213,74.6149701 C14.1892199,74.6149701 14.5112577,74.7616766 14.5467364,75.3568862 L14.9758927,75.3568862 C14.9636116,75.1898204 14.9520127,74.8766467 14.9520127,74.3431138 C14.9520127,73.8215569 14.9520127,73.4760479 14.9758927,73.308982 L14.5467364,73.308982 C14.4757789,73.8730539 14.0950648,74.0299401 12.8560382,74.0299401 C12.6424835,74.0299401 12.499204,74.0299401 12.321128,74.0191617 L12.321128,72.8071856 C12.321128,72.2017964 12.3327269,72.0652695 12.3566068,71.6580838 C12.6424835,71.6479042 12.9870366,71.6377246 13.2497157,71.6377246 C14.666136,71.6377246 15.0584489,71.8568862 15.1430521,72.6610778 L15.5708438,72.6610778 C15.5476461,72.4101796 15.5592449,72.1700599 15.5592449,71.9191617 C15.5592449,71.6161677 15.5708438,71.302994 15.5708438,71 L10,71 L10,71.2922156 C10.4039118,71.3347305 10.6181487,71.4598802 10.7252672,71.7317365 C10.8207869,71.9508982 10.8569479,72.2017964 10.8569479,72.7550898 L10.8569479,75.7125749 C10.8569479,76.2550898 10.8569479,76.5898204 10.8207869,76.902994" id="Fill-3" fill="#FFFFFF"></path>
                <polygon id="Fill-5" fill="#FFFFFF" points="12 69.6778656 12.6588109 70 15 68.2411067 13.3891269 68"></polygon>
                <path d="M19.6454577,74.3644661 L19.9100724,74.8958547 C20.0664982,74.9066018 20.12645,74.9066018 20.2463535,74.9066018 C21.8333525,74.9066018 23,74.0725009 23,72.9368816 C23,71.7290174 21.9780636,71 20.270472,71 C19.6578615,71 19.0445618,71.0310474 18.4312622,71.0513477 C18.046744,71.0620948 17.7580108,71.0620948 17.5533479,71.0620948 C17.0365223,71.0620948 17.1447112,71.0620948 17,71.0513477 L17,71.3433129 C17.4093258,71.3851075 17.6257035,71.5104913 17.7338923,71.7815592 C17.8296773,72.0000853 17.8655105,72.2496588 17.8655105,72.8019447 L17.8655105,75.406346 C17.8655105,76.4380757 17.8655105,76.6249574 17.8296773,76.9378199 C17.7814402,77.3957694 17.5409441,77.6668373 17,77.7092289 L17,78 L17.2887332,77.9898499 C17.5898702,77.9796998 18.0343402,77.9796998 18.5987137,77.9796998 C19.1761801,77.9796998 19.6089353,77.9796998 19.921098,77.9898499 L20.2105203,78 L20.2105203,77.7092289 C19.8018835,77.6775844 19.5848168,77.5420505 19.4773171,77.2709826 C19.3567245,76.9999147 19.3450098,76.7706414 19.3450098,75.406346 L19.3450098,73.5829069 C19.3450098,72.9368816 19.3691283,72.2914534 19.3691283,71.6454282 C19.5606983,71.6143808 19.68198,71.6036336 19.8260021,71.6036336 C20.7397496,71.6036336 21.4005972,72.1977141 21.4005972,73.031218 C21.4005972,73.8229273 20.7755829,74.3023712 19.6454577,74.3644661" id="Fill-7" fill="#FFFFFF"></path>
                <path d="M29.4967521,71.5158268 C29.6141152,71.3822909 29.7646594,71.3202499 30,71.2889339 L30,71 C29.571717,71.0212712 29.4211728,71.0212712 28.8742978,71.0212712 C28.3384831,71.0212712 28.1885534,71.0212712 27.7602704,71 L27.7602704,71.2889339 C28.0380091,71.3202499 28.1989993,71.4230607 28.3175913,71.6085929 C28.4343399,71.7840804 28.4669066,72.1451 28.4669066,73.3203343 L28.4669066,74.3401705 C28.4669066,75.50536 28.4454003,75.825019 28.3065309,76.2681692 C28.0920822,76.9594834 27.3952774,77.3092766 26.6769663,77.3092766 C26.1620435,77.3092766 25.7227001,77.1136997 25.4658532,76.8247658 C25.1328125,76.4542922 25.0904143,76.113362 25.0904143,74.3401705 C25.0904143,73.6913987 25.1008603,73.0526716 25.1223666,72.4021271 C25.1328125,71.9489322 25.1764396,71.7421288 25.2722963,71.5879126 C25.3792135,71.413016 25.5408181,71.3302946 25.8726299,71.2889339 L25.8726299,71 L25.6262289,71.0106356 C25.3466468,71.0212712 24.9509305,71.0212712 24.4353933,71.0212712 C23.921085,71.0212712 23.5247542,71.0212712 23.246401,71.0106356 L23,71 L23,71.2889339 C23.4497893,71.3302946 23.6531777,71.4851017 23.7176966,71.8561661 C23.8141678,72.371402 23.7822156,72.9179539 23.7822156,73.4438254 C23.7822156,73.805436 23.7607093,74.2887651 23.7607093,75.4019583 C23.7607093,76.4944712 24.0501229,77.1030641 24.8010007,77.5674854 C25.2833567,77.8765088 25.797665,78 26.4729635,78 C27.5452072,78 28.3599895,77.6496159 28.8534059,76.9594834 C29.1637114,76.526378 29.2816889,76.0932726 29.2816889,75.3712332 C29.2816889,74.6598295 29.271243,73.9490166 29.271243,73.712079 C29.271243,73.0721702 29.2816889,72.7324217 29.3031952,72.2892715 C29.325316,71.8768465 29.3787746,71.6706339 29.4967521,71.5158268" id="Fill-9" fill="#FFFFFF"></path>
                <path d="M33.1422603,75.3216244 C33.1422603,74.8400446 33.1422603,74.7878684 33.1538297,74.5053975 C33.444992,74.4844071 33.6468131,74.4736121 33.8377076,74.4736121 C34.891805,74.4736121 35.5641136,75.0913297 35.5641136,76.0646847 C35.5641136,76.9438828 35.0261382,77.435658 34.0729513,77.435658 C33.6018211,77.435658 33.3331548,77.3103153 33.2431709,77.0482351 C33.1647563,76.8389308 33.1422603,76.5246744 33.1422603,75.939342 L33.1422603,75.3216244 Z M33.1981789,71.5757368 C33.4,71.5757368 33.6018211,71.5547464 33.8042849,71.5547464 C34.7902517,71.5547464 35.3738618,71.9841501 35.3738618,72.7056203 C35.3738618,73.4594757 34.7459025,73.8882796 33.6468131,73.8882796 C33.4334226,73.8882796 33.2765935,73.8774846 33.1538297,73.8672892 C33.1647563,73.4276902 33.1872523,72.2558259 33.1981789,71.5757368 L33.1981789,71.5757368 Z M32.155008,77.9586189 C32.7604713,77.9586189 33.3781468,78 33.9829673,78 C35.1270487,78 35.7222282,77.8746573 36.2486342,77.4980295 C36.7531869,77.1429918 37,76.6710075 37,76.044294 C37,75.0079678 36.371398,74.3698595 35.1829673,74.1503598 C36.2486342,73.8990747 36.7872523,73.3545236 36.7872523,72.5490918 C36.7872523,71.4605894 35.844992,71 34.8127477,71 C34.1629352,71 33.1872523,71.0317855 32.536797,71.0317855 C31.818211,71.0317855 31.5161221,71.0317855 31,71.0101953 L31,71.3034613 C31.381789,71.3454421 31.5836101,71.4713845 31.6954472,71.74366 C31.8072844,72.0153358 31.818211,72.4333448 31.818211,73.4066998 L31.818211,75.3839959 C31.818211,76.4209219 31.8072844,76.6086361 31.7745046,76.9222927 C31.7295126,77.4038725 31.5270487,77.6551576 31,77.6971385 L31,77.9898047 L31.1349759,77.9796093 C31.4486342,77.9586189 31.9088377,77.9586189 32.155008,77.9586189 L32.155008,77.9586189 Z" id="Fill-11" fill="#FFFFFF"></path>
                <path d="M42.7028131,77.9790419 C43.0088713,77.9892216 43.3261352,78 43.6314929,78 C44.2429088,78 44.3892845,77.9682635 44.4992413,77.8221557 C44.6337108,77.6449102 44.8655305,76.8922156 45,76.2868263 L44.5356601,76.1820359 C44.4137971,76.6209581 44.1574647,76.9347305 43.8149877,77.091018 C43.5089296,77.2377246 43.1426404,77.3005988 42.4709933,77.3005988 C41.945722,77.3005988 41.6886892,77.2479042 41.55492,77.1335329 C41.3952375,76.9868263 41.3833314,76.808982 41.3833314,75.3568862 L41.3833314,73.611976 C41.3833314,72.4209581 41.3952375,72.2538922 41.4197502,72.0760479 C41.4932882,71.5748503 41.7622272,71.2922156 42.3855492,71.2922156 L42.3855492,71 L42.0801914,71.0101796 C41.7622272,71.0209581 41.2978872,71.0209581 40.6990779,71.0209581 C40.087662,71.0209581 39.6359286,71.0209581 39.3067585,71.0101796 L39,71 L39,71.2922156 C39.4153146,71.3347305 39.6478347,71.4598802 39.7584919,71.7317365 C39.8796545,72.0137725 39.892261,72.2017964 39.892261,73.611976 L39.892261,74.7299401 C39.892261,75.2730539 39.8796545,75.691018 39.8796545,76.2131737 C39.8796545,76.9760479 39.818723,77.2479042 39.5988094,77.4676647 C39.4650403,77.6035928 39.3067585,77.6556886 39,77.6766467 L39,77.9682635 C39.3915023,77.9479042 39.8068169,77.9377246 40.4294385,77.9377246 C41.2607681,77.9377246 41.945722,77.9586826 42.7028131,77.9790419" id="Fill-13" fill="#FFFFFF"></path>
                <path d="M47.2247263,72.0809487 C47.2698004,71.608748 47.5170637,71.3254275 48,71.294148 L48,71 L47.7308435,71.010226 C47.4494527,71.0210535 47.0334836,71.0210535 46.5061172,71.0210535 C45.9671603,71.0210535 45.5627817,71.0210535 45.2698004,71.010226 L45,71 L45,71.294148 C45.3818416,71.336255 45.5956214,71.4619747 45.696716,71.7350692 C45.7868641,71.955229 45.8094012,72.2072699 45.8094012,72.7630833 C45.8094012,73.0680588 45.8203477,73.3513792 45.8203477,73.6238721 L45.8203477,75.3869554 C45.8203477,76.4270001 45.8094012,76.6152789 45.7752737,76.9298788 C45.7301996,77.4129071 45.5286542,77.664948 45,77.7070551 L45,78 L45.2698004,77.9903755 C45.5627817,77.979548 45.9671603,77.979548 46.5061172,77.979548 C47.0334836,77.979548 47.4494527,77.979548 47.7308435,77.9903755 L48,78 L48,77.7070551 C47.6181584,77.675174 47.4153252,77.5392283 47.3148744,77.2661339 C47.2021893,76.9930394 47.1912428,76.7620521 47.1912428,75.3869554 L47.1912428,73.6238721 C47.1912428,72.6794707 47.1912428,72.3853227 47.2247263,72.0809487" id="Fill-15" fill="#FFFFFF"></path>
                <path d="M53.7558794,71.7920198 C55.2269322,71.7920198 56.3754137,73.3633816 56.3754137,75.3651164 C56.3754137,77.0532461 55.4057836,78.2642957 54.0343766,78.2642957 C52.5741827,78.2642957 51.4263399,76.6695803 51.4263399,74.6438246 C51.4263399,72.9790485 52.39597,71.7920198 53.7558794,71.7920198 M53.7450206,79.0436378 C54.1014459,79.0436378 54.2458045,79.0329619 54.625225,78.9749116 C55.1375065,79.417295 55.8394983,79.9177287 56.3415597,80.2079802 C57.2211254,80.7204244 58.1473201,81 59.0160269,81 C59.7735904,81 60.4532257,80.7904851 61,80.3948088 L60.8550026,79.9877894 C60.4091516,80.2199907 60.0297311,80.3247481 59.5736601,80.3247481 C58.8378143,80.3247481 58.0572557,80.0218189 56.9209105,79.3005271 C56.5306312,79.0556482 56.1294931,78.823447 55.7283549,78.6132648 C56.9994774,77.9386802 57.8011149,76.4827517 57.8011149,74.8413292 C57.8011149,72.5366651 56.2738517,71 53.9781662,71 C51.6160502,71 50,72.710816 50,75.1916327 C50,77.5069727 51.4934092,79.0436378 53.7450206,79.0436378" id="Fill-17" fill="#FFFFFF"></path>
                <path d="M64.4967963,71.5158268 C64.614149,71.3822909 64.7646801,71.3202499 65,71.2889339 L65,71 C64.5717546,71.0212712 64.4212236,71.0212712 63.8743966,71.0212712 C63.338629,71.0212712 63.1887124,71.0212712 62.7592381,71 L62.7592381,71.2889339 C63.0381813,71.3202499 63.1997718,71.4230607 63.317739,71.6085929 C63.4350917,71.7840804 63.4676556,72.1451 63.4676556,73.3203343 L63.4676556,74.3401705 C63.4676556,75.50536 63.4455367,75.825019 63.3066795,76.2681692 C63.0916352,76.9594834 62.3948916,77.3092766 61.677258,77.3092766 C61.1623804,77.3092766 60.7230756,77.1136997 60.4656368,76.8247658 C60.1332397,76.4542922 60.0908453,76.113362 60.0908453,74.3401705 C60.0908453,73.6913987 60.1006759,73.0526716 60.1227947,72.4021271 C60.1332397,71.9489322 60.1762486,71.7421288 60.2720969,71.5879126 C60.3796191,71.413016 60.5405951,71.3302946 60.8729922,71.2889339 L60.8729922,71 L60.6266128,71.0106356 C60.3476696,71.0212712 59.9513737,71.0212712 59.4364961,71.0212712 C58.922233,71.0212712 58.525937,71.0212712 58.2469938,71.0106356 L58,71 L58,71.2889339 C58.4503643,71.3302946 58.6543492,71.4851017 58.718248,71.8561661 C58.8140964,72.371402 58.7833758,72.9179539 58.7833758,73.4438254 C58.7833758,73.805436 58.7612569,74.2887651 58.7612569,75.4019583 C58.7612569,76.4944712 59.0506451,77.1030641 59.801457,77.5674854 C60.2831563,77.8765088 60.7974195,78 61.4732731,78 C62.5454226,78 63.3601334,77.6496159 63.8535065,76.9594834 C64.1643992,76.526378 64.281752,76.0932726 64.281752,75.3712332 C64.281752,74.6598295 64.2706925,73.9490166 64.2706925,73.712079 C64.2706925,73.0721702 64.281752,72.7324217 64.3032564,72.2892715 C64.3247608,71.8768465 64.3788291,71.6706339 64.4967963,71.5158268" id="Fill-19" fill="#FFFFFF"></path>
                <path d="M69.428474,77.9682662 C69.8337503,77.9790437 70.2267455,78 70.6313395,78 C71.2863316,78 71.4050489,77.9682662 71.5121674,77.8113934 C71.6431658,77.6138055 71.8328406,77.0078693 72,76.2761954 L71.5360473,76.1923702 C71.2624517,77.0491831 70.8094155,77.3006586 69.5239936,77.3006586 C69.1548783,77.3006586 68.8812827,77.2898811 68.7025244,77.2479685 C68.4166477,77.1845009 68.3334091,77.0390044 68.3334091,76.6001198 C68.3334091,75.9414935 68.3218103,75.2834659 68.3218103,74.6254384 C68.5360473,74.6254384 68.749602,74.6146609 68.9645213,74.6146609 C70.1905845,74.6146609 70.51194,74.7619536 70.5474187,75.3565136 L70.9758927,75.3565136 C70.9642938,75.189462 70.9520127,74.8769139 70.9520127,74.3434266 C70.9520127,73.8213155 70.9520127,73.4764349 70.9758927,73.3093833 L70.5474187,73.3093833 C70.4757789,73.8734069 70.0950648,74.029681 68.8580851,74.029681 C68.6431658,74.029681 68.5005686,74.029681 68.3218103,74.0189034 L68.3218103,72.8076298 C68.3218103,72.2022924 68.3334091,72.0657771 68.3572891,71.6586263 C68.6431658,71.6478488 68.9877189,71.63767 69.2497157,71.63767 C70.666136,71.63767 71.0598135,71.8574117 71.1430521,72.6615345 L71.5722083,72.6615345 C71.5476461,72.4106578 71.5599272,72.1705585 71.5599272,71.9196818 C71.5599272,71.6167137 71.5722083,71.3035668 71.5722083,71 L66,71 L66,71.2927893 C66.4052763,71.3347019 66.618831,71.4604397 66.7259495,71.7322727 C66.8221515,71.9514156 66.8576302,72.2022924 66.8576302,72.7555384 L66.8576302,75.7121718 C66.8576302,76.2552391 66.8576302,76.5893422 66.8221515,76.9030878 C66.7737093,77.36233 66.5355924,77.634163 66,77.6766744 L66,77.9682662 C66.5717535,77.9479086 67.1435069,77.9371311 67.7145781,77.9371311 C68.2856493,77.9371311 68.8580851,77.9580874 69.428474,77.9682662" id="Fill-21" fill="#FFFFFF"></path>
                <path d="M76,70 L76,70.3775822 C76.443438,70.4318876 76.6781266,70.5935259 76.7960885,70.9442749 C76.899228,71.2285795 76.9381369,71.5512174 76.9381369,72.2667708 L76.9381369,75.6400937 C76.9381369,76.9766451 76.9381369,77.2187833 76.899228,77.6238376 C76.8473495,78.2173635 76.5873392,78.5687513 76,78.6230567 L76,79 L76.3125064,78.9865834 C76.6515697,78.9731667 77.120947,78.9731667 77.7478127,78.9731667 C78.3604735,78.9731667 78.8422028,78.9731667 79.1689141,78.9865834 L79.4820381,79 L79.4820381,78.6230567 C78.6346886,78.5687513 78.5821925,77.9202811 78.5562532,77.1785334 C78.5432836,76.8284234 78.5432836,76.5045077 78.5432836,76.2074253 L78.5432836,74.6958188 C78.792177,74.6824022 78.8823469,74.6824022 79.1170355,74.6824022 C80.486876,74.6824022 80.7870304,74.8440406 80.8784354,75.6541492 L81.3471951,75.6541492 C81.3471951,75.1545396 81.3212558,74.6421523 81.3212558,74.1419039 C81.3212558,73.7649606 81.3471951,73.3733229 81.3471951,72.9957408 L80.8784354,72.9957408 C80.812352,73.7240718 80.4479671,73.9400156 79.2337622,73.9400156 C79.0120432,73.9400156 78.8564076,73.926599 78.5432836,73.9131824 C78.5432836,72.4424647 78.5432836,71.7946333 78.5686052,70.8637751 C78.8953165,70.836303 79.1812661,70.8235252 79.4820381,70.8235252 C80.9562532,70.8235252 81.5040659,71.2011074 81.5170355,72.1722155 L82,72.1722155 C81.9734431,71.8751331 81.9734431,71.7946333 81.9734431,71.2547739 C81.9734431,70.6880812 81.9734431,70.2561937 82,70 L76,70 Z" id="Fill-23" fill="#FFFFFF"></path>
                <path d="M85.9530299,71.6378119 C86.1757031,71.5864801 86.357205,71.555209 86.5590026,71.555209 C87.2589156,71.555209 87.7744274,72.1216285 87.7744274,72.9039953 C87.7744274,73.7070128 87.2177443,74.2321308 86.3879385,74.2321308 C86.2557263,74.2321308 86.0545086,74.2221005 85.9431719,74.2008597 C85.9431719,73.3465105 85.9530299,72.2455327 85.9530299,71.6378119 M86.2261525,74.8186109 C86.2655842,74.8186109 86.3166135,74.8186109 86.3775007,74.8085806 C86.7416643,75.3537593 87.1267034,76.0027815 87.4699913,76.6105024 C87.6723688,76.9603844 88.0272543,77.5775455 88.3606843,77.8041133 C88.5734996,77.9480782 88.785735,78 89.1603363,78 C89.4734706,78 89.7367353,77.9793493 90,77.9173972 L90,77.6294673 C89.8074804,77.5775455 89.7170194,77.5256237 89.5749493,77.3722185 C89.3227022,77.1149697 88.9985503,76.6612441 88.6749783,76.1367161 C88.3200928,75.5702967 88.0173963,75.0758597 87.6317773,74.5820128 C88.5624819,74.2321308 89.109307,73.5423972 89.109307,72.6980782 C89.109307,72.1629299 88.8564801,71.6277815 88.471441,71.349292 C88.128733,71.1032535 87.7129603,71 87.0246448,71 C86.7828356,71 86.4691215,71.0100303 85.9228762,71.0306811 C85.2948681,71.0613621 85.1330821,71.0613621 84.6071325,71.0613621 C84.4053349,71.0613621 84.2029574,71.0719825 84,71.0507417 L84,71.3392616 C84.3444477,71.380563 84.5561032,71.4938469 84.6274282,71.7717465 C84.6981734,72.0596763 84.7387649,72.3688469 84.7387649,73.62441 L84.7387649,75.3537593 C84.7387649,76.3739042 84.7289069,76.5585806 84.6981734,76.8671612 C84.6784575,77.1043493 84.6071325,77.2890256 84.4963758,77.4235502 C84.3746013,77.5574848 84.2528269,77.6088166 84,77.6294673 L84,77.9173972 L84.242969,77.9073668 C84.5062337,77.8967465 84.8698173,77.9073668 85.3354596,77.9073668 C85.8109597,77.9073668 86.1757031,77.8967465 86.4383879,77.9073668 L86.671499,77.9173972 L86.671499,77.6294673 C86.3369092,77.5981962 86.1542476,77.4648517 86.0545086,77.1969825 C85.9727457,76.980445 85.9634677,76.7438469 85.9530299,76.1874579 C85.9530299,75.9101483 85.9431719,75.6328388 85.9431719,75.3537593 L85.9431719,74.8085806 C86.0446506,74.8085806 86.1246738,74.8186109 86.2261525,74.8186109" id="Fill-25" fill="#FFFFFF"></path>
                <path d="M93.3882719,74.9989688 C93.5505997,74.484661 93.9411817,73.5607115 94.2235451,72.8472974 L94.993514,74.9989688 L93.3882719,74.9989688 Z M95.1570857,77.7070551 L95.1570857,78 L95.406486,77.9903755 C95.6776544,77.979548 96.0682363,77.979548 96.5788538,77.979548 C97.0776544,77.979548 97.4676144,77.979548 97.7387828,77.9903755 L98,78 L98,77.7070551 C97.7387828,77.6438945 97.587028,77.5169717 97.4358952,77.2661339 C97.2934696,77.024319 97.1093736,76.6465584 96.8487783,76.0059294 L95.3194136,72.2180974 C95.1676588,71.8403369 94.9394047,71.3254275 94.8423812,71 L94.1047534,71 C93.811195,71.8920684 93.3882719,72.9940706 93.1046646,73.6768067 L92.0753443,76.2158632 C91.7494447,77.014093 91.5423367,77.381026 91.3370946,77.5596803 C91.218303,77.664948 91.1635717,77.6860015 91,77.7070551 L91,78 C91.4123501,77.9903755 91.5647268,77.979548 92.0753443,77.979548 C92.5959129,77.979548 92.7482896,77.9903755 93.1593958,78 L93.1593958,77.7070551 C92.812972,77.6860015 92.6724123,77.5494543 92.6724123,77.2444788 C92.6724123,77.0670276 92.7576188,76.7193435 92.9205686,76.2483458 L93.1382497,75.6389963 L95.2217681,75.6389963 C95.3517548,75.9957034 95.4382052,76.2585718 95.5681919,76.6465584 C95.6776544,76.9617599 95.7106175,77.1079316 95.7106175,77.2131993 C95.7106175,77.5073473 95.5028876,77.6860015 95.1570857,77.7070551 L95.1570857,77.7070551 Z" id="Fill-27" fill="#FFFFFF"></path>
                <path d="M105.273314,72.5218699 C105.293255,71.9762825 105.313783,71.7976283 105.426979,71.608748 C105.569501,71.3567071 105.723754,71.304374 106,71.2935464 L106,71 C105.579472,71.0210535 105.436364,71.0210535 104.914956,71.0210535 C104.393548,71.0210535 104.249267,71.0210535 103.830499,71 L103.830499,71.2935464 C104.208798,71.3464811 104.404106,71.5143078 104.475073,71.8511644 C104.5261,72.1230558 104.546628,72.3853227 104.546628,73.4343903 L104.546628,75.7226089 C103.697361,74.6314342 102.796481,73.5715391 101.793548,72.3227636 C101.087977,71.4415227 100.894428,71.2309874 100.771848,71 C100.432845,71.0210535 100.31085,71.0210535 99.8914956,71.0210535 C99.4609971,71.0210535 99.3384164,71.0210535 99,71 L99,71.2935464 C99.3073314,71.3254275 99.4410557,71.3885881 99.5419355,71.5564149 C99.6961877,71.7868007 99.7366569,71.9973361 99.7366569,72.8683509 L99.7366569,75.0825814 C99.7366569,75.75449 99.7266862,76.1220246 99.7155425,76.5629458 C99.6961877,77.1085331 99.6762463,77.6860015 99,77.7070551 L99,78 C99.3683284,77.979548 99.7266862,77.979548 100.095601,77.979548 C100.453372,77.979548 100.821114,77.979548 101.180059,78 L101.180059,77.7070551 C100.883284,77.6962276 100.730205,77.6120134 100.627566,77.4020796 C100.52434,77.2029733 100.484457,76.9822119 100.463343,76.5424938 C100.432845,75.75449 100.422287,74.9779153 100.422287,74.190513 L100.422287,73.50898 C100.422287,72.8262439 100.432845,72.9627911 100.432845,72.7426313 C101.078006,73.5504855 102.357185,75.1667956 102.521408,75.3767294 C102.521408,75.3767294 103.903226,77.1085331 104.567742,78 L105.263343,78 C105.263343,77.8532268 105.232258,77.4856922 105.232258,77.2444788 L105.232258,75.6389963 C105.232258,74.9364097 105.242229,73.4662714 105.273314,72.5218699" id="Fill-29" fill="#FFFFFF"></path>
                <path d="M113.771143,78.4180567 C113.812481,77.8183293 113.907139,77.1718699 114,76.7869799 L113.603994,76.6961122 C113.363155,77.6021938 112.76645,78.0786006 111.889366,78.0786006 C110.435946,78.0786006 109.38033,76.5948595 109.38033,74.5561758 C109.38033,72.7900954 110.279581,71.7249951 111.75337,71.7249951 C112.704144,71.7249951 113.30025,72.155319 113.467399,72.9594989 L113.874788,72.9594989 C113.864603,72.6985786 113.854418,72.2909716 113.854418,72.0988512 C113.854418,71.8496138 113.854418,71.5893425 113.874788,71.3290712 C113.269096,71.1135847 112.568148,71 111.847429,71 C109.454019,71 108,72.4727072 108,74.9183488 C108,76.0619848 108.345681,77.0362173 108.99331,77.7501785 C109.558263,78.3836568 110.227459,78.7120789 111.14648,78.8022977 L110.937993,79.7200623 L111.167449,79.7875641 C111.241138,79.7310963 111.31363,79.6979944 111.398702,79.6979944 C111.555067,79.6979944 111.659311,79.833647 111.659311,80.0595184 C111.659311,80.3431557 111.460409,80.5015253 111.167449,80.5015253 C111.052421,80.5015253 110.927209,80.4671253 110.791812,80.4113065 L110.645632,80.8526644 C110.875686,80.9539171 111.063205,81 111.271692,81 C111.983425,81 112.432751,80.5696761 112.432751,79.9576167 C112.432751,79.5844097 112.170944,79.2787045 111.774338,79.2787045 C111.732401,79.2787045 111.628158,79.2676705 111.574838,79.2787045 L111.669496,78.8250146 C112.495057,78.8250146 113.091163,78.7120789 113.771143,78.4180567" id="Fill-31" fill="#FFFFFF"></path>
                <path d="M117.38806,74.9989688 C117.549751,74.484661 117.94092,73.5607115 118.222637,72.8472974 L118.993781,74.9989688 L117.38806,74.9989688 Z M119.156095,77.7070551 L119.156095,78 L119.406095,77.9903755 C119.677239,77.979548 120.067164,77.979548 120.577114,77.979548 C121.077114,77.979548 121.467662,77.979548 121.738806,77.9903755 L122,78 L122,77.7070551 C121.738806,77.6438945 121.586443,77.5169717 121.435323,77.2661339 C121.293532,77.024319 121.108209,76.6465584 120.848259,76.0059294 L119.318408,72.2180974 C119.166045,71.8403369 118.939055,71.3254275 118.84204,71 L118.103856,71 C117.810945,71.8920684 117.38806,72.9940706 117.104478,73.6768067 L116.075249,76.2158632 C115.748756,77.014093 115.54291,77.381026 115.337065,77.5596803 C115.21704,77.664948 115.163557,77.6860015 115,77.7070551 L115,78 C115.412313,77.9903755 115.563433,77.979548 116.075249,77.979548 C116.595771,77.979548 116.747512,77.9903755 117.159204,78 L117.159204,77.7070551 C116.812189,77.6860015 116.67102,77.5494543 116.67102,77.2444788 C116.67102,77.0670276 116.758706,76.7193435 116.920398,76.2483458 L117.13806,75.6389963 L119.221393,75.6389963 C119.351368,75.9957034 119.437811,76.2585718 119.567786,76.6465584 C119.677239,76.9617599 119.709577,77.1079316 119.709577,77.2131993 C119.709577,77.5073473 119.502488,77.6860015 119.156095,77.7070551 L119.156095,77.7070551 Z" id="Fill-33" fill="#FFFFFF"></path>
                <path d="M124.223916,72.0809487 C124.269644,71.608748 124.515672,71.3254275 125,71.294148 L125,71 L124.73143,71.010226 C124.449979,71.0210535 124.03392,71.0210535 123.505152,71.0210535 C122.966724,71.0210535 122.56097,71.0210535 122.269214,71.010226 L122,71 L122,71.294148 C122.382568,71.336255 122.595105,71.4619747 122.696222,71.7350692 C122.785745,71.955229 122.808287,72.2072699 122.808287,72.7630833 C122.808287,73.0680588 122.81988,73.3513792 122.81988,73.6238721 L122.81988,75.3869554 C122.81988,76.4270001 122.808287,76.6152789 122.774796,76.9298788 C122.729712,77.4129071 122.528124,77.664948 122,77.7070551 L122,78 L122.269214,77.9903755 C122.56097,77.979548 122.966724,77.979548 123.505152,77.979548 C124.03392,77.979548 124.449979,77.979548 124.73143,77.9903755 L125,78 L125,77.7070551 C124.618076,77.675174 124.415844,77.5392283 124.314083,77.2661339 C124.201374,76.9930394 124.190425,76.7620521 124.190425,75.3869554 L124.190425,73.6238721 C124.190425,72.6794707 124.190425,72.3853227 124.223916,72.0809487" id="Fill-35" fill="#FFFFFF"></path>
                <path d="M129.275258,77.3822163 C128.363389,77.3822163 127.734655,76.9566191 127.450842,76.1361977 L127,76.1971632 C127.096415,76.6831453 127.17925,77.2707366 127.214557,77.6556901 C128.019147,77.9198739 128.517518,78 129.204644,78 C130.863389,78 132,77.2504147 132,76.146649 C132,75.3366788 131.45478,74.8193431 130.494704,74.2828467 L129.487778,73.7254479 C128.86176,73.381138 128.46931,73.05715 128.46931,72.5705873 C128.46931,72.0131885 129.002988,71.6183643 129.738322,71.6183643 C130.555133,71.6183643 131.087452,72.0236397 131.253802,72.7529031 L131.704644,72.7529031 C131.692423,72.4689781 131.692423,72.3679496 131.692423,72.0033179 C131.692423,71.689781 131.692423,71.6079131 131.704644,71.3652123 C131.147203,71.1213504 130.520505,71 129.760728,71 C128.19704,71 127.190793,71.7298441 127.190793,72.8643829 C127.190793,73.7556403 127.687806,74.2422031 128.540603,74.7078633 L129.78585,75.3871931 C130.31749,75.6699569 130.685497,75.9846549 130.685497,76.4404446 C130.685497,77.0082946 130.115834,77.3822163 129.275258,77.3822163" id="Fill-37" fill="#FFFFFF"></path>
                <path d="M138.652757,76.2137725 L138.534736,76.1928144 C138.261853,77.0491018 137.808869,77.3005988 136.523593,77.3005988 C136.15452,77.3005988 135.881637,77.2904192 135.702217,77.2479042 C135.416373,77.1850299 135.333144,77.039521 135.333144,76.6 C135.333144,75.9419162 135.320864,75.2832335 135.320864,74.6251497 C135.535759,74.6251497 135.750654,74.6149701 135.964184,74.6149701 C137.19079,74.6149701 137.511427,74.7616766 137.547584,75.3568862 L137.976009,75.3568862 C137.963729,75.1898204 137.950767,74.8766467 137.950767,74.3431138 C137.950767,73.8215569 137.950767,73.4760479 137.976009,73.308982 L137.547584,73.308982 C137.475952,73.8730539 137.095281,74.0299401 135.857078,74.0299401 C135.642183,74.0299401 135.500284,74.0299401 135.320864,74.0191617 L135.320864,72.8071856 C135.320864,72.2017964 135.333144,72.0658683 135.357021,71.6580838 C135.642183,71.6479042 135.987379,71.6377246 136.249346,71.6377246 C137.666288,71.6377246 138.059238,71.8568862 138.142467,72.6610778 L138.570893,72.6610778 C138.546333,72.4107784 138.558613,72.1700599 138.558613,71.9191617 C138.558613,71.6167665 138.570893,71.302994 138.570893,71 L133,71 L133,71.2922156 C133.404548,71.3347305 133.618761,71.4598802 133.727231,71.7317365 C133.822058,71.9508982 133.858215,72.2017964 133.858215,72.7550898 L133.858215,75.7125749 C133.858215,76.2550898 133.858215,76.5898204 133.822058,76.902994 C133.774304,77.3628743 133.536214,77.6347305 133,77.6766467 L133,77.9682635 C133.571006,77.9479042 134.143377,77.9377246 134.715065,77.9377246 C135.286072,77.9377246 135.857078,77.9586826 136.428766,77.9682635 C136.833314,77.9790419 137.226947,78 137.630813,78 C138.285731,78 138.404434,77.9682635 138.512223,77.811976 C138.553837,77.748503 138.601592,77.6407186 138.652757,77.5035928 C138.76191,77.2113772 138.886072,76.7748503 139,76.2760479 L138.652757,76.2137725 Z" id="Fill-39" fill="#FFFFFF"></path>
                <g id="Group-43" transform="translate(0.000000, 52.000000)">
                    <mask id="mask-2" fill="white">
                        <use xlink:href="#path-1"></use>
                    </mask>
                    <g id="Clip-42"></g>
                    <path d="M1.56313333,6.623925 C1.8118,6.623925 2.17446667,6.634425 2.65046667,6.64434167 C3.20513333,6.653675 3.74913333,6.683425 4.3038,6.683425 C4.71113333,6.683425 4.8818,6.64434167 4.9838,6.52534167 C5.1198,6.36609167 5.3798,5.860925 5.65113333,5.20700833 L5.34513333,5.10784167 C4.92713333,5.920425 4.4518,6.14850833 3.17113333,6.14850833 C2.44646667,6.14850833 2.2198,6.02950833 2.2198,5.64275833 C2.2198,5.58325833 2.23113333,5.454925 2.2538,5.335925 C2.31046667,4.96900833 2.37846667,4.69134167 2.5598,3.87934167 L2.70646667,3.214925 C3.12646667,1.302175 3.28446667,0.876341667 3.56713333,0.559591667 C3.7378,0.361258333 3.93046667,0.281925 4.28113333,0.262091667 L4.32713333,0.043925 C4.24713333,0.0538416667 4.1798,0.0538416667 4.1458,0.0538416667 C3.95246667,0.0538416667 3.5218,0.0637583333 2.8658,0.0637583333 C2.44646667,0.0637583333 2.03913333,0.0538416667 1.6198,0.0538416667 C1.58646667,0.0538416667 1.52913333,0.0538416667 1.4618,0.043925 L1.4158,0.262091667 C1.90313333,0.311675 2.0838,0.489591667 2.0838,0.925925 C2.0838,1.17384167 2.01646667,1.63934167 1.83446667,2.43325833 L1.6538,3.214925 C1.4158,4.23575833 1.34846667,4.562425 1.20113333,5.10784167 C1.0558,5.61534167 0.946466667,5.885425 0.791133333,6.08084167 C0.776466667,6.09950833 0.7638,6.12109167 0.7478,6.13859167 C0.589133333,6.32700833 0.385133333,6.41625833 0.0458,6.445425 L-0.0002,6.653675 L0.158466667,6.64434167 C0.273133333,6.63909167 0.524466667,6.634425 0.791133333,6.630925 C1.0798,6.62684167 1.38646667,6.623925 1.56313333,6.623925" id="Fill-41" fill="#FFFFFF" mask="url(#mask-2)"></path>
                </g>
                <path d="M6.09359945,59.0753474 C6.03509979,59.3432173 6,59.5380318 6,59.647615 C6,59.866065 6.15209911,60 6.38609773,60 C6.71300757,60 7.37990365,59.8173614 8,59.5623836 L7.97591191,59.2221745 C7.64900206,59.3432173 7.4384033,59.3919209 7.33310392,59.3919209 C7.15760496,59.3919209 7.06400551,59.2823378 7.06400551,59.0996992 C7.06400551,58.9056009 7.13489332,58.4923363 7.42670337,57.3105572 L7.60151411,56.5936112 C7.8128011,55.742014 7.87061253,55.352385 7.87061253,55.2062742 C7.87061253,55.0601633 7.80041294,55 7.6256022,55 C7.30970406,55 6.67790778,55.1582868 6.03509979,55.4132646 L6.07088782,55.7534737 L6.15209911,55.7298381 C6.39779766,55.6567827 6.50240881,55.6209712 6.60770819,55.6209712 C6.73709566,55.6209712 6.80798348,55.6925942 6.80798348,55.850881 C6.80798348,56.0206274 6.73709566,56.4596763 6.5726084,57.0928234 C6.45629732,57.5547916 6.24569855,58.4307406 6.09359945,59.0753474" id="Fill-44" fill="#FFFFFF"></path>
                <path d="M8,52.4317323 C8,52.1656773 7.82873807,52 7.5583245,52 C7.23435843,52 7,52.2293578 7,52.559633 C7,52.8251484 7.18080594,53 7.45970308,53 C7.77465536,53 8,52.7614679 8,52.4317323" id="Fill-46" fill="#FFFFFF"></path>
                <path d="M11.854932,55.946421 C11.9894417,55.7941302 12.2476135,55.6322839 12.6041365,55.479396 C12.9483656,55.3277024 13.2188314,55.2560362 13.4401215,55.2560362 C13.7966445,55.2560362 13.9803298,55.4692432 13.9803298,55.8544493 C13.9803298,56.5143759 13.6115129,57.4382732 13.1204802,58.0157836 C12.8008389,58.390837 12.3712757,58.5837386 11.8679491,58.5837386 C11.3754701,58.5837386 11.1050043,58.4726559 11.1050043,58.2791571 C11.1050043,58.1376162 11.1910616,57.7422575 11.3754701,57.112789 C11.5598785,56.4433069 11.6951114,56.1285726 11.854932,55.946421 M10.7737923,55.7535193 L10.1345097,58.0563945 C10.0122939,58.4828086 10,58.5837386 10,58.6649603 C10,58.8686119 10.57709,59 11.5360139,59 C12.4074342,59 12.9729534,58.857862 13.4524154,58.5126696 C14.3491467,57.8736456 15,56.7174303 15,55.7738248 C15,55.1348008 14.6311831,54.8200665 13.8819786,54.8200665 C13.2680069,54.8200665 12.5918426,54.9926627 11.8180503,55.3677161 C11.854932,55.2249808 11.8918137,55.0631345 12.0154758,54.6271649 L12.3828464,53.2882007 C12.5918426,52.5374968 12.6533121,52.2836789 12.6533121,52.171999 C12.6533121,52.0603191 12.5556841,52 12.3951403,52 C12.1376916,52 11.5844663,52.10093 10.9213191,52.2836789 L10.7737923,52.3242897 L10.7860862,52.6187185 C10.9704946,52.5673577 11.2409604,52.5171914 11.3262945,52.5171914 C11.4615273,52.5171914 11.5360139,52.5882604 11.5360139,52.710093 C11.5360139,52.8414811 11.4868383,53.1054518 11.3631762,53.592185 C11.1426092,54.4247078 10.9820654,55.012371 10.7737923,55.7535193" id="Fill-48" fill="#FFFFFF"></path>
                <path d="M18.55826,55.4844241 C18.8745037,55.4844241 19.1327464,55.7523578 19.1327464,56.0917405 C19.1327464,56.8691055 18.3110651,57.463561 17.2207837,57.463561 L17.1034007,57.463561 C17.3961678,56.2867962 17.9948213,55.4844241 18.55826,55.4844241 M17.3499051,57.9122606 C18.8510271,57.9122606 20,57.0748785 20,55.9581309 C20,55.351529 19.5670637,55 18.8275505,55 C17.3139997,55 16,56.7347814 16,58.7382109 C16,59.5513004 16.3997929,60 17.1268773,60 C17.7248403,60 18.3814949,59.7456416 19.2501295,59.187625 L19.1210081,58.7746499 C18.4284481,59.2233495 17.9596064,59.4298371 17.5832902,59.4298371 C17.1738305,59.4298371 16.9632315,59.1018863 16.9632315,58.4838525 C16.9632315,58.3016576 16.9742793,58.1194627 17.0094942,57.9008288 C17.1620922,57.9122606 17.2670464,57.9122606 17.3499051,57.9122606" id="Fill-50" fill="#FFFFFF"></path>
                <path d="M22.7140332,55.6989325 C23.0137858,55.6989325 23.2067869,55.8576168 23.2067869,56.0790537 C23.2067869,56.237738 23.1940615,56.4094057 23.1707317,56.5565493 L23.5673383,56.5933353 C23.6627784,56.1771495 23.8069989,55.7725043 24,55.3310733 C23.7228703,55.123341 23.4344291,55 23.2067869,55 C22.8702722,55 22.3902439,55.2575014 21.8494168,55.7111945 C21.8381053,55.5020196 21.8140686,55.3310733 21.7773065,55.1846509 C21.7532697,55.0613099 21.6811594,55.0129833 21.5609756,55.0129833 C21.2605161,55.0129833 20.5881937,55.2091748 20,55.453693 L20.0360551,55.8215522 L20.3358077,55.7234564 C20.4566985,55.6859492 20.5641569,55.6621466 20.6369742,55.6621466 C20.7804878,55.6621466 20.8533051,55.7970283 20.8533051,56.1028563 C20.8533051,56.3603578 20.7684694,56.8385747 20.5881937,57.6103578 L20.3237893,58.75 C20.2276423,59.1661858 20.1435136,59.534045 20.0240368,60 C20.4920467,59.9386901 20.6122305,59.9257069 21.068222,59.9019042 L21.2972782,58.7132141 C21.5609756,57.3528563 21.7419583,56.5197634 22.1979498,55.9932198 C22.3534818,55.8092902 22.5337575,55.6989325 22.7140332,55.6989325" id="Fill-52" fill="#FFFFFF"></path>
                <path d="M25.1513043,58.8189567 C25.0499379,59.1776338 25,59.4674395 25,59.6645073 C25,59.8847596 25.1639752,60 25.4300621,60 C25.7967702,60 26.4802484,59.8383907 27.1391304,59.594954 L27.1003727,59.2594613 L26.9744099,59.2935561 C26.6710559,59.3747017 26.4802484,59.4210706 26.3922981,59.4210706 C26.2275776,59.4210706 26.138882,59.3283328 26.138882,59.1660416 C26.138882,59.0739857 26.1508075,58.9001023 26.2901863,58.2857143 L26.8231056,55.9113536 L27.8732919,55.9352199 L28,55.3549267 L26.9490683,55.3672008 L27.2650932,54 L26.6576398,54.1152404 C26.4168944,54.7875895 26.1262112,55.4135697 25.2653416,55.5513126 L25.1759006,55.9229458 L25.8474534,55.9113536 L25.4554037,57.6256393 C25.3532919,58.0777361 25.2653416,58.4139107 25.1513043,58.8189567" id="Fill-54" fill="#FFFFFF"></path>
                <polygon id="Fill-56" fill="#FFFFFF" points="31.7261872 52 30 53.6828131 30.4532074 54 33 52.2683889"></polygon>
                <path d="M31.556879,55.4844241 C31.8738132,55.4844241 32.1320559,55.7523578 32.1320559,56.0917405 C32.1320559,56.8691055 31.3117556,57.463561 30.2200932,57.463561 L30.1027102,57.463561 C30.3954773,56.2867962 30.9941308,55.4844241 31.556879,55.4844241 M30.3499051,57.9122606 C31.8503366,57.9122606 33,57.0748785 33,55.9581309 C33,55.351529 32.5663732,55 31.82686,55 C30.3139997,55 29,56.7347814 29,58.7382109 C29,59.5513004 29.3991024,60 30.1261868,60 C30.7248403,60 31.3814949,59.7456416 32.249439,59.187625 L32.1203176,58.7746499 C31.4277576,59.2233495 30.9589159,59.4298371 30.5839807,59.4298371 C30.1738305,59.4298371 29.9618505,59.1018863 29.9618505,58.4838525 C29.9618505,58.3016576 29.9735888,58.1194627 30.0094942,57.9008288 C30.1614017,57.9122606 30.2677369,57.9122606 30.3499051,57.9122606" id="Fill-58" fill="#FFFFFF"></path>
                <path d="M48.9560572,59 C49.3866156,59 49.5208627,58.9686347 49.6236646,58.8542435 C49.7675872,58.6765068 50.0137069,58.1223862 50.239871,57.4329643 L49.9828664,57.3284133 C49.5819391,58.2269373 49.1816166,58.4360394 47.886918,58.4360394 C47.199355,58.4360394 47.0137069,58.3413284 47.0137069,57.9760148 C47.0137069,57.7884379 47.0554324,57.4225092 47.1679097,56.8370234 C47.4049587,55.6359164 47.3535578,55.8653137 47.4049587,55.604551 C47.5893973,55.5940959 47.7738359,55.5836408 48.277565,55.5836408 C49.1199355,55.5836408 49.3975005,55.7300123 49.3975005,56.1789668 C49.3975005,56.2214022 49.3866156,56.2835178 49.3763354,56.3567036 L49.6545051,56.3567036 C49.7258617,55.8241082 49.9006249,54.9464945 50.0445475,54.3296433 L49.7675872,54.3296433 C49.6545051,54.7472325 49.4283411,54.9778598 49.0485789,55.0510455 C48.8115299,55.0928659 48.5345696,55.103321 47.8766378,55.103321 L47.4968756,55.103321 C47.6716388,54.1734317 47.8155614,53.4212792 48.0308406,52.5535055 C48.3700867,52.5227552 48.6984479,52.5227552 49.037694,52.5227552 C50.0651078,52.5227552 50.4339851,52.7214022 50.4339851,53.295818 C50.4339851,53.3690037 50.4249143,53.4108241 50.4146341,53.5252153 L50.7121548,53.5252153 C50.7841161,53.0344403 50.886918,52.4698647 51,52 L46.3255392,52 L46.2850232,52.2300123 C46.7264664,52.2822878 46.8909494,52.4698647 46.8909494,52.9298893 C46.8909494,53.1912669 46.8292683,53.702952 46.6647853,54.5184502 L46.4996976,55.3431734 C46.2644628,56.5135301 46.2221326,56.7539975 46.0890949,57.3388684 C45.9457771,57.9243542 45.8429752,58.2164822 45.6784922,58.4255843 C45.5351744,58.6242312 45.350131,58.7183272 45.0411207,58.7490775 L45,58.9686347 C45.4831687,58.9686347 45.9560572,58.9587946 46.4386212,58.9587946 C46.9115098,58.9587946 47.3940738,58.9686347 47.8669623,58.9790898 C48.2267688,58.9895449 48.5962508,59 48.9560572,59" id="Fill-60" fill="#FFFFFF"></path>
                <polygon id="Fill-62" fill="#FFFFFF" points="50.7180763 50 49 51.6833034 49.4510779 52 52 50.2678636"></polygon>
                <path d="M54.2696846,59.3103015 C54.7847339,59.4384422 55.2882254,59.5879397 55.7057549,59.7267588 C56.1471226,59.8762563 56.3313268,60.0471106 56.3313268,60.303392 C56.3313268,60.9855528 55.3496268,61.6155779 54.2812425,61.6155779 C53.3985071,61.6155779 52.8336143,61.2317839 52.8336143,60.6551508 C52.8336143,60.0364322 53.4230677,59.4924623 54.2696846,59.3103015 M55.5208283,55.4045226 C55.9997592,55.4045226 56.3067662,55.7355528 56.3067662,56.2694724 C56.3067662,56.9949749 55.7787142,57.5822864 55.127137,57.5822864 C54.6503732,57.5822864 54.3188057,57.2405779 54.3188057,56.7393216 C54.3188057,56.0138191 54.8584156,55.4045226 55.5208283,55.4045226 M52,60.5376884 C52,61.4447236 52.821334,62 54.1714423,62 C55.8162774,62 57.1049843,61.1136935 57.1049843,59.9830402 C57.1049843,59.3636935 56.6260535,59.1086683 55.6443535,58.8410804 L54.6619311,58.5741206 C54.1215988,58.4252513 53.9879605,58.3718593 53.9879605,58.254397 C53.9879605,58.1582915 54.0854804,58.0829146 54.391765,57.9233668 C54.6503732,57.986809 54.8215748,58.008794 55.0549001,58.008794 C56.2822056,58.008794 57.2270648,57.2512563 57.2270648,56.2694724 C57.2270648,56.0238693 57.1779437,55.8536432 57.0305803,55.629397 L57.8649169,55.6400754 L58,55.1168342 L56.3797255,55.1168342 C56.1102817,55.031407 55.8769564,55 55.5583915,55 C54.331086,55 53.3985071,55.7675879 53.3985071,56.781407 C53.3985071,57.2085427 53.5819889,57.5182161 53.9626776,57.7531407 C53.2258608,58.1042714 52.8697327,58.3932161 52.8697327,58.6275126 C52.8697327,58.8090452 53.0048158,58.8944724 53.6188298,59.0866834 C52.6125692,59.3103015 52,59.705402 52,60.5376884" id="Fill-64" fill="#FFFFFF"></path>
                <path d="M61.3213595,57.9180328 C61.2046145,58.3777619 61.1099751,58.6200998 60.9462559,58.7897363 C60.6519757,59.0919458 59.8900249,59.4910905 59.4555126,59.4910905 C59.162614,59.4910905 58.9864603,59.2851033 58.9864603,58.9109052 C58.9864603,58.2687099 59.3028461,57.2879544 59.749102,56.5495367 C60.1483835,55.8709907 60.6181266,55.507484 61.086488,55.507484 C61.2861288,55.507484 61.5327439,55.5687812 61.7911025,55.6899501 C61.6854103,56.4889522 61.5085659,57.1789024 61.3213595,57.9180328 L61.3213595,57.9180328 Z M62.9060514,55.2295082 C62.4010776,55.0969351 61.919591,55 61.3918209,55 C60.194667,55 59.4092291,55.6414825 58.775076,56.6585887 C58.305333,57.4098361 58,58.3178902 58,58.9593728 C58,59.6250891 58.4103343,60 59.1156397,60 C59.7366676,60 60.3715115,59.7704918 61.2391545,59.2615823 C61.3448466,59.8545973 61.4153081,59.9878831 61.6260017,59.9878831 C61.8256424,59.9878831 62.4010776,59.8061297 63,59.5759088 L62.9647693,59.2017106 C62.6704891,59.3107627 62.4245648,59.3827512 62.3306162,59.3827512 C62.1903841,59.3827512 62.1199226,59.2017106 62.1199226,58.8738418 C62.1199226,58.3535282 62.4245648,56.8161083 62.8466427,55.4233785 L62.9060514,55.2295082 Z" id="Fill-66" fill="#FFFFFF"></path>
                <path d="M64.4083644,59 C64.774374,59 65.6158764,58.8274038 66.3079382,58.6249467 L66.2815663,58.3412678 C65.9147576,58.4218923 65.6702184,58.4625032 65.5335642,58.4625032 C65.3305807,58.4625032 65.2362813,58.390837 65.2362813,58.2391434 C65.2362813,58.0874499 65.3034097,57.7822711 65.4400639,57.3158434 C65.8732019,55.8855046 66.3215237,54.3834997 66.7698455,53.0343827 C66.9464571,52.5070386 67,52.2735261 67,52.171999 C67,52.0603191 66.9057006,52 66.7147043,52 C66.3351092,52 65.5751199,52.1415408 64.8830581,52.3242897 L64.9094299,52.6288713 C65.1259989,52.5673577 65.3713372,52.5273441 65.5071923,52.5273441 C65.6566329,52.5273441 65.738146,52.5882604 65.738146,52.710093 C65.738146,52.8014675 65.6566329,53.0958963 65.4936068,53.6841566 C65.1259989,54.9628018 64.6648908,56.3925433 64.2453383,57.732702 C64.0415557,58.371726 64,58.5538777 64,58.6960157 C64,58.8883201 64.1494406,59 64.4083644,59" id="Fill-68" fill="#FFFFFF"></path>
                <path d="M67.0942877,59.0753474 C67.035788,59.3432173 67,59.5380318 67,59.647615 C67,59.866065 67.1520991,60 67.386786,60 C67.7136958,60 68.3799036,59.8173614 69,59.5623836 L68.9766001,59.2221745 C68.6490021,59.3432173 68.4390915,59.3919209 68.3331039,59.3919209 C68.1582932,59.3919209 68.0646937,59.2823378 68.0646937,59.0996992 C68.0646937,58.9056009 68.1342051,58.4923363 68.4267034,57.3105572 L68.6028906,56.5936112 C68.8128011,55.742014 68.8706125,55.352385 68.8706125,55.2062742 C68.8706125,55.0601633 68.8004129,55 68.6256022,55 C68.3097041,55 67.6792842,55.1582868 67.035788,55.4132646 L67.0701996,55.7534737 L67.1520991,55.7298381 C67.3977977,55.6567827 67.5037853,55.6209712 67.6090847,55.6209712 C67.7377839,55.6209712 67.8072953,55.6925942 67.8072953,55.850881 C67.8072953,56.0206274 67.7377839,56.4596763 67.5739849,57.0928234 C67.4562973,57.5547916 67.2463868,58.4307406 67.0942877,59.0753474" id="Fill-70" fill="#FFFFFF"></path>
                <path d="M68.4591729,53 C68.7741251,53 69,52.7614679 69,52.4317323 C69,52.1656773 68.8282078,52 68.5583245,52 C68.2338282,52 68,52.2288181 68,52.559633 C68,52.8251484 68.1797455,53 68.4591729,53" id="Fill-72" fill="#FFFFFF"></path>
                <path d="M71.4300621,60 C71.7967702,60 72.4809938,59.8384091 73.1398758,59.595 L73.1018634,59.2588636 L72.9751553,59.2929545 C72.6710559,59.3747727 72.4809938,59.4211364 72.3922981,59.4211364 C72.2275776,59.4211364 72.138882,59.3277273 72.138882,59.1654545 C72.138882,59.0740909 72.1515528,58.9002273 72.2901863,58.2852273 L72.8231056,55.9111364 L73.8740373,55.935 L74,55.3554545 L72.9498137,55.3677273 L73.2658385,54 L72.6583851,54.1159091 C72.4168944,54.7881818 72.1262112,55.4134091 71.266087,55.5518182 L71.176646,55.9234091 L71.8474534,55.9111364 L71.4561491,57.6259091 C71.3540373,58.0772727 71.266087,58.4134091 71.1513043,58.8190909 C71.0506832,59.1770455 71,59.4668182 71,59.6645455 C71,59.8847727 71.1639752,60 71.4300621,60" id="Fill-74" fill="#FFFFFF"></path>
                <polygon id="Fill-76" fill="#FFFFFF" points="79 52.2683889 77.7270203 52 76 53.6828131 76.4540405 54"></polygon>
                <path d="M76.557762,55.4844241 C76.874115,55.4844241 77.1324469,55.7523578 77.1324469,56.0917405 C77.1324469,56.8691055 76.3111725,57.463561 75.2191331,57.463561 L75.1024003,57.463561 C75.3959592,56.2867962 75.9941288,55.4844241 76.557762,55.4844241 M75.125885,60 C75.7247453,60 76.3816267,59.7456416 77.2498705,59.187625 L77.1200138,58.7746499 C76.4285961,59.2233495 75.9589017,59.4298371 75.583837,59.4298371 C75.171473,59.4298371 74.9621827,59.1018863 74.9621827,58.4838525 C74.9621827,58.3016576 74.9739251,58.1194627 75.0084614,57.9008288 C75.1604213,57.9122606 75.2661026,57.9122606 75.3482991,57.9122606 C76.8506303,57.9122606 78,57.0748785 78,55.9581309 C78,55.351529 77.5669142,55 76.8271456,55 C75.3137627,55 74,56.7347814 74,58.7382109 C74,59.5513004 74.397168,60 75.125885,60" id="Fill-78" fill="#FFFFFF"></path>
                <path d="M92.5285054,55.3582208 C92.3097072,56.4498279 92.2579353,56.7648928 92.1100154,57.3628982 C91.9738059,57.9510193 91.8585516,58.2438443 91.6915254,58.4545053 C91.5448382,58.6540464 91.3568567,58.7479481 91.0419106,58.7794546 L91,59 L91.1781202,58.9894978 C91.3143297,58.9789957 92.0890601,58.9789957 92.5081664,58.9789957 C92.9063174,58.9789957 93.3661017,58.9894978 93.449923,58.9894978 L93.6175655,59 L93.6594761,58.7794546 C93.2305085,58.7275616 93.0419106,58.5274027 93.0419106,58.0974318 C93.0419106,57.8033713 93.1158706,57.3313918 93.3137134,56.3231842 L93.449923,55.6201571 C93.7229584,55.6102727 93.8178737,55.5997705 94.1513097,55.5997705 C94.7799692,55.5997705 94.988906,55.6306593 95.1670262,55.7678051 C95.2933744,55.8617068 95.366718,56.0297414 95.366718,56.2082782 C95.366718,56.2509046 95.3562404,56.3132998 95.3457627,56.3868149 L95.6385208,56.3868149 C95.7328197,55.69429 95.8684129,55.0227694 96.0366718,54.3401289 L95.753775,54.3401289 C95.5349769,55.0227694 95.3038521,55.1271732 94.140832,55.1271732 C93.9429892,55.1271732 93.7439137,55.1172889 93.5442219,55.1172889 C93.7334361,54.2252228 93.9016949,53.3961698 94.0884438,52.5356103 C94.3503852,52.5251081 94.6449923,52.5146059 94.8637904,52.5146059 C95.6594761,52.5146059 96.0268105,52.5881211 96.2252696,52.7765422 C96.3510015,52.9019504 96.4243451,53.069985 96.4243451,53.2800282 C96.4243451,53.3325391 96.4144838,53.4165563 96.4027735,53.521578 L96.7060092,53.521578 C96.7898305,53.018092 96.8958398,52.4719795 97,52 L92.3516179,52 L92.3097072,52.2310476 C92.7590139,52.2835584 92.9278891,52.4719795 92.9278891,52.9340747 C92.9278891,53.1966287 92.8637904,53.7001147 92.6961479,54.5297855 L92.5285054,55.3582208 Z" id="Fill-80" fill="#FFFFFF"></path>
                <path d="M99.2970297,58.7132141 C99.5615276,57.3528563 99.741867,56.5197634 100.19802,55.9932198 C100.355021,55.8092902 100.535361,55.6989325 100.7157,55.6989325 C101.014851,55.6989325 101.207921,55.8583381 101.207921,56.0790537 C101.207921,56.237738 101.195191,56.4094057 101.171146,56.5572706 L101.5686,56.5933353 C101.664074,56.1771495 101.808345,55.7725043 102,55.3310733 C101.724187,55.123341 101.436351,55 101.207921,55 C100.871287,55 100.391089,55.2575014 99.8500707,55.7111945 C99.8380481,55.5020196 99.8140028,55.3310733 99.7779349,55.1846509 C99.7538897,55.0620312 99.6824611,55.0129833 99.5615276,55.0129833 C99.2609618,55.0129833 98.5891089,55.2091748 98,55.453693 L98.0360679,55.8215522 L98.3359264,55.7234564 C98.4561528,55.6866705 98.5650636,55.6621466 98.6371994,55.6621466 C98.7821782,55.6621466 98.8528996,55.7970283 98.8528996,56.1035776 C98.8528996,56.3603578 98.7694484,56.8385747 98.5891089,57.6110791 L98.3239038,58.75 C98.2277228,59.1661858 98.1442716,59.534045 98.0240453,60 C98.4929279,59.9386901 98.6131542,59.9264282 99.0693069,59.9019042 L99.2970297,58.7132141 Z" id="Fill-82" fill="#FFFFFF"></path>
                <path d="M105.321818,57.9180328 C105.204366,58.3777619 105.110405,58.6200998 104.945972,58.7897363 C104.653033,59.0919458 103.889595,59.4910905 103.455714,59.4910905 C103.162084,59.4910905 102.985906,59.2851033 102.985906,58.9109052 C102.985906,58.2687099 103.303717,57.2879544 103.748653,56.5495367 C104.14868,55.8709907 104.616416,55.507484 105.087605,55.507484 C105.286583,55.507484 105.532541,55.5687812 105.790935,55.6899501 C105.685229,56.4889522 105.509051,57.1789024 105.321818,57.9180328 L105.321818,57.9180328 Z M106.906729,55.2295082 C106.401686,55.0969351 105.920824,55 105.39229,55 C104.195661,55 103.408733,55.6414825 102.774492,56.6585887 C102.305375,57.4098361 102,58.3178902 102,58.9593728 C102,59.6250891 102.411773,60 103.115103,60 C103.736908,60 104.371839,59.7704918 105.240293,59.2615823 C105.345309,59.8545973 105.417162,59.9878831 105.626503,59.9878831 C105.826171,59.9878831 106.401686,59.8061297 107,59.5759088 L106.965455,59.2017106 C106.671134,59.3107627 106.425176,59.3827512 106.330524,59.3827512 C106.189581,59.3827512 106.119801,59.2017106 106.119801,58.8738418 C106.119801,58.3535282 106.425176,56.8161083 106.848003,55.4233785 L106.906729,55.2295082 Z" id="Fill-84" fill="#FFFFFF"></path>
                <path d="M108.152012,58.8189567 C108.050671,59.1776338 108,59.4674395 108,59.6645073 C108,59.8847596 108.16468,60 108.42921,60 C108.795827,60 109.481371,59.8383907 110.139344,59.594954 L110.101341,59.2594613 L109.974665,59.2935561 C109.669896,59.3747017 109.481371,59.4210706 109.391952,59.4210706 C109.226528,59.4210706 109.139344,59.3283328 109.139344,59.1660416 C109.139344,59.0739857 109.152012,58.9001023 109.291356,58.2857143 L109.822653,55.9113536 L110.873323,55.9352199 L111,55.3549267 L109.949329,55.3672008 L110.265276,54 L109.657973,54.1152404 C109.417288,54.7875895 109.126677,55.4135697 108.265276,55.5513126 L108.177347,55.9229458 L108.847243,55.9113536 L108.454545,57.6256393 C108.354694,58.0777361 108.265276,58.4139107 108.152012,58.8189567" id="Fill-86" fill="#FFFFFF"></path>
                <path d="M113.556879,55.4844241 C113.873813,55.4844241 114.130675,55.7523578 114.130675,56.0917405 C114.130675,56.8691055 113.309684,57.463561 112.219403,57.463561 L112.10202,57.463561 C112.395477,56.2867962 112.994131,55.4844241 113.556879,55.4844241 M112.348524,57.9122606 C113.849646,57.9122606 115,57.0748785 115,55.9581309 C115,55.351529 114.565683,55 113.82686,55 C112.312619,55 111,56.7347814 111,58.7382109 C111,59.5513004 111.397721,60 112.125496,60 C112.72415,60 113.380114,59.7456416 114.247368,59.187625 L114.119627,58.7746499 C113.427067,59.2233495 112.957535,59.4298371 112.58329,59.4298371 C112.17245,59.4298371 111.961851,59.1018863 111.961851,58.4838525 C111.961851,58.3016576 111.972898,58.1194627 112.008804,57.9008288 C112.160711,57.9122606 112.265665,57.9122606 112.348524,57.9122606" id="Fill-88" fill="#FFFFFF"></path>
                <path d="M119.567262,56.5928437 C119.663426,56.1765979 119.807672,55.7718944 120,55.3303997 C119.723528,55.1226374 119.435743,55 119.208061,55 C118.87078,55 118.390666,55.2568172 117.849744,55.7105757 C117.837723,55.5013707 117.814389,55.3303997 117.779035,55.1839561 C117.754994,55.0613187 117.681457,55.0122637 117.561252,55.0122637 C117.261446,55.0122637 116.588298,55.2084836 116,55.4530371 L116.036062,55.8209494 L116.336574,55.7228394 C116.456779,55.6860482 116.564257,55.6615207 116.63638,55.6615207 C116.780626,55.6615207 116.853456,55.7964219 116.853456,56.1030154 C116.853456,56.3598326 116.768605,56.8381186 116.588298,57.6107344 L116.324554,58.7498197 C116.22839,59.1660655 116.144246,59.5339778 116.024041,60 C116.492841,59.9386813 116.612339,59.9264175 117.069118,59.9018901 L117.297508,58.7130284 C117.561252,57.3524744 117.742973,56.5192613 118.198338,55.9933632 C118.354605,55.8086856 118.534912,55.6983119 118.71522,55.6983119 C119.015733,55.6983119 119.208061,55.8577406 119.208061,56.078488 C119.208061,56.2371952 119.195333,56.4088876 119.171292,56.5567739 L119.567262,56.5928437 Z" id="Fill-90" fill="#FFFFFF"></path>
                <path d="M122.804837,56.6259466 C122.947435,56.4073439 123.233329,56.1530219 123.612191,55.9344192 C123.969383,55.7158165 124.301412,55.595085 124.504124,55.595085 C124.66909,55.595085 124.752272,55.6915274 124.752272,55.8736962 C124.752272,56.0801543 124.66909,56.5895128 124.313295,58.1068724 L124.195163,58.6162309 C124.052565,59.2234605 124.005033,59.4899271 124.005033,59.6356622 C124.005033,59.8542649 124.14763,60 124.385992,60 C124.657207,60 125.370194,59.8056865 126,59.5749393 L125.96505,59.2234605 C125.678457,59.3320474 125.452677,59.3813402 125.346428,59.3813402 C125.180064,59.3813402 125.085698,59.2834691 125.085698,59.1013002 C125.085698,58.9684241 125.121348,58.7498214 125.191947,58.3976282 C125.23948,58.1311616 125.370194,57.536791 125.512093,56.9781397 C125.763036,55.9951422 125.833636,55.595085 125.833636,55.3393342 C125.833636,55.0971567 125.678457,55 125.287012,55 C124.645324,55 123.719139,55.3036148 122.81672,55.8244035 L122.81672,55.7279611 C122.81672,55.1578797 122.733538,55 122.472809,55 C122.188313,55 121.571089,55.1700243 121,55.4007715 L121.024465,55.7408201 C121.30966,55.642949 121.510974,55.595085 121.606039,55.595085 C121.783587,55.595085 121.867468,55.7279611 121.867468,56.0072868 C121.867468,56.225175 121.79547,56.613802 121.617224,57.4389198 C121.440375,58.2761823 121.262128,59.029147 121.024465,59.939277 C121.487208,59.8785541 121.606039,59.8664095 122.068782,59.8299757 C122.163847,59.2591799 122.283378,58.6519503 122.472809,57.7668238 C122.615406,57.1238748 122.697889,56.8081154 122.804837,56.6259466" id="Fill-92" fill="#FFFFFF"></path>
                <path d="M129,52.4317323 C129,52.1656773 128.829708,52 128.559151,52 C128.235013,52 128,52.2293578 128,52.559633 C128,52.8251484 128.180371,53 128.459947,53 C128.775066,53 129,52.7614679 129,52.4317323" id="Fill-94" fill="#FFFFFF"></path>
                <path d="M127.093664,59.0753474 C127.034435,59.3432173 127,59.5380318 127,59.647615 C127,59.866065 127.150826,60 127.385675,60 C127.713499,60 128.380165,59.8173614 129,59.5623836 L128.976584,59.2221745 C128.649449,59.3432173 128.438017,59.3919209 128.333333,59.3919209 C128.157713,59.3919209 128.06405,59.2823378 128.06405,59.0996992 C128.06405,58.9056009 128.134298,58.4923363 128.426997,57.3105572 L128.601928,56.5936112 C128.812672,55.742014 128.871212,55.352385 128.871212,55.2062742 C128.871212,55.0601633 128.800964,55 128.625344,55 C128.309917,55 127.679063,55.1582868 127.034435,55.4132646 L127.068871,55.7534737 L127.150826,55.7298381 C127.397383,55.6567827 127.502755,55.6209712 127.608127,55.6209712 C127.736226,55.6209712 127.807163,55.6925942 127.807163,55.850881 C127.807163,56.0206274 127.736226,56.4596763 127.572314,57.0928234 C127.455923,57.5547916 127.245179,58.4307406 127.093664,59.0753474" id="Fill-96" fill="#FFFFFF"></path>
                <path d="M132.822521,55.9111364 L133.87472,55.935 L134,55.3547727 L132.949292,55.3670455 L133.265474,54 L132.658464,54.1152273 C132.416853,54.7881818 132.12528,55.4134091 131.263982,55.5518182 L131.175242,55.9227273 L131.847129,55.9111364 L131.454139,57.6259091 C131.352722,58.0772727 131.263982,58.4134091 131.150634,58.8184091 C131.049217,59.1770455 131,59.4668182 131,59.6638636 C131,59.8840909 131.163311,60 131.428784,60 C131.797166,60 132.480239,59.8377273 133.138702,59.5943182 L133.099925,59.2588636 L132.974646,59.2929545 C132.671141,59.3747727 132.480239,59.4211364 132.391499,59.4211364 C132.226696,59.4211364 132.138702,59.3277273 132.138702,59.1654545 C132.138702,59.0734091 132.15138,58.8995455 132.290082,58.2852273 L132.822521,55.9111364 Z" id="Fill-98" fill="#FFFFFF"></path>
                <polygon id="Fill-100" fill="#FFFFFF" points="136 53.6828131 136.453333 54 138.753333 52.4363114 139 52.2683889 138.753333 52.2167205 137.726667 52"></polygon>
                <path d="M135.556438,55.4844241 C135.872627,55.4844241 136.131515,55.7523578 136.131515,56.0917405 C136.131515,56.8691055 135.311357,57.463561 134.219192,57.463561 L134.101829,57.463561 C134.395927,56.2867962 134.993096,55.4844241 135.556438,55.4844241 M134.349672,57.9122606 C135.849154,57.9122606 137,57.0748785 137,55.9581309 C137,55.351529 136.565067,55 135.825682,55 C134.313773,55 133,56.7347814 133,58.7382109 C133,59.5513004 133.399033,60 134.125302,60 C134.723852,60 135.381774,59.7456416 136.248878,59.187625 L136.119779,58.7746499 C135.428719,59.2233495 134.957887,59.4298371 134.583707,59.4298371 C134.172247,59.4298371 133.960994,59.1018863 133.960994,58.4838525 C133.960994,58.3016576 133.97273,58.1194627 134.007939,57.9008288 C134.160511,57.9122606 134.266137,57.9122606 134.349672,57.9122606" id="Fill-102" fill="#FFFFFF"></path>
                <path d="M87,56.5003638 C87,55.672326 86.3269464,55 85.4989086,55 C84.6715984,55 84,55.672326 84,56.5003638 C84,57.3284016 84.6715984,58 85.4989086,58 C86.3269464,58 87,57.3284016 87,56.5003638" id="Fill-104" fill="#FFFFFF"></path>
                <path d="M41,56.5003638 C41,55.672326 40.3285645,55 39.5014549,55 C38.6728904,55 38,55.672326 38,56.5003638 C38,57.3284016 38.6728904,58 39.5014549,58 C40.3285645,58 41,57.3284016 41,56.5003638" id="Fill-106" fill="#FFFFFF"></path>
                <path d="M36,34.19 C36.288,34.143 36.575,34.091 36.849,34 C36.576,34 36.285,34.093 36,34.19" id="Fill-108" fill="#FFFFFF"></path>
                <path d="M31.3204947,41.143098 C31.4273054,40.8289989 31.8519274,40.7249456 32.063583,40.4102002 C32.063583,40.3055005 32.063583,40.2008008 31.9580828,40.2008008 C32.8073267,39.0491043 33.9750369,38.4215525 35.0359364,37.4792554 L35.0359364,37.16451 C35.3537476,36.7463576 35.8851803,36.5363119 36.0974912,36.0134598 C36.2029914,35.700007 36.6282686,35.280562 37.1583907,35.0711626 C37.0522352,34.9664629 36.8399243,34.9664629 36.8399243,34.7570636 C36.4153024,34.7570636 35.9906805,34.9664629 35.5667138,34.6523639 C35.7672297,34.4545978 35.9978885,34.3466667 36.241653,34.2775132 C36.1466373,34.2607095 36.0601402,34.219993 35.9906805,34.1288655 C35.8851803,33.9194661 36.1957833,33.6855076 36.5214578,33.6047208 C36.946735,33.5006674 37.4768571,33.5006674 37.7959789,33.1865683 C37.0522352,33.0825149 36.2029914,33.3959677 35.4599031,32.9778152 C35.9906805,31.6160731 36.8399243,30.4650228 38.1144453,29.8368247 C38.2206008,29.8368247 38.4329117,29.8368247 38.4329117,29.9408781 C38.4329117,30.4650228 38.1144453,30.8838216 37.5836679,30.9885213 C38.4329117,31.1972743 39.2815003,31.1972743 40.1307441,31.6160731 C40.0245886,31.8248261 39.8122777,31.721419 39.7067775,31.721419 C40.2368996,32.0355181 40.8738325,31.8248261 41.4052651,32.2442712 C41.0861434,32.5583702 40.7683323,32.2442712 40.4492105,32.2442712 C43.7393751,33.1865683 47.2425059,33.9194661 50.001893,36.0134598 C47.6677831,37.16451 45.2255518,37.6880084 42.6784756,38.2115068 C42.3600092,38.2115068 42.1470429,38.2115068 41.8292318,38.1068072 C41.8292318,38.2115068 41.8292318,38.4215525 41.7230763,38.4215525 C41.2984544,38.4215525 40.9799879,38.4215525 40.6615215,38.6303056 C40.2368996,38.839705 39.600622,38.9444046 39.2815003,38.6303056 C39.1753448,38.5256059 39.600622,38.6303056 39.7067775,38.4215525 L38.8562231,38.4215525 C38.7513782,38.4215525 38.7513782,38.3162065 38.7513782,38.2115068 C38.2206008,38.3162065 37.5836679,38.5256059 37.0522352,38.6303056 C36.3098022,38.839705 35.6728693,39.3632034 34.8236255,39.5726027 C33.6565705,39.9914015 32.7011712,40.9336986 31.4273054,41.3531437 C31.3204947,41.3531437 31.3204947,41.2477977 31.3204947,41.143098 M34.0805371,31.0932209 C33.9750369,31.3026203 33.8564311,31.3245943 33.7620707,31.5120197 C33.6565705,31.721419 33.550415,31.8248261 33.3374488,31.9308184 C33.2319486,31.9308184 33.1257931,31.9308184 33.1257931,31.8248261 C33.2319486,31.4066737 33.550415,30.9885213 33.9750369,30.8838216 C34.0805371,30.8838216 34.0805371,30.9885213 34.0805371,31.0932209 M25.270943,38.0021075 C25.270943,38.0021075 25.1634769,37.8980541 25.1634769,37.7933544 C26.5441534,36.0134598 27.6057082,34.3382648 28.5611075,32.4536705 C29.941784,31.721419 31.0865595,30.6543871 32.1703938,29.5227257 C33.9750369,27.6381314 35.8851803,25.9629364 38.1144453,24.9165859 C38.9636891,24.6018405 40.0245886,24.7065402 40.8738325,25.0206393 C40.5547107,25.439438 40.0245886,25.3347383 39.600622,25.6488374 C39.4938112,25.6488374 39.3876558,25.6488374 39.2815003,25.544784 C39.3876558,25.439438 39.3876558,25.3347383 39.3876558,25.2306849 C38.326101,26.3823815 36.8399243,26.9058799 35.9906805,28.2663295 C35.3537476,29.3133263 34.9297809,30.6737759 33.550415,30.9885213 C33.1257931,31.0932209 33.6565705,30.6737759 33.442949,30.7784756 C30.1527844,32.7671233 27.8180192,35.1765086 25.270943,38.0021075 M41.5107653,40.3055005 C41.2984544,40.3055005 40.8738325,40.4102002 40.9799879,40.2008008 C41.0861434,39.6779487 41.8292318,39.6779487 42.254509,39.4679031 C42.4661646,39.3632034 42.7846311,39.153804 42.9962867,39.2585037 C43.209253,39.5726027 43.5277194,39.4679031 43.7393751,39.6779487 C43.1037528,40.3055005 42.254509,39.9914015 41.5107653,40.3055005 M37.1583907,44.0746891 C37.6898234,43.8646435 38.326101,44.1787425 38.8562231,44.0746891 C39.1753448,44.0746891 39.4938112,44.0746891 39.8122777,44.2834422 C38.8077323,44.8243906 37.8831312,45.4383702 36.967704,46 L42.5638015,46 C43.1686256,45.7162768 43.7727944,45.314928 44.376308,45.01634 C43.6338749,45.2257394 42.9962867,45.5398384 42.3600092,45.9592835 C42.254509,45.9592835 41.9353872,46.0639831 41.9353872,45.8545838 C42.0415427,45.6445381 42.3600092,45.5398384 42.5716648,45.3304391 C42.6784756,45.3304391 42.7846311,45.3304391 42.7846311,45.435785 C46.1809511,42.8182929 50.8517921,43.4458447 54.7788896,42.0847489 C55.0980113,41.8759958 55.4158224,41.6665964 55.7342889,41.457197 C56.264411,41.2477977 56.6890329,40.7249456 57.326621,40.4102002 C58.1752096,39.7820021 58.8121425,39.0491043 59.1306089,38.0021075 C59.1306089,37.8980541 59.0244534,37.7933544 59.0244534,37.7933544 C57.6450875,39.2585037 56.0527553,40.4102002 54.3542676,41.2477977 C52.1250026,42.3994942 49.6840819,42.1900948 47.3486614,42.5041939 C47.4548168,42.2954408 47.6677831,42.2954408 47.8794387,42.2954408 C47.8794387,41.9806955 48.0917497,41.8759958 48.3040607,41.6665964 L48.6225271,41.6665964 C48.7286826,41.6665964 48.7286826,41.457197 48.8348381,41.457197 C49.047149,41.457197 49.3656154,41.3531437 49.2588047,41.3531437 C48.9409935,40.9336986 48.3040607,41.6665964 47.7732833,41.3531437 C47.9855942,41.143098 47.8794387,40.8289989 48.0917497,40.7249456 L48.5157163,40.7249456 C48.5157163,40.5148999 48.7286826,40.3055005 48.7286826,40.3055005 C50.3210147,39.3632034 51.8071914,38.6303056 53.2920576,37.7933544 C52.9735911,37.7933544 52.7625908,38.1068072 52.443469,37.8980541 C52.6564353,37.8980541 52.443469,37.5833087 52.6564353,37.5833087 C53.8234903,37.2692097 54.7788896,36.6416579 55.9465998,36.2228591 C55.5226332,36.2228591 55.2028562,36.5363119 54.7788896,36.2228591 C54.9912005,36.1181595 55.0980113,35.9081138 55.4158224,35.9081138 L55.4158224,35.594661 C55.4158224,35.4899614 55.5226332,35.4899614 55.6274781,35.4899614 C55.5226332,35.4899614 55.4158224,35.3846154 55.4158224,35.3846154 C55.5226332,35.1765086 55.8404443,35.280562 56.0527553,35.0711626 C55.9465998,35.0711626 55.7342889,35.0711626 55.7342889,34.9664629 C56.0527553,34.5476642 56.5835327,34.4423182 57.1136548,34.3382648 C57.0081546,34.1288655 56.6890329,34.3382648 56.6890329,34.1288655 C56.6890329,34.0241658 56.7958436,34.0241658 56.9019991,34.0241658 L56.6890329,34.0241658 C56.4773772,33.9194661 56.5835327,33.710713 56.5835327,33.6047208 C57.2204656,32.8731156 57.2204656,31.9308184 57.538932,31.0932209 C57.4321212,31.0932209 57.326621,31.0932209 57.326621,30.9885213 C56.264411,32.1395715 54.5665786,32.5583702 52.9735911,32.9778152 L52.443469,32.9778152 C51.9126916,33.1865683 51.1696033,33.1865683 50.6394812,32.8731156 C50.214204,32.6630699 50.001893,32.3489708 49.5772711,32.0355181 C48.7286826,31.5120197 47.8794387,31.0932209 46.9240394,30.7784756 C44.2701525,29.9408781 41.5107653,29.5227257 38.7513782,29.6267791 C39.9184332,28.9998736 41.2060598,28.9449385 42.4661646,28.5804285 C44.2701525,28.0569301 45.9686401,27.428732 47.8794387,27.5334317 C47.5609723,27.428732 47.1363504,27.5334317 46.817884,27.5334317 C45.3323625,27.428732 43.8455306,27.8468844 42.254509,28.1616298 C41.1922989,28.3710292 40.2368996,28.7891816 39.1753448,28.9998736 C38.5390672,29.2079803 38.2206008,29.8368247 37.4768571,29.7314787 L37.4768571,29.418026 C38.5390672,28.1616298 39.8122777,26.9058799 41.5107653,26.8005339 C43.4209087,26.4864348 45.2255518,26.8005339 47.1363504,27.0099333 C48.5157163,27.1139867 49.7902374,27.428732 51.1696033,27.7421848 C51.701036,27.7421848 51.8071914,28.5804285 52.2311581,28.6844819 C52.8680909,28.8945276 53.5050238,28.6844819 54.1413014,29.1039269 C54.1413014,28.8945276 54.0358012,28.6844819 54.1413014,28.4757288 C54.5665786,28.0569301 55.0980113,28.5804285 55.5226332,28.3710292 C56.3712217,27.8468844 54.7788896,26.9058799 54.3542676,26.1723358 C54.3542676,26.0676361 54.4604231,25.9629364 54.4604231,25.9629364 C55.3090117,26.6958342 55.9465998,27.5334317 57.0081546,28.0569301 C57.538932,28.2663295 58.8121425,28.5804285 58.5998315,27.9528767 C58.0697094,26.8005339 57.0081546,25.858883 56.1582555,24.8112399 L56.1582555,24.3924412 C55.9465998,24.3924412 55.9465998,24.2877415 55.8404443,24.1830418 L55.8404443,23.7642431 C55.4158224,23.55549 55.5226332,23.1366913 55.3090117,22.8225922 C54.9912005,22.2990938 55.2028562,21.5655497 54.9912005,20.9373516 C54.7788896,20.3097998 54.6727341,19.7863014 54.5665786,19.1581033 C54.2481122,17.3782086 53.8234903,15.8077134 53.6118346,14.1331647 C53.3988683,12.1438707 54.7788896,10.5740218 55.7342889,8.79412715 C56.4773772,7.53773094 57.326621,6.28198103 58.705987,5.44373727 C59.0244534,4.18734106 59.8736972,3.14099052 60.7229411,2.09399368 C61.5708743,1.07155602 62.8355661,0.544826133 64,0 L1,0 L1,46 L32.7562148,46 C33.6893345,44.6201616 35.6591084,44.7642852 37.1583907,44.0746891" id="Fill-110" fill="#FFFFFF"></path>
                <path d="M59.2264899,41.7743543 C59.0218527,41.8911759 58.8191044,41.6582494 58.716471,41.6582494 C57.187044,42.238774 56.0650024,43.7488546 54.5349457,44.4447674 L54.5349457,44.2125576 C53.9235527,44.4447674 53.3285307,44.8661853 52.6988777,45.025292 C51.7808437,45.2567852 50.9648135,45.141397 50.1487833,45.141397 C48.7660654,45.2990703 47.3827179,45.668886 46,46 L58.2253417,46 C59.6357643,44.183173 60.9964443,42.4717005 62.7959924,40.9623365 C62.8986259,40.8462316 62.8986259,40.6133051 63,40.4972002 C62.4906108,40.72941 62.1839698,41.1938297 61.6745805,41.4260395 C61.5725768,41.4260395 61.470573,41.3106513 61.5725768,41.1938297 C61.9358865,40.8842166 62.2998259,40.5738867 62.6631357,40.2635569 C62.6404682,40.2649903 62.6165414,40.265707 62.5926145,40.265707 C62.4906108,40.265707 62.4906108,40.1496021 62.4906108,40.0327805 C61.1651913,39.8005706 60.1445239,40.8462316 59.2264899,41.7743543" id="Fill-112" fill="#FFFFFF"></path>
                <path d="M64.212,40 C64.141,40.053 64.071,40.106 64,40.159 C64.117,40.152 64.212,40.123 64.212,40" id="Fill-114" fill="#FFFFFF"></path>
                <path d="M138,0 L88.4549487,0 C89.2310332,0.401995083 89.9882365,0.902226906 90.4745914,1.67519494 C90.6861916,1.98929399 91.0019643,2.6174921 90.7910151,3.03629083 C90.580066,3.55978925 90.4745914,4.39738672 89.9472186,4.60678609 C89.3150222,4.92088514 88.4712257,4.92088514 87.7335548,4.81618546 C87.3110054,4.81618546 86.8891071,4.71148577 86.4678599,4.60678609 C88.0486763,5.23498419 89.5253203,5.96788198 90.580066,7.43238497 C90.6861916,7.64243063 91.1067878,7.74713031 91.5293371,7.74713031 C91.6348117,7.74713031 91.6348117,7.95652968 91.6348117,8.06122936 C91.4238625,8.27062873 91.2129134,8.37597471 91.3190391,8.68942747 L91.6348117,8.68942747 C92.1628356,8.4800281 92.05671,7.43238497 92.7950319,7.74713031 C93.3217537,8.06122936 93.5327029,8.79412715 93.2175813,9.31762557 C92.7950319,9.73642431 92.3731337,10.0505234 91.9499332,10.3646224 C91.8457608,10.5740218 91.8457608,10.8881208 91.9499332,11.0968739 C92.2676591,11.5156726 92.3731337,11.9344714 92.4786082,12.3539164 C92.7950319,13.0861679 92.8998554,13.9231191 93.2175813,14.6566632 C93.6381774,16.2265121 94.0607268,17.7983 93.9552522,19.3675026 C93.9552522,20.2057464 93.5327029,20.9373516 93.8497776,21.7755954 C94.0607268,22.6131928 94.5874485,23.2413909 95.0099979,23.9742887 C95.4312451,24.6018405 95.8537945,25.0206393 96.168916,25.6488374 C96.8024145,26.6958342 97.9632858,27.7421848 97.4346108,28.9998736 C97.1188382,29.7314787 95.9586179,29.6267791 95.220947,30.0462241 C94.5874485,30.5697225 95.1148214,31.4066737 95.4312451,31.9308184 C95.9586179,32.8731156 94.7983977,33.5006674 94.0607268,33.8147664 C94.2710248,34.1288655 94.6935742,34.0241658 94.7983977,34.2335652 C94.9045233,34.7570636 95.4312451,35.0711626 95.1148214,35.594661 C94.6935742,36.2228591 93.4272283,36.5363119 94.0607268,37.4792554 C94.4813229,38.2121531 94.2098235,39.0258377 93.9552522,39.7820021 C93.6381774,40.7249456 92.7950319,41.143098 92.05671,41.3531437 C91.4238625,41.5618967 90.6861916,41.5618967 90.0526931,41.457197 C89.8423951,41.3531437 89.6301438,41.2477977 89.4191947,41.2477977 C87.626778,41.0383983 85.8343614,40.5148999 84.0412938,40.5148999 C83.5132698,40.6195996 82.985897,40.7249456 82.5653009,40.9336986 C80.7819994,42.2127151 79.6562862,44.0468985 79,46 L138,46 L138,0 Z" id="Fill-116" fill="#FFFFFF"></path>
                <path d="M92.9591232,18.6128782 C92.8668784,18.2990371 92.1340138,18.2990371 91.6750538,18.0898097 C91.2177915,17.8799365 90.6671527,18.0898097 90.1165139,18.1944234 C89.6586857,18.1944234 89.2002916,18.5082645 88.7418975,18.6128782 C88.0995799,18.8221056 87.5506388,19.2399147 87,19.6590153 C87.6417517,19.3451742 88.2840694,19.2399147 89.0174999,19.0313331 C89.5675728,19.0313331 90.0338898,18.8769955 90.5754739,19.0313331 C90.9416232,19.135301 91.4922621,19.135301 91.4922621,19.3451742 C91.3089044,20.1820839 90.2087586,20.3906655 89.6586857,21.2275752 L89.3830833,21.2275752 C89.1086128,21.4368026 89.2002916,21.960517 88.9252552,21.960517 C88.6513506,21.8552575 88.3751823,21.960517 88.0995799,22.0651307 C88.4668611,22.4829398 88.9252552,22.7967809 89.4753281,22.6921672 C89.5675728,22.6921672 89.7509304,22.9013946 89.7509304,23.110622 C89.7509304,23.110622 89.8420433,23.110622 89.9337222,23.0066541 C90.025401,23.0066541 90.1165139,23.0066541 90.1165139,23.110622 L90.1165139,23.5290769 C89.8420433,23.9475317 89.3830833,23.7383043 89.0174999,23.8435638 C89.7509304,24.0521454 90.484361,24.0521454 91.1255468,23.8435638 C91.6750538,23.6330448 91.1255468,22.5875535 91.4922621,22.0651307 C91.3089044,22.0651307 91.4922621,21.7512895 91.3089044,21.7512895 C91.4922621,21.5420621 91.6750538,21.2275752 91.8589773,21.1236073 C92.042335,21.1236073 92.3162396,21.0183478 92.4084843,20.8091204 C92.4084843,20.6005387 92.042335,20.4952792 92.1340138,20.2866976 C92.6840867,19.867597 93.1419149,19.2399147 92.9591232,18.6128782" id="Fill-118" fill="#FFFFFF"></path>
                <path d="M12.2872577,163.489354 C15.0689607,163.486137 16.7848919,165.120421 16.788758,167.567987 C16.7926242,170.450503 14.8395684,171.804257 12.3143208,171.807474 C9.78778444,171.810691 7.8308625,170.431844 7.8276407,167.74364 C7.82377454,165.01104 9.62605002,163.492571 12.2872577,163.489354 L12.2872577,163.489354 Z M17.8989907,116.391732 L18.8668197,116.391732 L21.0634436,122.29317 L21.0821301,122.29317 L23.2413811,116.391732 L24.2001891,116.391732 L24.2001891,123.083289 L23.5674274,123.083289 L23.5674274,117.116222 L23.5487409,117.116222 L21.352117,123.083289 L20.7567282,123.083289 L18.5504388,117.116222 L18.5317524,117.116222 L18.5317524,123.083289 L17.8989907,123.083289 L17.8989907,116.391732 Z M25.9418947,164.914527 C26.6171842,163.968058 27.5038238,163.471338 28.6617391,163.470051 C30.962105,163.466834 31.6850772,164.757533 31.688299,166.904622 L31.6953869,171.559114 L28.5676625,171.562331 L28.5618633,167.553831 C28.5599302,166.398251 28.3337598,165.932416 27.5070456,165.933702 C26.5901211,165.934989 26.4103446,166.730899 26.4116333,167.676724 L26.4174325,171.564905 L23.2897081,171.568765 L23.2839089,167.560265 C23.2826201,166.404042 23.0564497,165.93885 22.2297356,165.940137 C21.3121666,165.941423 21.1330345,166.736689 21.1343232,167.683159 L21.1394781,171.571982 L18.0123981,171.5752 L18.0014439,163.708116 L20.8733574,163.704899 L20.8746461,164.875278 C21.2651284,164.274325 22.2413341,163.477772 23.3689644,163.476486 C24.7820463,163.474555 25.564944,164.074222 25.9418947,164.914527 L25.9418947,164.914527 Z M25.6802845,123.083289 L26.2389448,123.083289 L26.2389448,118.268585 L25.6802845,118.268585 L25.6802845,123.083289 Z M25.652577,117.218525 L26.2666522,117.218525 L26.2666522,116.391732 L25.652577,116.391732 L25.652577,117.218525 Z M27.6629808,118.268585 L28.2216411,118.268585 L28.2216411,118.938384 C28.6681827,118.464184 29.1057033,118.138614 29.7758379,118.138614 C30.3622057,118.138614 30.9021795,118.324563 31.2462679,118.827073 C31.4788819,119.170658 31.4885473,119.532903 31.4885473,119.932466 L31.4885473,123.083289 L30.929887,123.083289 L30.929887,119.942118 C30.929887,119.077363 30.5761333,118.640481 29.6824057,118.640481 C28.9935846,118.640481 28.5186911,119.087014 28.3421365,119.579229 C28.2306621,119.88614 28.2216411,120.155733 28.2216411,120.490311 L28.2216411,123.083289 L27.6629808,123.083289 L27.6629808,118.268585 Z M32.8938969,117.218525 L33.5086166,117.218525 L33.5086166,116.391732 L32.8938969,116.391732 L32.8938969,117.218525 Z M34.77414,119.514244 C34.77414,118.715118 35.3978807,118.138614 36.468163,118.138614 C37.5107378,118.138614 38.1898934,118.566488 38.3297196,119.653866 L37.7620382,119.653866 C37.659585,118.910074 37.156984,118.640481 36.4584976,118.640481 C35.7516344,118.640481 35.3695288,118.975059 35.3695288,119.467918 C35.3695288,120.778562 38.4598803,119.960777 38.4598803,121.809963 C38.4598803,122.730052 37.6318775,123.21326 36.4958705,123.21326 C35.3605078,123.21326 34.7084153,122.48877 34.6620213,121.577689 L35.2297027,121.577689 C35.4069017,122.405125 35.8347569,122.712036 36.6730695,122.712036 C37.4823859,122.712036 37.8638472,122.284163 37.8638472,121.819614 C37.8638472,120.425325 34.77414,121.4104 34.77414,119.514244 L34.77414,119.514244 Z M39.0739556,118.268585 L39.7537556,118.268585 L39.7537556,116.930274 L40.3124159,116.930274 L40.3124159,118.268585 L41.2151646,118.268585 L41.2151646,118.733777 L40.3124159,118.733777 L40.3124159,122.033229 C40.3124159,122.507429 40.330458,122.712036 40.7963304,122.712036 C40.9451776,122.712036 41.1036903,122.683726 41.2525375,122.647051 L41.2525375,123.101948 C41.1223767,123.129615 40.8800973,123.21326 40.6101103,123.21326 C40.0611154,123.21326 39.7537556,122.971977 39.7537556,122.256496 L39.7537556,118.733777 L39.0739556,118.733777 L39.0739556,118.268585 Z M32.9216044,123.083289 L33.4802647,123.083289 L33.4802647,118.268585 L32.9216044,118.268585 L32.9216044,123.083289 Z M43.6978844,163.452036 C45.9982504,163.449462 46.7218669,164.739517 46.7244443,166.886606 L46.7315323,171.541098 L43.6038078,171.544959 L43.5980086,167.535816 C43.5960755,166.379592 43.3705494,165.915043 42.5431909,165.915687 C41.6262664,165.916974 41.4464899,166.712883 41.4477786,167.658709 L41.4535778,171.546889 L38.3258534,171.55075 L38.3200542,167.54225 C38.3187655,166.386026 38.092595,165.920834 37.2658809,165.922121 C36.348312,165.922764 36.1691798,166.719317 36.1704685,167.665143 L36.1756234,171.553323 L33.0485434,171.557184 L33.0375892,163.690101 L35.9095027,163.68624 L35.9107914,164.857906 C36.3012737,164.256309 37.2774794,163.459757 38.4051097,163.45847 C39.8181917,163.45654 40.6010893,164.056206 40.97804,164.896511 C41.6533295,163.950042 42.5399691,163.453322 43.6978844,163.452036 L43.6978844,163.452036 Z M44.1096306,118.138614 C45.4318577,118.138614 46.2411741,119.077363 46.2321531,120.806229 L42.4903534,120.806229 C42.480688,121.847281 43.0393483,122.712036 44.1096306,122.712036 C44.8358245,122.712036 45.4041502,122.31183 45.5710395,121.605356 L46.1947802,121.605356 C45.9157722,122.516437 45.3384255,123.21326 44.1096306,123.21326 C42.5644548,123.21326 41.8943202,122.116874 41.8943202,120.694918 C41.8943202,119.291621 42.7326328,118.138614 44.1096306,118.138614 L44.1096306,118.138614 Z M43.663089,116.456717 L44.6959984,117.748703 L44.2217493,117.748703 L42.936895,116.456717 L43.663089,116.456717 Z M47.3494737,118.268585 L47.9074896,118.268585 L47.9074896,119.170658 L47.9261761,119.170658 C48.2335359,118.399199 48.6897429,118.138614 49.4990593,118.138614 L49.4990593,118.742785 C48.2425569,118.715118 47.9074896,119.644858 47.9074896,120.722585 L47.9074896,123.083289 L47.3494737,123.083289 L47.3494737,118.268585 Z M52.3845043,118.138614 C53.7060871,118.138614 54.5160479,119.077363 54.5070268,120.806229 L50.7652271,120.806229 C50.7555617,121.847281 51.314222,122.712036 52.3845043,122.712036 C53.1106983,122.712036 53.6783796,122.31183 53.8459133,121.605356 L54.4696539,121.605356 C54.190646,122.516437 53.6132992,123.21326 52.3845043,123.21326 C50.8399729,123.21326 50.1698383,122.116874 50.1698383,120.694918 C50.1698383,119.291621 51.0068622,118.138614 52.3845043,118.138614 L52.3845043,118.138614 Z M56.7004289,171.528873 L53.7982306,171.532734 L53.7962975,170.37651 C53.0159773,171.458097 52.249833,171.759861 50.9566021,171.761148 C49.242604,171.763078 48.1285052,170.713662 48.1252834,168.461695 L48.1181954,163.672085 L51.2459198,163.668224 L51.2523634,167.91672 C51.2536522,168.998307 51.6299585,169.343179 52.3819269,169.341892 C53.2840312,169.341249 53.5688384,168.665016 53.5669053,167.448954 L53.5617504,163.665007 L56.6894748,163.66179 L56.7004289,171.528873 Z M61.0041107,163.656643 L61.0060438,164.887503 C61.7116182,163.941034 62.4777625,163.429516 63.6653184,163.428229 C65.7408026,163.425655 66.7195857,164.64043 66.7221632,166.802318 L66.7292511,171.517292 L63.6015267,171.521152 L63.5957275,167.362092 C63.5944387,166.580982 63.3830886,165.890593 62.4958046,165.89188 C61.5337748,165.892524 61.2792525,166.508919 61.2805413,167.514583 L61.2856961,171.523726 L58.1586161,171.526943 L58.147662,163.65986 L61.0041107,163.656643 Z M71.5104038,160.415742 L71.5129813,162.638111 L68.3859012,162.641328 L68.3826794,160.419602 L71.5104038,160.415742 Z M71.5258685,171.510858 L68.3981441,171.514718 L68.3871899,163.647635 L71.5149144,163.643774 L71.5258685,171.510858 Z M77.4385177,163.4115 C79.5429981,163.408927 81.5295606,164.307783 81.7583085,166.634386 L78.5854788,166.638246 C78.5700142,166.29273 78.4495188,166.023138 78.2536333,165.827538 C78.0577478,165.617784 77.7871166,165.512906 77.4410951,165.51355 C76.2683596,165.514837 76.0750515,166.731542 76.0763402,167.661926 C76.0776289,168.84839 76.5299698,169.628857 77.4475387,169.627571 C78.2587882,169.626284 78.5738804,169.07037 78.6634464,168.454618 L81.8208114,168.451401 C81.5540463,170.838485 79.6299867,171.726403 77.4501162,171.72962 C74.9087595,171.732194 72.9518376,170.308308 72.9486158,167.650988 C72.9447496,164.963427 74.8372356,163.414717 77.4385177,163.4115 L77.4385177,163.4115 Z M88.0627287,141.750802 C91.370874,141.753376 93.218899,143.39152 93.5017732,146.16916 L90.1337024,146.166586 C90.029316,145.040603 89.3230973,144.393967 88.2109315,144.393324 C86.9628058,144.392037 86.2095488,145.457539 86.2076157,147.54479 C86.206327,149.061328 86.535595,150.487788 88.3398036,150.489075 C89.4828986,150.489718 90.0248055,149.695096 90.1607655,148.658548 L93.5739415,148.661765 C93.2556276,151.454203 91.2542448,153.13417 88.3971516,153.131596 C84.8183751,153.129022 82.6559022,150.934964 82.659124,147.421897 C82.6629902,143.923628 85.0406794,141.748228 88.0627287,141.750802 L88.0627287,141.750802 Z M96.9671423,161.165968 L96.9703641,163.61289 L98.4736565,163.611604 L98.4762339,165.413177 L96.9729416,165.415107 L96.9768077,168.267383 C96.9780965,168.988012 97.0837715,169.243449 97.9555909,169.242163 L98.4517482,169.242163 L98.45497,171.47933 C94.3503956,171.709031 93.8542382,171.42464 93.850372,168.706838 L93.8452172,165.418967 L92.7330514,165.420254 L92.730474,163.618681 L93.8877449,163.616751 L93.8845231,161.169829 L96.9671423,161.165968 Z M94.7511876,144.983982 L97.8782677,144.986556 L97.8737571,149.235695 C97.8731128,150.316638 98.2487748,150.662154 99.0000988,150.662798 C99.9028474,150.663441 100.188943,149.988495 100.190232,148.772433 L100.194098,144.988486 L103.321178,144.99106 L103.313446,152.858143 L100.411248,152.856213 L100.412536,151.699989 C99.6296387,152.780289 98.8622057,153.080123 97.5696191,153.078836 C95.8549766,153.077549 94.7434553,152.025559 94.7460327,149.773593 L94.7511876,144.983982 Z M109.194522,163.373539 C111.97558,163.370321 113.692156,165.004606 113.695378,167.452171 C113.699888,170.334688 111.746832,171.688441 109.22094,171.691658 C106.695048,171.694232 104.738126,170.315385 104.73426,167.627824 C104.730394,164.895224 106.53267,163.376756 109.194522,163.373539 L109.194522,163.373539 Z M104.993293,142.049349 L108.121017,142.051922 L108.110063,152.862004 L104.982339,152.860073 L104.993293,142.049349 Z M109.275711,144.995564 L110.432982,144.996207 L110.435559,142.549285 L113.518178,142.551859 L113.515601,144.998781 L115.019538,145.000068 L115.017605,146.802284 L113.513668,146.800997 L113.511091,149.653273 C113.510446,150.373903 113.614833,150.62934 114.487296,150.629983 L114.983454,150.630627 L114.981521,152.867794 C110.876302,153.089774 110.380144,152.804096 110.382722,150.086294 L110.386588,146.798424 L109.273778,146.797137 L109.275711,144.995564 Z M116.46226,145.001355 L119.589985,145.003928 L119.586119,149.253067 C119.58483,150.334011 119.960492,150.679527 120.71246,150.68017 C121.61392,150.680813 121.90066,150.005867 121.901949,148.789162 L121.905815,145.005858 L125.032895,145.008432 L125.025163,152.875515 L122.123609,152.873585 L122.124253,151.717361 C121.341356,152.797662 120.574567,153.097495 119.281336,153.096208 C117.567338,153.094921 116.455817,152.042931 116.45775,149.790965 L116.46226,145.001355 Z M126.551652,145.009076 L129.393281,145.011649 L129.391992,146.602824 L129.422277,146.602824 C129.859153,145.372607 130.626586,144.787739 131.844427,144.788383 C131.979743,144.788383 132.115058,144.818624 132.250374,144.833422 L132.247152,147.956578 C132.037091,147.92698 131.811565,147.866499 131.600859,147.865856 C130.323093,147.865212 129.675511,148.464879 129.674222,150.161574 L129.671,152.879376 L126.54392,152.876802 L126.551652,145.009076 Z M120.407033,171.45295 L120.401234,167.29389 C120.40059,166.512779 120.18924,165.823034 119.301956,165.823678 C118.339926,165.824965 118.084759,166.440717 118.086048,167.44638 L118.091847,171.455524 L114.964123,171.459384 L114.953169,163.591658 L117.810262,163.58844 L117.811551,164.819301 C118.517125,163.872832 119.283269,163.361314 120.471469,163.360027 C122.546309,163.357453 123.525092,164.572228 123.528314,166.734759 L123.534758,171.449089 L120.407033,171.45295 Z M100.138683,171.476756 L100.127729,163.609673 L103.255454,163.605813 L103.266408,171.472896 L100.138683,171.476756 Z M100.123219,160.381641 L103.250943,160.37778 L103.25352,162.599506 L100.12644,162.603366 L100.123219,160.381641 Z M88.8018099,171.490912 L88.6503852,170.649963 C87.7643899,171.476756 86.8622856,171.718039 85.6895501,171.719325 C84.201078,171.721256 82.8769178,170.987115 82.8743404,169.350257 C82.8698298,165.777352 88.4802741,167.392333 88.478341,165.920834 C88.4776967,165.350121 87.7856538,165.275485 87.455097,165.276128 C87.0188652,165.276772 86.4324974,165.367494 86.358396,166.043084 L83.3511669,166.046944 C83.3485895,164.380489 84.535501,163.403136 87.6477607,163.399275 C91.3766732,163.394771 91.6041324,164.776192 91.6067098,166.652401 L91.6125091,170.330827 C91.6125091,170.781221 91.6279737,171.006417 92.034565,171.336491 L92.034565,171.486408 L88.8018099,171.490912 Z M1,105 L1,160.514828 C1.02770749,160.513541 1.05477062,160.512255 1.08247811,160.510968 C1.16237877,160.507751 1.24099072,160.50003 1.32153574,160.50003 C4.62968102,160.496169 6.48157224,162.130453 6.77088997,164.907449 L3.40281919,164.911953 C3.2958554,163.78597 2.5883479,163.141264 1.47553783,163.142551 C1.33764475,163.142551 1.20812835,163.160567 1.08247811,163.186947 C1.05477062,163.192738 1.02706313,163.197885 1,163.204319 L1,169.170743 C1.02513005,169.176534 1.0567037,169.176534 1.08247811,169.181681 C1.24743432,169.214496 1.42076721,169.238302 1.61923015,169.237659 C2.76232515,169.236372 3.302299,168.439819 3.43632592,167.403915 L6.84950191,167.400054 C6.53763158,170.193136 4.54075931,171.876963 1.68302181,171.88018 C1.47811527,171.88018 1.27836361,171.871816 1.08247811,171.85766 C1.05541498,171.85573 1.02706313,171.854443 1,171.85187 L1,181 L1.08247811,181 L138,181 L138,153.08334 C137.794449,153.100069 137.588254,153.111007 137.384636,153.111007 C134.8581,153.108433 132.905044,151.665888 132.907621,149.023366 C132.910199,146.440683 134.851656,144.790957 137.377548,144.792887 C137.59212,144.792887 137.798315,144.807685 138,144.828918 L138,105 L1.08247811,105 L1,105 Z" id="Fill-120" fill="#FFFFFF"></path>
                <path d="M43.5442442,119 C42.6034412,119 42.1063089,119.928896 42,121 L45,121 C45,119.896369 44.5028677,119 43.5442442,119" id="Fill-122" fill="#FFFFFF"></path>
                <path d="M137.574426,152 C137.722623,152 137.864262,151.966736 138,151.916008 L138,150.001663 L136,150 C135.999345,151.203326 136.733115,151.999168 137.574426,152" id="Fill-124" fill="#FFFFFF"></path>
                <path d="M52.5442442,119 C51.6034412,119 51.1063089,119.928896 51,121 L54,121 C54,119.896369 53.5028677,119 52.5442442,119" id="Fill-126" fill="#FFFFFF"></path>
                <path d="M136,147.999058 L138,148 L138,147.077213 C137.839239,147.02872 137.66601,147.000471 137.486877,147 C136.537402,146.99953 136.000656,147.38371 136,147.999058" id="Fill-128" fill="#FFFFFF"></path>
                <path d="M109.502856,169 C110.436424,168.998749 111.002137,168.370923 110.999994,166.926422 C110.997851,165.802712 110.429996,164.957273 109.529999,165.001671 C108.346432,165.002922 107.998576,166.068476 108.000004,166.929548 C108.001433,168.374049 108.619288,169.000625 109.502856,169" id="Fill-130" fill="#FFFFFF"></path>
                <path d="M87.0000012,169.319614 C87.0000012,169.721871 87.4744043,170.000663 88.2504792,169.999999 C89.6315194,169.998007 90.084027,169.115167 89.9875245,168 C88.7013649,168.512446 86.9983793,168.26618 87.0000012,169.319614" id="Fill-132" fill="#FFFFFF"></path>
                <path d="M12.502859,169 C13.4364255,168.998749 14.0021368,168.37093 13.9999939,166.926445 C13.9978511,165.802749 13.4299969,164.956693 12.5300017,165.001716 C11.3464365,165.002967 10.997867,166.068509 11.0000098,166.928946 C11.0014384,168.374056 11.6192922,169.000625 12.502859,169" id="Fill-134" fill="#FFFFFF"></path>
            </g>
        </g>
    </g>
</svg>