<?xml version="1.0" encoding="UTF-8" standalone="no"?>
<svg width="51px" height="51px" viewBox="0 0 51 51" version="1.1" xmlns="http://www.w3.org/2000/svg" xmlns:xlink="http://www.w3.org/1999/xlink">
    <!-- Generator: Sketch 47.1 (45422) - http://www.bohemiancoding.com/sketch -->
    <title>LOGO_ESACM TEMPORAIRE violet Copy 4</title>
    <desc>Created with Sketch.</desc>
    <defs>
        <polygon id="path-1" points="0 1.42465753 0 51.6629973 50.6602394 51.6629973 50.6602394 1.42465753"></polygon>
    </defs>
    <g id="Symbols" stroke="none" stroke-width="1" fill="none" fill-rule="evenodd">
        <g id="menu-/-le-Protolab" transform="translate(0.000000, -228.000000)">
            <g id="LOGO_ESACM-TEMPORAIRE-noir" transform="translate(0.000000, 227.000000)">
                <polygon id="Fill-1" fill="#000000" fill-rule="evenodd" points="14.5977085 15.5213589 14.5977085 17.1041534 18.1849479 17.1041534 18.1849479 19.4705096 14.5977085 19.4861808 14.5977085 21.8447014 19.385962 21.8447014 19.385962 24.2032219 12.2114831 24.2188932 12.2114831 13.1550027 19.385962 13.1550027 19.385962 15.5213589"></polygon>
                <path d="M29.5134127,15.5380986 C29.5134127,16.0288932 29.4178775,16.4919068 29.228962,16.9250027 C29.0393282,17.358811 28.7836099,17.7349205 28.4625254,18.0533315 C28.1414408,18.3724548 27.7614549,18.6253315 27.3247225,18.8133863 C26.8872718,19.0014411 26.4210887,19.0954685 25.9261732,19.0954685 C25.4305394,19.0954685 24.9643563,19.0014411 24.5276239,18.8133863 C24.0894549,18.6253315 23.7109056,18.3724548 23.3898211,18.0533315 C23.0680183,17.7349205 22.8130183,17.358811 22.6233845,16.9250027 C22.4337507,16.4919068 22.3389338,16.0288932 22.3389338,15.5380986 L24.7402437,15.5380986 C24.7402437,15.8622082 24.8573282,16.1393041 25.0886239,16.368674 C25.3199197,16.5987562 25.5993423,16.7134411 25.9261732,16.7134411 C26.2630606,16.7134411 26.5475113,16.5987562 26.778807,16.368674 C27.0108211,16.1393041 27.1271873,15.8622082 27.1271873,15.5380986 C27.1271873,15.2040164 27.0108211,14.9219342 26.778807,14.6925644 C26.5475113,14.4617699 26.2630606,14.3470849 25.9261732,14.3470849 C25.3982155,14.3470849 24.9119197,14.2295507 24.4644127,13.9944822 C24.0169056,13.7594137 23.6505676,13.4438521 23.3653986,13.0463726 C22.9545254,12.5135507 22.749807,11.8924 22.749807,11.1814959 C22.749807,10.7434137 22.8338493,10.3324 23.0026521,9.95130411 C23.1707366,9.57020822 23.3977225,9.2354137 23.6821732,8.94834521 C23.9659056,8.66127671 24.300638,8.43404384 24.6856521,8.26664658 C25.0699479,8.09996164 25.4836944,8.01590685 25.9261732,8.01590685 C26.3679338,8.01590685 26.7845535,8.09996164 27.1745958,8.26664658 C27.5639197,8.43404384 27.9015254,8.66127671 28.1859761,8.94834521 C28.4704268,9.2354137 28.6966944,9.57020822 28.8654972,9.95130411 C29.0335817,10.3324 29.1176239,10.7434137 29.1176239,11.1814959 L26.7321169,11.1814959 C26.7321169,10.9620986 26.6531028,10.7768932 26.4950746,10.6258795 C26.3370465,10.4741534 26.1466944,10.3979342 25.9261732,10.3979342 C25.7149901,10.3979342 25.5303845,10.4741534 25.3730746,10.6258795 C25.2150465,10.7768932 25.1360324,10.9620986 25.1360324,11.1814959 C25.1360324,11.4008932 25.2150465,11.5889479 25.3730746,11.7456603 C25.5303845,11.9023726 25.7149901,11.9807288 25.9261732,11.9807288 C26.4318634,11.9807288 26.9052296,12.0747562 27.3484268,12.262811 C27.7909056,12.4508658 28.1752014,12.7122904 28.5020324,13.0463726 C28.8173704,13.3704822 29.0651873,13.7437425 29.2440465,14.1668658 C29.4236239,14.589989 29.5134127,15.0473041 29.5134127,15.5380986" id="Fill-2" fill="#000000" fill-rule="evenodd"></path>
                <path d="M32.4936803,25.4139671 L35.8596803,25.4139671 L34.1845817,21.8879397 L32.4936803,25.4139671 Z M34.1845817,16.3246521 L39.6207507,27.7803233 L28.7326099,27.7803233 L34.1845817,16.3246521 Z" id="Fill-4" fill="#000000" fill-rule="evenodd"></path>
                <path d="M18.5076845,30.480263 C18.0659239,30.480263 17.6521775,30.5636055 17.2671634,30.7310027 C16.8828676,30.8984 16.5481352,31.1249205 16.2644028,31.4127014 C15.9792338,31.7004822 15.7529662,32.0345644 15.5841634,32.4156603 C15.4153606,32.7974685 15.3313183,33.2070575 15.3313183,33.6458521 C15.3313183,34.0846466 15.4153606,34.4977973 15.5841634,34.8838795 C15.7529662,35.270674 15.9792338,35.6047562 16.2644028,35.8868384 C16.5481352,36.1689205 16.8828676,36.3940164 17.2671634,36.5607014 C17.6521775,36.7280986 18.0659239,36.8114411 18.5076845,36.8114411 L19.3143465,36.8114411 L19.3143465,39.1777973 L18.5076845,39.1777973 C17.739093,39.1777973 17.0150366,39.0346192 16.3355155,38.746126 C15.6552761,38.4597699 15.0633887,38.0651397 14.5569803,37.5636603 C14.0520085,37.0621808 13.6533465,36.4745096 13.3645859,35.8006466 C13.0743887,35.1267836 12.9292901,34.4087562 12.9292901,33.6458521 C12.9292901,32.8829479 13.0743887,32.1649205 13.3645859,31.4910575 C13.6533465,30.8171945 14.0520085,30.2295233 14.5569803,29.7280438 C15.0633887,29.2265644 15.6552761,28.8326466 16.3355155,28.5448658 C17.0150366,28.2577973 17.739093,28.1139068 18.5076845,28.1139068 L19.3143465,28.1139068 L19.3143465,30.480263 L18.5076845,30.480263 Z" id="Fill-6" fill="#000000" fill-rule="evenodd"></path>
                <polygon id="Fill-8" fill="#000000" fill-rule="evenodd" points="32.5624225 32.7083562 32.5624225 44.1640274 30.1603944 44.1640274 30.1603944 38.35 27.774169 40.6850137 25.3721408 38.35 25.3721408 44.1640274 22.9859155 44.1640274 22.9859155 32.7083562 23.7918592 33.4762466 26.1773662 35.8112603 27.774169 37.3627123 29.3709718 35.8112603 31.7564789 33.4762466"></polygon>
                <mask id="mask-2" fill="white">
                    <use xlink:href="#path-1"></use>
                </mask>
                <g id="Clip-11"></g>
                <path d="M25.3302634,4.2739726 C12.9473197,4.2739726 2.87302394,14.2643836 2.87302394,26.5435068 C2.87302394,38.8233425 12.9473197,48.8137534 25.3302634,48.8137534 C37.713207,48.8137534 47.7875028,38.8233425 47.7875028,26.5435068 C47.7875028,14.2643836 37.713207,4.2739726 25.3302634,4.2739726 M25.3302634,51.6630685 C11.3634465,51.6630685 -0.000215492958,40.3947397 -0.000215492958,26.5435068 C-0.000215492958,12.6929863 11.3634465,1.42465753 25.3302634,1.42465753 C39.2970803,1.42465753 50.6607423,12.6929863 50.6607423,26.5435068 C50.6607423,40.3947397 39.2970803,51.6630685 25.3302634,51.6630685" id="Fill-10" fill="#000000" fill-rule="evenodd" mask="url(#mask-2)"></path>
            </g>
        </g>
    </g>
</svg>