<?xml version="1.0" encoding="UTF-8"?>
<svg width="162px" height="72px" viewBox="0 0 162 72" version="1.1" xmlns="http://www.w3.org/2000/svg" xmlns:xlink="http://www.w3.org/1999/xlink">
    <!-- Generator: Sketch 46.2 (44496) - http://www.bohemiancoding.com/sketch -->
    <title>logo région noir</title>
    <desc>Created with Sketch.</desc>
    <defs>
        <polygon id="path-1" points="0 72 160.964146 72 160.964146 0.136209677 0 0.136209677"></polygon>
        <path d="M0,25.0964 C0,11.2364 11.285,0.0004 25.205,0.0004 C39.125,0.0004 50.409,11.2364 50.409,25.0964 C50.409,38.9574 39.125,50.1934 25.205,50.1934 C11.285,50.1934 0,38.9574 0,25.0964 Z M21.003,20.2974 L23.405,21.6924 L27.89,14.0264 L37.008,29.5934 L39.416,28.2064 L29.096,10.5764 L26.688,10.5764 L21.003,20.2974 Z M28.719,22.3704 C27.286,24.0664 25.139,25.1444 22.739,25.1444 C20.5,25.1444 18.481,24.2064 17.056,22.7014 L17.025,22.7014 L14.579,22.7014 L14.477,22.8774 L8.056,33.8194 L10.457,35.2184 L15.12,27.2684 L15.109,27.2664 L16.1,25.5724 C17.916,27.0324 20.224,27.9064 22.739,27.9064 C25.956,27.9064 28.835,26.4784 30.777,24.2264 L28.719,22.3704 Z M15.457,35.2184 L40.878,35.2184 L40.878,32.4494 L15.457,32.4494 L15.457,35.2184 Z" id="path-3"></path>
    </defs>
    <g id="tests-couleurs" stroke="none" stroke-width="1" fill="none" fill-rule="evenodd">
        <g id="logo-région-noir">
            <g id="texte">
                <polygon id="Fill-1" fill="#000000" points="1 34 1 50 11 50 11 47.1597351 4.57637666 47.1597351 4.57637666 34"></polygon>
                <path d="M12.6018263,47.1204226 C12.6018263,44.4206 15.0909504,43.4021323 18.6478555,43.4021323 L19.9592277,43.4021323 L19.9592277,42.9370516 C19.9592277,41.5641806 19.5370818,40.8118097 18.0708044,40.8118097 C16.8031839,40.8118097 16.2249504,41.4546806 16.0913299,42.4496 L13.0464394,42.4496 C13.2462788,39.7050355 15.4244102,38.4875839 18.2706438,38.4875839 C21.1156949,38.4875839 23.1389212,39.6391 23.1389212,42.7816323 L23.1389212,50.3300677 L20.004162,50.3300677 L20.004162,48.9360032 C19.3372423,49.8649871 18.3143956,50.5737935 16.4921912,50.5737935 C14.3802788,50.5737935 12.6018263,49.5553258 12.6018263,47.1204226 Z M19.9592277,46.2797452 L19.9592277,45.3048419 L18.7152569,45.3048419 C16.8481182,45.3048419 15.7578701,45.7039871 15.7578701,46.9438097 C15.7578701,47.7844871 16.2698847,48.3378742 17.4476365,48.3378742 C18.870162,48.3378742 19.9592277,47.5631323 19.9592277,46.2797452 Z" id="Fill-2" fill="#000000"></path>
                <path d="M30.7187474,34.5036677 L36.4088496,34.5036677 C40.1667766,34.5036677 42.5447474,36.0307806 42.5447474,39.3075387 L42.5447474,39.3958452 C42.5447474,41.7860065 41.1446891,43.0482 39.2775504,43.6015871 L43.478908,50.3293613 L39.654762,50.3293613 L35.8542657,44.2209097 L34.2981197,44.2209097 L34.2981197,50.3293613 L30.7187474,50.3293613 L30.7187474,34.5036677 Z M36.3201635,41.7860065 C38.1210832,41.7860065 39.0327766,41.0336355 39.0327766,39.5065226 L39.0327766,39.4182161 C39.0327766,37.8016194 38.0548642,37.2482323 36.3201635,37.2482323 L34.2981197,37.2482323 L34.2981197,41.7860065 L36.3201635,41.7860065 Z" id="Fill-4" fill="#000000"></path>
                <path d="M44.5880759,44.6856371 L44.5880759,44.5090242 C44.5880759,40.8566694 47.1883533,38.4877016 50.5678861,38.4877016 C53.5690248,38.4877016 56.2367036,40.2361694 56.2367036,44.3759758 L56.2367036,45.2613952 L47.855273,45.2613952 C47.9451416,47.1864758 48.989273,48.29325 50.7452584,48.29325 C52.2351854,48.29325 52.9683241,47.6515565 53.1681635,46.6778306 L56.2142365,46.6778306 C55.8358423,49.1786694 53.8350832,50.5727339 50.6565723,50.5727339 C47.1446015,50.5727339 44.5880759,48.3815565 44.5880759,44.6856371 L44.5880759,44.6856371 Z M53.1019445,43.2915726 C52.9907912,41.5431048 52.101565,40.70125 50.5678861,40.70125 C49.1228934,40.70125 48.144981,41.6537823 47.9002073,43.2915726 L53.1019445,43.2915726 Z M50.4792,33.6626371 L53.8575504,33.6626371 L51.5457985,37.1819435 L49.2115796,37.1819435 L50.4792,33.6626371 Z" id="Fill-6" fill="#000000"></path>
                <path d="M58.1860248,50.5733226 L61.3870029,50.5733226 C61.5868423,51.5917903 62.3211635,52.2558548 63.9659956,52.2558548 C65.9218204,52.2558548 66.8997328,51.2373871 66.8997328,49.4218065 L66.8997328,47.6733387 C66.2552803,48.8024839 64.8765066,49.8209516 63.1654555,49.8209516 C60.3416891,49.8209516 58.0973387,47.7180806 58.0973387,44.2870806 L58.0973387,44.1328387 C58.0973387,40.8125161 60.3204044,38.4882903 63.2103898,38.4882903 C65.0988131,38.4882903 66.2328131,39.3065968 66.8997328,40.4804839 L66.8997328,38.7532097 L70.1007109,38.7532097 L70.1007109,49.4218065 C70.0782438,52.8528065 67.7889591,54.6012742 63.9659956,54.6012742 C60.2092511,54.6012742 58.4970175,52.9634839 58.1860248,50.5733226 M66.988419,44.2435161 L66.988419,44.0880968 C66.988419,42.1182742 65.9442876,40.9231935 64.1883022,40.9231935 C62.3873825,40.9231935 61.3870029,42.2065806 61.3870029,44.1104677 L61.3870029,44.2870806 C61.3870029,46.2133387 62.5210029,47.4084194 64.1209007,47.4084194 C65.8106672,47.4084194 66.988419,46.2133387 66.988419,44.2435161" id="Fill-8" fill="#000000"></path>
                <path d="M73.0219139,35.4332403 C73.0219139,34.4371435 73.822454,33.6847726 74.8453007,33.6847726 C75.8894321,33.6847726 76.6899723,34.4371435 76.6899723,35.4332403 C76.6899723,36.4293371 75.8894321,37.1817081 74.8453007,37.1817081 C73.822454,37.1817081 73.0219139,36.4293371 73.0219139,35.4332403 L73.0219139,35.4332403 Z M73.2666876,50.32995 L76.4676657,50.32995 L76.4676657,38.7535629 L73.2666876,38.7535629 L73.2666876,50.32995 Z" id="Fill-10" fill="#000000"></path>
                <path d="M78.908308,44.6635016 L78.908308,44.4868887 C78.908308,40.8569048 81.5535197,38.4879371 85.0430234,38.4879371 C88.5337095,38.4879371 91.156454,40.8121629 91.156454,44.4197758 L91.156454,44.5975661 C91.156454,48.2487435 88.5112423,50.5729694 85.0217387,50.5729694 C81.5535197,50.5729694 78.908308,48.2711145 78.908308,44.6635016 M87.8892569,44.6187597 L87.8892569,44.4645177 C87.8892569,42.2509694 86.8439431,40.9228403 85.0430234,40.9228403 C83.2657533,40.9228403 82.1979723,42.2062274 82.1979723,44.4197758 L82.1979723,44.5975661 C82.1979723,46.8099371 83.220819,48.1380661 85.0430234,48.1380661 C86.8439431,48.1380661 87.8892569,46.8099371 87.8892569,44.6187597" id="Fill-12" fill="#000000"></path>
                <path d="M93.606438,38.7536806 L96.8298832,38.7536806 L96.8298832,40.5904548 C97.4081168,39.4401161 98.6745547,38.4875839 100.609095,38.4875839 C102.89838,38.4875839 104.520745,39.8604548 104.520745,42.9594226 L104.520745,50.3300677 L101.298482,50.3300677 L101.298482,43.4245032 C101.298482,41.8526484 100.675314,41.1002774 99.2527883,41.1002774 C97.8751971,41.1002774 96.8298832,41.9409548 96.8298832,43.6458581 L96.8298832,50.3300677 L93.606438,50.3300677 L93.606438,38.7536806 Z" id="Fill-14" fill="#000000"></path>
                <path d="M3.8749927,57.7898435 L5.67118248,57.7898435 L9.48232117,69.0035855 L8.12719708,69.0035855 L7.02512409,65.7727468 L2.3779708,65.7727468 L1.29127007,69.0035855 L0,69.0035855 L3.8749927,57.7898435 Z M2.75636496,64.6906984 L6.66328467,64.6906984 L4.70982482,58.9189887 L2.75636496,64.6906984 Z" id="Fill-16" fill="#000000"></path>
                <path d="M10.4825825,65.9926887 L10.4825825,60.8014468 L11.7892248,60.8014468 L11.7892248,65.9302855 C11.7892248,67.3726242 12.4041153,68.0154952 13.6953854,68.0154952 C14.8613124,68.0154952 15.9633854,67.2466403 15.9633854,65.7725113 L15.9633854,60.8014468 L17.2712102,60.8014468 L17.2712102,69.00335 L15.9633854,69.00335 L15.9633854,67.7023016 C15.5861737,68.469979 14.6721153,69.1446403 13.3489182,69.1446403 C11.711181,69.1446403 10.4825825,68.250979 10.4825825,65.9926887" id="Fill-18" fill="#000000"></path>
                <polygon id="Fill-20" fill="#000000" points="18.4951971 60.8012113 19.9129927 60.8012113 22.353635 67.6867597 24.7647153 60.8012113 26.1186569 60.8012113 23.1577226 69.0042919 21.4880584 69.0042919"></polygon>
                <path d="M26.5029635,64.9889387 L26.5029635,64.8629548 C26.5029635,62.3856645 28.0934015,60.6595677 30.3625839,60.6595677 C32.267562,60.6595677 34.0637518,61.8051968 34.0637518,64.7381484 L34.0637518,65.1608419 L27.8580876,65.1608419 C27.9207591,67.028229 28.8182628,68.0631806 30.5044818,68.0631806 C31.7791971,68.0631806 32.5206131,67.5922129 32.6932555,66.6361484 L34.0010803,66.6361484 C33.7172847,68.2821806 32.3467883,69.145229 30.487927,69.145229 C28.1572555,69.145229 26.5029635,67.5145032 26.5029635,64.9889387 L26.5029635,64.9889387 Z M32.7251825,64.1105839 C32.5986569,62.4162774 31.7165255,61.7427935 30.3625839,61.7427935 C29.0228321,61.7427935 28.1253285,62.6517613 27.9053869,64.1105839 L32.7251825,64.1105839 Z" id="Fill-22" fill="#000000"></path>
                <path d="M35.6781942,60.8012113 L36.986019,60.8012113 L36.986019,62.2753403 C37.5051285,61.3498887 38.2146175,60.7070177 39.6950847,60.659921 L39.6950847,61.8832597 C38.0407927,61.9621468 36.986019,62.4790339 36.986019,64.5030177 L36.986019,69.0042919 L35.6781942,69.0042919 L35.6781942,60.8012113 Z" id="Fill-24" fill="#000000"></path>
                <path d="M40.4334263,69.4744355 L41.7719956,69.4744355 C41.9611927,70.4151935 42.7487255,70.9014677 44.1511489,70.9014677 C45.7723314,70.9014677 46.7963606,70.1337903 46.7963606,68.3770806 L46.7963606,67.1843548 C46.3245504,67.985 45.2059226,68.737371 44.0092511,68.737371 C41.8512219,68.737371 40.2596015,67.1066452 40.2596015,64.8483548 L40.2596015,64.7376774 C40.2596015,62.5111774 41.8346672,60.6602742 44.1038496,60.6602742 C45.4731635,60.6602742 46.3245504,61.3184516 46.7963606,62.1190968 L46.7963606,60.8015645 L48.1041854,60.8015645 L48.1041854,68.4547903 C48.0888131,70.8390645 46.4664482,72 44.1665212,72 C41.7246964,72 40.6533679,70.854371 40.4334263,69.4744355 M46.8436599,64.7529839 L46.8436599,64.6434839 C46.8436599,62.8090645 45.8361854,61.7423226 44.2291927,61.7423226 C42.5914555,61.7423226 41.6147255,62.9503548 41.6147255,64.6752742 L41.6147255,64.8012581 C41.6147255,66.5885806 42.7640978,67.6553226 44.1511489,67.6553226 C45.6789153,67.6553226 46.8436599,66.5885806 46.8436599,64.7529839" id="Fill-26" fill="#000000"></path>
                <path d="M50.2036818,60.8012113 L51.5115066,60.8012113 L51.5115066,62.1022597 C51.8899007,61.3345823 52.8027766,60.659921 54.1579007,60.659921 C55.8583095,60.659921 57.0561635,61.5853726 57.0561635,63.9696468 L57.0561635,69.0042919 L55.7483387,69.0042919 L55.7483387,63.8754532 C55.7483387,62.4319371 55.1334482,61.7890661 53.8114336,61.7890661 C52.5982073,61.7890661 51.5115066,62.557921 51.5115066,64.03205 L51.5115066,69.0042919 L50.2036818,69.0042919 L50.2036818,60.8012113 Z" id="Fill-28" fill="#000000"></path>
                <path d="M58.5927985,64.9889387 L58.5927985,64.8629548 C58.5927985,62.3856645 60.1832365,60.6595677 62.452419,60.6595677 C64.3573971,60.6595677 66.1535869,61.8051968 66.1535869,64.7381484 L66.1535869,65.1608419 L59.9479226,65.1608419 C60.0105942,67.028229 60.9080978,68.0631806 62.5943168,68.0631806 C63.8690321,68.0631806 64.6092657,67.5922129 64.7830905,66.6361484 L66.0909153,66.6361484 C65.8071197,68.2821806 64.4366234,69.145229 62.577762,69.145229 C60.2470905,69.145229 58.5927985,67.5145032 58.5927985,64.9889387 L58.5927985,64.9889387 Z M64.8150175,64.1105839 C64.688492,62.4162774 63.8063606,61.7427935 62.452419,61.7427935 C61.1126672,61.7427935 60.2151635,62.6517613 59.9952219,64.1105839 L64.8150175,64.1105839 Z" id="Fill-30" fill="#000000"></path>
                <mask id="mask-2" fill="white">
                    <use xlink:href="#path-1"></use>
                </mask>
                <g id="Clip-33"></g>
                <polygon id="Fill-32" fill="#000000" mask="url(#mask-2)" points="67.7242774 65.3028387 71.0955328 65.3028387 71.0955328 64.0795 67.7242774 64.0795"></polygon>
                <path d="M73.335981,57.7898435 L76.7226088,57.7898435 C78.880638,57.7898435 80.660273,58.6681984 80.660273,60.9111823 L80.660273,60.9735855 C80.660273,62.8244887 79.4163022,63.7346339 77.871981,64.032521 L81.3224628,69.0035855 L79.7935139,69.0035855 L76.4388131,64.1267145 L74.7064774,64.1267145 L74.7064774,69.0035855 L73.335981,69.0035855 L73.335981,57.7898435 Z M76.8172073,63.0434887 C78.4230175,63.0434887 79.2897766,62.353521 79.2897766,60.9735855 L79.2897766,60.9111823 C79.2897766,59.3899565 78.3449737,58.8871984 76.8172073,58.8871984 L74.7064774,58.8871984 L74.7064774,63.0434887 L76.8172073,63.0434887 Z" id="Fill-34" fill="#000000" mask="url(#mask-2)"></path>
                <path d="M82.6606774,56.8800516 L83.9673197,56.8800516 L83.9673197,62.1030839 C84.3457139,61.334229 85.2597723,60.6595677 86.6148964,60.6595677 C88.3153051,60.6595677 89.5119766,61.5850194 89.5119766,63.9692935 L89.5119766,69.0039387 L88.2053343,69.0039387 L88.2053343,63.8751 C88.2053343,62.4327613 87.5904438,61.7887129 86.2672467,61.7887129 C85.0552029,61.7887129 83.9673197,62.5575677 83.9673197,64.0316968 L83.9673197,69.0039387 L82.6606774,69.0039387 L82.6606774,56.8800516 Z" id="Fill-35" fill="#000000" mask="url(#mask-2)"></path>
                <path d="M91.0195226,64.9731613 L91.0195226,64.8483548 C91.0195226,62.3851935 92.7364861,60.6602742 95.0683401,60.6602742 C97.3990117,60.6602742 99.1159752,62.3698871 99.1159752,64.831871 L99.1159752,64.9578548 C99.1159752,67.4351452 97.3990117,69.1447581 95.0517854,69.1447581 C92.7057416,69.1447581 91.0195226,67.3727419 91.0195226,64.9731613 L91.0195226,64.9731613 Z M97.7608511,64.9731613 L97.7608511,64.8636613 C97.7608511,62.9656613 96.7060774,61.7423226 95.0683401,61.7423226 C93.4140482,61.7423226 92.3746467,62.9656613 92.3746467,64.8483548 L92.3746467,64.9731613 C92.3746467,66.839371 93.3974934,68.0627097 95.0683401,68.0627097 C96.7214496,68.0627097 97.7608511,66.8240645 97.7608511,64.9731613 L97.7608511,64.9731613 Z M94.4853766,57.1315484 L95.6666759,57.1315484 L97.3517124,59.3898387 L96.3903547,59.3898387 L95.0517854,58.2135968 L93.7132161,59.3898387 L92.7837854,59.3898387 L94.4853766,57.1315484 Z" id="Fill-36" fill="#000000" mask="url(#mask-2)"></path>
                <path d="M100.717528,60.8012113 L102.025353,60.8012113 L102.025353,62.1022597 C102.403747,61.3345823 103.316623,60.659921 104.671747,60.659921 C106.372156,60.659921 107.568828,61.5853726 107.568828,63.9696468 L107.568828,69.0042919 L106.262185,69.0042919 L106.262185,63.8754532 C106.262185,62.4319371 105.647295,61.7890661 104.32528,61.7890661 C103.112054,61.7890661 102.025353,62.557921 102.025353,64.03205 L102.025353,69.0042919 L100.717528,69.0042919 L100.717528,60.8012113 Z" id="Fill-37" fill="#000000" mask="url(#mask-2)"></path>
                <path d="M109.106645,64.9889387 L109.106645,64.8629548 C109.106645,62.3856645 110.697083,60.6595677 112.966266,60.6595677 C114.871244,60.6595677 116.667434,61.8051968 116.667434,64.7381484 L116.667434,65.1608419 L110.461769,65.1608419 C110.524441,67.028229 111.421945,68.0631806 113.108164,68.0631806 C114.382879,68.0631806 115.123112,67.5922129 115.296937,66.6361484 L116.604762,66.6361484 C116.320966,68.2821806 114.95047,69.145229 113.091609,69.145229 C110.760937,69.145229 109.106645,67.5145032 109.106645,64.9889387 L109.106645,64.9889387 Z M115.328864,64.1105839 C115.202339,62.4162774 114.320207,61.7427935 112.966266,61.7427935 C111.626514,61.7427935 110.72901,62.6517613 110.509069,64.1105839 L115.328864,64.1105839 Z" id="Fill-38" fill="#000000" mask="url(#mask-2)"></path>
                <polygon id="Fill-39" fill="#000000" mask="url(#mask-2)" points="118.237533 65.3028387 121.608788 65.3028387 121.608788 64.0795 118.237533 64.0795"></polygon>
                <path d="M126.508638,57.7898435 L128.304828,57.7898435 L132.115966,69.0035855 L130.760842,69.0035855 L129.658769,65.7727468 L125.012799,65.7727468 L123.924915,69.0035855 L122.633645,69.0035855 L126.508638,57.7898435 Z M125.39001,64.6906984 L129.29693,64.6906984 L127.34347,58.9189887 L125.39001,64.6906984 Z" id="Fill-40" fill="#000000" mask="url(#mask-2)"></path>
                <polygon id="Fill-41" fill="#000000" mask="url(#mask-2)" points="133.503372 69.0046452 134.826569 69.0046452 134.826569 56.8807581 133.503372 56.8807581"></polygon>
                <path d="M136.923228,60.8012113 L138.231053,60.8012113 L138.231053,62.1811468 C138.702863,61.381679 139.821491,60.659921 141.018162,60.659921 C143.176191,60.659921 144.767812,62.2282435 144.767812,64.784421 L144.767812,64.9104048 C144.767812,67.4194855 143.287345,69.1444048 141.018162,69.1444048 C139.66422,69.1444048 138.702863,68.470921 138.231053,67.6549694 L138.231053,71.8583565 L136.923228,71.8583565 L136.923228,60.8012113 Z M143.412688,64.9728081 L143.412688,64.8480016 C143.412688,62.776921 142.263315,61.7419694 140.877447,61.7419694 C139.34968,61.7419694 138.183753,62.7463081 138.183753,64.8480016 L138.183753,64.9728081 C138.183753,67.0745016 139.285826,68.0623565 140.892819,68.0623565 C142.530556,68.0623565 143.412688,66.9650016 143.412688,64.9728081 L143.412688,64.9728081 Z" id="Fill-42" fill="#000000" mask="url(#mask-2)"></path>
                <path d="M145.865155,64.9889387 L145.865155,64.8629548 C145.865155,62.3856645 147.455593,60.6595677 149.724775,60.6595677 C151.629753,60.6595677 153.425943,61.8051968 153.425943,64.7381484 L153.425943,65.1608419 L147.220279,65.1608419 C147.28295,67.028229 148.180454,68.0631806 149.866673,68.0631806 C151.142571,68.0631806 151.882804,67.5922129 152.055447,66.6361484 L153.363272,66.6361484 C153.079476,68.2821806 151.70898,69.145229 149.850118,69.145229 C147.519447,69.145229 145.865155,67.5145032 145.865155,64.9889387 L145.865155,64.9889387 Z M152.087374,64.1105839 C151.960848,62.4162774 151.078717,61.7427935 149.724775,61.7427935 C148.385023,61.7427935 147.48752,62.6517613 147.267578,64.1105839 L152.087374,64.1105839 Z" id="Fill-43" fill="#000000" mask="url(#mask-2)"></path>
                <path d="M154.436965,66.4788452 L155.712863,66.4788452 C155.807461,67.4513935 156.326571,68.0624742 157.65095,68.0624742 C158.894921,68.0624742 159.445958,67.6397806 159.445958,66.7614258 C159.445958,65.8983774 158.800323,65.6157968 157.524425,65.3814903 C155.381768,64.9894097 154.658089,64.3924581 154.658089,62.9654258 C154.658089,61.4442 156.153928,60.6600387 157.445199,60.6600387 C158.925666,60.6600387 160.201564,61.2558129 160.422688,63.027829 L159.162162,63.027829 C158.972965,62.1341677 158.469228,61.7420871 157.429826,61.7420871 C156.485023,61.7420871 155.870133,62.2130548 155.870133,62.918329 C155.870133,63.6553935 156.280454,63.9532806 157.791666,64.2205548 C159.493257,64.5337484 160.689928,64.9105226 160.689928,66.6507484 C160.689928,68.1413613 159.665899,69.1445226 157.666323,69.1445226 C155.697491,69.1445226 154.516191,68.1566677 154.436965,66.4788452" id="Fill-44" fill="#000000" mask="url(#mask-2)"></path>
            </g>
            <g id="logo" transform="translate(111.000000, 0.000000)">
                <mask id="mask-4" fill="white">
                    <use xlink:href="#path-3"></use>
                </mask>
                <g id="Clip-2"></g>
                <polygon id="Fill-1" fill="#1D1D1B" mask="url(#mask-4)" points="-5 55.1934 55.409 55.1934 55.409 -4.9996 -5 -4.9996"></polygon>
            </g>
        </g>
    </g>
</svg>